STARTFONT 2.1
FONT -pixbar-dotgothic-large-medium-r-normal--16-*-*-*-p-*-iso10646-1
SIZE 16 75 75
FONTBOUNDINGBOX 12 16 0 0
STARTPROPERTIES 8
FOUNDRY "Pixbar"
FAMILY_NAME "DotGothic Large"
FONT_NAME "DotGothic Large"
COPYRIGHT "Copyright 2020 The DotGothic16 Project Authors; generated TC002 bitmap adaptation under SIL OFL 1.1"
PIXEL_SIZE 16
FONT_ASCENT 16
FONT_DESCENT 0
CHARSET_REGISTRY "ISO10646"
ENDPROPERTIES
CHARS 281
STARTCHAR SPACE
ENCODING 32
SWIDTH 500 0
DWIDTH 6 0
BBX 1 1 0 0
BITMAP
00
ENDCHAR
STARTCHAR EXCLAMATION_MARK
ENCODING 33
SWIDTH 500 0
DWIDTH 6 0
BBX 1 10 2 2
BITMAP
80
80
80
80
80
80
80
80
80
80
ENDCHAR
STARTCHAR QUOTATION_MARK
ENCODING 34
SWIDTH 500 0
DWIDTH 6 0
BBX 2 3 2 10
BITMAP
C0
C0
C0
ENDCHAR
STARTCHAR NUMBER_SIGN
ENCODING 35
SWIDTH 500 0
DWIDTH 7 0
BBX 6 10 0 2
BITMAP
28
28
28
7C
28
50
50
F8
50
50
ENDCHAR
STARTCHAR DOLLAR_SIGN
ENCODING 36
SWIDTH 500 0
DWIDTH 6 0
BBX 5 12 0 1
BITMAP
20
70
A8
A8
A0
70
28
28
A8
A8
F8
20
ENDCHAR
STARTCHAR PERCENT_SIGN
ENCODING 37
SWIDTH 500 0
DWIDTH 7 0
BBX 6 10 0 2
BITMAP
44
A8
A8
A8
F8
34
54
54
54
88
ENDCHAR
STARTCHAR AMPERSAND
ENCODING 38
SWIDTH 500 0
DWIDTH 7 0
BBX 6 10 0 2
BITMAP
30
48
48
78
20
60
94
9C
88
74
ENDCHAR
STARTCHAR APOSTROPHE
ENCODING 39
SWIDTH 500 0
DWIDTH 6 0
BBX 1 3 2 10
BITMAP
80
80
80
ENDCHAR
STARTCHAR LEFT_PARENTHESIS
ENCODING 40
SWIDTH 500 0
DWIDTH 7 0
BBX 3 12 3 1
BITMAP
20
40
40
40
80
80
80
80
40
40
40
20
ENDCHAR
STARTCHAR RIGHT_PARENTHESIS
ENCODING 41
SWIDTH 500 0
DWIDTH 6 0
BBX 3 12 0 1
BITMAP
80
40
40
40
20
20
20
20
40
40
40
80
ENDCHAR
STARTCHAR ASTERISK
ENCODING 42
SWIDTH 500 0
DWIDTH 7 0
BBX 6 5 0 7
BITMAP
94
78
30
58
94
ENDCHAR
STARTCHAR PLUS_SIGN
ENCODING 43
SWIDTH 500 0
DWIDTH 6 0
BBX 5 7 0 2
BITMAP
20
20
20
F8
20
20
20
ENDCHAR
STARTCHAR COMMA
ENCODING 44
SWIDTH 500 0
DWIDTH 6 0
BBX 2 3 1 1
BITMAP
C0
C0
80
ENDCHAR
STARTCHAR HYPHEN-MINUS
ENCODING 45
SWIDTH 500 0
DWIDTH 6 0
BBX 4 1 1 5
BITMAP
F0
ENDCHAR
STARTCHAR FULL_STOP
ENCODING 46
SWIDTH 500 0
DWIDTH 6 0
BBX 2 2 1 2
BITMAP
C0
C0
ENDCHAR
STARTCHAR SOLIDUS
ENCODING 47
SWIDTH 500 0
DWIDTH 6 0
BBX 5 11 0 2
BITMAP
08
08
08
18
30
20
40
40
40
C0
80
ENDCHAR
STARTCHAR DIGIT_ZERO
ENCODING 48
SWIDTH 500 0
DWIDTH 6 0
BBX 5 10 0 2
BITMAP
70
58
88
88
88
88
88
88
50
70
ENDCHAR
STARTCHAR DIGIT_ONE
ENCODING 49
SWIDTH 500 0
DWIDTH 6 0
BBX 2 10 2 2
BITMAP
C0
40
40
40
40
40
40
40
40
40
ENDCHAR
STARTCHAR DIGIT_TWO
ENCODING 50
SWIDTH 500 0
DWIDTH 6 0
BBX 5 10 0 2
BITMAP
70
D8
88
98
10
60
40
80
80
F8
ENDCHAR
STARTCHAR DIGIT_THREE
ENCODING 51
SWIDTH 500 0
DWIDTH 6 0
BBX 5 10 0 2
BITMAP
70
D8
88
18
70
10
08
88
D8
70
ENDCHAR
STARTCHAR DIGIT_FOUR
ENCODING 52
SWIDTH 500 0
DWIDTH 7 0
BBX 6 10 0 2
BITMAP
08
08
38
28
28
48
48
FC
08
08
ENDCHAR
STARTCHAR DIGIT_FIVE
ENCODING 53
SWIDTH 500 0
DWIDTH 6 0
BBX 5 10 0 2
BITMAP
F0
80
80
F0
D0
88
08
88
50
70
ENDCHAR
STARTCHAR DIGIT_SIX
ENCODING 54
SWIDTH 500 0
DWIDTH 6 0
BBX 5 10 0 2
BITMAP
70
D8
88
F0
D0
88
88
88
50
70
ENDCHAR
STARTCHAR DIGIT_SEVEN
ENCODING 55
SWIDTH 500 0
DWIDTH 7 0
BBX 6 10 0 2
BITMAP
FC
0C
08
10
10
10
10
30
20
20
ENDCHAR
STARTCHAR DIGIT_EIGHT
ENCODING 56
SWIDTH 500 0
DWIDTH 6 0
BBX 5 10 0 2
BITMAP
70
D8
88
D8
70
50
88
88
D8
70
ENDCHAR
STARTCHAR DIGIT_NINE
ENCODING 57
SWIDTH 500 0
DWIDTH 6 0
BBX 5 10 0 2
BITMAP
70
D8
88
88
88
58
78
88
50
70
ENDCHAR
STARTCHAR COLON
ENCODING 58
SWIDTH 500 0
DWIDTH 6 0
BBX 2 7 2 2
BITMAP
C0
C0
00
00
00
C0
C0
ENDCHAR
STARTCHAR SEMICOLON
ENCODING 59
SWIDTH 500 0
DWIDTH 6 0
BBX 2 8 2 1
BITMAP
C0
C0
00
00
00
C0
C0
80
ENDCHAR
STARTCHAR LESS-THAN_SIGN
ENCODING 60
SWIDTH 500 0
DWIDTH 7 0
BBX 6 7 0 2
BITMAP
1C
30
60
80
70
18
04
ENDCHAR
STARTCHAR EQUALS_SIGN
ENCODING 61
SWIDTH 500 0
DWIDTH 6 0
BBX 4 4 1 3
BITMAP
F0
00
00
F0
ENDCHAR
STARTCHAR GREATER-THAN_SIGN
ENCODING 62
SWIDTH 500 0
DWIDTH 7 0
BBX 6 7 0 2
BITMAP
E0
30
18
04
38
60
80
ENDCHAR
STARTCHAR QUESTION_MARK
ENCODING 63
SWIDTH 500 0
DWIDTH 7 0
BBX 6 10 0 2
BITMAP
78
CC
84
0C
18
20
20
20
30
30
ENDCHAR
STARTCHAR COMMERCIAL_AT
ENCODING 64
SWIDTH 500 0
DWIDTH 7 0
BBX 6 10 0 2
BITMAP
38
44
74
CC
CC
CC
CC
B0
40
78
ENDCHAR
STARTCHAR LATIN_CAPITAL_LETTER_A
ENCODING 65
SWIDTH 500 0
DWIDTH 6 0
BBX 5 10 0 2
BITMAP
20
20
30
30
30
48
48
F8
88
88
ENDCHAR
STARTCHAR LATIN_CAPITAL_LETTER_B
ENCODING 66
SWIDTH 500 0
DWIDTH 6 0
BBX 5 10 0 2
BITMAP
F0
98
88
98
F0
90
88
88
98
F0
ENDCHAR
STARTCHAR LATIN_CAPITAL_LETTER_C
ENCODING 67
SWIDTH 500 0
DWIDTH 6 0
BBX 5 10 0 2
BITMAP
70
D8
88
80
80
80
88
88
D8
70
ENDCHAR
STARTCHAR LATIN_CAPITAL_LETTER_D
ENCODING 68
SWIDTH 500 0
DWIDTH 6 0
BBX 5 10 0 2
BITMAP
F0
98
88
88
88
88
88
88
90
F0
ENDCHAR
STARTCHAR LATIN_CAPITAL_LETTER_E
ENCODING 69
SWIDTH 500 0
DWIDTH 6 0
BBX 5 10 0 2
BITMAP
F8
80
80
80
F8
80
80
80
80
F8
ENDCHAR
STARTCHAR LATIN_CAPITAL_LETTER_F
ENCODING 70
SWIDTH 500 0
DWIDTH 6 0
BBX 5 10 0 2
BITMAP
F8
80
80
80
F8
80
80
80
80
80
ENDCHAR
STARTCHAR LATIN_CAPITAL_LETTER_G
ENCODING 71
SWIDTH 500 0
DWIDTH 6 0
BBX 5 10 0 2
BITMAP
70
D8
88
80
B8
88
88
88
50
70
ENDCHAR
STARTCHAR LATIN_CAPITAL_LETTER_H
ENCODING 72
SWIDTH 500 0
DWIDTH 6 0
BBX 5 10 0 2
BITMAP
88
88
88
88
F8
88
88
88
88
88
ENDCHAR
STARTCHAR LATIN_CAPITAL_LETTER_I
ENCODING 73
SWIDTH 500 0
DWIDTH 6 0
BBX 1 10 2 2
BITMAP
80
80
80
80
80
80
80
80
80
80
ENDCHAR
STARTCHAR LATIN_CAPITAL_LETTER_J
ENCODING 74
SWIDTH 500 0
DWIDTH 6 0
BBX 5 10 0 2
BITMAP
08
08
08
08
08
08
88
88
D8
70
ENDCHAR
STARTCHAR LATIN_CAPITAL_LETTER_K
ENCODING 75
SWIDTH 500 0
DWIDTH 6 0
BBX 5 10 0 2
BITMAP
88
98
A0
E0
C0
E0
A0
90
98
88
ENDCHAR
STARTCHAR LATIN_CAPITAL_LETTER_L
ENCODING 76
SWIDTH 500 0
DWIDTH 6 0
BBX 5 10 0 2
BITMAP
80
80
80
80
80
80
80
80
80
F8
ENDCHAR
STARTCHAR LATIN_CAPITAL_LETTER_M
ENCODING 77
SWIDTH 500 0
DWIDTH 7 0
BBX 6 10 0 2
BITMAP
8C
C4
C4
C4
AC
AC
BC
AC
AC
8C
ENDCHAR
STARTCHAR LATIN_CAPITAL_LETTER_N
ENCODING 78
SWIDTH 500 0
DWIDTH 7 0
BBX 6 10 0 2
BITMAP
8C
CC
CC
AC
AC
AC
8C
8C
84
8C
ENDCHAR
STARTCHAR LATIN_CAPITAL_LETTER_O
ENCODING 79
SWIDTH 500 0
DWIDTH 6 0
BBX 5 10 0 2
BITMAP
70
58
88
88
88
88
88
88
50
70
ENDCHAR
STARTCHAR LATIN_CAPITAL_LETTER_P
ENCODING 80
SWIDTH 500 0
DWIDTH 6 0
BBX 5 10 0 2
BITMAP
F0
98
88
88
90
F0
80
80
80
80
ENDCHAR
STARTCHAR LATIN_CAPITAL_LETTER_Q
ENCODING 81
SWIDTH 500 0
DWIDTH 6 0
BBX 5 11 0 1
BITMAP
70
58
88
88
88
88
88
A8
F8
70
18
ENDCHAR
STARTCHAR LATIN_CAPITAL_LETTER_R
ENCODING 82
SWIDTH 500 0
DWIDTH 6 0
BBX 5 10 0 2
BITMAP
F0
88
88
88
F0
88
88
88
88
88
ENDCHAR
STARTCHAR LATIN_CAPITAL_LETTER_S
ENCODING 83
SWIDTH 500 0
DWIDTH 6 0
BBX 5 10 0 2
BITMAP
70
D8
88
C0
70
10
08
88
D8
70
ENDCHAR
STARTCHAR LATIN_CAPITAL_LETTER_T
ENCODING 84
SWIDTH 500 0
DWIDTH 6 0
BBX 5 9 0 2
BITMAP
F8
20
20
20
20
20
20
20
20
ENDCHAR
STARTCHAR LATIN_CAPITAL_LETTER_U
ENCODING 85
SWIDTH 500 0
DWIDTH 6 0
BBX 5 10 0 2
BITMAP
88
88
88
88
88
88
88
88
50
70
ENDCHAR
STARTCHAR LATIN_CAPITAL_LETTER_V
ENCODING 86
SWIDTH 500 0
DWIDTH 6 0
BBX 5 10 0 2
BITMAP
88
88
88
48
48
48
30
30
30
20
ENDCHAR
STARTCHAR LATIN_CAPITAL_LETTER_W
ENCODING 87
SWIDTH 500 0
DWIDTH 6 0
BBX 5 10 0 2
BITMAP
88
A8
A8
A8
B8
B8
B8
48
48
48
ENDCHAR
STARTCHAR LATIN_CAPITAL_LETTER_X
ENCODING 88
SWIDTH 500 0
DWIDTH 6 0
BBX 5 10 0 2
BITMAP
88
C8
48
30
30
30
30
48
C8
88
ENDCHAR
STARTCHAR LATIN_CAPITAL_LETTER_Y
ENCODING 89
SWIDTH 500 0
DWIDTH 6 0
BBX 5 10 0 2
BITMAP
88
88
C8
78
30
20
20
20
20
20
ENDCHAR
STARTCHAR LATIN_CAPITAL_LETTER_Z
ENCODING 90
SWIDTH 500 0
DWIDTH 7 0
BBX 6 10 0 2
BITMAP
FC
08
10
30
20
20
20
40
40
FC
ENDCHAR
STARTCHAR LEFT_SQUARE_BRACKET
ENCODING 91
SWIDTH 500 0
DWIDTH 7 0
BBX 3 12 3 1
BITMAP
E0
80
80
80
80
80
80
80
80
80
80
E0
ENDCHAR
STARTCHAR REVERSE_SOLIDUS
ENCODING 92
SWIDTH 500 0
DWIDTH 6 0
BBX 4 10 1 2
BITMAP
80
C0
40
60
20
20
20
20
30
10
ENDCHAR
STARTCHAR RIGHT_SQUARE_BRACKET
ENCODING 93
SWIDTH 500 0
DWIDTH 6 0
BBX 3 12 0 1
BITMAP
E0
20
20
20
20
20
20
20
20
20
20
E0
ENDCHAR
STARTCHAR CIRCUMFLEX_ACCENT
ENCODING 94
SWIDTH 500 0
DWIDTH 7 0
BBX 5 5 1 7
BITMAP
60
60
50
D8
88
ENDCHAR
STARTCHAR LOW_LINE
ENCODING 95
SWIDTH 500 0
DWIDTH 7 0
BBX 6 1 0 0
BITMAP
FC
ENDCHAR
STARTCHAR GRAVE_ACCENT
ENCODING 96
SWIDTH 500 0
DWIDTH 5 0
BBX 2 3 1 10
BITMAP
C0
C0
40
ENDCHAR
STARTCHAR LATIN_SMALL_LETTER_A
ENCODING 97
SWIDTH 500 0
DWIDTH 7 0
BBX 6 7 0 2
BITMAP
F8
88
08
F8
88
98
74
ENDCHAR
STARTCHAR LATIN_SMALL_LETTER_B
ENCODING 98
SWIDTH 500 0
DWIDTH 6 0
BBX 5 9 0 2
BITMAP
80
80
F0
88
88
88
88
D0
F0
ENDCHAR
STARTCHAR LATIN_SMALL_LETTER_C
ENCODING 99
SWIDTH 500 0
DWIDTH 6 0
BBX 5 7 0 2
BITMAP
78
88
80
80
88
48
70
ENDCHAR
STARTCHAR LATIN_SMALL_LETTER_D
ENCODING 100
SWIDTH 500 0
DWIDTH 6 0
BBX 5 9 0 2
BITMAP
08
08
78
88
88
88
88
58
78
ENDCHAR
STARTCHAR LATIN_SMALL_LETTER_E
ENCODING 101
SWIDTH 500 0
DWIDTH 6 0
BBX 5 7 0 2
BITMAP
70
88
88
F8
88
50
70
ENDCHAR
STARTCHAR LATIN_SMALL_LETTER_F
ENCODING 102
SWIDTH 500 0
DWIDTH 6 0
BBX 5 10 0 2
BITMAP
18
20
20
F8
20
20
20
20
20
20
ENDCHAR
STARTCHAR LATIN_SMALL_LETTER_G
ENCODING 103
SWIDTH 500 0
DWIDTH 6 0
BBX 5 8 0 1
BITMAP
F8
88
88
70
80
F8
88
78
ENDCHAR
STARTCHAR LATIN_SMALL_LETTER_H
ENCODING 104
SWIDTH 500 0
DWIDTH 6 0
BBX 5 9 0 2
BITMAP
80
80
F0
88
88
88
88
88
88
ENDCHAR
STARTCHAR LATIN_SMALL_LETTER_I
ENCODING 105
SWIDTH 500 0
DWIDTH 6 0
BBX 1 10 2 2
BITMAP
80
80
00
80
80
80
80
80
80
80
ENDCHAR
STARTCHAR LATIN_SMALL_LETTER_J
ENCODING 106
SWIDTH 500 0
DWIDTH 6 0
BBX 2 11 2 1
BITMAP
40
40
00
40
40
40
40
40
40
40
80
ENDCHAR
STARTCHAR LATIN_SMALL_LETTER_K
ENCODING 107
SWIDTH 500 0
DWIDTH 6 0
BBX 5 9 0 2
BITMAP
80
80
88
B0
E0
C0
F0
88
88
ENDCHAR
STARTCHAR LATIN_SMALL_LETTER_L
ENCODING 108
SWIDTH 500 0
DWIDTH 6 0
BBX 1 9 2 2
BITMAP
80
80
80
80
80
80
80
80
80
ENDCHAR
STARTCHAR LATIN_SMALL_LETTER_M
ENCODING 109
SWIDTH 500 0
DWIDTH 6 0
BBX 5 7 0 2
BITMAP
F8
A8
A8
A8
A8
A8
A8
ENDCHAR
STARTCHAR LATIN_SMALL_LETTER_N
ENCODING 110
SWIDTH 500 0
DWIDTH 6 0
BBX 5 7 0 2
BITMAP
F0
88
88
88
88
88
88
ENDCHAR
STARTCHAR LATIN_SMALL_LETTER_O
ENCODING 111
SWIDTH 500 0
DWIDTH 6 0
BBX 5 7 0 2
BITMAP
70
88
88
88
88
50
70
ENDCHAR
STARTCHAR LATIN_SMALL_LETTER_P
ENCODING 112
SWIDTH 500 0
DWIDTH 6 0
BBX 5 8 0 1
BITMAP
F0
D0
88
88
88
F0
80
80
ENDCHAR
STARTCHAR LATIN_SMALL_LETTER_Q
ENCODING 113
SWIDTH 500 0
DWIDTH 6 0
BBX 5 8 0 1
BITMAP
78
58
88
88
88
78
08
08
ENDCHAR
STARTCHAR LATIN_SMALL_LETTER_R
ENCODING 114
SWIDTH 500 0
DWIDTH 6 0
BBX 4 7 1 2
BITMAP
F0
80
80
80
80
80
80
ENDCHAR
STARTCHAR LATIN_SMALL_LETTER_S
ENCODING 115
SWIDTH 500 0
DWIDTH 6 0
BBX 5 7 0 2
BITMAP
F8
88
80
78
88
88
70
ENDCHAR
STARTCHAR LATIN_SMALL_LETTER_T
ENCODING 116
SWIDTH 500 0
DWIDTH 6 0
BBX 5 9 0 2
BITMAP
20
20
F8
20
20
20
20
20
18
ENDCHAR
STARTCHAR LATIN_SMALL_LETTER_U
ENCODING 117
SWIDTH 500 0
DWIDTH 6 0
BBX 5 7 0 2
BITMAP
88
88
88
88
88
58
78
ENDCHAR
STARTCHAR LATIN_SMALL_LETTER_V
ENCODING 118
SWIDTH 500 0
DWIDTH 6 0
BBX 5 7 0 2
BITMAP
88
88
C8
48
30
30
20
ENDCHAR
STARTCHAR LATIN_SMALL_LETTER_W
ENCODING 119
SWIDTH 500 0
DWIDTH 6 0
BBX 5 7 0 2
BITMAP
A8
A8
B8
B8
F8
48
48
ENDCHAR
STARTCHAR LATIN_SMALL_LETTER_X
ENCODING 120
SWIDTH 500 0
DWIDTH 7 0
BBX 6 7 0 2
BITMAP
CC
48
30
30
78
48
84
ENDCHAR
STARTCHAR LATIN_SMALL_LETTER_Y
ENCODING 121
SWIDTH 500 0
DWIDTH 6 0
BBX 5 8 0 1
BITMAP
88
C8
48
48
30
30
20
E0
ENDCHAR
STARTCHAR LATIN_SMALL_LETTER_Z
ENCODING 122
SWIDTH 500 0
DWIDTH 8 0
BBX 6 7 1 2
BITMAP
FC
08
10
20
60
80
FC
ENDCHAR
STARTCHAR LEFT_CURLY_BRACKET
ENCODING 123
SWIDTH 500 0
DWIDTH 7 0
BBX 4 12 2 1
BITMAP
30
40
40
40
40
C0
40
40
40
40
40
30
ENDCHAR
STARTCHAR VERTICAL_LINE
ENCODING 124
SWIDTH 500 0
DWIDTH 6 0
BBX 1 11 2 1
BITMAP
80
80
80
80
80
80
80
80
80
80
80
ENDCHAR
STARTCHAR RIGHT_CURLY_BRACKET
ENCODING 125
SWIDTH 500 0
DWIDTH 6 0
BBX 4 12 0 1
BITMAP
C0
20
20
20
20
30
20
20
20
20
20
C0
ENDCHAR
STARTCHAR TILDE
ENCODING 126
SWIDTH 500 0
DWIDTH 6 0
BBX 4 2 1 5
BITMAP
D0
B0
ENDCHAR
STARTCHAR NO-BREAK_SPACE
ENCODING 160
SWIDTH 500 0
DWIDTH 6 0
BBX 1 1 0 0
BITMAP
00
ENDCHAR
STARTCHAR INVERTED_EXCLAMATION_MARK
ENCODING 161
SWIDTH 500 0
DWIDTH 6 0
BBX 1 10 2 1
BITMAP
80
80
00
80
80
80
80
80
80
80
ENDCHAR
STARTCHAR CENT_SIGN
ENCODING 162
SWIDTH 500 0
DWIDTH 6 0
BBX 5 9 0 2
BITMAP
78
48
98
B8
A0
A8
C8
70
80
ENDCHAR
STARTCHAR POUND_SIGN
ENCODING 163
SWIDTH 500 0
DWIDTH 7 0
BBX 6 10 0 2
BITMAP
18
6C
40
40
F8
20
24
24
44
F8
ENDCHAR
STARTCHAR CURRENCY_SIGN
ENCODING 164
SWIDTH 500 0
DWIDTH 7 0
BBX 6 7 0 2
BITMAP
FC
48
84
84
84
48
FC
ENDCHAR
STARTCHAR YEN_SIGN
ENCODING 165
SWIDTH 500 0
DWIDTH 6 0
BBX 5 10 0 2
BITMAP
88
C8
48
30
F8
20
20
F8
20
20
ENDCHAR
STARTCHAR BROKEN_BAR
ENCODING 166
SWIDTH 500 0
DWIDTH 6 0
BBX 1 11 2 1
BITMAP
80
80
80
80
00
00
00
80
80
80
80
ENDCHAR
STARTCHAR SECTION_SIGN
ENCODING 167
SWIDTH 500 0
DWIDTH 7 0
BBX 6 12 0 1
BITMAP
70
88
88
F0
8C
84
C4
78
0C
84
CC
70
ENDCHAR
STARTCHAR DIAERESIS
ENCODING 168
SWIDTH 500 0
DWIDTH 7 0
BBX 5 2 1 10
BITMAP
D8
D8
ENDCHAR
STARTCHAR COPYRIGHT_SIGN
ENCODING 169
SWIDTH 500 0
DWIDTH 7 0
BBX 6 7 0 2
BITMAP
70
08
B4
C4
F4
08
78
ENDCHAR
STARTCHAR FEMININE_ORDINAL_INDICATOR
ENCODING 170
SWIDTH 500 0
DWIDTH 6 0
BBX 4 4 1 7
BITMAP
40
E0
A0
50
ENDCHAR
STARTCHAR LEFT-POINTING_DOUBLE_ANGLE_QUOTATION_MARK
ENCODING 171
SWIDTH 500 0
DWIDTH 7 0
BBX 6 7 0 2
BITMAP
3C
48
50
A0
78
28
14
ENDCHAR
STARTCHAR NOT_SIGN
ENCODING 172
SWIDTH 500 0
DWIDTH 7 0
BBX 5 4 1 3
BITMAP
F8
08
08
08
ENDCHAR
STARTCHAR SOFT_HYPHEN
ENCODING 173
SWIDTH 500 0
DWIDTH 7 0
BBX 6 1 0 5
BITMAP
FC
ENDCHAR
STARTCHAR REGISTERED_SIGN
ENCODING 174
SWIDTH 500 0
DWIDTH 7 0
BBX 6 7 0 2
BITMAP
78
48
F4
CC
FC
48
78
ENDCHAR
STARTCHAR MACRON
ENCODING 175
SWIDTH 500 0
DWIDTH 6 0
BBX 4 1 1 10
BITMAP
F0
ENDCHAR
STARTCHAR DEGREE_SIGN
ENCODING 176
SWIDTH 500 0
DWIDTH 4 0
BBX 3 3 0 10
BITMAP
E0
A0
E0
ENDCHAR
STARTCHAR PLUS-MINUS_SIGN
ENCODING 177
SWIDTH 500 0
DWIDTH 6 0
BBX 5 7 0 2
BITMAP
20
20
F8
20
20
00
F8
ENDCHAR
STARTCHAR SUPERSCRIPT_TWO
ENCODING 178
SWIDTH 500 0
DWIDTH 4 0
BBX 3 5 0 10
BITMAP
E0
20
40
80
E0
ENDCHAR
STARTCHAR SUPERSCRIPT_THREE
ENCODING 179
SWIDTH 500 0
DWIDTH 4 0
BBX 3 5 0 10
BITMAP
E0
20
60
20
E0
ENDCHAR
STARTCHAR ACUTE_ACCENT
ENCODING 180
SWIDTH 500 0
DWIDTH 6 0
BBX 3 3 2 10
BITMAP
60
40
80
ENDCHAR
STARTCHAR MICRO_SIGN
ENCODING 181
SWIDTH 500 0
DWIDTH 6 0
BBX 5 8 0 1
BITMAP
88
88
88
88
98
68
80
80
ENDCHAR
STARTCHAR PILCROW_SIGN
ENCODING 182
SWIDTH 500 0
DWIDTH 6 0
BBX 5 11 0 1
BITMAP
78
E8
E8
E8
68
28
28
28
28
28
28
ENDCHAR
STARTCHAR MIDDLE_DOT
ENCODING 183
SWIDTH 500 0
DWIDTH 6 0
BBX 2 2 2 5
BITMAP
C0
C0
ENDCHAR
STARTCHAR CEDILLA
ENCODING 184
SWIDTH 500 0
DWIDTH 6 0
BBX 3 4 1 0
BITMAP
C0
C0
20
C0
ENDCHAR
STARTCHAR SUPERSCRIPT_ONE
ENCODING 185
SWIDTH 500 0
DWIDTH 6 0
BBX 2 5 2 6
BITMAP
C0
40
40
40
40
ENDCHAR
STARTCHAR MASCULINE_ORDINAL_INDICATOR
ENCODING 186
SWIDTH 500 0
DWIDTH 5 0
BBX 3 4 1 7
BITMAP
E0
A0
A0
40
ENDCHAR
STARTCHAR RIGHT-POINTING_DOUBLE_ANGLE_QUOTATION_MARK
ENCODING 187
SWIDTH 500 0
DWIDTH 7 0
BBX 6 7 0 2
BITMAP
F0
48
28
14
78
50
A0
ENDCHAR
STARTCHAR VULGAR_FRACTION_ONE_QUARTER
ENCODING 188
SWIDTH 500 0
DWIDTH 6 0
BBX 5 11 0 2
BITMAP
E0
20
28
38
20
20
00
20
60
58
80
ENDCHAR
STARTCHAR VULGAR_FRACTION_ONE_HALF
ENCODING 189
SWIDTH 500 0
DWIDTH 7 0
BBX 6 11 0 2
BITMAP
E4
24
28
28
30
3C
04
24
7C
40
9C
ENDCHAR
STARTCHAR VULGAR_FRACTION_THREE_QUARTERS
ENCODING 190
SWIDTH 500 0
DWIDTH 6 0
BBX 5 11 0 2
BITMAP
60
A0
28
78
A0
60
20
20
60
78
80
ENDCHAR
STARTCHAR INVERTED_QUESTION_MARK
ENCODING 191
SWIDTH 500 0
DWIDTH 7 0
BBX 5 11 1 1
BITMAP
60
60
00
20
20
20
40
88
88
88
70
ENDCHAR
STARTCHAR LATIN_CAPITAL_LETTER_A_WITH_GRAVE
ENCODING 192
SWIDTH 500 0
DWIDTH 6 0
BBX 5 11 0 2
BITMAP
20
20
30
20
30
30
30
48
F8
88
88
ENDCHAR
STARTCHAR LATIN_CAPITAL_LETTER_A_WITH_ACUTE
ENCODING 193
SWIDTH 500 0
DWIDTH 6 0
BBX 5 11 0 2
BITMAP
30
20
20
20
30
30
30
48
F8
88
88
ENDCHAR
STARTCHAR LATIN_CAPITAL_LETTER_A_WITH_CIRCUMFLEX
ENCODING 194
SWIDTH 500 0
DWIDTH 6 0
BBX 5 11 0 2
BITMAP
20
30
68
20
30
30
30
48
F8
88
88
ENDCHAR
STARTCHAR LATIN_CAPITAL_LETTER_A_WITH_TILDE
ENCODING 195
SWIDTH 500 0
DWIDTH 6 0
BBX 5 12 0 2
BITMAP
28
58
00
20
20
30
30
30
48
F8
88
88
ENDCHAR
STARTCHAR LATIN_CAPITAL_LETTER_A_WITH_DIAERESIS
ENCODING 196
SWIDTH 500 0
DWIDTH 6 0
BBX 5 12 0 2
BITMAP
68
68
00
20
20
30
30
30
48
F8
88
88
ENDCHAR
STARTCHAR LATIN_CAPITAL_LETTER_A_WITH_RING_ABOVE
ENCODING 197
SWIDTH 500 0
DWIDTH 6 0
BBX 5 11 0 2
BITMAP
10
28
38
00
30
30
30
48
F8
88
88
ENDCHAR
STARTCHAR LATIN_CAPITAL_LETTER_AE
ENCODING 198
SWIDTH 500 0
DWIDTH 7 0
BBX 6 10 0 2
BITMAP
3C
30
50
50
5C
50
70
90
90
9C
ENDCHAR
STARTCHAR LATIN_CAPITAL_LETTER_C_WITH_CEDILLA
ENCODING 199
SWIDTH 500 0
DWIDTH 6 0
BBX 5 11 0 1
BITMAP
70
D8
88
80
88
88
88
50
70
30
70
ENDCHAR
STARTCHAR LATIN_CAPITAL_LETTER_E_WITH_GRAVE
ENCODING 200
SWIDTH 500 0
DWIDTH 7 0
BBX 6 11 0 2
BITMAP
60
20
FC
80
80
80
F8
80
80
80
FC
ENDCHAR
STARTCHAR LATIN_CAPITAL_LETTER_E_WITH_ACUTE
ENCODING 201
SWIDTH 500 0
DWIDTH 7 0
BBX 6 11 0 2
BITMAP
18
10
FC
80
80
80
F8
80
80
80
FC
ENDCHAR
STARTCHAR LATIN_CAPITAL_LETTER_E_WITH_CIRCUMFLEX
ENCODING 202
SWIDTH 500 0
DWIDTH 7 0
BBX 6 11 0 2
BITMAP
30
48
FC
80
80
80
F8
80
80
80
FC
ENDCHAR
STARTCHAR LATIN_CAPITAL_LETTER_E_WITH_DIAERESIS
ENCODING 203
SWIDTH 500 0
DWIDTH 7 0
BBX 6 12 0 2
BITMAP
78
78
00
FC
80
80
80
F8
80
80
80
FC
ENDCHAR
STARTCHAR LATIN_CAPITAL_LETTER_I_WITH_GRAVE
ENCODING 204
SWIDTH 500 0
DWIDTH 6 0
BBX 3 11 1 2
BITMAP
C0
40
20
40
40
40
40
40
40
40
40
ENDCHAR
STARTCHAR LATIN_CAPITAL_LETTER_I_WITH_ACUTE
ENCODING 205
SWIDTH 500 0
DWIDTH 6 0
BBX 3 11 1 2
BITMAP
60
40
80
40
40
40
40
40
40
40
40
ENDCHAR
STARTCHAR LATIN_CAPITAL_LETTER_I_WITH_CIRCUMFLEX
ENCODING 206
SWIDTH 500 0
DWIDTH 6 0
BBX 5 11 0 2
BITMAP
20
50
D8
20
20
20
20
20
20
20
20
ENDCHAR
STARTCHAR LATIN_CAPITAL_LETTER_I_WITH_DIAERESIS
ENCODING 207
SWIDTH 500 0
DWIDTH 6 0
BBX 2 11 2 2
BITMAP
C0
C0
40
40
40
40
40
40
40
40
40
ENDCHAR
STARTCHAR LATIN_CAPITAL_LETTER_ETH
ENCODING 208
SWIDTH 500 0
DWIDTH 7 0
BBX 6 10 0 2
BITMAP
78
4C
44
44
E4
44
44
44
48
78
ENDCHAR
STARTCHAR LATIN_CAPITAL_LETTER_N_WITH_TILDE
ENCODING 209
SWIDTH 500 0
DWIDTH 6 0
BBX 5 12 0 2
BITMAP
60
B0
00
88
C8
E8
A8
88
98
98
88
88
ENDCHAR
STARTCHAR LATIN_CAPITAL_LETTER_O_WITH_GRAVE
ENCODING 210
SWIDTH 500 0
DWIDTH 6 0
BBX 5 11 0 2
BITMAP
40
40
70
50
88
88
88
88
88
50
70
ENDCHAR
STARTCHAR LATIN_CAPITAL_LETTER_O_WITH_ACUTE
ENCODING 211
SWIDTH 500 0
DWIDTH 6 0
BBX 5 11 0 2
BITMAP
30
20
70
50
88
88
88
88
88
50
70
ENDCHAR
STARTCHAR LATIN_CAPITAL_LETTER_O_WITH_CIRCUMFLEX
ENCODING 212
SWIDTH 500 0
DWIDTH 6 0
BBX 5 11 0 2
BITMAP
60
50
F0
50
88
88
88
88
88
50
70
ENDCHAR
STARTCHAR LATIN_CAPITAL_LETTER_O_WITH_TILDE
ENCODING 213
SWIDTH 500 0
DWIDTH 6 0
BBX 5 12 0 2
BITMAP
50
B0
00
70
50
88
88
88
88
88
50
70
ENDCHAR
STARTCHAR LATIN_CAPITAL_LETTER_O_WITH_DIAERESIS
ENCODING 214
SWIDTH 500 0
DWIDTH 6 0
BBX 5 12 0 2
BITMAP
D8
D8
00
30
58
88
88
88
88
88
58
30
ENDCHAR
STARTCHAR MULTIPLICATION_SIGN
ENCODING 215
SWIDTH 500 0
DWIDTH 7 0
BBX 6 7 0 2
BITMAP
CC
48
30
30
78
C8
84
ENDCHAR
STARTCHAR LATIN_CAPITAL_LETTER_O_WITH_STROKE
ENCODING 216
SWIDTH 500 0
DWIDTH 7 0
BBX 6 12 0 1
BITMAP
04
7C
04
8C
8C
94
B4
A4
C4
C4
F8
80
ENDCHAR
STARTCHAR LATIN_CAPITAL_LETTER_U_WITH_GRAVE
ENCODING 217
SWIDTH 500 0
DWIDTH 6 0
BBX 5 11 0 2
BITMAP
60
20
10
88
88
88
88
88
88
50
70
ENDCHAR
STARTCHAR LATIN_CAPITAL_LETTER_U_WITH_ACUTE
ENCODING 218
SWIDTH 500 0
DWIDTH 6 0
BBX 5 11 0 2
BITMAP
30
20
40
88
88
88
88
88
88
50
70
ENDCHAR
STARTCHAR LATIN_CAPITAL_LETTER_U_WITH_CIRCUMFLEX
ENCODING 219
SWIDTH 500 0
DWIDTH 6 0
BBX 5 11 0 2
BITMAP
60
00
88
88
88
88
88
88
88
50
70
ENDCHAR
STARTCHAR LATIN_CAPITAL_LETTER_U_WITH_DIAERESIS
ENCODING 220
SWIDTH 500 0
DWIDTH 6 0
BBX 5 12 0 2
BITMAP
10
D8
D0
88
88
88
88
88
88
88
58
30
ENDCHAR
STARTCHAR LATIN_CAPITAL_LETTER_Y_WITH_ACUTE
ENCODING 221
SWIDTH 500 0
DWIDTH 6 0
BBX 5 11 0 2
BITMAP
30
20
A8
88
48
78
30
20
20
20
20
ENDCHAR
STARTCHAR LATIN_CAPITAL_LETTER_THORN
ENCODING 222
SWIDTH 500 0
DWIDTH 6 0
BBX 5 10 0 2
BITMAP
80
F0
90
88
88
88
88
F0
80
80
ENDCHAR
STARTCHAR LATIN_SMALL_LETTER_SHARP_S
ENCODING 223
SWIDTH 500 0
DWIDTH 6 0
BBX 5 10 0 2
BITMAP
70
D8
88
98
B0
90
88
88
D8
B0
ENDCHAR
STARTCHAR LATIN_SMALL_LETTER_A_WITH_GRAVE
ENCODING 224
SWIDTH 500 0
DWIDTH 7 0
BBX 6 11 0 2
BITMAP
60
20
30
00
F8
88
08
F8
88
98
74
ENDCHAR
STARTCHAR LATIN_SMALL_LETTER_A_WITH_ACUTE
ENCODING 225
SWIDTH 500 0
DWIDTH 7 0
BBX 6 11 0 2
BITMAP
30
20
20
00
F8
88
08
F8
88
98
74
ENDCHAR
STARTCHAR LATIN_SMALL_LETTER_A_WITH_CIRCUMFLEX
ENCODING 226
SWIDTH 500 0
DWIDTH 7 0
BBX 6 11 0 2
BITMAP
30
50
88
00
F8
88
08
F8
88
98
74
ENDCHAR
STARTCHAR LATIN_SMALL_LETTER_A_WITH_TILDE
ENCODING 227
SWIDTH 500 0
DWIDTH 7 0
BBX 6 10 0 2
BITMAP
68
B0
00
F8
88
08
F8
88
98
74
ENDCHAR
STARTCHAR LATIN_SMALL_LETTER_A_WITH_DIAERESIS
ENCODING 228
SWIDTH 500 0
DWIDTH 7 0
BBX 6 10 0 2
BITMAP
D8
D8
00
F8
88
08
F8
88
98
64
ENDCHAR
STARTCHAR LATIN_SMALL_LETTER_A_WITH_RING_ABOVE
ENCODING 229
SWIDTH 500 0
DWIDTH 7 0
BBX 6 11 0 2
BITMAP
20
50
70
00
F8
88
08
F8
88
98
64
ENDCHAR
STARTCHAR LATIN_SMALL_LETTER_AE
ENCODING 230
SWIDTH 500 0
DWIDTH 7 0
BBX 6 7 0 2
BITMAP
FC
24
24
FC
A0
A4
78
ENDCHAR
STARTCHAR LATIN_SMALL_LETTER_C_WITH_CEDILLA
ENCODING 231
SWIDTH 500 0
DWIDTH 7 0
BBX 6 10 0 1
BITMAP
70
48
84
80
80
84
48
70
38
70
ENDCHAR
STARTCHAR LATIN_SMALL_LETTER_E_WITH_GRAVE
ENCODING 232
SWIDTH 500 0
DWIDTH 6 0
BBX 5 11 0 2
BITMAP
60
20
10
00
70
88
88
F8
88
50
70
ENDCHAR
STARTCHAR LATIN_SMALL_LETTER_E_WITH_ACUTE
ENCODING 233
SWIDTH 500 0
DWIDTH 6 0
BBX 5 11 0 2
BITMAP
30
20
40
00
70
88
88
F8
88
50
70
ENDCHAR
STARTCHAR LATIN_SMALL_LETTER_E_WITH_CIRCUMFLEX
ENCODING 234
SWIDTH 500 0
DWIDTH 6 0
BBX 5 11 0 2
BITMAP
60
50
90
00
70
88
88
F8
88
50
70
ENDCHAR
STARTCHAR LATIN_SMALL_LETTER_E_WITH_DIAERESIS
ENCODING 235
SWIDTH 500 0
DWIDTH 6 0
BBX 5 10 0 2
BITMAP
D8
D8
00
78
88
88
F8
88
58
30
ENDCHAR
STARTCHAR LATIN_SMALL_LETTER_I_WITH_GRAVE
ENCODING 236
SWIDTH 500 0
DWIDTH 6 0
BBX 3 11 1 2
BITMAP
C0
40
20
00
40
40
40
40
40
40
40
ENDCHAR
STARTCHAR LATIN_SMALL_LETTER_I_WITH_ACUTE
ENCODING 237
SWIDTH 500 0
DWIDTH 6 0
BBX 3 11 1 2
BITMAP
60
40
80
00
40
40
40
40
40
40
40
ENDCHAR
STARTCHAR LATIN_SMALL_LETTER_I_WITH_CIRCUMFLEX
ENCODING 238
SWIDTH 500 0
DWIDTH 6 0
BBX 5 11 0 2
BITMAP
20
50
D8
00
20
20
20
20
20
20
20
ENDCHAR
STARTCHAR LATIN_SMALL_LETTER_I_WITH_DIAERESIS
ENCODING 239
SWIDTH 500 0
DWIDTH 6 0
BBX 2 10 2 2
BITMAP
C0
C0
00
40
40
40
40
40
40
40
ENDCHAR
STARTCHAR LATIN_SMALL_LETTER_ETH
ENCODING 240
SWIDTH 500 0
DWIDTH 7 0
BBX 6 10 0 2
BITMAP
7C
78
C4
7C
84
84
84
84
48
78
ENDCHAR
STARTCHAR LATIN_SMALL_LETTER_N_WITH_TILDE
ENCODING 241
SWIDTH 500 0
DWIDTH 6 0
BBX 5 10 0 2
BITMAP
50
B0
00
F0
88
88
88
88
88
88
ENDCHAR
STARTCHAR LATIN_SMALL_LETTER_O_WITH_GRAVE
ENCODING 242
SWIDTH 500 0
DWIDTH 6 0
BBX 5 11 0 2
BITMAP
60
20
10
00
70
88
88
88
88
50
70
ENDCHAR
STARTCHAR LATIN_SMALL_LETTER_O_WITH_ACUTE
ENCODING 243
SWIDTH 500 0
DWIDTH 6 0
BBX 5 11 0 2
BITMAP
30
20
40
00
70
88
88
88
88
50
70
ENDCHAR
STARTCHAR LATIN_SMALL_LETTER_O_WITH_CIRCUMFLEX
ENCODING 244
SWIDTH 500 0
DWIDTH 6 0
BBX 5 11 0 2
BITMAP
60
50
90
00
70
88
88
88
88
50
70
ENDCHAR
STARTCHAR LATIN_SMALL_LETTER_O_WITH_TILDE
ENCODING 245
SWIDTH 500 0
DWIDTH 6 0
BBX 5 10 0 2
BITMAP
68
50
00
70
88
88
88
88
50
70
ENDCHAR
STARTCHAR LATIN_SMALL_LETTER_O_WITH_DIAERESIS
ENCODING 246
SWIDTH 500 0
DWIDTH 6 0
BBX 5 10 0 2
BITMAP
D8
D8
00
78
88
88
88
88
58
30
ENDCHAR
STARTCHAR DIVISION_SIGN
ENCODING 247
SWIDTH 500 0
DWIDTH 7 0
BBX 6 7 0 2
BITMAP
30
30
00
FC
00
30
30
ENDCHAR
STARTCHAR LATIN_SMALL_LETTER_O_WITH_STROKE
ENCODING 248
SWIDTH 500 0
DWIDTH 6 0
BBX 5 7 0 2
BITMAP
78
98
98
88
A8
E8
B0
ENDCHAR
STARTCHAR LATIN_SMALL_LETTER_U_WITH_GRAVE
ENCODING 249
SWIDTH 500 0
DWIDTH 6 0
BBX 5 11 0 2
BITMAP
60
20
10
00
88
88
88
88
88
58
78
ENDCHAR
STARTCHAR LATIN_SMALL_LETTER_U_WITH_ACUTE
ENCODING 250
SWIDTH 500 0
DWIDTH 6 0
BBX 5 11 0 2
BITMAP
30
20
40
00
88
88
88
88
88
58
78
ENDCHAR
STARTCHAR LATIN_SMALL_LETTER_U_WITH_CIRCUMFLEX
ENCODING 251
SWIDTH 500 0
DWIDTH 6 0
BBX 5 11 0 2
BITMAP
60
50
90
00
88
88
88
88
88
58
78
ENDCHAR
STARTCHAR LATIN_SMALL_LETTER_U_WITH_DIAERESIS
ENCODING 252
SWIDTH 500 0
DWIDTH 6 0
BBX 5 10 0 2
BITMAP
D8
D8
00
88
88
88
88
88
58
38
ENDCHAR
STARTCHAR LATIN_SMALL_LETTER_Y_WITH_ACUTE
ENCODING 253
SWIDTH 500 0
DWIDTH 7 0
BBX 6 13 0 0
BITMAP
30
20
40
00
84
84
48
48
48
30
30
60
C0
ENDCHAR
STARTCHAR LATIN_SMALL_LETTER_THORN
ENCODING 254
SWIDTH 500 0
DWIDTH 6 0
BBX 5 12 0 0
BITMAP
80
80
80
F0
88
88
88
88
D0
F0
80
80
ENDCHAR
STARTCHAR LATIN_SMALL_LETTER_Y_WITH_DIAERESIS
ENCODING 255
SWIDTH 500 0
DWIDTH 7 0
BBX 6 12 0 0
BITMAP
48
48
00
84
84
48
48
48
30
30
60
C0
ENDCHAR
STARTCHAR LATIN_SMALL_LETTER_DOTLESS_I
ENCODING 305
SWIDTH 500 0
DWIDTH 6 0
BBX 1 7 2 2
BITMAP
80
80
80
80
80
80
80
ENDCHAR
STARTCHAR LATIN_CAPITAL_LETTER_L_WITH_STROKE
ENCODING 321
SWIDTH 500 0
DWIDTH 7 0
BBX 6 10 0 2
BITMAP
40
40
44
58
70
60
40
C0
40
7C
ENDCHAR
STARTCHAR LATIN_SMALL_LETTER_L_WITH_STROKE
ENCODING 322
SWIDTH 500 0
DWIDTH 6 0
BBX 5 10 0 2
BITMAP
20
20
20
38
20
60
E0
20
20
20
ENDCHAR
STARTCHAR LATIN_CAPITAL_LIGATURE_OE
ENCODING 338
SWIDTH 500 0
DWIDTH 7 0
BBX 6 10 0 2
BITMAP
7C
B0
90
90
9C
90
90
90
B0
7C
ENDCHAR
STARTCHAR LATIN_SMALL_LIGATURE_OE
ENCODING 339
SWIDTH 500 0
DWIDTH 7 0
BBX 6 7 0 2
BITMAP
78
A4
A4
BC
A0
A4
78
ENDCHAR
STARTCHAR LATIN_CAPITAL_LETTER_S_WITH_CARON
ENCODING 352
SWIDTH 500 0
DWIDTH 7 0
BBX 6 11 0 2
BITMAP
48
48
78
48
84
C4
78
08
84
CC
78
ENDCHAR
STARTCHAR LATIN_SMALL_LETTER_S_WITH_CARON
ENCODING 353
SWIDTH 500 0
DWIDTH 7 0
BBX 6 11 0 2
BITMAP
48
48
30
00
FC
84
80
7C
84
84
78
ENDCHAR
STARTCHAR LATIN_CAPITAL_LETTER_Y_WITH_DIAERESIS
ENCODING 376
SWIDTH 500 0
DWIDTH 6 0
BBX 5 12 0 2
BITMAP
D8
D8
00
88
88
48
78
30
20
20
20
20
ENDCHAR
STARTCHAR LATIN_CAPITAL_LETTER_Z_WITH_CARON
ENCODING 381
SWIDTH 500 0
DWIDTH 7 0
BBX 6 11 0 2
BITMAP
48
58
FC
04
18
10
20
20
40
80
FC
ENDCHAR
STARTCHAR LATIN_SMALL_LETTER_Z_WITH_CARON
ENCODING 382
SWIDTH 500 0
DWIDTH 7 0
BBX 6 11 0 2
BITMAP
48
50
30
00
FC
18
10
20
60
00
FC
ENDCHAR
STARTCHAR GREEK_SMALL_LETTER_MU
ENCODING 956
SWIDTH 500 0
DWIDTH 6 0
BBX 5 8 0 1
BITMAP
88
88
88
88
98
68
80
80
ENDCHAR
STARTCHAR CYRILLIC_CAPITAL_LETTER_IO
ENCODING 1025
SWIDTH 500 0
DWIDTH 12 0
BBX 8 12 2 2
BITMAP
6C
6C
00
FF
80
80
80
FE
80
80
80
FF
ENDCHAR
STARTCHAR CYRILLIC_CAPITAL_LETTER_A
ENCODING 1040
SWIDTH 500 0
DWIDTH 11 0
BBX 9 10 1 2
BITMAP
0C00
1C00
1400
2200
2200
2200
2100
7F00
C080
8080
ENDCHAR
STARTCHAR CYRILLIC_CAPITAL_LETTER_BE
ENCODING 1041
SWIDTH 500 0
DWIDTH 12 0
BBX 8 10 2 2
BITMAP
FE
80
80
FE
82
81
81
81
82
FE
ENDCHAR
STARTCHAR CYRILLIC_CAPITAL_LETTER_VE
ENCODING 1042
SWIDTH 500 0
DWIDTH 12 0
BBX 8 10 2 2
BITMAP
FE
81
81
83
FE
82
81
81
83
FE
ENDCHAR
STARTCHAR CYRILLIC_CAPITAL_LETTER_GHE
ENCODING 1043
SWIDTH 500 0
DWIDTH 12 0
BBX 8 10 2 2
BITMAP
FF
80
80
80
80
80
80
80
80
80
ENDCHAR
STARTCHAR CYRILLIC_CAPITAL_LETTER_DE
ENCODING 1044
SWIDTH 500 0
DWIDTH 12 0
BBX 11 11 0 1
BITMAP
1FC0
1040
1040
1040
1040
1040
1040
3040
2040
FFE0
C020
ENDCHAR
STARTCHAR CYRILLIC_CAPITAL_LETTER_IE
ENCODING 1045
SWIDTH 500 0
DWIDTH 12 0
BBX 8 10 2 2
BITMAP
FF
80
80
80
FE
80
80
80
80
FF
ENDCHAR
STARTCHAR CYRILLIC_CAPITAL_LETTER_ZHE
ENCODING 1046
SWIDTH 500 0
DWIDTH 12 0
BBX 10 10 1 2
BITMAP
8840
8840
C8C0
6980
1E00
2900
2900
4880
C8C0
8840
ENDCHAR
STARTCHAR CYRILLIC_CAPITAL_LETTER_ZE
ENCODING 1047
SWIDTH 500 0
DWIDTH 12 0
BBX 8 10 2 2
BITMAP
7E
81
81
03
7E
02
01
81
C3
7E
ENDCHAR
STARTCHAR CYRILLIC_CAPITAL_LETTER_I
ENCODING 1048
SWIDTH 500 0
DWIDTH 12 0
BBX 8 10 2 2
BITMAP
83
85
89
89
91
91
A1
C1
C1
81
ENDCHAR
STARTCHAR CYRILLIC_CAPITAL_LETTER_SHORT_I
ENCODING 1049
SWIDTH 500 0
DWIDTH 12 0
BBX 8 11 2 2
BITMAP
48
B3
85
89
89
91
91
A1
C1
C1
81
ENDCHAR
STARTCHAR CYRILLIC_CAPITAL_LETTER_KA
ENCODING 1050
SWIDTH 500 0
DWIDTH 13 0
BBX 9 10 2 2
BITMAP
8100
8300
8200
8C00
F000
8800
8C00
8600
8100
8080
ENDCHAR
STARTCHAR CYRILLIC_CAPITAL_LETTER_EL
ENCODING 1051
SWIDTH 500 0
DWIDTH 13 0
BBX 9 10 2 2
BITMAP
3F80
2080
2080
2080
2080
2080
2080
4080
4080
8080
ENDCHAR
STARTCHAR CYRILLIC_CAPITAL_LETTER_EM
ENCODING 1052
SWIDTH 500 0
DWIDTH 12 0
BBX 10 10 1 2
BITMAP
C0C0
C0C0
A140
A140
A140
9240
9240
8C40
8C40
8840
ENDCHAR
STARTCHAR CYRILLIC_CAPITAL_LETTER_EN
ENCODING 1053
SWIDTH 500 0
DWIDTH 12 0
BBX 8 10 2 2
BITMAP
81
81
81
81
FF
81
81
81
81
81
ENDCHAR
STARTCHAR CYRILLIC_CAPITAL_LETTER_O
ENCODING 1054
SWIDTH 500 0
DWIDTH 11 0
BBX 9 10 1 2
BITMAP
7F00
8080
8080
8080
8080
8080
8080
8080
4100
7F00
ENDCHAR
STARTCHAR CYRILLIC_CAPITAL_LETTER_PE
ENCODING 1055
SWIDTH 500 0
DWIDTH 12 0
BBX 8 10 2 2
BITMAP
FF
81
81
81
81
81
81
81
81
81
ENDCHAR
STARTCHAR CYRILLIC_CAPITAL_LETTER_ER
ENCODING 1056
SWIDTH 500 0
DWIDTH 12 0
BBX 8 10 2 2
BITMAP
FE
81
81
81
82
FE
80
80
80
80
ENDCHAR
STARTCHAR CYRILLIC_CAPITAL_LETTER_ES
ENCODING 1057
SWIDTH 500 0
DWIDTH 12 0
BBX 8 10 2 2
BITMAP
7E
81
81
80
80
80
81
81
C3
7E
ENDCHAR
STARTCHAR CYRILLIC_CAPITAL_LETTER_TE
ENCODING 1058
SWIDTH 500 0
DWIDTH 12 0
BBX 9 10 1 2
BITMAP
FF80
0800
0800
0800
0800
0800
0800
0800
0800
0800
ENDCHAR
STARTCHAR CYRILLIC_CAPITAL_LETTER_U
ENCODING 1059
SWIDTH 500 0
DWIDTH 12 0
BBX 8 10 2 2
BITMAP
81
C1
22
26
18
18
00
10
10
20
ENDCHAR
STARTCHAR CYRILLIC_CAPITAL_LETTER_EF
ENCODING 1060
SWIDTH 500 0
DWIDTH 11 0
BBX 9 10 1 2
BITMAP
3F00
4900
8880
8880
8880
8880
8880
4900
3F00
0800
ENDCHAR
STARTCHAR CYRILLIC_CAPITAL_LETTER_HA
ENCODING 1061
SWIDTH 500 0
DWIDTH 11 0
BBX 9 10 1 2
BITMAP
C180
2200
2200
1C00
0800
1C00
1400
2200
6300
C180
ENDCHAR
STARTCHAR CYRILLIC_CAPITAL_LETTER_TSE
ENCODING 1062
SWIDTH 500 0
DWIDTH 12 0
BBX 9 11 2 1
BITMAP
8100
8100
8100
8100
8100
8100
8100
8100
8100
FF80
0080
ENDCHAR
STARTCHAR CYRILLIC_CAPITAL_LETTER_CHE
ENCODING 1063
SWIDTH 500 0
DWIDTH 12 0
BBX 8 10 2 2
BITMAP
81
81
81
81
81
83
47
7D
01
01
ENDCHAR
STARTCHAR CYRILLIC_CAPITAL_LETTER_SHA
ENCODING 1064
SWIDTH 500 0
DWIDTH 11 0
BBX 9 10 1 2
BITMAP
8880
8880
8880
8880
8880
8880
8880
8880
8880
FF80
ENDCHAR
STARTCHAR CYRILLIC_CAPITAL_LETTER_SHCHA
ENCODING 1065
SWIDTH 500 0
DWIDTH 13 0
BBX 11 11 1 1
BITMAP
8840
8840
8840
8840
8840
8840
8840
8840
8840
FFE0
0020
ENDCHAR
STARTCHAR CYRILLIC_CAPITAL_LETTER_HARD_SIGN
ENCODING 1066
SWIDTH 500 0
DWIDTH 13 0
BBX 11 10 1 2
BITMAP
F000
1000
1000
1FC0
1040
1020
1020
1020
1040
1FC0
ENDCHAR
STARTCHAR CYRILLIC_CAPITAL_LETTER_YERU
ENCODING 1067
SWIDTH 500 0
DWIDTH 12 0
BBX 10 10 1 2
BITMAP
8040
8040
8040
FE40
8240
8140
8140
8140
8240
FE40
ENDCHAR
STARTCHAR CYRILLIC_CAPITAL_LETTER_SOFT_SIGN
ENCODING 1068
SWIDTH 500 0
DWIDTH 12 0
BBX 8 10 2 2
BITMAP
80
80
80
FE
82
81
81
81
82
FE
ENDCHAR
STARTCHAR CYRILLIC_CAPITAL_LETTER_E
ENCODING 1069
SWIDTH 500 0
DWIDTH 11 0
BBX 9 10 1 2
BITMAP
7F00
8080
8080
0080
3F80
0080
0080
8080
C180
7F00
ENDCHAR
STARTCHAR CYRILLIC_CAPITAL_LETTER_YU
ENCODING 1070
SWIDTH 500 0
DWIDTH 13 0
BBX 11 10 1 2
BITMAP
8FC0
9020
9020
9020
F020
9020
9020
9020
8840
8FC0
ENDCHAR
STARTCHAR CYRILLIC_CAPITAL_LETTER_YA
ENCODING 1071
SWIDTH 500 0
DWIDTH 12 0
BBX 8 10 2 2
BITMAP
7F
81
81
C1
3F
41
41
C1
81
81
ENDCHAR
STARTCHAR CYRILLIC_SMALL_LETTER_A
ENCODING 1072
SWIDTH 500 0
DWIDTH 12 0
BBX 7 7 3 2
BITMAP
FC
04
7C
84
84
8C
7A
ENDCHAR
STARTCHAR CYRILLIC_SMALL_LETTER_BE
ENCODING 1073
SWIDTH 500 0
DWIDTH 13 0
BBX 7 10 3 2
BITMAP
1C
60
40
FC
82
82
82
82
44
7C
ENDCHAR
STARTCHAR CYRILLIC_SMALL_LETTER_VE
ENCODING 1074
SWIDTH 500 0
DWIDTH 12 0
BBX 6 7 3 2
BITMAP
FC
84
84
FC
84
84
F8
ENDCHAR
STARTCHAR CYRILLIC_SMALL_LETTER_GHE
ENCODING 1075
SWIDTH 500 0
DWIDTH 12 0
BBX 5 7 3 2
BITMAP
F8
80
80
80
80
80
80
ENDCHAR
STARTCHAR CYRILLIC_SMALL_LETTER_DE
ENCODING 1076
SWIDTH 500 0
DWIDTH 12 0
BBX 9 8 1 1
BITMAP
1E00
1200
1200
1200
3200
2200
FF80
C080
ENDCHAR
STARTCHAR CYRILLIC_SMALL_LETTER_IE
ENCODING 1077
SWIDTH 500 0
DWIDTH 13 0
BBX 7 7 3 2
BITMAP
7C
82
82
FE
82
44
7C
ENDCHAR
STARTCHAR CYRILLIC_SMALL_LETTER_ZHE
ENCODING 1078
SWIDTH 500 0
DWIDTH 12 0
BBX 8 7 2 2
BITMAP
89
C9
49
3E
6B
49
89
ENDCHAR
STARTCHAR CYRILLIC_SMALL_LETTER_ZE
ENCODING 1079
SWIDTH 500 0
DWIDTH 12 0
BBX 6 7 3 2
BITMAP
FC
84
04
7C
84
84
78
ENDCHAR
STARTCHAR CYRILLIC_SMALL_LETTER_I
ENCODING 1080
SWIDTH 500 0
DWIDTH 12 0
BBX 6 7 3 2
BITMAP
8C
9C
94
A4
E4
C4
84
ENDCHAR
STARTCHAR CYRILLIC_SMALL_LETTER_SHORT_I
ENCODING 1081
SWIDTH 500 0
DWIDTH 12 0
BBX 6 10 3 2
BITMAP
58
70
00
8C
9C
94
A4
E4
C4
84
ENDCHAR
STARTCHAR CYRILLIC_SMALL_LETTER_KA
ENCODING 1082
SWIDTH 500 0
DWIDTH 12 0
BBX 7 7 3 2
BITMAP
84
8C
88
F0
88
84
82
ENDCHAR
STARTCHAR CYRILLIC_SMALL_LETTER_EL
ENCODING 1083
SWIDTH 500 0
DWIDTH 12 0
BBX 8 7 2 2
BITMAP
3F
21
21
21
41
41
81
ENDCHAR
STARTCHAR CYRILLIC_SMALL_LETTER_EM
ENCODING 1084
SWIDTH 500 0
DWIDTH 12 0
BBX 8 7 2 2
BITMAP
C3
C3
C5
C5
A9
B9
99
ENDCHAR
STARTCHAR CYRILLIC_SMALL_LETTER_EN
ENCODING 1085
SWIDTH 500 0
DWIDTH 12 0
BBX 6 7 3 2
BITMAP
84
84
84
FC
84
84
84
ENDCHAR
STARTCHAR CYRILLIC_SMALL_LETTER_O
ENCODING 1086
SWIDTH 500 0
DWIDTH 13 0
BBX 7 7 3 2
BITMAP
7C
82
82
82
82
44
7C
ENDCHAR
STARTCHAR CYRILLIC_SMALL_LETTER_PE
ENCODING 1087
SWIDTH 500 0
DWIDTH 12 0
BBX 6 7 3 2
BITMAP
FC
84
84
84
84
84
84
ENDCHAR
STARTCHAR CYRILLIC_SMALL_LETTER_ER
ENCODING 1088
SWIDTH 500 0
DWIDTH 13 0
BBX 7 8 3 1
BITMAP
FC
C4
82
82
82
FC
80
80
ENDCHAR
STARTCHAR CYRILLIC_SMALL_LETTER_ES
ENCODING 1089
SWIDTH 500 0
DWIDTH 12 0
BBX 7 7 3 2
BITMAP
7C
82
80
80
82
44
78
ENDCHAR
STARTCHAR CYRILLIC_SMALL_LETTER_TE
ENCODING 1090
SWIDTH 500 0
DWIDTH 12 0
BBX 7 7 2 2
BITMAP
FE
10
10
10
10
10
10
ENDCHAR
STARTCHAR CYRILLIC_SMALL_LETTER_U
ENCODING 1091
SWIDTH 500 0
DWIDTH 12 0
BBX 6 8 3 1
BITMAP
84
CC
48
48
48
30
30
40
ENDCHAR
STARTCHAR CYRILLIC_SMALL_LETTER_EF
ENCODING 1092
SWIDTH 500 0
DWIDTH 11 0
BBX 9 11 1 1
BITMAP
0800
0800
7F00
5D00
8880
8880
8880
8880
7F00
0800
0800
ENDCHAR
STARTCHAR CYRILLIC_SMALL_LETTER_HA
ENCODING 1093
SWIDTH 500 0
DWIDTH 12 0
BBX 7 7 2 2
BITMAP
C2
24
18
18
3C
42
C2
ENDCHAR
STARTCHAR CYRILLIC_SMALL_LETTER_TSE
ENCODING 1094
SWIDTH 500 0
DWIDTH 12 0
BBX 8 8 2 1
BITMAP
84
84
84
84
84
84
FF
03
ENDCHAR
STARTCHAR CYRILLIC_SMALL_LETTER_CHE
ENCODING 1095
SWIDTH 500 0
DWIDTH 12 0
BBX 6 7 3 2
BITMAP
84
84
84
84
FC
04
04
ENDCHAR
STARTCHAR CYRILLIC_SMALL_LETTER_SHA
ENCODING 1096
SWIDTH 500 0
DWIDTH 13 0
BBX 9 7 2 2
BITMAP
8880
8880
8880
8880
8880
8880
FF80
ENDCHAR
STARTCHAR CYRILLIC_SMALL_LETTER_SHCHA
ENCODING 1097
SWIDTH 500 0
DWIDTH 12 0
BBX 10 8 1 1
BITMAP
8900
8900
8900
8900
8900
8900
FFC0
0040
ENDCHAR
STARTCHAR CYRILLIC_SMALL_LETTER_HARD_SIGN
ENCODING 1098
SWIDTH 500 0
DWIDTH 12 0
BBX 8 7 2 2
BITMAP
E0
20
3E
21
21
21
3E
ENDCHAR
STARTCHAR CYRILLIC_SMALL_LETTER_YERU
ENCODING 1099
SWIDTH 500 0
DWIDTH 12 0
BBX 8 7 2 2
BITMAP
81
81
F9
85
85
85
F9
ENDCHAR
STARTCHAR CYRILLIC_SMALL_LETTER_SOFT_SIGN
ENCODING 1100
SWIDTH 500 0
DWIDTH 12 0
BBX 6 7 3 2
BITMAP
80
80
F8
84
84
84
F8
ENDCHAR
STARTCHAR CYRILLIC_SMALL_LETTER_E
ENCODING 1101
SWIDTH 500 0
DWIDTH 12 0
BBX 6 7 3 2
BITMAP
FC
84
04
7C
84
84
78
ENDCHAR
STARTCHAR CYRILLIC_SMALL_LETTER_YU
ENCODING 1102
SWIDTH 500 0
DWIDTH 12 0
BBX 8 7 2 2
BITMAP
9E
A1
A1
E1
A1
92
9E
ENDCHAR
STARTCHAR CYRILLIC_SMALL_LETTER_YA
ENCODING 1103
SWIDTH 500 0
DWIDTH 12 0
BBX 6 7 3 2
BITMAP
FC
84
84
7C
C4
84
84
ENDCHAR
STARTCHAR CYRILLIC_SMALL_LETTER_IO
ENCODING 1105
SWIDTH 500 0
DWIDTH 13 0
BBX 7 10 3 2
BITMAP
6C
6C
00
7C
82
82
FE
82
44
38
ENDCHAR
STARTCHAR EN_DASH
ENCODING 8211
SWIDTH 500 0
DWIDTH 7 0
BBX 6 1 0 5
BITMAP
FC
ENDCHAR
STARTCHAR EM_DASH
ENCODING 8212
SWIDTH 500 0
DWIDTH 7 0
BBX 6 1 0 5
BITMAP
FC
ENDCHAR
STARTCHAR LEFT_SINGLE_QUOTATION_MARK
ENCODING 8216
SWIDTH 500 0
DWIDTH 6 0
BBX 2 3 2 9
BITMAP
C0
C0
C0
ENDCHAR
STARTCHAR RIGHT_SINGLE_QUOTATION_MARK
ENCODING 8217
SWIDTH 500 0
DWIDTH 6 0
BBX 2 3 2 9
BITMAP
C0
C0
80
ENDCHAR
STARTCHAR LEFT_DOUBLE_QUOTATION_MARK
ENCODING 8220
SWIDTH 500 0
DWIDTH 6 0
BBX 4 3 1 9
BITMAP
50
F0
F0
ENDCHAR
STARTCHAR RIGHT_DOUBLE_QUOTATION_MARK
ENCODING 8221
SWIDTH 500 0
DWIDTH 6 0
BBX 4 3 1 9
BITMAP
F0
F0
B0
ENDCHAR
STARTCHAR BULLET
ENCODING 8226
SWIDTH 500 0
DWIDTH 6 0
BBX 4 4 1 4
BITMAP
F0
F0
F0
60
ENDCHAR
STARTCHAR HORIZONTAL_ELLIPSIS
ENCODING 8230
SWIDTH 500 0
DWIDTH 11 0
BBX 8 2 1 6
BITMAP
DB
DB
ENDCHAR
STARTCHAR EURO_SIGN
ENCODING 8364
SWIDTH 500 0
DWIDTH 7 0
BBX 6 10 0 2
BITMAP
38
6C
44
40
F0
40
F4
44
6C
38
ENDCHAR
STARTCHAR LEFTWARDS_ARROW
ENCODING 8592
SWIDTH 500 0
DWIDTH 13 0
BBX 11 6 1 4
BITMAP
2000
4000
4000
FFE0
4000
2000
ENDCHAR
STARTCHAR UPWARDS_ARROW
ENCODING 8593
SWIDTH 500 0
DWIDTH 12 0
BBX 6 11 3 1
BITMAP
20
78
AC
20
20
20
20
20
20
20
20
ENDCHAR
STARTCHAR RIGHTWARDS_ARROW
ENCODING 8594
SWIDTH 500 0
DWIDTH 13 0
BBX 11 6 1 4
BITMAP
0100
0080
00C0
FFE0
00C0
0100
ENDCHAR
STARTCHAR DOWNWARDS_ARROW
ENCODING 8595
SWIDTH 500 0
DWIDTH 12 0
BBX 5 11 3 1
BITMAP
20
20
20
20
20
20
20
A0
68
70
20
ENDCHAR
ENDFONT
