STARTFONT 2.1
FONT -pixbar-jersey-compact-medium-r-normal--12-*-*-*-p-*-iso10646-1
SIZE 12 75 75
FONTBOUNDINGBOX 7 12 0 0
STARTPROPERTIES 8
FOUNDRY "Pixbar"
FAMILY_NAME "Jersey Compact"
FONT_NAME "Jersey Compact"
COPYRIGHT "Copyright 2023 The Soft Type Project Authors; generated TC002 bitmap adaptation under SIL OFL 1.1"
PIXEL_SIZE 12
FONT_ASCENT 12
FONT_DESCENT 0
CHARSET_REGISTRY "ISO10646"
ENDPROPERTIES
CHARS 291
STARTCHAR SPACE
ENCODING 32
SWIDTH 500 0
DWIDTH 2 0
BBX 1 1 0 0
BITMAP
00
ENDCHAR
STARTCHAR EXCLAMATION_MARK
ENCODING 33
SWIDTH 500 0
DWIDTH 2 0
BBX 1 6 0 3
BITMAP
80
80
80
80
00
80
ENDCHAR
STARTCHAR QUOTATION_MARK
ENCODING 34
SWIDTH 500 0
DWIDTH 4 0
BBX 3 2 0 7
BITMAP
E0
E0
ENDCHAR
STARTCHAR NUMBER_SIGN
ENCODING 35
SWIDTH 500 0
DWIDTH 7 0
BBX 6 6 0 3
BITMAP
28
7C
78
50
F8
F0
ENDCHAR
STARTCHAR DOLLAR_SIGN
ENCODING 36
SWIDTH 500 0
DWIDTH 5 0
BBX 4 7 0 2
BITMAP
E0
F0
C0
F0
70
F0
40
ENDCHAR
STARTCHAR PERCENT_SIGN
ENCODING 37
SWIDTH 500 0
DWIDTH 7 0
BBX 6 6 0 3
BITMAP
40
E8
70
28
5C
88
ENDCHAR
STARTCHAR AMPERSAND
ENCODING 38
SWIDTH 500 0
DWIDTH 6 0
BBX 5 6 0 3
BITMAP
E0
A0
E0
B8
B8
F8
ENDCHAR
STARTCHAR APOSTROPHE
ENCODING 39
SWIDTH 500 0
DWIDTH 2 0
BBX 1 2 0 7
BITMAP
80
80
ENDCHAR
STARTCHAR LEFT_PARENTHESIS
ENCODING 40
SWIDTH 500 0
DWIDTH 3 0
BBX 2 7 0 2
BITMAP
C0
80
80
80
80
80
40
ENDCHAR
STARTCHAR RIGHT_PARENTHESIS
ENCODING 41
SWIDTH 500 0
DWIDTH 3 0
BBX 2 7 0 2
BITMAP
C0
40
40
40
40
40
80
ENDCHAR
STARTCHAR ASTERISK
ENCODING 42
SWIDTH 500 0
DWIDTH 4 0
BBX 3 3 0 6
BITMAP
E0
40
C0
ENDCHAR
STARTCHAR PLUS_SIGN
ENCODING 43
SWIDTH 500 0
DWIDTH 4 0
BBX 3 4 0 4
BITMAP
40
40
E0
40
ENDCHAR
STARTCHAR COMMA
ENCODING 44
SWIDTH 500 0
DWIDTH 2 0
BBX 1 2 0 2
BITMAP
80
80
ENDCHAR
STARTCHAR HYPHEN-MINUS
ENCODING 45
SWIDTH 500 0
DWIDTH 4 0
BBX 3 1 0 6
BITMAP
E0
ENDCHAR
STARTCHAR FULL_STOP
ENCODING 46
SWIDTH 500 0
DWIDTH 2 0
BBX 1 1 0 3
BITMAP
80
ENDCHAR
STARTCHAR SOLIDUS
ENCODING 47
SWIDTH 500 0
DWIDTH 4 0
BBX 3 7 0 2
BITMAP
60
60
40
C0
C0
80
80
ENDCHAR
STARTCHAR DIGIT_ZERO
ENCODING 48
SWIDTH 500 0
DWIDTH 4 0
BBX 3 6 0 3
BITMAP
E0
A0
A0
A0
A0
E0
ENDCHAR
STARTCHAR DIGIT_ONE
ENCODING 49
SWIDTH 500 0
DWIDTH 3 0
BBX 2 6 0 3
BITMAP
C0
C0
C0
C0
C0
C0
ENDCHAR
STARTCHAR DIGIT_TWO
ENCODING 50
SWIDTH 500 0
DWIDTH 5 0
BBX 4 6 0 3
BITMAP
F0
B0
60
60
C0
F0
ENDCHAR
STARTCHAR DIGIT_THREE
ENCODING 51
SWIDTH 500 0
DWIDTH 5 0
BBX 4 6 0 3
BITMAP
F0
B0
60
30
B0
E0
ENDCHAR
STARTCHAR DIGIT_FOUR
ENCODING 52
SWIDTH 500 0
DWIDTH 4 0
BBX 3 6 0 3
BITMAP
60
60
A0
A0
E0
20
ENDCHAR
STARTCHAR DIGIT_FIVE
ENCODING 53
SWIDTH 500 0
DWIDTH 4 0
BBX 3 6 0 3
BITMAP
E0
80
E0
20
A0
E0
ENDCHAR
STARTCHAR DIGIT_SIX
ENCODING 54
SWIDTH 500 0
DWIDTH 5 0
BBX 4 6 0 3
BITMAP
F0
80
E0
B0
B0
F0
ENDCHAR
STARTCHAR DIGIT_SEVEN
ENCODING 55
SWIDTH 500 0
DWIDTH 4 0
BBX 3 6 0 3
BITMAP
E0
20
20
60
40
40
ENDCHAR
STARTCHAR DIGIT_EIGHT
ENCODING 56
SWIDTH 500 0
DWIDTH 5 0
BBX 4 6 0 3
BITMAP
F0
B0
E0
B0
B0
F0
ENDCHAR
STARTCHAR DIGIT_NINE
ENCODING 57
SWIDTH 500 0
DWIDTH 5 0
BBX 4 6 0 3
BITMAP
F0
B0
F0
30
B0
E0
ENDCHAR
STARTCHAR COLON
ENCODING 58
SWIDTH 500 0
DWIDTH 2 0
BBX 1 5 0 3
BITMAP
80
00
00
00
80
ENDCHAR
STARTCHAR SEMICOLON
ENCODING 59
SWIDTH 500 0
DWIDTH 2 0
BBX 1 6 0 2
BITMAP
80
00
00
00
80
80
ENDCHAR
STARTCHAR LESS-THAN_SIGN
ENCODING 60
SWIDTH 500 0
DWIDTH 5 0
BBX 4 6 0 3
BITMAP
10
70
C0
C0
70
30
ENDCHAR
STARTCHAR EQUALS_SIGN
ENCODING 61
SWIDTH 500 0
DWIDTH 4 0
BBX 3 3 0 4
BITMAP
E0
00
E0
ENDCHAR
STARTCHAR GREATER-THAN_SIGN
ENCODING 62
SWIDTH 500 0
DWIDTH 5 0
BBX 4 6 0 3
BITMAP
C0
60
30
30
70
C0
ENDCHAR
STARTCHAR QUESTION_MARK
ENCODING 63
SWIDTH 500 0
DWIDTH 4 0
BBX 3 6 0 3
BITMAP
E0
E0
60
40
00
40
ENDCHAR
STARTCHAR COMMERCIAL_AT
ENCODING 64
SWIDTH 500 0
DWIDTH 7 0
BBX 6 6 0 3
BITMAP
F8
CC
FC
FC
A8
F8
ENDCHAR
STARTCHAR LATIN_CAPITAL_LETTER_A
ENCODING 65
SWIDTH 500 0
DWIDTH 5 0
BBX 4 6 0 3
BITMAP
60
E0
90
90
F0
B0
ENDCHAR
STARTCHAR LATIN_CAPITAL_LETTER_B
ENCODING 66
SWIDTH 500 0
DWIDTH 5 0
BBX 4 6 0 3
BITMAP
F0
B0
E0
B0
B0
F0
ENDCHAR
STARTCHAR LATIN_CAPITAL_LETTER_C
ENCODING 67
SWIDTH 500 0
DWIDTH 5 0
BBX 4 6 0 3
BITMAP
F0
80
80
80
F0
E0
ENDCHAR
STARTCHAR LATIN_CAPITAL_LETTER_D
ENCODING 68
SWIDTH 500 0
DWIDTH 5 0
BBX 4 6 0 3
BITMAP
F0
B0
90
90
B0
E0
ENDCHAR
STARTCHAR LATIN_CAPITAL_LETTER_E
ENCODING 69
SWIDTH 500 0
DWIDTH 4 0
BBX 3 6 0 3
BITMAP
E0
80
E0
80
80
E0
ENDCHAR
STARTCHAR LATIN_CAPITAL_LETTER_F
ENCODING 70
SWIDTH 500 0
DWIDTH 4 0
BBX 3 6 0 3
BITMAP
E0
80
E0
80
80
80
ENDCHAR
STARTCHAR LATIN_CAPITAL_LETTER_G
ENCODING 71
SWIDTH 500 0
DWIDTH 5 0
BBX 4 6 0 3
BITMAP
F0
80
F0
B0
F0
E0
ENDCHAR
STARTCHAR LATIN_CAPITAL_LETTER_H
ENCODING 72
SWIDTH 500 0
DWIDTH 5 0
BBX 4 6 0 3
BITMAP
90
90
F0
B0
90
90
ENDCHAR
STARTCHAR LATIN_CAPITAL_LETTER_I
ENCODING 73
SWIDTH 500 0
DWIDTH 2 0
BBX 1 6 0 3
BITMAP
80
80
80
80
80
80
ENDCHAR
STARTCHAR LATIN_CAPITAL_LETTER_J
ENCODING 74
SWIDTH 500 0
DWIDTH 4 0
BBX 3 6 0 3
BITMAP
20
20
20
20
E0
E0
ENDCHAR
STARTCHAR LATIN_CAPITAL_LETTER_K
ENCODING 75
SWIDTH 500 0
DWIDTH 4 0
BBX 3 6 0 3
BITMAP
A0
A0
C0
E0
A0
A0
ENDCHAR
STARTCHAR LATIN_CAPITAL_LETTER_L
ENCODING 76
SWIDTH 500 0
DWIDTH 4 0
BBX 3 6 0 3
BITMAP
80
80
80
80
80
E0
ENDCHAR
STARTCHAR LATIN_CAPITAL_LETTER_M
ENCODING 77
SWIDTH 500 0
DWIDTH 6 0
BBX 5 6 0 3
BITMAP
D8
F8
F8
A8
88
88
ENDCHAR
STARTCHAR LATIN_CAPITAL_LETTER_N
ENCODING 78
SWIDTH 500 0
DWIDTH 5 0
BBX 4 6 0 3
BITMAP
D0
D0
F0
F0
B0
90
ENDCHAR
STARTCHAR LATIN_CAPITAL_LETTER_O
ENCODING 79
SWIDTH 500 0
DWIDTH 5 0
BBX 4 6 0 3
BITMAP
F0
F0
90
90
F0
E0
ENDCHAR
STARTCHAR LATIN_CAPITAL_LETTER_P
ENCODING 80
SWIDTH 500 0
DWIDTH 5 0
BBX 4 6 0 3
BITMAP
F0
B0
90
E0
80
80
ENDCHAR
STARTCHAR LATIN_CAPITAL_LETTER_Q
ENCODING 81
SWIDTH 500 0
DWIDTH 5 0
BBX 4 7 0 2
BITMAP
F0
F0
90
90
F0
E0
30
ENDCHAR
STARTCHAR LATIN_CAPITAL_LETTER_R
ENCODING 82
SWIDTH 500 0
DWIDTH 5 0
BBX 4 6 0 3
BITMAP
E0
B0
90
E0
B0
90
ENDCHAR
STARTCHAR LATIN_CAPITAL_LETTER_S
ENCODING 83
SWIDTH 500 0
DWIDTH 5 0
BBX 4 6 0 3
BITMAP
F0
80
F0
30
B0
E0
ENDCHAR
STARTCHAR LATIN_CAPITAL_LETTER_T
ENCODING 84
SWIDTH 500 0
DWIDTH 4 0
BBX 3 6 0 3
BITMAP
E0
40
40
40
40
40
ENDCHAR
STARTCHAR LATIN_CAPITAL_LETTER_U
ENCODING 85
SWIDTH 500 0
DWIDTH 5 0
BBX 4 6 0 3
BITMAP
90
90
90
90
F0
E0
ENDCHAR
STARTCHAR LATIN_CAPITAL_LETTER_V
ENCODING 86
SWIDTH 500 0
DWIDTH 5 0
BBX 4 6 0 3
BITMAP
90
90
90
F0
60
40
ENDCHAR
STARTCHAR LATIN_CAPITAL_LETTER_W
ENCODING 87
SWIDTH 500 0
DWIDTH 6 0
BBX 5 6 0 3
BITMAP
A8
A8
A8
A8
F8
48
ENDCHAR
STARTCHAR LATIN_CAPITAL_LETTER_X
ENCODING 88
SWIDTH 500 0
DWIDTH 5 0
BBX 4 6 0 3
BITMAP
90
F0
60
F0
90
90
ENDCHAR
STARTCHAR LATIN_CAPITAL_LETTER_Y
ENCODING 89
SWIDTH 500 0
DWIDTH 5 0
BBX 4 6 0 3
BITMAP
90
90
D0
70
60
60
ENDCHAR
STARTCHAR LATIN_CAPITAL_LETTER_Z
ENCODING 90
SWIDTH 500 0
DWIDTH 5 0
BBX 4 6 0 3
BITMAP
F0
30
60
60
C0
F0
ENDCHAR
STARTCHAR LEFT_SQUARE_BRACKET
ENCODING 91
SWIDTH 500 0
DWIDTH 3 0
BBX 2 8 0 1
BITMAP
C0
80
80
80
80
80
80
C0
ENDCHAR
STARTCHAR REVERSE_SOLIDUS
ENCODING 92
SWIDTH 500 0
DWIDTH 4 0
BBX 3 7 0 2
BITMAP
80
C0
C0
40
40
60
60
ENDCHAR
STARTCHAR RIGHT_SQUARE_BRACKET
ENCODING 93
SWIDTH 500 0
DWIDTH 3 0
BBX 2 8 0 1
BITMAP
C0
40
40
40
40
40
40
C0
ENDCHAR
STARTCHAR CIRCUMFLEX_ACCENT
ENCODING 94
SWIDTH 500 0
DWIDTH 5 0
BBX 4 2 0 6
BITMAP
60
F0
ENDCHAR
STARTCHAR LOW_LINE
ENCODING 95
SWIDTH 500 0
DWIDTH 5 0
BBX 4 1 0 2
BITMAP
F0
ENDCHAR
STARTCHAR GRAVE_ACCENT
ENCODING 96
SWIDTH 500 0
DWIDTH 3 0
BBX 2 2 0 8
BITMAP
80
C0
ENDCHAR
STARTCHAR LATIN_SMALL_LETTER_A
ENCODING 97
SWIDTH 500 0
DWIDTH 5 0
BBX 4 5 0 3
BITMAP
E0
30
F0
F0
F0
ENDCHAR
STARTCHAR LATIN_SMALL_LETTER_B
ENCODING 98
SWIDTH 500 0
DWIDTH 5 0
BBX 4 6 0 3
BITMAP
80
E0
F0
90
B0
F0
ENDCHAR
STARTCHAR LATIN_SMALL_LETTER_C
ENCODING 99
SWIDTH 500 0
DWIDTH 5 0
BBX 4 5 0 3
BITMAP
E0
B0
80
B0
E0
ENDCHAR
STARTCHAR LATIN_SMALL_LETTER_D
ENCODING 100
SWIDTH 500 0
DWIDTH 5 0
BBX 4 6 0 3
BITMAP
10
F0
B0
90
F0
F0
ENDCHAR
STARTCHAR LATIN_SMALL_LETTER_E
ENCODING 101
SWIDTH 500 0
DWIDTH 5 0
BBX 4 5 0 3
BITMAP
E0
B0
F0
E0
F0
ENDCHAR
STARTCHAR LATIN_SMALL_LETTER_F
ENCODING 102
SWIDTH 500 0
DWIDTH 4 0
BBX 3 6 0 3
BITMAP
E0
C0
E0
C0
C0
C0
ENDCHAR
STARTCHAR LATIN_SMALL_LETTER_G
ENCODING 103
SWIDTH 500 0
DWIDTH 5 0
BBX 4 6 0 2
BITMAP
F0
B0
90
F0
F0
F0
ENDCHAR
STARTCHAR LATIN_SMALL_LETTER_H
ENCODING 104
SWIDTH 500 0
DWIDTH 5 0
BBX 4 6 0 3
BITMAP
80
E0
F0
90
90
90
ENDCHAR
STARTCHAR LATIN_SMALL_LETTER_I
ENCODING 105
SWIDTH 500 0
DWIDTH 2 0
BBX 1 6 0 3
BITMAP
80
00
80
80
80
80
ENDCHAR
STARTCHAR LATIN_SMALL_LETTER_J
ENCODING 106
SWIDTH 500 0
DWIDTH 3 0
BBX 2 7 0 2
BITMAP
C0
C0
C0
C0
C0
C0
80
ENDCHAR
STARTCHAR LATIN_SMALL_LETTER_K
ENCODING 107
SWIDTH 500 0
DWIDTH 4 0
BBX 3 6 0 3
BITMAP
80
A0
E0
E0
A0
A0
ENDCHAR
STARTCHAR LATIN_SMALL_LETTER_L
ENCODING 108
SWIDTH 500 0
DWIDTH 2 0
BBX 1 6 0 3
BITMAP
80
80
80
80
80
80
ENDCHAR
STARTCHAR LATIN_SMALL_LETTER_M
ENCODING 109
SWIDTH 500 0
DWIDTH 6 0
BBX 5 5 0 3
BITMAP
E8
F8
A8
A8
A8
ENDCHAR
STARTCHAR LATIN_SMALL_LETTER_N
ENCODING 110
SWIDTH 500 0
DWIDTH 5 0
BBX 4 5 0 3
BITMAP
E0
F0
90
90
90
ENDCHAR
STARTCHAR LATIN_SMALL_LETTER_O
ENCODING 111
SWIDTH 500 0
DWIDTH 5 0
BBX 4 5 0 3
BITMAP
E0
B0
90
B0
F0
ENDCHAR
STARTCHAR LATIN_SMALL_LETTER_P
ENCODING 112
SWIDTH 500 0
DWIDTH 5 0
BBX 4 6 0 2
BITMAP
F0
90
90
B0
E0
80
ENDCHAR
STARTCHAR LATIN_SMALL_LETTER_Q
ENCODING 113
SWIDTH 500 0
DWIDTH 5 0
BBX 4 6 0 2
BITMAP
F0
B0
90
F0
F0
10
ENDCHAR
STARTCHAR LATIN_SMALL_LETTER_R
ENCODING 114
SWIDTH 500 0
DWIDTH 4 0
BBX 3 5 0 3
BITMAP
E0
E0
80
80
80
ENDCHAR
STARTCHAR LATIN_SMALL_LETTER_S
ENCODING 115
SWIDTH 500 0
DWIDTH 4 0
BBX 3 5 0 3
BITMAP
E0
E0
E0
E0
E0
ENDCHAR
STARTCHAR LATIN_SMALL_LETTER_T
ENCODING 116
SWIDTH 500 0
DWIDTH 4 0
BBX 3 6 0 3
BITMAP
C0
C0
E0
C0
C0
60
ENDCHAR
STARTCHAR LATIN_SMALL_LETTER_U
ENCODING 117
SWIDTH 500 0
DWIDTH 5 0
BBX 4 5 0 3
BITMAP
90
90
B0
F0
F0
ENDCHAR
STARTCHAR LATIN_SMALL_LETTER_V
ENCODING 118
SWIDTH 500 0
DWIDTH 5 0
BBX 4 5 0 3
BITMAP
90
90
F0
60
40
ENDCHAR
STARTCHAR LATIN_SMALL_LETTER_W
ENCODING 119
SWIDTH 500 0
DWIDTH 6 0
BBX 5 5 0 3
BITMAP
A8
A8
A8
F8
50
ENDCHAR
STARTCHAR LATIN_SMALL_LETTER_X
ENCODING 120
SWIDTH 500 0
DWIDTH 5 0
BBX 4 5 0 3
BITMAP
90
E0
60
F0
90
ENDCHAR
STARTCHAR LATIN_SMALL_LETTER_Y
ENCODING 121
SWIDTH 500 0
DWIDTH 4 0
BBX 3 6 0 2
BITMAP
A0
A0
E0
E0
C0
80
ENDCHAR
STARTCHAR LATIN_SMALL_LETTER_Z
ENCODING 122
SWIDTH 500 0
DWIDTH 5 0
BBX 4 5 0 3
BITMAP
F0
30
60
E0
F0
ENDCHAR
STARTCHAR LEFT_CURLY_BRACKET
ENCODING 123
SWIDTH 500 0
DWIDTH 3 0
BBX 2 7 0 2
BITMAP
C0
C0
C0
80
C0
C0
40
ENDCHAR
STARTCHAR VERTICAL_LINE
ENCODING 124
SWIDTH 500 0
DWIDTH 2 0
BBX 1 7 0 2
BITMAP
80
80
80
80
80
80
80
ENDCHAR
STARTCHAR RIGHT_CURLY_BRACKET
ENCODING 125
SWIDTH 500 0
DWIDTH 3 0
BBX 2 7 0 2
BITMAP
C0
C0
C0
40
C0
C0
80
ENDCHAR
STARTCHAR TILDE
ENCODING 126
SWIDTH 500 0
DWIDTH 5 0
BBX 4 3 0 5
BITMAP
D0
F0
E0
ENDCHAR
STARTCHAR NO-BREAK_SPACE
ENCODING 160
SWIDTH 500 0
DWIDTH 2 0
BBX 1 1 0 0
BITMAP
00
ENDCHAR
STARTCHAR INVERTED_EXCLAMATION_MARK
ENCODING 161
SWIDTH 500 0
DWIDTH 2 0
BBX 1 6 0 3
BITMAP
80
00
80
80
80
80
ENDCHAR
STARTCHAR CENT_SIGN
ENCODING 162
SWIDTH 500 0
DWIDTH 5 0
BBX 4 6 0 3
BITMAP
40
E0
F0
C0
F0
40
ENDCHAR
STARTCHAR POUND_SIGN
ENCODING 163
SWIDTH 500 0
DWIDTH 4 0
BBX 3 6 0 3
BITMAP
E0
C0
C0
E0
C0
E0
ENDCHAR
STARTCHAR YEN_SIGN
ENCODING 165
SWIDTH 500 0
DWIDTH 5 0
BBX 4 6 0 3
BITMAP
90
90
F0
F0
F0
60
ENDCHAR
STARTCHAR SECTION_SIGN
ENCODING 167
SWIDTH 500 0
DWIDTH 4 0
BBX 3 7 0 2
BITMAP
E0
E0
A0
A0
60
A0
E0
ENDCHAR
STARTCHAR DIAERESIS
ENCODING 168
SWIDTH 500 0
DWIDTH 4 0
BBX 3 1 0 9
BITMAP
E0
ENDCHAR
STARTCHAR COPYRIGHT_SIGN
ENCODING 169
SWIDTH 500 0
DWIDTH 7 0
BBX 6 7 0 3
BITMAP
78
C8
B4
E4
F4
CC
F8
ENDCHAR
STARTCHAR FEMININE_ORDINAL_INDICATOR
ENCODING 170
SWIDTH 500 0
DWIDTH 5 0
BBX 4 4 0 3
BITMAP
F0
10
F0
F0
ENDCHAR
STARTCHAR LEFT-POINTING_DOUBLE_ANGLE_QUOTATION_MARK
ENCODING 171
SWIDTH 500 0
DWIDTH 6 0
BBX 5 4 0 4
BITMAP
68
D8
D8
68
ENDCHAR
STARTCHAR REGISTERED_SIGN
ENCODING 174
SWIDTH 500 0
DWIDTH 5 0
BBX 4 5 0 4
BITMAP
F0
90
F0
90
F0
ENDCHAR
STARTCHAR MACRON
ENCODING 175
SWIDTH 500 0
DWIDTH 4 0
BBX 3 1 0 9
BITMAP
E0
ENDCHAR
STARTCHAR DEGREE_SIGN
ENCODING 176
SWIDTH 500 0
DWIDTH 4 0
BBX 3 3 0 7
BITMAP
E0
A0
E0
ENDCHAR
STARTCHAR SUPERSCRIPT_TWO
ENCODING 178
SWIDTH 500 0
DWIDTH 4 0
BBX 3 5 0 6
BITMAP
E0
20
40
80
E0
ENDCHAR
STARTCHAR SUPERSCRIPT_THREE
ENCODING 179
SWIDTH 500 0
DWIDTH 4 0
BBX 3 5 0 6
BITMAP
E0
20
60
20
E0
ENDCHAR
STARTCHAR ACUTE_ACCENT
ENCODING 180
SWIDTH 500 0
DWIDTH 3 0
BBX 2 2 0 8
BITMAP
40
80
ENDCHAR
STARTCHAR MICRO_SIGN
ENCODING 181
SWIDTH 500 0
DWIDTH 6 0
BBX 5 8 0 1
BITMAP
88
88
88
88
98
68
80
80
ENDCHAR
STARTCHAR PILCROW_SIGN
ENCODING 182
SWIDTH 500 0
DWIDTH 4 0
BBX 3 6 0 3
BITMAP
E0
E0
E0
60
60
60
ENDCHAR
STARTCHAR MIDDLE_DOT
ENCODING 183
SWIDTH 500 0
DWIDTH 2 0
BBX 1 1 0 6
BITMAP
80
ENDCHAR
STARTCHAR CEDILLA
ENCODING 184
SWIDTH 500 0
DWIDTH 2 0
BBX 1 2 0 1
BITMAP
80
80
ENDCHAR
STARTCHAR MASCULINE_ORDINAL_INDICATOR
ENCODING 186
SWIDTH 500 0
DWIDTH 5 0
BBX 4 4 0 3
BITMAP
F0
B0
90
F0
ENDCHAR
STARTCHAR RIGHT-POINTING_DOUBLE_ANGLE_QUOTATION_MARK
ENCODING 187
SWIDTH 500 0
DWIDTH 6 0
BBX 5 4 0 4
BITMAP
D0
D8
D8
D0
ENDCHAR
STARTCHAR INVERTED_QUESTION_MARK
ENCODING 191
SWIDTH 500 0
DWIDTH 4 0
BBX 3 6 0 3
BITMAP
40
00
40
C0
A0
E0
ENDCHAR
STARTCHAR LATIN_CAPITAL_LETTER_A_WITH_GRAVE
ENCODING 192
SWIDTH 500 0
DWIDTH 5 0
BBX 4 9 0 3
BITMAP
40
60
00
60
E0
90
90
F0
B0
ENDCHAR
STARTCHAR LATIN_CAPITAL_LETTER_A_WITH_ACUTE
ENCODING 193
SWIDTH 500 0
DWIDTH 5 0
BBX 4 9 0 3
BITMAP
20
40
00
60
E0
90
90
F0
B0
ENDCHAR
STARTCHAR LATIN_CAPITAL_LETTER_A_WITH_CIRCUMFLEX
ENCODING 194
SWIDTH 500 0
DWIDTH 5 0
BBX 4 9 0 3
BITMAP
60
60
00
60
E0
90
90
F0
B0
ENDCHAR
STARTCHAR LATIN_CAPITAL_LETTER_A_WITH_TILDE
ENCODING 195
SWIDTH 500 0
DWIDTH 5 0
BBX 4 9 0 3
BITMAP
E0
20
00
60
E0
90
90
F0
B0
ENDCHAR
STARTCHAR LATIN_CAPITAL_LETTER_A_WITH_DIAERESIS
ENCODING 196
SWIDTH 500 0
DWIDTH 5 0
BBX 4 8 0 3
BITMAP
E0
00
60
E0
90
90
F0
B0
ENDCHAR
STARTCHAR LATIN_CAPITAL_LETTER_A_WITH_RING_ABOVE
ENCODING 197
SWIDTH 500 0
DWIDTH 5 0
BBX 4 9 0 3
BITMAP
60
60
00
60
E0
90
90
F0
B0
ENDCHAR
STARTCHAR LATIN_CAPITAL_LETTER_AE
ENCODING 198
SWIDTH 500 0
DWIDTH 8 0
BBX 7 6 0 3
BITMAP
7E
F8
9C
98
F8
9E
ENDCHAR
STARTCHAR LATIN_CAPITAL_LETTER_C_WITH_CEDILLA
ENCODING 199
SWIDTH 500 0
DWIDTH 5 0
BBX 4 8 0 1
BITMAP
F0
80
80
80
F0
E0
20
60
ENDCHAR
STARTCHAR LATIN_CAPITAL_LETTER_E_WITH_GRAVE
ENCODING 200
SWIDTH 500 0
DWIDTH 4 0
BBX 3 9 0 3
BITMAP
40
60
00
E0
80
E0
80
80
E0
ENDCHAR
STARTCHAR LATIN_CAPITAL_LETTER_E_WITH_ACUTE
ENCODING 201
SWIDTH 500 0
DWIDTH 4 0
BBX 3 9 0 3
BITMAP
20
40
00
E0
80
E0
80
80
E0
ENDCHAR
STARTCHAR LATIN_CAPITAL_LETTER_E_WITH_CIRCUMFLEX
ENCODING 202
SWIDTH 500 0
DWIDTH 4 0
BBX 3 9 0 3
BITMAP
60
60
00
E0
80
E0
80
80
E0
ENDCHAR
STARTCHAR LATIN_CAPITAL_LETTER_E_WITH_DIAERESIS
ENCODING 203
SWIDTH 500 0
DWIDTH 4 0
BBX 3 8 0 3
BITMAP
E0
00
E0
80
E0
80
80
E0
ENDCHAR
STARTCHAR LATIN_CAPITAL_LETTER_I_WITH_GRAVE
ENCODING 204
SWIDTH 500 0
DWIDTH 3 0
BBX 2 9 0 3
BITMAP
80
C0
00
80
80
80
80
80
80
ENDCHAR
STARTCHAR LATIN_CAPITAL_LETTER_I_WITH_ACUTE
ENCODING 205
SWIDTH 500 0
DWIDTH 3 0
BBX 2 9 0 3
BITMAP
40
80
00
80
80
80
80
80
80
ENDCHAR
STARTCHAR LATIN_CAPITAL_LETTER_I_WITH_CIRCUMFLEX
ENCODING 206
SWIDTH 500 0
DWIDTH 3 0
BBX 2 9 0 3
BITMAP
C0
C0
00
C0
C0
C0
C0
C0
C0
ENDCHAR
STARTCHAR LATIN_CAPITAL_LETTER_I_WITH_DIAERESIS
ENCODING 207
SWIDTH 500 0
DWIDTH 4 0
BBX 4 8 -1 3
BITMAP
F0
00
60
60
60
60
60
60
ENDCHAR
STARTCHAR LATIN_CAPITAL_LETTER_ETH
ENCODING 208
SWIDTH 500 0
DWIDTH 5 0
BBX 4 6 0 3
BITMAP
F0
F0
F0
D0
F0
F0
ENDCHAR
STARTCHAR LATIN_CAPITAL_LETTER_N_WITH_TILDE
ENCODING 209
SWIDTH 500 0
DWIDTH 5 0
BBX 4 9 0 3
BITMAP
70
20
00
D0
D0
F0
F0
B0
90
ENDCHAR
STARTCHAR LATIN_CAPITAL_LETTER_O_WITH_GRAVE
ENCODING 210
SWIDTH 500 0
DWIDTH 5 0
BBX 4 9 0 3
BITMAP
40
60
00
F0
F0
90
90
F0
E0
ENDCHAR
STARTCHAR LATIN_CAPITAL_LETTER_O_WITH_ACUTE
ENCODING 211
SWIDTH 500 0
DWIDTH 5 0
BBX 4 9 0 3
BITMAP
20
40
00
F0
F0
90
90
F0
E0
ENDCHAR
STARTCHAR LATIN_CAPITAL_LETTER_O_WITH_CIRCUMFLEX
ENCODING 212
SWIDTH 500 0
DWIDTH 5 0
BBX 4 9 0 3
BITMAP
60
60
00
F0
F0
90
90
F0
E0
ENDCHAR
STARTCHAR LATIN_CAPITAL_LETTER_O_WITH_TILDE
ENCODING 213
SWIDTH 500 0
DWIDTH 5 0
BBX 4 9 0 3
BITMAP
E0
20
00
F0
F0
90
90
F0
E0
ENDCHAR
STARTCHAR LATIN_CAPITAL_LETTER_O_WITH_DIAERESIS
ENCODING 214
SWIDTH 500 0
DWIDTH 5 0
BBX 4 8 0 3
BITMAP
E0
00
F0
F0
90
90
F0
E0
ENDCHAR
STARTCHAR MULTIPLICATION_SIGN
ENCODING 215
SWIDTH 500 0
DWIDTH 5 0
BBX 4 4 0 4
BITMAP
F0
E0
E0
F0
ENDCHAR
STARTCHAR LATIN_CAPITAL_LETTER_O_WITH_STROKE
ENCODING 216
SWIDTH 500 0
DWIDTH 7 0
BBX 6 6 0 3
BITMAP
78
7C
78
78
F8
70
ENDCHAR
STARTCHAR LATIN_CAPITAL_LETTER_U_WITH_GRAVE
ENCODING 217
SWIDTH 500 0
DWIDTH 5 0
BBX 4 9 0 3
BITMAP
40
60
00
90
90
90
90
F0
E0
ENDCHAR
STARTCHAR LATIN_CAPITAL_LETTER_U_WITH_ACUTE
ENCODING 218
SWIDTH 500 0
DWIDTH 5 0
BBX 4 9 0 3
BITMAP
20
40
00
90
90
90
90
F0
E0
ENDCHAR
STARTCHAR LATIN_CAPITAL_LETTER_U_WITH_CIRCUMFLEX
ENCODING 219
SWIDTH 500 0
DWIDTH 5 0
BBX 4 9 0 3
BITMAP
60
60
00
90
90
90
90
F0
E0
ENDCHAR
STARTCHAR LATIN_CAPITAL_LETTER_U_WITH_DIAERESIS
ENCODING 220
SWIDTH 500 0
DWIDTH 5 0
BBX 4 8 0 3
BITMAP
E0
00
90
90
90
90
F0
E0
ENDCHAR
STARTCHAR LATIN_CAPITAL_LETTER_Y_WITH_ACUTE
ENCODING 221
SWIDTH 500 0
DWIDTH 5 0
BBX 4 8 0 3
BITMAP
20
00
90
90
D0
70
60
60
ENDCHAR
STARTCHAR LATIN_CAPITAL_LETTER_THORN
ENCODING 222
SWIDTH 500 0
DWIDTH 5 0
BBX 4 6 0 3
BITMAP
80
E0
B0
90
E0
80
ENDCHAR
STARTCHAR LATIN_SMALL_LETTER_SHARP_S
ENCODING 223
SWIDTH 500 0
DWIDTH 5 0
BBX 4 6 0 3
BITMAP
F0
B0
E0
B0
B0
F0
ENDCHAR
STARTCHAR LATIN_SMALL_LETTER_A_WITH_GRAVE
ENCODING 224
SWIDTH 500 0
DWIDTH 5 0
BBX 4 7 0 3
BITMAP
40
60
E0
30
F0
F0
F0
ENDCHAR
STARTCHAR LATIN_SMALL_LETTER_A_WITH_ACUTE
ENCODING 225
SWIDTH 500 0
DWIDTH 5 0
BBX 4 7 0 3
BITMAP
20
40
E0
30
F0
F0
F0
ENDCHAR
STARTCHAR LATIN_SMALL_LETTER_A_WITH_CIRCUMFLEX
ENCODING 226
SWIDTH 500 0
DWIDTH 5 0
BBX 4 7 0 3
BITMAP
60
E0
E0
30
F0
F0
F0
ENDCHAR
STARTCHAR LATIN_SMALL_LETTER_A_WITH_TILDE
ENCODING 227
SWIDTH 500 0
DWIDTH 5 0
BBX 4 8 0 3
BITMAP
40
E0
00
E0
30
F0
F0
F0
ENDCHAR
STARTCHAR LATIN_SMALL_LETTER_A_WITH_DIAERESIS
ENCODING 228
SWIDTH 500 0
DWIDTH 5 0
BBX 4 7 0 3
BITMAP
E0
00
E0
30
F0
F0
F0
ENDCHAR
STARTCHAR LATIN_SMALL_LETTER_A_WITH_RING_ABOVE
ENCODING 229
SWIDTH 500 0
DWIDTH 5 0
BBX 4 8 0 3
BITMAP
60
60
60
E0
30
F0
F0
F0
ENDCHAR
STARTCHAR LATIN_SMALL_LETTER_AE
ENCODING 230
SWIDTH 500 0
DWIDTH 7 0
BBX 6 5 0 3
BITMAP
FC
3C
FC
FC
FC
ENDCHAR
STARTCHAR LATIN_SMALL_LETTER_C_WITH_CEDILLA
ENCODING 231
SWIDTH 500 0
DWIDTH 5 0
BBX 4 7 0 1
BITMAP
E0
B0
80
B0
E0
20
60
ENDCHAR
STARTCHAR LATIN_SMALL_LETTER_E_WITH_GRAVE
ENCODING 232
SWIDTH 500 0
DWIDTH 5 0
BBX 4 7 0 3
BITMAP
40
60
E0
B0
F0
E0
F0
ENDCHAR
STARTCHAR LATIN_SMALL_LETTER_E_WITH_ACUTE
ENCODING 233
SWIDTH 500 0
DWIDTH 5 0
BBX 4 7 0 3
BITMAP
20
40
E0
B0
F0
E0
F0
ENDCHAR
STARTCHAR LATIN_SMALL_LETTER_E_WITH_CIRCUMFLEX
ENCODING 234
SWIDTH 500 0
DWIDTH 5 0
BBX 4 7 0 3
BITMAP
60
E0
E0
B0
F0
E0
F0
ENDCHAR
STARTCHAR LATIN_SMALL_LETTER_E_WITH_DIAERESIS
ENCODING 235
SWIDTH 500 0
DWIDTH 5 0
BBX 4 7 0 3
BITMAP
E0
00
E0
B0
F0
E0
F0
ENDCHAR
STARTCHAR LATIN_SMALL_LETTER_I_WITH_GRAVE
ENCODING 236
SWIDTH 500 0
DWIDTH 3 0
BBX 2 7 0 3
BITMAP
80
C0
00
80
80
80
80
ENDCHAR
STARTCHAR LATIN_SMALL_LETTER_I_WITH_ACUTE
ENCODING 237
SWIDTH 500 0
DWIDTH 3 0
BBX 2 7 0 3
BITMAP
40
80
00
80
80
80
80
ENDCHAR
STARTCHAR LATIN_SMALL_LETTER_I_WITH_CIRCUMFLEX
ENCODING 238
SWIDTH 500 0
DWIDTH 3 0
BBX 2 7 0 3
BITMAP
C0
00
00
C0
C0
C0
C0
ENDCHAR
STARTCHAR LATIN_SMALL_LETTER_I_WITH_DIAERESIS
ENCODING 239
SWIDTH 500 0
DWIDTH 4 0
BBX 4 7 -1 3
BITMAP
F0
00
00
60
60
60
60
ENDCHAR
STARTCHAR LATIN_SMALL_LETTER_ETH
ENCODING 240
SWIDTH 500 0
DWIDTH 5 0
BBX 4 6 0 3
BITMAP
60
20
F0
B0
B0
F0
ENDCHAR
STARTCHAR LATIN_SMALL_LETTER_N_WITH_TILDE
ENCODING 241
SWIDTH 500 0
DWIDTH 5 0
BBX 4 8 0 3
BITMAP
40
E0
00
E0
F0
90
90
90
ENDCHAR
STARTCHAR LATIN_SMALL_LETTER_O_WITH_GRAVE
ENCODING 242
SWIDTH 500 0
DWIDTH 5 0
BBX 4 7 0 3
BITMAP
40
60
E0
B0
90
B0
F0
ENDCHAR
STARTCHAR LATIN_SMALL_LETTER_O_WITH_ACUTE
ENCODING 243
SWIDTH 500 0
DWIDTH 5 0
BBX 4 7 0 3
BITMAP
20
40
E0
B0
90
B0
F0
ENDCHAR
STARTCHAR LATIN_SMALL_LETTER_O_WITH_CIRCUMFLEX
ENCODING 244
SWIDTH 500 0
DWIDTH 5 0
BBX 4 7 0 3
BITMAP
60
E0
E0
B0
90
B0
F0
ENDCHAR
STARTCHAR LATIN_SMALL_LETTER_O_WITH_TILDE
ENCODING 245
SWIDTH 500 0
DWIDTH 5 0
BBX 4 8 0 3
BITMAP
40
E0
00
E0
B0
90
B0
F0
ENDCHAR
STARTCHAR LATIN_SMALL_LETTER_O_WITH_DIAERESIS
ENCODING 246
SWIDTH 500 0
DWIDTH 5 0
BBX 4 7 0 3
BITMAP
E0
00
E0
B0
90
B0
F0
ENDCHAR
STARTCHAR DIVISION_SIGN
ENCODING 247
SWIDTH 500 0
DWIDTH 4 0
BBX 3 5 0 4
BITMAP
40
00
E0
00
40
ENDCHAR
STARTCHAR LATIN_SMALL_LETTER_O_WITH_STROKE
ENCODING 248
SWIDTH 500 0
DWIDTH 6 0
BBX 5 5 0 3
BITMAP
78
D8
F0
F0
F0
ENDCHAR
STARTCHAR LATIN_SMALL_LETTER_U_WITH_GRAVE
ENCODING 249
SWIDTH 500 0
DWIDTH 5 0
BBX 4 7 0 3
BITMAP
40
60
B0
90
B0
F0
F0
ENDCHAR
STARTCHAR LATIN_SMALL_LETTER_U_WITH_ACUTE
ENCODING 250
SWIDTH 500 0
DWIDTH 5 0
BBX 4 7 0 3
BITMAP
20
40
90
90
B0
F0
F0
ENDCHAR
STARTCHAR LATIN_SMALL_LETTER_U_WITH_CIRCUMFLEX
ENCODING 251
SWIDTH 500 0
DWIDTH 5 0
BBX 4 7 0 3
BITMAP
60
E0
B0
90
B0
F0
F0
ENDCHAR
STARTCHAR LATIN_SMALL_LETTER_U_WITH_DIAERESIS
ENCODING 252
SWIDTH 500 0
DWIDTH 5 0
BBX 4 7 0 3
BITMAP
E0
00
90
90
B0
F0
F0
ENDCHAR
STARTCHAR LATIN_SMALL_LETTER_Y_WITH_ACUTE
ENCODING 253
SWIDTH 500 0
DWIDTH 4 0
BBX 3 9 0 2
BITMAP
20
00
40
A0
A0
E0
E0
C0
80
ENDCHAR
STARTCHAR LATIN_SMALL_LETTER_THORN
ENCODING 254
SWIDTH 500 0
DWIDTH 5 0
BBX 4 7 0 2
BITMAP
80
F0
90
90
B0
E0
80
ENDCHAR
STARTCHAR LATIN_SMALL_LETTER_Y_WITH_DIAERESIS
ENCODING 255
SWIDTH 500 0
DWIDTH 4 0
BBX 3 9 0 2
BITMAP
A0
00
00
A0
A0
E0
E0
C0
80
ENDCHAR
STARTCHAR LATIN_CAPITAL_LETTER_A_WITH_MACRON
ENCODING 256
SWIDTH 500 0
DWIDTH 5 0
BBX 4 8 0 3
BITMAP
E0
00
60
E0
90
90
F0
B0
ENDCHAR
STARTCHAR LATIN_SMALL_LETTER_A_WITH_MACRON
ENCODING 257
SWIDTH 500 0
DWIDTH 5 0
BBX 4 7 0 3
BITMAP
E0
00
E0
30
F0
F0
F0
ENDCHAR
STARTCHAR LATIN_CAPITAL_LETTER_A_WITH_BREVE
ENCODING 258
SWIDTH 500 0
DWIDTH 5 0
BBX 4 9 0 3
BITMAP
80
60
00
60
E0
90
90
F0
B0
ENDCHAR
STARTCHAR LATIN_SMALL_LETTER_A_WITH_BREVE
ENCODING 259
SWIDTH 500 0
DWIDTH 5 0
BBX 4 7 0 3
BITMAP
E0
00
E0
30
F0
F0
F0
ENDCHAR
STARTCHAR LATIN_CAPITAL_LETTER_A_WITH_OGONEK
ENCODING 260
SWIDTH 500 0
DWIDTH 5 0
BBX 4 8 0 1
BITMAP
60
E0
90
90
F0
B0
10
10
ENDCHAR
STARTCHAR LATIN_SMALL_LETTER_A_WITH_OGONEK
ENCODING 261
SWIDTH 500 0
DWIDTH 5 0
BBX 4 7 0 1
BITMAP
E0
30
F0
F0
F0
10
10
ENDCHAR
STARTCHAR LATIN_CAPITAL_LETTER_C_WITH_ACUTE
ENCODING 262
SWIDTH 500 0
DWIDTH 5 0
BBX 4 9 0 3
BITMAP
20
40
00
F0
80
80
80
F0
E0
ENDCHAR
STARTCHAR LATIN_SMALL_LETTER_C_WITH_ACUTE
ENCODING 263
SWIDTH 500 0
DWIDTH 5 0
BBX 4 7 0 3
BITMAP
20
40
E0
B0
80
B0
E0
ENDCHAR
STARTCHAR LATIN_CAPITAL_LETTER_C_WITH_DOT_ABOVE
ENCODING 266
SWIDTH 500 0
DWIDTH 5 0
BBX 4 8 0 3
BITMAP
40
00
F0
80
80
80
F0
E0
ENDCHAR
STARTCHAR LATIN_SMALL_LETTER_C_WITH_DOT_ABOVE
ENCODING 267
SWIDTH 500 0
DWIDTH 5 0
BBX 4 7 0 3
BITMAP
40
00
E0
B0
80
B0
E0
ENDCHAR
STARTCHAR LATIN_CAPITAL_LETTER_C_WITH_CARON
ENCODING 268
SWIDTH 500 0
DWIDTH 5 0
BBX 4 9 0 3
BITMAP
E0
60
00
F0
80
80
80
F0
E0
ENDCHAR
STARTCHAR LATIN_SMALL_LETTER_C_WITH_CARON
ENCODING 269
SWIDTH 500 0
DWIDTH 5 0
BBX 4 8 0 3
BITMAP
E0
60
00
E0
B0
80
B0
E0
ENDCHAR
STARTCHAR LATIN_CAPITAL_LETTER_D_WITH_CARON
ENCODING 270
SWIDTH 500 0
DWIDTH 5 0
BBX 4 9 0 3
BITMAP
E0
60
00
F0
B0
90
90
B0
E0
ENDCHAR
STARTCHAR LATIN_SMALL_LETTER_D_WITH_CARON
ENCODING 271
SWIDTH 500 0
DWIDTH 6 0
BBX 5 7 0 3
BITMAP
08
10
F0
B0
90
F0
F0
ENDCHAR
STARTCHAR LATIN_CAPITAL_LETTER_D_WITH_STROKE
ENCODING 272
SWIDTH 500 0
DWIDTH 5 0
BBX 4 6 0 3
BITMAP
F0
F0
F0
D0
F0
F0
ENDCHAR
STARTCHAR LATIN_SMALL_LETTER_D_WITH_STROKE
ENCODING 273
SWIDTH 500 0
DWIDTH 5 0
BBX 4 6 0 3
BITMAP
70
30
F0
B0
F0
F0
ENDCHAR
STARTCHAR LATIN_CAPITAL_LETTER_E_WITH_MACRON
ENCODING 274
SWIDTH 500 0
DWIDTH 4 0
BBX 3 8 0 3
BITMAP
E0
00
E0
80
E0
80
80
E0
ENDCHAR
STARTCHAR LATIN_SMALL_LETTER_E_WITH_MACRON
ENCODING 275
SWIDTH 500 0
DWIDTH 5 0
BBX 4 7 0 3
BITMAP
E0
00
E0
B0
F0
E0
F0
ENDCHAR
STARTCHAR LATIN_CAPITAL_LETTER_E_WITH_DOT_ABOVE
ENCODING 278
SWIDTH 500 0
DWIDTH 4 0
BBX 3 8 0 3
BITMAP
40
00
E0
80
E0
80
80
E0
ENDCHAR
STARTCHAR LATIN_SMALL_LETTER_E_WITH_DOT_ABOVE
ENCODING 279
SWIDTH 500 0
DWIDTH 5 0
BBX 4 7 0 3
BITMAP
40
00
E0
B0
F0
E0
F0
ENDCHAR
STARTCHAR LATIN_CAPITAL_LETTER_E_WITH_OGONEK
ENCODING 280
SWIDTH 500 0
DWIDTH 4 0
BBX 3 8 0 1
BITMAP
E0
80
E0
80
80
E0
20
20
ENDCHAR
STARTCHAR LATIN_SMALL_LETTER_E_WITH_OGONEK
ENCODING 281
SWIDTH 500 0
DWIDTH 5 0
BBX 4 7 0 1
BITMAP
F0
B0
F0
F0
E0
00
60
ENDCHAR
STARTCHAR LATIN_CAPITAL_LETTER_E_WITH_CARON
ENCODING 282
SWIDTH 500 0
DWIDTH 4 0
BBX 3 9 0 3
BITMAP
E0
60
00
E0
80
E0
80
80
E0
ENDCHAR
STARTCHAR LATIN_SMALL_LETTER_E_WITH_CARON
ENCODING 283
SWIDTH 500 0
DWIDTH 5 0
BBX 4 8 0 3
BITMAP
E0
60
00
E0
B0
F0
E0
F0
ENDCHAR
STARTCHAR LATIN_CAPITAL_LETTER_G_WITH_BREVE
ENCODING 286
SWIDTH 500 0
DWIDTH 5 0
BBX 4 9 0 3
BITMAP
80
60
00
F0
80
F0
B0
F0
E0
ENDCHAR
STARTCHAR LATIN_SMALL_LETTER_G_WITH_BREVE
ENCODING 287
SWIDTH 500 0
DWIDTH 5 0
BBX 4 9 0 2
BITMAP
50
60
00
F0
B0
90
F0
F0
F0
ENDCHAR
STARTCHAR LATIN_CAPITAL_LETTER_G_WITH_DOT_ABOVE
ENCODING 288
SWIDTH 500 0
DWIDTH 5 0
BBX 4 8 0 3
BITMAP
40
00
F0
80
F0
B0
F0
E0
ENDCHAR
STARTCHAR LATIN_SMALL_LETTER_G_WITH_DOT_ABOVE
ENCODING 289
SWIDTH 500 0
DWIDTH 5 0
BBX 4 8 0 2
BITMAP
60
00
F0
B0
90
F0
F0
F0
ENDCHAR
STARTCHAR LATIN_CAPITAL_LETTER_G_WITH_CEDILLA
ENCODING 290
SWIDTH 500 0
DWIDTH 5 0
BBX 4 9 0 0
BITMAP
F0
80
F0
B0
F0
E0
00
60
40
ENDCHAR
STARTCHAR LATIN_SMALL_LETTER_G_WITH_CEDILLA
ENCODING 291
SWIDTH 500 0
DWIDTH 5 0
BBX 4 10 0 2
BITMAP
20
00
60
00
F0
B0
90
F0
F0
F0
ENDCHAR
STARTCHAR LATIN_CAPITAL_LETTER_H_WITH_STROKE
ENCODING 294
SWIDTH 500 0
DWIDTH 6 0
BBX 5 6 0 3
BITMAP
F8
D8
F0
D0
D0
D0
ENDCHAR
STARTCHAR LATIN_SMALL_LETTER_H_WITH_STROKE
ENCODING 295
SWIDTH 500 0
DWIDTH 5 0
BBX 4 6 0 3
BITMAP
E0
F0
F0
D0
D0
D0
ENDCHAR
STARTCHAR LATIN_CAPITAL_LETTER_I_WITH_MACRON
ENCODING 298
SWIDTH 500 0
DWIDTH 3 0
BBX 2 8 0 3
BITMAP
C0
00
C0
C0
C0
C0
C0
C0
ENDCHAR
STARTCHAR LATIN_SMALL_LETTER_I_WITH_MACRON
ENCODING 299
SWIDTH 500 0
DWIDTH 3 0
BBX 2 7 0 3
BITMAP
C0
00
00
C0
C0
C0
C0
ENDCHAR
STARTCHAR LATIN_CAPITAL_LETTER_I_WITH_OGONEK
ENCODING 302
SWIDTH 500 0
DWIDTH 2 0
BBX 1 8 0 1
BITMAP
80
80
80
80
80
80
80
80
ENDCHAR
STARTCHAR LATIN_SMALL_LETTER_I_WITH_OGONEK
ENCODING 303
SWIDTH 500 0
DWIDTH 2 0
BBX 1 8 0 1
BITMAP
80
00
80
80
80
80
80
80
ENDCHAR
STARTCHAR LATIN_CAPITAL_LETTER_I_WITH_DOT_ABOVE
ENCODING 304
SWIDTH 500 0
DWIDTH 2 0
BBX 1 8 0 3
BITMAP
80
00
80
80
80
80
80
80
ENDCHAR
STARTCHAR LATIN_SMALL_LETTER_DOTLESS_I
ENCODING 305
SWIDTH 500 0
DWIDTH 2 0
BBX 1 4 0 3
BITMAP
80
80
80
80
ENDCHAR
STARTCHAR LATIN_CAPITAL_LIGATURE_IJ
ENCODING 306
SWIDTH 500 0
DWIDTH 6 0
BBX 5 6 0 3
BITMAP
88
88
88
98
F8
B0
ENDCHAR
STARTCHAR LATIN_SMALL_LIGATURE_IJ
ENCODING 307
SWIDTH 500 0
DWIDTH 4 0
BBX 3 7 0 2
BITMAP
A0
00
A0
A0
A0
A0
60
ENDCHAR
STARTCHAR LATIN_CAPITAL_LETTER_K_WITH_CEDILLA
ENCODING 310
SWIDTH 500 0
DWIDTH 4 0
BBX 3 9 0 0
BITMAP
A0
A0
C0
E0
A0
A0
00
40
40
ENDCHAR
STARTCHAR LATIN_SMALL_LETTER_K_WITH_CEDILLA
ENCODING 311
SWIDTH 500 0
DWIDTH 4 0
BBX 3 9 0 0
BITMAP
80
A0
E0
E0
A0
A0
00
40
40
ENDCHAR
STARTCHAR LATIN_CAPITAL_LETTER_L_WITH_ACUTE
ENCODING 313
SWIDTH 500 0
DWIDTH 4 0
BBX 3 9 0 3
BITMAP
40
80
00
80
80
80
80
80
E0
ENDCHAR
STARTCHAR LATIN_SMALL_LETTER_L_WITH_ACUTE
ENCODING 314
SWIDTH 500 0
DWIDTH 2 0
BBX 1 9 0 3
BITMAP
80
80
00
80
80
80
80
80
80
ENDCHAR
STARTCHAR LATIN_CAPITAL_LETTER_L_WITH_CEDILLA
ENCODING 315
SWIDTH 500 0
DWIDTH 4 0
BBX 3 9 0 0
BITMAP
80
80
80
80
80
E0
00
40
40
ENDCHAR
STARTCHAR LATIN_SMALL_LETTER_L_WITH_CEDILLA
ENCODING 316
SWIDTH 500 0
DWIDTH 2 0
BBX 1 9 0 0
BITMAP
80
80
80
80
80
80
00
80
80
ENDCHAR
STARTCHAR LATIN_CAPITAL_LETTER_L_WITH_CARON
ENCODING 317
SWIDTH 500 0
DWIDTH 4 0
BBX 3 7 0 3
BITMAP
20
A0
80
80
80
80
E0
ENDCHAR
STARTCHAR LATIN_SMALL_LETTER_L_WITH_CARON
ENCODING 318
SWIDTH 500 0
DWIDTH 3 0
BBX 2 7 0 3
BITMAP
40
80
80
80
80
80
80
ENDCHAR
STARTCHAR LATIN_CAPITAL_LETTER_L_WITH_STROKE
ENCODING 321
SWIDTH 500 0
DWIDTH 4 0
BBX 3 6 0 3
BITMAP
C0
E0
C0
C0
C0
E0
ENDCHAR
STARTCHAR LATIN_SMALL_LETTER_L_WITH_STROKE
ENCODING 322
SWIDTH 500 0
DWIDTH 4 0
BBX 3 6 0 3
BITMAP
40
60
40
C0
40
40
ENDCHAR
STARTCHAR LATIN_CAPITAL_LETTER_N_WITH_ACUTE
ENCODING 323
SWIDTH 500 0
DWIDTH 5 0
BBX 4 8 0 3
BITMAP
20
00
D0
D0
F0
F0
B0
90
ENDCHAR
STARTCHAR LATIN_SMALL_LETTER_N_WITH_ACUTE
ENCODING 324
SWIDTH 500 0
DWIDTH 5 0
BBX 4 7 0 3
BITMAP
20
40
E0
F0
B0
90
90
ENDCHAR
STARTCHAR LATIN_CAPITAL_LETTER_N_WITH_CEDILLA
ENCODING 325
SWIDTH 500 0
DWIDTH 5 0
BBX 4 9 0 0
BITMAP
D0
D0
F0
F0
B0
90
00
60
40
ENDCHAR
STARTCHAR LATIN_SMALL_LETTER_N_WITH_CEDILLA
ENCODING 326
SWIDTH 500 0
DWIDTH 5 0
BBX 4 8 0 0
BITMAP
E0
F0
B0
90
90
00
60
40
ENDCHAR
STARTCHAR LATIN_CAPITAL_LETTER_N_WITH_CARON
ENCODING 327
SWIDTH 500 0
DWIDTH 5 0
BBX 4 9 0 3
BITMAP
70
20
00
D0
D0
F0
F0
B0
90
ENDCHAR
STARTCHAR LATIN_SMALL_LETTER_N_WITH_CARON
ENCODING 328
SWIDTH 500 0
DWIDTH 5 0
BBX 4 8 0 3
BITMAP
60
40
00
E0
F0
90
90
90
ENDCHAR
STARTCHAR LATIN_CAPITAL_LETTER_ENG
ENCODING 330
SWIDTH 500 0
DWIDTH 5 0
BBX 4 8 0 1
BITMAP
D0
D0
F0
F0
B0
90
10
10
ENDCHAR
STARTCHAR LATIN_SMALL_LETTER_ENG
ENCODING 331
SWIDTH 500 0
DWIDTH 5 0
BBX 4 6 0 2
BITMAP
F0
B0
90
90
B0
20
ENDCHAR
STARTCHAR LATIN_CAPITAL_LETTER_O_WITH_MACRON
ENCODING 332
SWIDTH 500 0
DWIDTH 5 0
BBX 4 8 0 3
BITMAP
E0
00
F0
F0
90
90
F0
E0
ENDCHAR
STARTCHAR LATIN_SMALL_LETTER_O_WITH_MACRON
ENCODING 333
SWIDTH 500 0
DWIDTH 5 0
BBX 4 7 0 3
BITMAP
E0
00
E0
B0
90
B0
F0
ENDCHAR
STARTCHAR LATIN_CAPITAL_LETTER_O_WITH_DOUBLE_ACUTE
ENCODING 336
SWIDTH 500 0
DWIDTH 5 0
BBX 4 9 0 3
BITMAP
60
E0
00
F0
F0
90
90
F0
E0
ENDCHAR
STARTCHAR LATIN_SMALL_LETTER_O_WITH_DOUBLE_ACUTE
ENCODING 337
SWIDTH 500 0
DWIDTH 5 0
BBX 4 7 0 3
BITMAP
50
E0
E0
B0
90
B0
F0
ENDCHAR
STARTCHAR LATIN_CAPITAL_LIGATURE_OE
ENCODING 338
SWIDTH 500 0
DWIDTH 6 0
BBX 5 6 0 3
BITMAP
F8
F0
98
90
F0
F8
ENDCHAR
STARTCHAR LATIN_SMALL_LIGATURE_OE
ENCODING 339
SWIDTH 500 0
DWIDTH 7 0
BBX 6 5 0 3
BITMAP
FC
BC
9C
FC
FC
ENDCHAR
STARTCHAR LATIN_CAPITAL_LETTER_R_WITH_ACUTE
ENCODING 340
SWIDTH 500 0
DWIDTH 5 0
BBX 4 9 0 3
BITMAP
20
40
00
E0
B0
90
E0
B0
90
ENDCHAR
STARTCHAR LATIN_SMALL_LETTER_R_WITH_ACUTE
ENCODING 341
SWIDTH 500 0
DWIDTH 4 0
BBX 3 7 0 3
BITMAP
20
40
E0
E0
80
80
80
ENDCHAR
STARTCHAR LATIN_CAPITAL_LETTER_R_WITH_CEDILLA
ENCODING 342
SWIDTH 500 0
DWIDTH 5 0
BBX 4 9 0 0
BITMAP
E0
B0
90
E0
B0
90
00
40
40
ENDCHAR
STARTCHAR LATIN_SMALL_LETTER_R_WITH_CEDILLA
ENCODING 343
SWIDTH 500 0
DWIDTH 4 0
BBX 3 8 0 0
BITMAP
E0
E0
80
80
80
00
C0
80
ENDCHAR
STARTCHAR LATIN_CAPITAL_LETTER_R_WITH_CARON
ENCODING 344
SWIDTH 500 0
DWIDTH 5 0
BBX 4 9 0 3
BITMAP
E0
60
00
E0
B0
90
E0
B0
90
ENDCHAR
STARTCHAR LATIN_SMALL_LETTER_R_WITH_CARON
ENCODING 345
SWIDTH 500 0
DWIDTH 4 0
BBX 3 8 0 3
BITMAP
E0
60
00
E0
E0
80
80
80
ENDCHAR
STARTCHAR LATIN_CAPITAL_LETTER_S_WITH_ACUTE
ENCODING 346
SWIDTH 500 0
DWIDTH 5 0
BBX 4 9 0 3
BITMAP
20
40
00
F0
80
F0
30
B0
E0
ENDCHAR
STARTCHAR LATIN_SMALL_LETTER_S_WITH_ACUTE
ENCODING 347
SWIDTH 500 0
DWIDTH 4 0
BBX 3 7 0 3
BITMAP
20
40
E0
E0
E0
E0
E0
ENDCHAR
STARTCHAR LATIN_CAPITAL_LETTER_S_WITH_CEDILLA
ENCODING 350
SWIDTH 500 0
DWIDTH 5 0
BBX 4 8 0 1
BITMAP
F0
80
F0
30
B0
E0
20
60
ENDCHAR
STARTCHAR LATIN_SMALL_LETTER_S_WITH_CEDILLA
ENCODING 351
SWIDTH 500 0
DWIDTH 4 0
BBX 3 7 0 1
BITMAP
E0
E0
E0
E0
E0
40
40
ENDCHAR
STARTCHAR LATIN_CAPITAL_LETTER_S_WITH_CARON
ENCODING 352
SWIDTH 500 0
DWIDTH 5 0
BBX 4 9 0 3
BITMAP
E0
60
00
F0
80
F0
30
B0
E0
ENDCHAR
STARTCHAR LATIN_SMALL_LETTER_S_WITH_CARON
ENCODING 353
SWIDTH 500 0
DWIDTH 4 0
BBX 3 8 0 3
BITMAP
E0
60
00
E0
E0
E0
E0
E0
ENDCHAR
STARTCHAR LATIN_CAPITAL_LETTER_T_WITH_CARON
ENCODING 356
SWIDTH 500 0
DWIDTH 4 0
BBX 3 9 0 3
BITMAP
E0
60
00
E0
40
40
40
40
40
ENDCHAR
STARTCHAR LATIN_SMALL_LETTER_T_WITH_CARON
ENCODING 357
SWIDTH 500 0
DWIDTH 4 0
BBX 3 7 0 3
BITMAP
20
C0
C0
E0
C0
C0
60
ENDCHAR
STARTCHAR LATIN_CAPITAL_LETTER_U_WITH_MACRON
ENCODING 362
SWIDTH 500 0
DWIDTH 5 0
BBX 4 8 0 3
BITMAP
E0
00
90
90
90
90
F0
E0
ENDCHAR
STARTCHAR LATIN_SMALL_LETTER_U_WITH_MACRON
ENCODING 363
SWIDTH 500 0
DWIDTH 5 0
BBX 4 7 0 3
BITMAP
E0
00
90
90
B0
F0
F0
ENDCHAR
STARTCHAR LATIN_CAPITAL_LETTER_U_WITH_BREVE
ENCODING 364
SWIDTH 500 0
DWIDTH 5 0
BBX 4 9 0 3
BITMAP
80
60
00
90
90
90
90
F0
E0
ENDCHAR
STARTCHAR LATIN_SMALL_LETTER_U_WITH_BREVE
ENCODING 365
SWIDTH 500 0
DWIDTH 5 0
BBX 4 7 0 3
BITMAP
E0
00
90
90
B0
F0
F0
ENDCHAR
STARTCHAR LATIN_CAPITAL_LETTER_U_WITH_RING_ABOVE
ENCODING 366
SWIDTH 500 0
DWIDTH 5 0
BBX 4 9 0 3
BITMAP
60
60
00
90
90
90
90
F0
E0
ENDCHAR
STARTCHAR LATIN_SMALL_LETTER_U_WITH_RING_ABOVE
ENCODING 367
SWIDTH 500 0
DWIDTH 5 0
BBX 4 8 0 3
BITMAP
60
60
60
B0
90
B0
F0
F0
ENDCHAR
STARTCHAR LATIN_CAPITAL_LETTER_U_WITH_DOUBLE_ACUTE
ENCODING 368
SWIDTH 500 0
DWIDTH 5 0
BBX 4 9 0 3
BITMAP
60
E0
00
90
90
90
90
F0
E0
ENDCHAR
STARTCHAR LATIN_SMALL_LETTER_U_WITH_DOUBLE_ACUTE
ENCODING 369
SWIDTH 500 0
DWIDTH 5 0
BBX 4 7 0 3
BITMAP
50
E0
B0
90
B0
F0
F0
ENDCHAR
STARTCHAR LATIN_CAPITAL_LETTER_U_WITH_OGONEK
ENCODING 370
SWIDTH 500 0
DWIDTH 5 0
BBX 4 8 0 1
BITMAP
90
90
90
90
F0
E0
00
60
ENDCHAR
STARTCHAR LATIN_SMALL_LETTER_U_WITH_OGONEK
ENCODING 371
SWIDTH 500 0
DWIDTH 5 0
BBX 4 7 0 1
BITMAP
90
90
B0
F0
F0
00
10
ENDCHAR
STARTCHAR LATIN_CAPITAL_LETTER_W_WITH_CIRCUMFLEX
ENCODING 372
SWIDTH 500 0
DWIDTH 6 0
BBX 5 9 0 3
BITMAP
20
50
00
A8
A8
A8
A8
F8
48
ENDCHAR
STARTCHAR LATIN_SMALL_LETTER_W_WITH_CIRCUMFLEX
ENCODING 373
SWIDTH 500 0
DWIDTH 6 0
BBX 5 8 0 3
BITMAP
20
50
00
A8
A8
A8
F8
50
ENDCHAR
STARTCHAR LATIN_CAPITAL_LETTER_Y_WITH_CIRCUMFLEX
ENCODING 374
SWIDTH 500 0
DWIDTH 5 0
BBX 4 9 0 3
BITMAP
60
60
00
90
90
D0
70
60
60
ENDCHAR
STARTCHAR LATIN_SMALL_LETTER_Y_WITH_CIRCUMFLEX
ENCODING 375
SWIDTH 500 0
DWIDTH 4 0
BBX 3 9 0 2
BITMAP
E0
00
00
A0
A0
E0
E0
C0
80
ENDCHAR
STARTCHAR LATIN_CAPITAL_LETTER_Y_WITH_DIAERESIS
ENCODING 376
SWIDTH 500 0
DWIDTH 5 0
BBX 4 8 0 3
BITMAP
D0
00
90
90
D0
70
60
60
ENDCHAR
STARTCHAR LATIN_CAPITAL_LETTER_Z_WITH_ACUTE
ENCODING 377
SWIDTH 500 0
DWIDTH 5 0
BBX 4 8 0 3
BITMAP
20
00
F0
30
60
60
C0
F0
ENDCHAR
STARTCHAR LATIN_SMALL_LETTER_Z_WITH_ACUTE
ENCODING 378
SWIDTH 500 0
DWIDTH 5 0
BBX 4 7 0 3
BITMAP
20
40
F0
30
60
E0
F0
ENDCHAR
STARTCHAR LATIN_CAPITAL_LETTER_Z_WITH_DOT_ABOVE
ENCODING 379
SWIDTH 500 0
DWIDTH 5 0
BBX 4 8 0 3
BITMAP
60
00
F0
30
60
60
C0
F0
ENDCHAR
STARTCHAR LATIN_SMALL_LETTER_Z_WITH_DOT_ABOVE
ENCODING 380
SWIDTH 500 0
DWIDTH 5 0
BBX 4 7 0 3
BITMAP
40
00
F0
30
60
E0
F0
ENDCHAR
STARTCHAR LATIN_CAPITAL_LETTER_Z_WITH_CARON
ENCODING 381
SWIDTH 500 0
DWIDTH 5 0
BBX 4 9 0 3
BITMAP
70
20
00
F0
30
60
60
C0
F0
ENDCHAR
STARTCHAR LATIN_SMALL_LETTER_Z_WITH_CARON
ENCODING 382
SWIDTH 500 0
DWIDTH 5 0
BBX 4 8 0 3
BITMAP
E0
60
00
F0
30
60
E0
F0
ENDCHAR
STARTCHAR GREEK_SMALL_LETTER_MU
ENCODING 956
SWIDTH 500 0
DWIDTH 6 0
BBX 5 8 0 1
BITMAP
88
88
88
88
98
68
80
80
ENDCHAR
STARTCHAR EN_DASH
ENCODING 8211
SWIDTH 500 0
DWIDTH 5 0
BBX 4 1 0 6
BITMAP
F0
ENDCHAR
STARTCHAR EM_DASH
ENCODING 8212
SWIDTH 500 0
DWIDTH 6 0
BBX 5 1 0 6
BITMAP
F8
ENDCHAR
STARTCHAR LEFT_SINGLE_QUOTATION_MARK
ENCODING 8216
SWIDTH 500 0
DWIDTH 2 0
BBX 1 2 0 7
BITMAP
80
80
ENDCHAR
STARTCHAR RIGHT_SINGLE_QUOTATION_MARK
ENCODING 8217
SWIDTH 500 0
DWIDTH 2 0
BBX 1 3 0 6
BITMAP
80
80
80
ENDCHAR
STARTCHAR LEFT_DOUBLE_QUOTATION_MARK
ENCODING 8220
SWIDTH 500 0
DWIDTH 4 0
BBX 3 2 0 7
BITMAP
A0
E0
ENDCHAR
STARTCHAR RIGHT_DOUBLE_QUOTATION_MARK
ENCODING 8221
SWIDTH 500 0
DWIDTH 4 0
BBX 3 3 0 6
BITMAP
E0
A0
C0
ENDCHAR
STARTCHAR BULLET
ENCODING 8226
SWIDTH 500 0
DWIDTH 3 0
BBX 2 2 0 5
BITMAP
C0
C0
ENDCHAR
STARTCHAR HORIZONTAL_ELLIPSIS
ENCODING 8230
SWIDTH 500 0
DWIDTH 5 0
BBX 4 1 0 3
BITMAP
F0
ENDCHAR
STARTCHAR EURO_SIGN
ENCODING 8364
SWIDTH 500 0
DWIDTH 5 0
BBX 4 6 0 3
BITMAP
70
D0
E0
E0
D0
70
ENDCHAR
ENDFONT
