STARTFONT 2.1
FONT -pixbar-jersey-digits-medium-r-normal--16-*-*-*-p-*-iso10646-1
SIZE 16 75 75
FONTBOUNDINGBOX 10 16 0 0
STARTPROPERTIES 8
FOUNDRY "Pixbar"
FAMILY_NAME "Jersey Digits"
FONT_NAME "Jersey Digits"
COPYRIGHT "Copyright 2023 The Soft Type Project Authors; generated TC002 bitmap adaptation under SIL OFL 1.1"
PIXEL_SIZE 16
FONT_ASCENT 16
FONT_DESCENT 0
CHARSET_REGISTRY "ISO10646"
ENDPROPERTIES
CHARS 291
STARTCHAR SPACE
ENCODING 32
SWIDTH 500 0
DWIDTH 3 0
BBX 1 1 0 0
BITMAP
00
ENDCHAR
STARTCHAR EXCLAMATION_MARK
ENCODING 33
SWIDTH 500 0
DWIDTH 3 0
BBX 2 9 0 3
BITMAP
C0
C0
C0
C0
C0
C0
00
C0
C0
ENDCHAR
STARTCHAR QUOTATION_MARK
ENCODING 34
SWIDTH 500 0
DWIDTH 5 0
BBX 4 3 0 9
BITMAP
F0
F0
F0
ENDCHAR
STARTCHAR NUMBER_SIGN
ENCODING 35
SWIDTH 500 0
DWIDTH 10 0
BBX 9 9 0 3
BITMAP
1B00
1B00
3F80
3600
3600
6600
FE00
6C00
6C00
ENDCHAR
STARTCHAR DOLLAR_SIGN
ENCODING 36
SWIDTH 500 0
DWIDTH 7 0
BBX 6 11 0 2
BITMAP
20
78
FC
EC
E0
7C
7C
EC
FC
78
20
ENDCHAR
STARTCHAR PERCENT_SIGN
ENCODING 37
SWIDTH 500 0
DWIDTH 10 0
BBX 9 9 0 3
BITMAP
6100
6300
F600
6400
0C00
1300
3780
6700
4200
ENDCHAR
STARTCHAR AMPERSAND
ENCODING 38
SWIDTH 500 0
DWIDTH 9 0
BBX 8 9 0 3
BITMAP
70
F8
D8
D8
70
DE
DE
FE
7F
ENDCHAR
STARTCHAR APOSTROPHE
ENCODING 39
SWIDTH 500 0
DWIDTH 3 0
BBX 2 3 0 9
BITMAP
C0
C0
C0
ENDCHAR
STARTCHAR LEFT_PARENTHESIS
ENCODING 40
SWIDTH 500 0
DWIDTH 4 0
BBX 3 11 0 1
BITMAP
60
40
C0
C0
C0
C0
C0
C0
C0
40
60
ENDCHAR
STARTCHAR RIGHT_PARENTHESIS
ENCODING 41
SWIDTH 500 0
DWIDTH 4 0
BBX 3 11 0 1
BITMAP
C0
60
60
60
60
60
60
60
60
60
C0
ENDCHAR
STARTCHAR ASTERISK
ENCODING 42
SWIDTH 500 0
DWIDTH 5 0
BBX 4 4 0 8
BITMAP
60
F0
00
60
ENDCHAR
STARTCHAR PLUS_SIGN
ENCODING 43
SWIDTH 500 0
DWIDTH 6 0
BBX 5 5 0 5
BITMAP
60
F8
F8
60
60
ENDCHAR
STARTCHAR COMMA
ENCODING 44
SWIDTH 500 0
DWIDTH 3 0
BBX 2 4 0 1
BITMAP
C0
C0
40
80
ENDCHAR
STARTCHAR HYPHEN-MINUS
ENCODING 45
SWIDTH 500 0
DWIDTH 6 0
BBX 5 2 0 7
BITMAP
F8
F8
ENDCHAR
STARTCHAR FULL_STOP
ENCODING 46
SWIDTH 500 0
DWIDTH 3 0
BBX 2 2 0 3
BITMAP
C0
C0
ENDCHAR
STARTCHAR SOLIDUS
ENCODING 47
SWIDTH 500 0
DWIDTH 5 0
BBX 4 11 0 1
BITMAP
30
30
30
60
60
60
60
60
C0
C0
C0
ENDCHAR
STARTCHAR DIGIT_ZERO
ENCODING 48
SWIDTH 500 0
DWIDTH 6 0
BBX 5 9 0 3
BITMAP
70
F8
D8
D8
D8
D8
D8
F8
70
ENDCHAR
STARTCHAR DIGIT_ONE
ENCODING 49
SWIDTH 500 0
DWIDTH 4 0
BBX 3 9 0 3
BITMAP
E0
E0
60
60
60
60
60
60
60
ENDCHAR
STARTCHAR DIGIT_TWO
ENCODING 50
SWIDTH 500 0
DWIDTH 7 0
BBX 6 9 0 3
BITMAP
78
FC
CC
1C
38
70
E0
FC
FC
ENDCHAR
STARTCHAR DIGIT_THREE
ENCODING 51
SWIDTH 500 0
DWIDTH 7 0
BBX 6 9 0 3
BITMAP
78
FC
CC
0C
78
0C
CC
FC
78
ENDCHAR
STARTCHAR DIGIT_FOUR
ENCODING 52
SWIDTH 500 0
DWIDTH 6 0
BBX 5 9 0 3
BITMAP
18
38
78
D8
D8
F8
F8
18
18
ENDCHAR
STARTCHAR DIGIT_FIVE
ENCODING 53
SWIDTH 500 0
DWIDTH 6 0
BBX 5 9 0 3
BITMAP
F8
F8
C0
C0
78
78
D8
F8
70
ENDCHAR
STARTCHAR DIGIT_SIX
ENCODING 54
SWIDTH 500 0
DWIDTH 7 0
BBX 6 9 0 3
BITMAP
78
FC
CC
C0
FC
FC
CC
FC
78
ENDCHAR
STARTCHAR DIGIT_SEVEN
ENCODING 55
SWIDTH 500 0
DWIDTH 6 0
BBX 5 9 0 3
BITMAP
F8
F8
18
18
38
70
70
60
60
ENDCHAR
STARTCHAR DIGIT_EIGHT
ENCODING 56
SWIDTH 500 0
DWIDTH 7 0
BBX 6 9 0 3
BITMAP
78
FC
CC
CC
FC
FC
CC
FC
78
ENDCHAR
STARTCHAR DIGIT_NINE
ENCODING 57
SWIDTH 500 0
DWIDTH 7 0
BBX 6 9 0 3
BITMAP
78
FC
CC
CC
FC
7C
CC
FC
78
ENDCHAR
STARTCHAR COLON
ENCODING 58
SWIDTH 500 0
DWIDTH 3 0
BBX 2 7 0 3
BITMAP
C0
C0
00
00
00
C0
C0
ENDCHAR
STARTCHAR SEMICOLON
ENCODING 59
SWIDTH 500 0
DWIDTH 3 0
BBX 2 9 0 1
BITMAP
C0
C0
00
00
00
C0
C0
40
80
ENDCHAR
STARTCHAR LESS-THAN_SIGN
ENCODING 60
SWIDTH 500 0
DWIDTH 8 0
BBX 7 8 0 3
BITMAP
0E
3C
78
E0
E0
F8
3C
0E
ENDCHAR
STARTCHAR EQUALS_SIGN
ENCODING 61
SWIDTH 500 0
DWIDTH 6 0
BBX 5 4 0 5
BITMAP
F8
F8
F8
F8
ENDCHAR
STARTCHAR GREATER-THAN_SIGN
ENCODING 62
SWIDTH 500 0
DWIDTH 8 0
BBX 7 8 0 3
BITMAP
E0
F0
3C
1E
1E
3C
F0
E0
ENDCHAR
STARTCHAR QUESTION_MARK
ENCODING 63
SWIDTH 500 0
DWIDTH 6 0
BBX 5 9 0 3
BITMAP
70
F8
D8
38
70
60
20
20
60
ENDCHAR
STARTCHAR COMMERCIAL_AT
ENCODING 64
SWIDTH 500 0
DWIDTH 10 0
BBX 9 10 0 2
BITMAP
7E00
7F00
C180
DF80
FF80
FF80
DF00
C000
7E00
3C00
ENDCHAR
STARTCHAR LATIN_CAPITAL_LETTER_A
ENCODING 65
SWIDTH 500 0
DWIDTH 7 0
BBX 6 9 0 3
BITMAP
20
70
78
DC
CC
FC
FC
CC
CC
ENDCHAR
STARTCHAR LATIN_CAPITAL_LETTER_B
ENCODING 66
SWIDTH 500 0
DWIDTH 7 0
BBX 6 9 0 3
BITMAP
F8
FC
CC
CC
FC
FC
CC
FC
F8
ENDCHAR
STARTCHAR LATIN_CAPITAL_LETTER_C
ENCODING 67
SWIDTH 500 0
DWIDTH 7 0
BBX 6 9 0 3
BITMAP
78
FC
CC
C0
C0
C0
CC
FC
78
ENDCHAR
STARTCHAR LATIN_CAPITAL_LETTER_D
ENCODING 68
SWIDTH 500 0
DWIDTH 7 0
BBX 6 9 0 3
BITMAP
F8
FC
DC
CC
CC
CC
DC
FC
F8
ENDCHAR
STARTCHAR LATIN_CAPITAL_LETTER_E
ENCODING 69
SWIDTH 500 0
DWIDTH 6 0
BBX 5 9 0 3
BITMAP
F8
F8
C0
C0
F0
F0
C0
F8
F8
ENDCHAR
STARTCHAR LATIN_CAPITAL_LETTER_F
ENCODING 70
SWIDTH 500 0
DWIDTH 6 0
BBX 5 9 0 3
BITMAP
F8
F8
C0
C0
F0
F0
C0
C0
C0
ENDCHAR
STARTCHAR LATIN_CAPITAL_LETTER_G
ENCODING 71
SWIDTH 500 0
DWIDTH 7 0
BBX 6 9 0 3
BITMAP
78
FC
CC
C0
FC
FC
CC
FC
78
ENDCHAR
STARTCHAR LATIN_CAPITAL_LETTER_H
ENCODING 72
SWIDTH 500 0
DWIDTH 7 0
BBX 6 9 0 3
BITMAP
CC
CC
CC
CC
FC
FC
CC
CC
CC
ENDCHAR
STARTCHAR LATIN_CAPITAL_LETTER_I
ENCODING 73
SWIDTH 500 0
DWIDTH 3 0
BBX 2 9 0 3
BITMAP
C0
C0
C0
C0
C0
C0
C0
C0
C0
ENDCHAR
STARTCHAR LATIN_CAPITAL_LETTER_J
ENCODING 74
SWIDTH 500 0
DWIDTH 6 0
BBX 5 9 0 3
BITMAP
18
18
18
18
18
18
F8
F8
70
ENDCHAR
STARTCHAR LATIN_CAPITAL_LETTER_K
ENCODING 75
SWIDTH 500 0
DWIDTH 6 0
BBX 5 9 0 3
BITMAP
D8
D8
D8
F0
F0
F8
F8
D8
D8
ENDCHAR
STARTCHAR LATIN_CAPITAL_LETTER_L
ENCODING 76
SWIDTH 500 0
DWIDTH 5 0
BBX 4 9 0 3
BITMAP
C0
C0
C0
C0
C0
C0
C0
F0
F0
ENDCHAR
STARTCHAR LATIN_CAPITAL_LETTER_M
ENCODING 77
SWIDTH 500 0
DWIDTH 8 0
BBX 7 9 0 3
BITMAP
C6
E6
EE
FE
FE
D6
C6
C6
C6
ENDCHAR
STARTCHAR LATIN_CAPITAL_LETTER_N
ENCODING 78
SWIDTH 500 0
DWIDTH 8 0
BBX 7 9 0 3
BITMAP
E6
E6
E6
E6
F6
FE
DE
DE
CE
ENDCHAR
STARTCHAR LATIN_CAPITAL_LETTER_O
ENCODING 79
SWIDTH 500 0
DWIDTH 7 0
BBX 6 9 0 3
BITMAP
78
FC
DC
CC
CC
CC
DC
FC
78
ENDCHAR
STARTCHAR LATIN_CAPITAL_LETTER_P
ENCODING 80
SWIDTH 500 0
DWIDTH 7 0
BBX 6 9 0 3
BITMAP
F8
FC
CC
CC
CC
F8
F8
C0
C0
ENDCHAR
STARTCHAR LATIN_CAPITAL_LETTER_Q
ENCODING 81
SWIDTH 500 0
DWIDTH 7 0
BBX 6 11 0 1
BITMAP
78
FC
DC
CC
CC
CC
DC
FC
70
3C
1C
ENDCHAR
STARTCHAR LATIN_CAPITAL_LETTER_R
ENCODING 82
SWIDTH 500 0
DWIDTH 7 0
BBX 6 9 0 3
BITMAP
F8
FC
CC
CC
CC
FC
FC
CC
CC
ENDCHAR
STARTCHAR LATIN_CAPITAL_LETTER_S
ENCODING 83
SWIDTH 500 0
DWIDTH 7 0
BBX 6 9 0 3
BITMAP
78
FC
CC
C0
7C
7C
CC
FC
78
ENDCHAR
STARTCHAR LATIN_CAPITAL_LETTER_T
ENCODING 84
SWIDTH 500 0
DWIDTH 6 0
BBX 5 9 0 3
BITMAP
F8
F8
60
60
60
60
60
60
60
ENDCHAR
STARTCHAR LATIN_CAPITAL_LETTER_U
ENCODING 85
SWIDTH 500 0
DWIDTH 7 0
BBX 6 9 0 3
BITMAP
CC
CC
CC
CC
CC
CC
DC
FC
78
ENDCHAR
STARTCHAR LATIN_CAPITAL_LETTER_V
ENCODING 86
SWIDTH 500 0
DWIDTH 7 0
BBX 6 9 0 3
BITMAP
CC
CC
CC
CC
CC
DC
78
70
20
ENDCHAR
STARTCHAR LATIN_CAPITAL_LETTER_W
ENCODING 87
SWIDTH 500 0
DWIDTH 9 0
BBX 8 9 0 3
BITMAP
DB
DB
DB
DB
DB
DB
FF
66
66
ENDCHAR
STARTCHAR LATIN_CAPITAL_LETTER_X
ENCODING 88
SWIDTH 500 0
DWIDTH 7 0
BBX 6 9 0 3
BITMAP
CC
CC
FC
78
78
FC
CC
CC
CC
ENDCHAR
STARTCHAR LATIN_CAPITAL_LETTER_Y
ENCODING 89
SWIDTH 500 0
DWIDTH 8 0
BBX 7 9 0 3
BITMAP
C6
C6
C6
C6
6C
78
38
30
30
ENDCHAR
STARTCHAR LATIN_CAPITAL_LETTER_Z
ENCODING 90
SWIDTH 500 0
DWIDTH 8 0
BBX 7 9 0 3
BITMAP
FE
FE
0C
1C
38
70
E0
FC
FE
ENDCHAR
STARTCHAR LEFT_SQUARE_BRACKET
ENCODING 91
SWIDTH 500 0
DWIDTH 4 0
BBX 3 10 0 2
BITMAP
E0
C0
C0
C0
C0
C0
C0
C0
C0
E0
ENDCHAR
STARTCHAR REVERSE_SOLIDUS
ENCODING 92
SWIDTH 500 0
DWIDTH 5 0
BBX 4 11 0 1
BITMAP
C0
C0
C0
60
60
60
60
60
30
30
30
ENDCHAR
STARTCHAR RIGHT_SQUARE_BRACKET
ENCODING 93
SWIDTH 500 0
DWIDTH 4 0
BBX 3 10 0 2
BITMAP
E0
60
60
60
60
60
60
60
60
E0
ENDCHAR
STARTCHAR CIRCUMFLEX_ACCENT
ENCODING 94
SWIDTH 500 0
DWIDTH 7 0
BBX 6 4 0 7
BITMAP
30
78
DC
CC
ENDCHAR
STARTCHAR LOW_LINE
ENCODING 95
SWIDTH 500 0
DWIDTH 7 0
BBX 6 2 0 1
BITMAP
FC
FC
ENDCHAR
STARTCHAR GRAVE_ACCENT
ENCODING 96
SWIDTH 500 0
DWIDTH 3 0
BBX 2 3 0 11
BITMAP
80
C0
40
ENDCHAR
STARTCHAR LATIN_SMALL_LETTER_A
ENCODING 97
SWIDTH 500 0
DWIDTH 7 0
BBX 6 7 0 3
BITMAP
78
FC
0C
FC
FC
FC
6C
ENDCHAR
STARTCHAR LATIN_SMALL_LETTER_B
ENCODING 98
SWIDTH 500 0
DWIDTH 7 0
BBX 6 9 0 3
BITMAP
C0
C0
F8
FC
CC
CC
CC
FC
F8
ENDCHAR
STARTCHAR LATIN_SMALL_LETTER_C
ENCODING 99
SWIDTH 500 0
DWIDTH 7 0
BBX 6 7 0 3
BITMAP
78
FC
CC
C0
CC
FC
78
ENDCHAR
STARTCHAR LATIN_SMALL_LETTER_D
ENCODING 100
SWIDTH 500 0
DWIDTH 7 0
BBX 6 9 0 3
BITMAP
0C
0C
7C
FC
CC
CC
CC
FC
6C
ENDCHAR
STARTCHAR LATIN_SMALL_LETTER_E
ENCODING 101
SWIDTH 500 0
DWIDTH 7 0
BBX 6 7 0 3
BITMAP
78
FC
CC
FC
FC
FC
78
ENDCHAR
STARTCHAR LATIN_SMALL_LETTER_F
ENCODING 102
SWIDTH 500 0
DWIDTH 5 0
BBX 4 9 0 3
BITMAP
70
70
60
F0
F0
60
60
60
60
ENDCHAR
STARTCHAR LATIN_SMALL_LETTER_G
ENCODING 103
SWIDTH 500 0
DWIDTH 7 0
BBX 6 9 0 1
BITMAP
7C
FC
CC
CC
CC
FC
6C
FC
78
ENDCHAR
STARTCHAR LATIN_SMALL_LETTER_H
ENCODING 104
SWIDTH 500 0
DWIDTH 7 0
BBX 6 9 0 3
BITMAP
C0
C0
F8
FC
CC
CC
CC
CC
CC
ENDCHAR
STARTCHAR LATIN_SMALL_LETTER_I
ENCODING 105
SWIDTH 500 0
DWIDTH 3 0
BBX 2 9 0 3
BITMAP
C0
C0
00
C0
C0
C0
C0
C0
C0
ENDCHAR
STARTCHAR LATIN_SMALL_LETTER_J
ENCODING 106
SWIDTH 500 0
DWIDTH 4 0
BBX 3 11 0 1
BITMAP
60
40
00
60
60
60
60
60
60
E0
C0
ENDCHAR
STARTCHAR LATIN_SMALL_LETTER_K
ENCODING 107
SWIDTH 500 0
DWIDTH 6 0
BBX 5 9 0 3
BITMAP
C0
C0
D8
D8
F0
F0
D8
D8
D8
ENDCHAR
STARTCHAR LATIN_SMALL_LETTER_L
ENCODING 108
SWIDTH 500 0
DWIDTH 3 0
BBX 2 9 0 3
BITMAP
C0
C0
C0
C0
C0
C0
C0
C0
C0
ENDCHAR
STARTCHAR LATIN_SMALL_LETTER_M
ENCODING 109
SWIDTH 500 0
DWIDTH 9 0
BBX 8 7 0 3
BITMAP
F6
FF
DB
DB
DB
DB
DB
ENDCHAR
STARTCHAR LATIN_SMALL_LETTER_N
ENCODING 110
SWIDTH 500 0
DWIDTH 7 0
BBX 6 7 0 3
BITMAP
F8
FC
CC
CC
CC
CC
CC
ENDCHAR
STARTCHAR LATIN_SMALL_LETTER_O
ENCODING 111
SWIDTH 500 0
DWIDTH 7 0
BBX 6 7 0 3
BITMAP
78
FC
CC
CC
CC
FC
78
ENDCHAR
STARTCHAR LATIN_SMALL_LETTER_P
ENCODING 112
SWIDTH 500 0
DWIDTH 7 0
BBX 6 9 0 1
BITMAP
F8
FC
CC
CC
CC
FC
F8
C0
C0
ENDCHAR
STARTCHAR LATIN_SMALL_LETTER_Q
ENCODING 113
SWIDTH 500 0
DWIDTH 7 0
BBX 6 9 0 1
BITMAP
7C
FC
CC
CC
CC
FC
6C
0C
0C
ENDCHAR
STARTCHAR LATIN_SMALL_LETTER_R
ENCODING 114
SWIDTH 500 0
DWIDTH 6 0
BBX 5 7 0 3
BITMAP
F0
F8
D0
C0
C0
C0
C0
ENDCHAR
STARTCHAR LATIN_SMALL_LETTER_S
ENCODING 115
SWIDTH 500 0
DWIDTH 6 0
BBX 5 7 0 3
BITMAP
70
F8
C0
78
78
F8
70
ENDCHAR
STARTCHAR LATIN_SMALL_LETTER_T
ENCODING 116
SWIDTH 500 0
DWIDTH 5 0
BBX 4 9 0 3
BITMAP
60
60
60
F0
F0
60
60
70
70
ENDCHAR
STARTCHAR LATIN_SMALL_LETTER_U
ENCODING 117
SWIDTH 500 0
DWIDTH 7 0
BBX 6 7 0 3
BITMAP
CC
CC
CC
CC
CC
FC
6C
ENDCHAR
STARTCHAR LATIN_SMALL_LETTER_V
ENCODING 118
SWIDTH 500 0
DWIDTH 7 0
BBX 6 7 0 3
BITMAP
CC
CC
CC
DC
78
70
20
ENDCHAR
STARTCHAR LATIN_SMALL_LETTER_W
ENCODING 119
SWIDTH 500 0
DWIDTH 9 0
BBX 8 7 0 3
BITMAP
DB
DB
DB
DB
DB
7E
66
ENDCHAR
STARTCHAR LATIN_SMALL_LETTER_X
ENCODING 120
SWIDTH 500 0
DWIDTH 7 0
BBX 6 7 0 3
BITMAP
CC
FC
78
78
FC
CC
CC
ENDCHAR
STARTCHAR LATIN_SMALL_LETTER_Y
ENCODING 121
SWIDTH 500 0
DWIDTH 6 0
BBX 5 9 0 1
BITMAP
D8
D8
D8
D8
78
70
60
E0
C0
ENDCHAR
STARTCHAR LATIN_SMALL_LETTER_Z
ENCODING 122
SWIDTH 500 0
DWIDTH 7 0
BBX 6 7 0 3
BITMAP
FC
FC
1C
38
70
FC
FC
ENDCHAR
STARTCHAR LEFT_CURLY_BRACKET
ENCODING 123
SWIDTH 500 0
DWIDTH 4 0
BBX 3 11 0 1
BITMAP
60
60
60
60
60
C0
C0
60
60
60
60
ENDCHAR
STARTCHAR VERTICAL_LINE
ENCODING 124
SWIDTH 500 0
DWIDTH 3 0
BBX 2 11 0 1
BITMAP
C0
C0
C0
C0
C0
C0
C0
C0
C0
C0
C0
ENDCHAR
STARTCHAR RIGHT_CURLY_BRACKET
ENCODING 125
SWIDTH 500 0
DWIDTH 4 0
BBX 3 11 0 1
BITMAP
C0
60
60
60
60
60
60
60
60
60
C0
ENDCHAR
STARTCHAR TILDE
ENCODING 126
SWIDTH 500 0
DWIDTH 7 0
BBX 6 4 0 6
BITMAP
64
FC
FC
B8
ENDCHAR
STARTCHAR NO-BREAK_SPACE
ENCODING 160
SWIDTH 500 0
DWIDTH 3 0
BBX 1 1 0 0
BITMAP
00
ENDCHAR
STARTCHAR INVERTED_EXCLAMATION_MARK
ENCODING 161
SWIDTH 500 0
DWIDTH 3 0
BBX 2 9 0 3
BITMAP
C0
C0
00
C0
C0
C0
C0
C0
C0
ENDCHAR
STARTCHAR CENT_SIGN
ENCODING 162
SWIDTH 500 0
DWIDTH 7 0
BBX 6 8 0 3
BITMAP
20
78
FC
EC
EC
FC
78
20
ENDCHAR
STARTCHAR POUND_SIGN
ENCODING 163
SWIDTH 500 0
DWIDTH 6 0
BBX 5 9 0 3
BITMAP
70
78
78
60
60
F0
C0
F8
F8
ENDCHAR
STARTCHAR YEN_SIGN
ENCODING 165
SWIDTH 500 0
DWIDTH 8 0
BBX 7 9 0 3
BITMAP
C6
C6
C6
EE
7C
7C
30
7C
30
ENDCHAR
STARTCHAR SECTION_SIGN
ENCODING 167
SWIDTH 500 0
DWIDTH 6 0
BBX 5 11 0 1
BITMAP
70
F8
C8
60
70
D8
D8
70
98
F8
70
ENDCHAR
STARTCHAR DIAERESIS
ENCODING 168
SWIDTH 500 0
DWIDTH 5 0
BBX 4 2 0 11
BITMAP
F0
F0
ENDCHAR
STARTCHAR COPYRIGHT_SIGN
ENCODING 169
SWIDTH 500 0
DWIDTH 10 0
BBX 9 10 0 2
BITMAP
3E00
7F00
C380
DD80
FD80
F180
FD80
C180
7F00
7E00
ENDCHAR
STARTCHAR FEMININE_ORDINAL_INDICATOR
ENCODING 170
SWIDTH 500 0
DWIDTH 7 0
BBX 6 7 0 3
BITMAP
78
FC
7C
FC
CC
FC
6C
ENDCHAR
STARTCHAR LEFT-POINTING_DOUBLE_ANGLE_QUOTATION_MARK
ENCODING 171
SWIDTH 500 0
DWIDTH 9 0
BBX 8 7 0 3
BITMAP
22
33
66
EE
66
33
22
ENDCHAR
STARTCHAR REGISTERED_SIGN
ENCODING 174
SWIDTH 500 0
DWIDTH 8 0
BBX 7 7 0 5
BITMAP
7C
FE
C6
F6
E6
FE
7C
ENDCHAR
STARTCHAR MACRON
ENCODING 175
SWIDTH 500 0
DWIDTH 5 0
BBX 4 2 0 12
BITMAP
F0
F0
ENDCHAR
STARTCHAR DEGREE_SIGN
ENCODING 176
SWIDTH 500 0
DWIDTH 4 0
BBX 3 3 0 10
BITMAP
E0
A0
E0
ENDCHAR
STARTCHAR SUPERSCRIPT_TWO
ENCODING 178
SWIDTH 500 0
DWIDTH 4 0
BBX 3 5 0 10
BITMAP
E0
20
40
80
E0
ENDCHAR
STARTCHAR SUPERSCRIPT_THREE
ENCODING 179
SWIDTH 500 0
DWIDTH 4 0
BBX 3 5 0 10
BITMAP
E0
20
60
20
E0
ENDCHAR
STARTCHAR ACUTE_ACCENT
ENCODING 180
SWIDTH 500 0
DWIDTH 4 0
BBX 3 2 0 11
BITMAP
60
C0
ENDCHAR
STARTCHAR MICRO_SIGN
ENCODING 181
SWIDTH 500 0
DWIDTH 6 0
BBX 5 8 0 1
BITMAP
88
88
88
88
98
68
80
80
ENDCHAR
STARTCHAR PILCROW_SIGN
ENCODING 182
SWIDTH 500 0
DWIDTH 6 0
BBX 5 9 0 3
BITMAP
68
E8
E8
E8
28
28
28
28
28
ENDCHAR
STARTCHAR MIDDLE_DOT
ENCODING 183
SWIDTH 500 0
DWIDTH 3 0
BBX 2 2 0 7
BITMAP
C0
C0
ENDCHAR
STARTCHAR CEDILLA
ENCODING 184
SWIDTH 500 0
DWIDTH 3 0
BBX 2 4 0 0
BITMAP
80
40
C0
C0
ENDCHAR
STARTCHAR MASCULINE_ORDINAL_INDICATOR
ENCODING 186
SWIDTH 500 0
DWIDTH 7 0
BBX 6 7 0 3
BITMAP
78
FC
CC
CC
CC
FC
78
ENDCHAR
STARTCHAR RIGHT-POINTING_DOUBLE_ANGLE_QUOTATION_MARK
ENCODING 187
SWIDTH 500 0
DWIDTH 9 0
BBX 8 7 0 3
BITMAP
44
EE
66
77
66
EE
44
ENDCHAR
STARTCHAR INVERTED_QUESTION_MARK
ENCODING 191
SWIDTH 500 0
DWIDTH 6 0
BBX 5 9 0 3
BITMAP
60
20
00
60
60
E0
D8
F8
70
ENDCHAR
STARTCHAR LATIN_CAPITAL_LETTER_A_WITH_GRAVE
ENCODING 192
SWIDTH 500 0
DWIDTH 7 0
BBX 6 12 0 3
BITMAP
60
30
00
20
70
78
DC
CC
FC
FC
CC
CC
ENDCHAR
STARTCHAR LATIN_CAPITAL_LETTER_A_WITH_ACUTE
ENCODING 193
SWIDTH 500 0
DWIDTH 7 0
BBX 6 12 0 3
BITMAP
10
30
20
20
70
78
DC
CC
FC
FC
CC
CC
ENDCHAR
STARTCHAR LATIN_CAPITAL_LETTER_A_WITH_CIRCUMFLEX
ENCODING 194
SWIDTH 500 0
DWIDTH 7 0
BBX 6 12 0 3
BITMAP
30
78
00
20
70
78
DC
CC
FC
FC
CC
CC
ENDCHAR
STARTCHAR LATIN_CAPITAL_LETTER_A_WITH_TILDE
ENCODING 195
SWIDTH 500 0
DWIDTH 7 0
BBX 6 13 0 3
BITMAP
60
68
78
10
20
70
78
DC
CC
FC
FC
CC
CC
ENDCHAR
STARTCHAR LATIN_CAPITAL_LETTER_A_WITH_DIAERESIS
ENCODING 196
SWIDTH 500 0
DWIDTH 7 0
BBX 6 11 0 3
BITMAP
78
58
20
70
78
DC
CC
FC
FC
CC
CC
ENDCHAR
STARTCHAR LATIN_CAPITAL_LETTER_A_WITH_RING_ABOVE
ENCODING 197
SWIDTH 500 0
DWIDTH 7 0
BBX 6 12 0 3
BITMAP
30
30
00
20
70
78
DC
CC
FC
FC
CC
CC
ENDCHAR
STARTCHAR LATIN_CAPITAL_LETTER_AE
ENCODING 198
SWIDTH 500 0
DWIDTH 11 0
BBX 10 9 0 3
BITMAP
27C0
77C0
7E00
DE00
CF80
FE00
FE00
CFC0
CFC0
ENDCHAR
STARTCHAR LATIN_CAPITAL_LETTER_C_WITH_CEDILLA
ENCODING 199
SWIDTH 500 0
DWIDTH 7 0
BBX 6 12 0 0
BITMAP
78
FC
CC
C0
C0
C0
CC
FC
78
20
10
30
ENDCHAR
STARTCHAR LATIN_CAPITAL_LETTER_E_WITH_GRAVE
ENCODING 200
SWIDTH 500 0
DWIDTH 6 0
BBX 5 12 0 3
BITMAP
60
30
00
F8
F8
C0
C0
F0
F0
C0
F8
F8
ENDCHAR
STARTCHAR LATIN_CAPITAL_LETTER_E_WITH_ACUTE
ENCODING 201
SWIDTH 500 0
DWIDTH 6 0
BBX 5 12 0 3
BITMAP
10
30
20
F8
F8
C0
C0
F0
F0
C0
F8
F8
ENDCHAR
STARTCHAR LATIN_CAPITAL_LETTER_E_WITH_CIRCUMFLEX
ENCODING 202
SWIDTH 500 0
DWIDTH 6 0
BBX 5 12 0 3
BITMAP
30
78
00
F8
F8
C0
C0
F0
F0
C0
F8
F8
ENDCHAR
STARTCHAR LATIN_CAPITAL_LETTER_E_WITH_DIAERESIS
ENCODING 203
SWIDTH 500 0
DWIDTH 6 0
BBX 5 11 0 3
BITMAP
78
58
F8
F8
C0
C0
F0
F0
C0
F8
F8
ENDCHAR
STARTCHAR LATIN_CAPITAL_LETTER_I_WITH_GRAVE
ENCODING 204
SWIDTH 500 0
DWIDTH 3 0
BBX 2 12 0 3
BITMAP
C0
40
00
C0
C0
C0
C0
C0
C0
C0
C0
C0
ENDCHAR
STARTCHAR LATIN_CAPITAL_LETTER_I_WITH_ACUTE
ENCODING 205
SWIDTH 500 0
DWIDTH 4 0
BBX 3 12 0 3
BITMAP
60
40
40
C0
C0
C0
C0
C0
C0
C0
C0
C0
ENDCHAR
STARTCHAR LATIN_CAPITAL_LETTER_I_WITH_CIRCUMFLEX
ENCODING 206
SWIDTH 500 0
DWIDTH 4 0
BBX 3 12 0 3
BITMAP
60
E0
A0
60
60
60
60
60
60
60
60
60
ENDCHAR
STARTCHAR LATIN_CAPITAL_LETTER_I_WITH_DIAERESIS
ENCODING 207
SWIDTH 500 0
DWIDTH 5 0
BBX 5 11 -1 3
BITMAP
D8
D8
30
30
30
30
30
30
30
30
30
ENDCHAR
STARTCHAR LATIN_CAPITAL_LETTER_ETH
ENCODING 208
SWIDTH 500 0
DWIDTH 8 0
BBX 7 9 0 3
BITMAP
7C
7E
6E
66
F6
F6
6E
7E
7C
ENDCHAR
STARTCHAR LATIN_CAPITAL_LETTER_N_WITH_TILDE
ENCODING 209
SWIDTH 500 0
DWIDTH 8 0
BBX 7 13 0 3
BITMAP
20
74
1C
08
E6
E6
E6
E6
F6
FE
DE
DE
CE
ENDCHAR
STARTCHAR LATIN_CAPITAL_LETTER_O_WITH_GRAVE
ENCODING 210
SWIDTH 500 0
DWIDTH 7 0
BBX 6 12 0 3
BITMAP
60
30
00
78
FC
DC
CC
CC
CC
DC
FC
78
ENDCHAR
STARTCHAR LATIN_CAPITAL_LETTER_O_WITH_ACUTE
ENCODING 211
SWIDTH 500 0
DWIDTH 7 0
BBX 6 12 0 3
BITMAP
10
30
20
78
FC
DC
CC
CC
CC
DC
FC
78
ENDCHAR
STARTCHAR LATIN_CAPITAL_LETTER_O_WITH_CIRCUMFLEX
ENCODING 212
SWIDTH 500 0
DWIDTH 7 0
BBX 6 12 0 3
BITMAP
30
78
00
78
FC
DC
CC
CC
CC
DC
FC
78
ENDCHAR
STARTCHAR LATIN_CAPITAL_LETTER_O_WITH_TILDE
ENCODING 213
SWIDTH 500 0
DWIDTH 7 0
BBX 6 13 0 3
BITMAP
60
68
78
10
78
FC
DC
CC
CC
CC
DC
FC
78
ENDCHAR
STARTCHAR LATIN_CAPITAL_LETTER_O_WITH_DIAERESIS
ENCODING 214
SWIDTH 500 0
DWIDTH 7 0
BBX 6 11 0 3
BITMAP
78
58
78
FC
DC
CC
CC
CC
DC
FC
78
ENDCHAR
STARTCHAR MULTIPLICATION_SIGN
ENCODING 215
SWIDTH 500 0
DWIDTH 7 0
BBX 6 7 0 3
BITMAP
48
FC
78
70
78
FC
48
ENDCHAR
STARTCHAR LATIN_CAPITAL_LETTER_O_WITH_STROKE
ENCODING 216
SWIDTH 500 0
DWIDTH 10 0
BBX 9 9 0 3
BITMAP
3E00
7E00
7780
6700
6E00
7E00
F600
7E00
3E00
ENDCHAR
STARTCHAR LATIN_CAPITAL_LETTER_U_WITH_GRAVE
ENCODING 217
SWIDTH 500 0
DWIDTH 7 0
BBX 6 12 0 3
BITMAP
60
30
00
CC
CC
CC
CC
CC
CC
DC
FC
78
ENDCHAR
STARTCHAR LATIN_CAPITAL_LETTER_U_WITH_ACUTE
ENCODING 218
SWIDTH 500 0
DWIDTH 7 0
BBX 6 12 0 3
BITMAP
10
30
20
CC
CC
CC
CC
CC
CC
DC
FC
78
ENDCHAR
STARTCHAR LATIN_CAPITAL_LETTER_U_WITH_CIRCUMFLEX
ENCODING 219
SWIDTH 500 0
DWIDTH 7 0
BBX 6 12 0 3
BITMAP
30
78
00
CC
CC
CC
CC
CC
CC
DC
FC
78
ENDCHAR
STARTCHAR LATIN_CAPITAL_LETTER_U_WITH_DIAERESIS
ENCODING 220
SWIDTH 500 0
DWIDTH 7 0
BBX 6 11 0 3
BITMAP
78
58
CC
CC
CC
CC
CC
CC
DC
FC
78
ENDCHAR
STARTCHAR LATIN_CAPITAL_LETTER_Y_WITH_ACUTE
ENCODING 221
SWIDTH 500 0
DWIDTH 8 0
BBX 7 12 0 3
BITMAP
08
18
10
C6
C6
C6
C6
6C
78
38
30
30
ENDCHAR
STARTCHAR LATIN_CAPITAL_LETTER_THORN
ENCODING 222
SWIDTH 500 0
DWIDTH 7 0
BBX 6 9 0 3
BITMAP
C0
C0
F8
FC
CC
F8
F8
C0
C0
ENDCHAR
STARTCHAR LATIN_SMALL_LETTER_SHARP_S
ENCODING 223
SWIDTH 500 0
DWIDTH 7 0
BBX 6 9 0 3
BITMAP
78
FC
CC
CC
FC
FC
CC
FC
F8
ENDCHAR
STARTCHAR LATIN_SMALL_LETTER_A_WITH_GRAVE
ENCODING 224
SWIDTH 500 0
DWIDTH 7 0
BBX 6 10 0 3
BITMAP
60
30
00
78
FC
0C
FC
FC
FC
6C
ENDCHAR
STARTCHAR LATIN_SMALL_LETTER_A_WITH_ACUTE
ENCODING 225
SWIDTH 500 0
DWIDTH 7 0
BBX 6 11 0 3
BITMAP
10
30
20
00
78
FC
0C
FC
FC
FC
6C
ENDCHAR
STARTCHAR LATIN_SMALL_LETTER_A_WITH_CIRCUMFLEX
ENCODING 226
SWIDTH 500 0
DWIDTH 7 0
BBX 6 11 0 3
BITMAP
20
30
58
00
78
FC
0C
FC
FC
FC
6C
ENDCHAR
STARTCHAR LATIN_SMALL_LETTER_A_WITH_TILDE
ENCODING 227
SWIDTH 500 0
DWIDTH 7 0
BBX 6 11 0 3
BITMAP
68
78
10
00
78
FC
0C
FC
FC
FC
6C
ENDCHAR
STARTCHAR LATIN_SMALL_LETTER_A_WITH_DIAERESIS
ENCODING 228
SWIDTH 500 0
DWIDTH 7 0
BBX 6 10 0 3
BITMAP
58
78
00
78
FC
0C
FC
FC
FC
6C
ENDCHAR
STARTCHAR LATIN_SMALL_LETTER_A_WITH_RING_ABOVE
ENCODING 229
SWIDTH 500 0
DWIDTH 7 0
BBX 6 11 0 3
BITMAP
30
70
30
00
78
FC
0C
FC
FC
FC
6C
ENDCHAR
STARTCHAR LATIN_SMALL_LETTER_AE
ENCODING 230
SWIDTH 500 0
DWIDTH 10 0
BBX 9 7 0 3
BITMAP
7F00
FF80
0D80
FF80
FF80
FF80
6F00
ENDCHAR
STARTCHAR LATIN_SMALL_LETTER_C_WITH_CEDILLA
ENCODING 231
SWIDTH 500 0
DWIDTH 7 0
BBX 6 10 0 0
BITMAP
78
FC
CC
C0
CC
FC
78
20
10
30
ENDCHAR
STARTCHAR LATIN_SMALL_LETTER_E_WITH_GRAVE
ENCODING 232
SWIDTH 500 0
DWIDTH 7 0
BBX 6 10 0 3
BITMAP
60
30
00
78
FC
CC
FC
FC
FC
78
ENDCHAR
STARTCHAR LATIN_SMALL_LETTER_E_WITH_ACUTE
ENCODING 233
SWIDTH 500 0
DWIDTH 7 0
BBX 6 11 0 3
BITMAP
10
30
20
00
78
FC
CC
FC
FC
FC
78
ENDCHAR
STARTCHAR LATIN_SMALL_LETTER_E_WITH_CIRCUMFLEX
ENCODING 234
SWIDTH 500 0
DWIDTH 7 0
BBX 6 11 0 3
BITMAP
20
30
58
00
78
FC
CC
FC
FC
FC
78
ENDCHAR
STARTCHAR LATIN_SMALL_LETTER_E_WITH_DIAERESIS
ENCODING 235
SWIDTH 500 0
DWIDTH 7 0
BBX 6 10 0 3
BITMAP
58
78
00
78
FC
CC
FC
FC
FC
78
ENDCHAR
STARTCHAR LATIN_SMALL_LETTER_I_WITH_GRAVE
ENCODING 236
SWIDTH 500 0
DWIDTH 3 0
BBX 2 11 0 3
BITMAP
80
C0
40
00
00
C0
C0
C0
C0
C0
C0
ENDCHAR
STARTCHAR LATIN_SMALL_LETTER_I_WITH_ACUTE
ENCODING 237
SWIDTH 500 0
DWIDTH 4 0
BBX 3 10 0 3
BITMAP
60
C0
00
00
C0
C0
C0
C0
C0
C0
ENDCHAR
STARTCHAR LATIN_SMALL_LETTER_I_WITH_CIRCUMFLEX
ENCODING 238
SWIDTH 500 0
DWIDTH 4 0
BBX 3 11 0 3
BITMAP
40
E0
A0
00
00
60
60
60
60
60
60
ENDCHAR
STARTCHAR LATIN_SMALL_LETTER_I_WITH_DIAERESIS
ENCODING 239
SWIDTH 500 0
DWIDTH 5 0
BBX 5 10 -1 3
BITMAP
D8
D8
00
00
30
30
30
30
30
30
ENDCHAR
STARTCHAR LATIN_SMALL_LETTER_ETH
ENCODING 240
SWIDTH 500 0
DWIDTH 7 0
BBX 6 9 0 3
BITMAP
28
30
38
1C
FC
FC
CC
FC
78
ENDCHAR
STARTCHAR LATIN_SMALL_LETTER_N_WITH_TILDE
ENCODING 241
SWIDTH 500 0
DWIDTH 7 0
BBX 6 11 0 3
BITMAP
68
78
10
00
F8
FC
CC
CC
CC
CC
CC
ENDCHAR
STARTCHAR LATIN_SMALL_LETTER_O_WITH_GRAVE
ENCODING 242
SWIDTH 500 0
DWIDTH 7 0
BBX 6 10 0 3
BITMAP
60
30
00
78
FC
CC
CC
CC
FC
78
ENDCHAR
STARTCHAR LATIN_SMALL_LETTER_O_WITH_ACUTE
ENCODING 243
SWIDTH 500 0
DWIDTH 7 0
BBX 6 11 0 3
BITMAP
10
30
20
00
78
FC
CC
CC
CC
FC
78
ENDCHAR
STARTCHAR LATIN_SMALL_LETTER_O_WITH_CIRCUMFLEX
ENCODING 244
SWIDTH 500 0
DWIDTH 7 0
BBX 6 11 0 3
BITMAP
20
30
58
00
78
FC
CC
CC
CC
FC
78
ENDCHAR
STARTCHAR LATIN_SMALL_LETTER_O_WITH_TILDE
ENCODING 245
SWIDTH 500 0
DWIDTH 7 0
BBX 6 11 0 3
BITMAP
68
78
10
00
78
FC
CC
CC
CC
FC
78
ENDCHAR
STARTCHAR LATIN_SMALL_LETTER_O_WITH_DIAERESIS
ENCODING 246
SWIDTH 500 0
DWIDTH 7 0
BBX 6 10 0 3
BITMAP
58
78
00
78
FC
CC
CC
CC
FC
78
ENDCHAR
STARTCHAR DIVISION_SIGN
ENCODING 247
SWIDTH 500 0
DWIDTH 6 0
BBX 5 7 0 4
BITMAP
60
20
F8
F8
00
20
60
ENDCHAR
STARTCHAR LATIN_SMALL_LETTER_O_WITH_STROKE
ENCODING 248
SWIDTH 500 0
DWIDTH 8 0
BBX 7 7 0 3
BITMAP
7E
7E
66
76
66
FE
FC
ENDCHAR
STARTCHAR LATIN_SMALL_LETTER_U_WITH_GRAVE
ENCODING 249
SWIDTH 500 0
DWIDTH 7 0
BBX 6 10 0 3
BITMAP
60
30
00
CC
CC
CC
CC
CC
FC
6C
ENDCHAR
STARTCHAR LATIN_SMALL_LETTER_U_WITH_ACUTE
ENCODING 250
SWIDTH 500 0
DWIDTH 7 0
BBX 6 11 0 3
BITMAP
10
30
20
00
CC
CC
CC
CC
CC
FC
6C
ENDCHAR
STARTCHAR LATIN_SMALL_LETTER_U_WITH_CIRCUMFLEX
ENCODING 251
SWIDTH 500 0
DWIDTH 7 0
BBX 6 11 0 3
BITMAP
20
30
58
00
CC
CC
CC
CC
CC
FC
6C
ENDCHAR
STARTCHAR LATIN_SMALL_LETTER_U_WITH_DIAERESIS
ENCODING 252
SWIDTH 500 0
DWIDTH 7 0
BBX 6 10 0 3
BITMAP
58
78
00
CC
CC
CC
CC
CC
FC
6C
ENDCHAR
STARTCHAR LATIN_SMALL_LETTER_Y_WITH_ACUTE
ENCODING 253
SWIDTH 500 0
DWIDTH 6 0
BBX 5 12 0 1
BITMAP
30
20
00
D8
D8
D8
D8
78
70
60
E0
C0
ENDCHAR
STARTCHAR LATIN_SMALL_LETTER_THORN
ENCODING 254
SWIDTH 500 0
DWIDTH 7 0
BBX 6 11 0 1
BITMAP
C0
C0
F8
FC
CC
CC
CC
FC
F8
C0
C0
ENDCHAR
STARTCHAR LATIN_SMALL_LETTER_Y_WITH_DIAERESIS
ENCODING 255
SWIDTH 500 0
DWIDTH 6 0
BBX 5 12 0 1
BITMAP
D8
D8
00
D8
D8
D8
D8
78
70
60
E0
C0
ENDCHAR
STARTCHAR LATIN_CAPITAL_LETTER_A_WITH_MACRON
ENCODING 256
SWIDTH 500 0
DWIDTH 7 0
BBX 6 11 0 3
BITMAP
78
78
20
70
78
DC
CC
FC
FC
CC
CC
ENDCHAR
STARTCHAR LATIN_SMALL_LETTER_A_WITH_MACRON
ENCODING 257
SWIDTH 500 0
DWIDTH 7 0
BBX 6 11 0 3
BITMAP
78
78
00
00
78
FC
0C
FC
FC
FC
6C
ENDCHAR
STARTCHAR LATIN_CAPITAL_LETTER_A_WITH_BREVE
ENCODING 258
SWIDTH 500 0
DWIDTH 7 0
BBX 6 12 0 3
BITMAP
48
78
30
20
70
78
DC
CC
FC
FC
CC
CC
ENDCHAR
STARTCHAR LATIN_SMALL_LETTER_A_WITH_BREVE
ENCODING 259
SWIDTH 500 0
DWIDTH 7 0
BBX 6 11 0 3
BITMAP
48
78
70
00
78
FC
0C
FC
FC
FC
6C
ENDCHAR
STARTCHAR LATIN_CAPITAL_LETTER_A_WITH_OGONEK
ENCODING 260
SWIDTH 500 0
DWIDTH 7 0
BBX 6 12 0 0
BITMAP
20
70
78
DC
CC
FC
FC
CC
CC
04
08
0C
ENDCHAR
STARTCHAR LATIN_SMALL_LETTER_A_WITH_OGONEK
ENCODING 261
SWIDTH 500 0
DWIDTH 7 0
BBX 6 10 0 0
BITMAP
78
FC
0C
FC
FC
FC
6C
04
08
0C
ENDCHAR
STARTCHAR LATIN_CAPITAL_LETTER_C_WITH_ACUTE
ENCODING 262
SWIDTH 500 0
DWIDTH 7 0
BBX 6 12 0 3
BITMAP
10
30
20
78
FC
CC
C0
C0
C0
CC
FC
78
ENDCHAR
STARTCHAR LATIN_SMALL_LETTER_C_WITH_ACUTE
ENCODING 263
SWIDTH 500 0
DWIDTH 7 0
BBX 6 11 0 3
BITMAP
10
30
20
00
78
FC
CC
C0
CC
FC
78
ENDCHAR
STARTCHAR LATIN_CAPITAL_LETTER_C_WITH_DOT_ABOVE
ENCODING 266
SWIDTH 500 0
DWIDTH 7 0
BBX 6 11 0 3
BITMAP
60
20
78
FC
CC
C0
C0
C0
CC
FC
78
ENDCHAR
STARTCHAR LATIN_SMALL_LETTER_C_WITH_DOT_ABOVE
ENCODING 267
SWIDTH 500 0
DWIDTH 7 0
BBX 6 10 0 3
BITMAP
20
60
00
78
FC
CC
C0
CC
FC
78
ENDCHAR
STARTCHAR LATIN_CAPITAL_LETTER_C_WITH_CARON
ENCODING 268
SWIDTH 500 0
DWIDTH 7 0
BBX 6 12 0 3
BITMAP
78
30
20
78
FC
CC
C0
C0
C0
CC
FC
78
ENDCHAR
STARTCHAR LATIN_SMALL_LETTER_C_WITH_CARON
ENCODING 269
SWIDTH 500 0
DWIDTH 7 0
BBX 6 11 0 3
BITMAP
78
30
20
00
78
FC
CC
C0
CC
FC
78
ENDCHAR
STARTCHAR LATIN_CAPITAL_LETTER_D_WITH_CARON
ENCODING 270
SWIDTH 500 0
DWIDTH 7 0
BBX 6 12 0 3
BITMAP
78
30
20
F8
FC
DC
CC
CC
CC
DC
FC
F8
ENDCHAR
STARTCHAR LATIN_SMALL_LETTER_D_WITH_CARON
ENCODING 271
SWIDTH 500 0
DWIDTH 8 0
BBX 7 11 0 3
BITMAP
02
06
0E
0C
7C
FC
CC
CC
CC
FC
6C
ENDCHAR
STARTCHAR LATIN_CAPITAL_LETTER_D_WITH_STROKE
ENCODING 272
SWIDTH 500 0
DWIDTH 8 0
BBX 7 9 0 3
BITMAP
7C
7E
6E
66
F6
F6
6E
7E
7C
ENDCHAR
STARTCHAR LATIN_SMALL_LETTER_D_WITH_STROKE
ENCODING 273
SWIDTH 500 0
DWIDTH 8 0
BBX 7 9 0 3
BITMAP
0C
3E
0C
7C
FC
CC
CC
FC
6C
ENDCHAR
STARTCHAR LATIN_CAPITAL_LETTER_E_WITH_MACRON
ENCODING 274
SWIDTH 500 0
DWIDTH 6 0
BBX 5 11 0 3
BITMAP
78
78
F8
F8
C0
C0
F0
F0
C0
F8
F8
ENDCHAR
STARTCHAR LATIN_SMALL_LETTER_E_WITH_MACRON
ENCODING 275
SWIDTH 500 0
DWIDTH 7 0
BBX 6 11 0 3
BITMAP
78
78
00
00
78
FC
CC
FC
FC
FC
78
ENDCHAR
STARTCHAR LATIN_CAPITAL_LETTER_E_WITH_DOT_ABOVE
ENCODING 278
SWIDTH 500 0
DWIDTH 6 0
BBX 5 11 0 3
BITMAP
60
20
F8
F8
C0
C0
F0
F0
C0
F8
F8
ENDCHAR
STARTCHAR LATIN_SMALL_LETTER_E_WITH_DOT_ABOVE
ENCODING 279
SWIDTH 500 0
DWIDTH 7 0
BBX 6 10 0 3
BITMAP
20
60
00
78
FC
CC
FC
FC
FC
78
ENDCHAR
STARTCHAR LATIN_CAPITAL_LETTER_E_WITH_OGONEK
ENCODING 280
SWIDTH 500 0
DWIDTH 6 0
BBX 5 12 0 0
BITMAP
F8
F8
C0
C0
F0
F0
C0
F8
F8
08
10
18
ENDCHAR
STARTCHAR LATIN_SMALL_LETTER_E_WITH_OGONEK
ENCODING 281
SWIDTH 500 0
DWIDTH 7 0
BBX 6 10 0 0
BITMAP
78
FC
CC
FC
FC
FC
78
10
20
30
ENDCHAR
STARTCHAR LATIN_CAPITAL_LETTER_E_WITH_CARON
ENCODING 282
SWIDTH 500 0
DWIDTH 6 0
BBX 5 12 0 3
BITMAP
78
30
20
F8
F8
C0
C0
F0
F0
C0
F8
F8
ENDCHAR
STARTCHAR LATIN_SMALL_LETTER_E_WITH_CARON
ENCODING 283
SWIDTH 500 0
DWIDTH 7 0
BBX 6 11 0 3
BITMAP
78
30
20
00
78
FC
CC
FC
FC
FC
78
ENDCHAR
STARTCHAR LATIN_CAPITAL_LETTER_G_WITH_BREVE
ENCODING 286
SWIDTH 500 0
DWIDTH 7 0
BBX 6 12 0 3
BITMAP
48
78
30
78
FC
CC
C0
FC
FC
CC
FC
78
ENDCHAR
STARTCHAR LATIN_SMALL_LETTER_G_WITH_BREVE
ENCODING 287
SWIDTH 500 0
DWIDTH 7 0
BBX 6 12 0 1
BITMAP
64
3C
38
7C
FC
CC
CC
CC
FC
6C
FC
78
ENDCHAR
STARTCHAR LATIN_CAPITAL_LETTER_G_WITH_DOT_ABOVE
ENCODING 288
SWIDTH 500 0
DWIDTH 7 0
BBX 6 11 0 3
BITMAP
60
20
78
FC
CC
C0
FC
FC
CC
FC
78
ENDCHAR
STARTCHAR LATIN_SMALL_LETTER_G_WITH_DOT_ABOVE
ENCODING 289
SWIDTH 500 0
DWIDTH 7 0
BBX 6 11 0 1
BITMAP
30
30
7C
FC
CC
CC
CC
FC
6C
FC
78
ENDCHAR
STARTCHAR LATIN_CAPITAL_LETTER_G_WITH_CEDILLA
ENCODING 290
SWIDTH 500 0
DWIDTH 7 0
BBX 6 12 0 0
BITMAP
78
FC
CC
C0
FC
FC
CC
FC
78
00
30
30
ENDCHAR
STARTCHAR LATIN_SMALL_LETTER_G_WITH_CEDILLA
ENCODING 291
SWIDTH 500 0
DWIDTH 7 0
BBX 6 12 0 1
BITMAP
20
30
30
7C
FC
CC
CC
CC
FC
6C
FC
78
ENDCHAR
STARTCHAR LATIN_CAPITAL_LETTER_H_WITH_STROKE
ENCODING 294
SWIDTH 500 0
DWIDTH 8 0
BBX 7 9 0 3
BITMAP
66
FE
FE
66
7E
7E
66
66
66
ENDCHAR
STARTCHAR LATIN_SMALL_LETTER_H_WITH_STROKE
ENCODING 295
SWIDTH 500 0
DWIDTH 8 0
BBX 7 9 0 3
BITMAP
60
F0
60
7C
7E
66
66
66
66
ENDCHAR
STARTCHAR LATIN_CAPITAL_LETTER_I_WITH_MACRON
ENCODING 298
SWIDTH 500 0
DWIDTH 4 0
BBX 3 11 0 3
BITMAP
E0
E0
60
60
60
60
60
60
60
60
60
ENDCHAR
STARTCHAR LATIN_SMALL_LETTER_I_WITH_MACRON
ENCODING 299
SWIDTH 500 0
DWIDTH 4 0
BBX 3 11 0 3
BITMAP
E0
E0
00
00
00
60
60
60
60
60
60
ENDCHAR
STARTCHAR LATIN_CAPITAL_LETTER_I_WITH_OGONEK
ENCODING 302
SWIDTH 500 0
DWIDTH 3 0
BBX 2 12 0 0
BITMAP
C0
C0
C0
C0
C0
C0
C0
C0
C0
40
80
C0
ENDCHAR
STARTCHAR LATIN_SMALL_LETTER_I_WITH_OGONEK
ENCODING 303
SWIDTH 500 0
DWIDTH 3 0
BBX 2 12 0 0
BITMAP
C0
C0
00
C0
C0
C0
C0
C0
C0
40
80
C0
ENDCHAR
STARTCHAR LATIN_CAPITAL_LETTER_I_WITH_DOT_ABOVE
ENCODING 304
SWIDTH 500 0
DWIDTH 3 0
BBX 2 11 0 3
BITMAP
C0
C0
C0
C0
C0
C0
C0
C0
C0
C0
C0
ENDCHAR
STARTCHAR LATIN_SMALL_LETTER_DOTLESS_I
ENCODING 305
SWIDTH 500 0
DWIDTH 3 0
BBX 2 6 0 3
BITMAP
C0
C0
C0
C0
C0
C0
ENDCHAR
STARTCHAR LATIN_CAPITAL_LIGATURE_IJ
ENCODING 306
SWIDTH 500 0
DWIDTH 8 0
BBX 7 9 0 3
BITMAP
C6
C6
C6
C6
C6
C6
F6
FE
DE
ENDCHAR
STARTCHAR LATIN_SMALL_LIGATURE_IJ
ENCODING 307
SWIDTH 500 0
DWIDTH 6 0
BBX 5 11 0 1
BITMAP
D8
D8
00
D8
D8
D8
D8
D8
D8
38
30
ENDCHAR
STARTCHAR LATIN_CAPITAL_LETTER_K_WITH_CEDILLA
ENCODING 310
SWIDTH 500 0
DWIDTH 6 0
BBX 5 12 0 0
BITMAP
D8
D8
D8
F0
F0
F8
F8
D8
D8
00
60
20
ENDCHAR
STARTCHAR LATIN_SMALL_LETTER_K_WITH_CEDILLA
ENCODING 311
SWIDTH 500 0
DWIDTH 6 0
BBX 5 12 0 0
BITMAP
C0
C0
D8
D8
F0
F0
D8
D8
D8
00
60
20
ENDCHAR
STARTCHAR LATIN_CAPITAL_LETTER_L_WITH_ACUTE
ENCODING 313
SWIDTH 500 0
DWIDTH 5 0
BBX 4 12 0 3
BITMAP
60
40
40
C0
C0
C0
C0
C0
C0
C0
F0
F0
ENDCHAR
STARTCHAR LATIN_SMALL_LETTER_L_WITH_ACUTE
ENCODING 314
SWIDTH 500 0
DWIDTH 3 0
BBX 3 12 -1 3
BITMAP
60
C0
00
60
60
60
60
60
60
60
60
60
ENDCHAR
STARTCHAR LATIN_CAPITAL_LETTER_L_WITH_CEDILLA
ENCODING 315
SWIDTH 500 0
DWIDTH 5 0
BBX 4 12 0 0
BITMAP
C0
C0
C0
C0
C0
C0
C0
F0
F0
00
60
20
ENDCHAR
STARTCHAR LATIN_SMALL_LETTER_L_WITH_CEDILLA
ENCODING 316
SWIDTH 500 0
DWIDTH 3 0
BBX 2 12 0 0
BITMAP
C0
C0
C0
C0
C0
C0
C0
C0
C0
00
C0
C0
ENDCHAR
STARTCHAR LATIN_CAPITAL_LETTER_L_WITH_CARON
ENCODING 317
SWIDTH 500 0
DWIDTH 6 0
BBX 5 10 0 3
BITMAP
18
D8
C8
C0
C0
C0
C0
C0
F0
F0
ENDCHAR
STARTCHAR LATIN_SMALL_LETTER_L_WITH_CARON
ENCODING 318
SWIDTH 500 0
DWIDTH 4 0
BBX 3 11 0 3
BITMAP
20
60
E0
C0
C0
C0
C0
C0
C0
C0
C0
ENDCHAR
STARTCHAR LATIN_CAPITAL_LETTER_L_WITH_STROKE
ENCODING 321
SWIDTH 500 0
DWIDTH 6 0
BBX 5 9 0 3
BITMAP
60
60
70
70
60
E0
E0
78
78
ENDCHAR
STARTCHAR LATIN_SMALL_LETTER_L_WITH_STROKE
ENCODING 322
SWIDTH 500 0
DWIDTH 6 0
BBX 5 9 0 3
BITMAP
60
60
60
78
60
E0
60
60
60
ENDCHAR
STARTCHAR LATIN_CAPITAL_LETTER_N_WITH_ACUTE
ENCODING 323
SWIDTH 500 0
DWIDTH 8 0
BBX 7 12 0 3
BITMAP
08
18
10
E6
E6
E6
E6
F6
FE
DE
DE
CE
ENDCHAR
STARTCHAR LATIN_SMALL_LETTER_N_WITH_ACUTE
ENCODING 324
SWIDTH 500 0
DWIDTH 7 0
BBX 6 11 0 3
BITMAP
10
30
20
00
F8
FC
CC
CC
CC
CC
CC
ENDCHAR
STARTCHAR LATIN_CAPITAL_LETTER_N_WITH_CEDILLA
ENCODING 325
SWIDTH 500 0
DWIDTH 8 0
BBX 7 12 0 0
BITMAP
E6
E6
E6
E6
F6
FE
DE
DE
CE
00
30
30
ENDCHAR
STARTCHAR LATIN_SMALL_LETTER_N_WITH_CEDILLA
ENCODING 326
SWIDTH 500 0
DWIDTH 7 0
BBX 6 10 0 0
BITMAP
F8
FC
CC
CC
CC
CC
CC
00
30
30
ENDCHAR
STARTCHAR LATIN_CAPITAL_LETTER_N_WITH_CARON
ENCODING 327
SWIDTH 500 0
DWIDTH 8 0
BBX 7 12 0 3
BITMAP
2C
38
10
E6
E6
E6
E6
F6
FE
DE
DE
CE
ENDCHAR
STARTCHAR LATIN_SMALL_LETTER_N_WITH_CARON
ENCODING 328
SWIDTH 500 0
DWIDTH 7 0
BBX 6 11 0 3
BITMAP
78
30
20
00
F8
FC
CC
CC
CC
CC
CC
ENDCHAR
STARTCHAR LATIN_CAPITAL_LETTER_ENG
ENCODING 330
SWIDTH 500 0
DWIDTH 8 0
BBX 7 12 0 0
BITMAP
E6
E6
E6
E6
F6
FE
DE
DE
CE
06
06
0C
ENDCHAR
STARTCHAR LATIN_SMALL_LETTER_ENG
ENCODING 331
SWIDTH 500 0
DWIDTH 7 0
BBX 6 9 0 1
BITMAP
F8
FC
CC
CC
CC
CC
CC
0C
18
ENDCHAR
STARTCHAR LATIN_CAPITAL_LETTER_O_WITH_MACRON
ENCODING 332
SWIDTH 500 0
DWIDTH 7 0
BBX 6 11 0 3
BITMAP
78
78
78
FC
DC
CC
CC
CC
DC
FC
78
ENDCHAR
STARTCHAR LATIN_SMALL_LETTER_O_WITH_MACRON
ENCODING 333
SWIDTH 500 0
DWIDTH 7 0
BBX 6 11 0 3
BITMAP
78
78
00
00
78
FC
CC
CC
CC
FC
78
ENDCHAR
STARTCHAR LATIN_CAPITAL_LETTER_O_WITH_DOUBLE_ACUTE
ENCODING 336
SWIDTH 500 0
DWIDTH 7 0
BBX 6 12 0 3
BITMAP
78
F0
00
78
FC
DC
CC
CC
CC
DC
FC
78
ENDCHAR
STARTCHAR LATIN_SMALL_LETTER_O_WITH_DOUBLE_ACUTE
ENCODING 337
SWIDTH 500 0
DWIDTH 7 0
BBX 6 11 0 3
BITMAP
24
2C
58
00
78
FC
CC
CC
CC
FC
78
ENDCHAR
STARTCHAR LATIN_CAPITAL_LIGATURE_OE
ENCODING 338
SWIDTH 500 0
DWIDTH 9 0
BBX 8 9 0 3
BITMAP
7F
FF
DC
CC
CE
CE
DC
FF
7F
ENDCHAR
STARTCHAR LATIN_SMALL_LIGATURE_OE
ENCODING 339
SWIDTH 500 0
DWIDTH 10 0
BBX 9 7 0 3
BITMAP
7F00
FF80
CD80
CF80
CF80
FF80
7F00
ENDCHAR
STARTCHAR LATIN_CAPITAL_LETTER_R_WITH_ACUTE
ENCODING 340
SWIDTH 500 0
DWIDTH 7 0
BBX 6 12 0 3
BITMAP
10
30
20
F8
FC
CC
CC
CC
FC
FC
CC
CC
ENDCHAR
STARTCHAR LATIN_SMALL_LETTER_R_WITH_ACUTE
ENCODING 341
SWIDTH 500 0
DWIDTH 6 0
BBX 5 11 0 3
BITMAP
10
30
20
00
F0
F8
D0
C0
C0
C0
C0
ENDCHAR
STARTCHAR LATIN_CAPITAL_LETTER_R_WITH_CEDILLA
ENCODING 342
SWIDTH 500 0
DWIDTH 7 0
BBX 6 12 0 0
BITMAP
F8
FC
CC
CC
CC
FC
FC
CC
CC
00
60
20
ENDCHAR
STARTCHAR LATIN_SMALL_LETTER_R_WITH_CEDILLA
ENCODING 343
SWIDTH 500 0
DWIDTH 6 0
BBX 5 10 0 0
BITMAP
F0
F8
D0
C0
C0
C0
C0
00
60
60
ENDCHAR
STARTCHAR LATIN_CAPITAL_LETTER_R_WITH_CARON
ENCODING 344
SWIDTH 500 0
DWIDTH 7 0
BBX 6 12 0 3
BITMAP
78
30
20
F8
FC
CC
CC
CC
FC
FC
CC
CC
ENDCHAR
STARTCHAR LATIN_SMALL_LETTER_R_WITH_CARON
ENCODING 345
SWIDTH 500 0
DWIDTH 6 0
BBX 5 11 0 3
BITMAP
78
30
20
00
F0
F8
D0
C0
C0
C0
C0
ENDCHAR
STARTCHAR LATIN_CAPITAL_LETTER_S_WITH_ACUTE
ENCODING 346
SWIDTH 500 0
DWIDTH 7 0
BBX 6 12 0 3
BITMAP
10
30
20
78
FC
CC
C0
7C
7C
CC
FC
78
ENDCHAR
STARTCHAR LATIN_SMALL_LETTER_S_WITH_ACUTE
ENCODING 347
SWIDTH 500 0
DWIDTH 6 0
BBX 5 11 0 3
BITMAP
10
30
20
00
70
F8
C0
78
78
F8
70
ENDCHAR
STARTCHAR LATIN_CAPITAL_LETTER_S_WITH_CEDILLA
ENCODING 350
SWIDTH 500 0
DWIDTH 7 0
BBX 6 12 0 0
BITMAP
78
FC
CC
C0
7C
7C
CC
FC
78
20
10
30
ENDCHAR
STARTCHAR LATIN_SMALL_LETTER_S_WITH_CEDILLA
ENCODING 351
SWIDTH 500 0
DWIDTH 6 0
BBX 5 10 0 0
BITMAP
70
F8
C0
78
78
F8
70
60
20
60
ENDCHAR
STARTCHAR LATIN_CAPITAL_LETTER_S_WITH_CARON
ENCODING 352
SWIDTH 500 0
DWIDTH 7 0
BBX 6 12 0 3
BITMAP
78
30
20
78
FC
CC
C0
7C
7C
CC
FC
78
ENDCHAR
STARTCHAR LATIN_SMALL_LETTER_S_WITH_CARON
ENCODING 353
SWIDTH 500 0
DWIDTH 6 0
BBX 5 11 0 3
BITMAP
78
30
20
00
70
F8
C0
78
78
F8
70
ENDCHAR
STARTCHAR LATIN_CAPITAL_LETTER_T_WITH_CARON
ENCODING 356
SWIDTH 500 0
DWIDTH 6 0
BBX 5 12 0 3
BITMAP
78
30
20
F8
F8
60
60
60
60
60
60
60
ENDCHAR
STARTCHAR LATIN_SMALL_LETTER_T_WITH_CARON
ENCODING 357
SWIDTH 500 0
DWIDTH 6 0
BBX 5 11 0 3
BITMAP
18
18
68
60
60
F0
F0
60
60
70
70
ENDCHAR
STARTCHAR LATIN_CAPITAL_LETTER_U_WITH_MACRON
ENCODING 362
SWIDTH 500 0
DWIDTH 7 0
BBX 6 11 0 3
BITMAP
78
78
CC
CC
CC
CC
CC
CC
DC
FC
78
ENDCHAR
STARTCHAR LATIN_SMALL_LETTER_U_WITH_MACRON
ENCODING 363
SWIDTH 500 0
DWIDTH 7 0
BBX 6 11 0 3
BITMAP
78
78
00
00
CC
CC
CC
CC
CC
FC
6C
ENDCHAR
STARTCHAR LATIN_CAPITAL_LETTER_U_WITH_BREVE
ENCODING 364
SWIDTH 500 0
DWIDTH 7 0
BBX 6 12 0 3
BITMAP
48
78
30
CC
CC
CC
CC
CC
CC
DC
FC
78
ENDCHAR
STARTCHAR LATIN_SMALL_LETTER_U_WITH_BREVE
ENCODING 365
SWIDTH 500 0
DWIDTH 7 0
BBX 6 11 0 3
BITMAP
48
78
70
00
CC
CC
CC
CC
CC
FC
6C
ENDCHAR
STARTCHAR LATIN_CAPITAL_LETTER_U_WITH_RING_ABOVE
ENCODING 366
SWIDTH 500 0
DWIDTH 7 0
BBX 6 12 0 3
BITMAP
30
30
00
CC
CC
CC
CC
CC
CC
DC
FC
78
ENDCHAR
STARTCHAR LATIN_SMALL_LETTER_U_WITH_RING_ABOVE
ENCODING 367
SWIDTH 500 0
DWIDTH 7 0
BBX 6 11 0 3
BITMAP
30
70
30
00
CC
CC
CC
CC
CC
FC
6C
ENDCHAR
STARTCHAR LATIN_CAPITAL_LETTER_U_WITH_DOUBLE_ACUTE
ENCODING 368
SWIDTH 500 0
DWIDTH 7 0
BBX 6 12 0 3
BITMAP
78
F0
00
CC
CC
CC
CC
CC
CC
DC
FC
78
ENDCHAR
STARTCHAR LATIN_SMALL_LETTER_U_WITH_DOUBLE_ACUTE
ENCODING 369
SWIDTH 500 0
DWIDTH 7 0
BBX 6 11 0 3
BITMAP
24
2C
58
00
CC
CC
CC
CC
CC
FC
6C
ENDCHAR
STARTCHAR LATIN_CAPITAL_LETTER_U_WITH_OGONEK
ENCODING 370
SWIDTH 500 0
DWIDTH 7 0
BBX 6 12 0 0
BITMAP
CC
CC
CC
CC
CC
CC
CC
FC
78
10
20
30
ENDCHAR
STARTCHAR LATIN_SMALL_LETTER_U_WITH_OGONEK
ENCODING 371
SWIDTH 500 0
DWIDTH 7 0
BBX 6 10 0 0
BITMAP
CC
CC
CC
CC
CC
FC
6C
04
08
0C
ENDCHAR
STARTCHAR LATIN_CAPITAL_LETTER_W_WITH_CIRCUMFLEX
ENCODING 372
SWIDTH 500 0
DWIDTH 9 0
BBX 8 12 0 3
BITMAP
18
3C
24
DB
DB
DB
DB
DB
DB
FF
66
66
ENDCHAR
STARTCHAR LATIN_SMALL_LETTER_W_WITH_CIRCUMFLEX
ENCODING 373
SWIDTH 500 0
DWIDTH 9 0
BBX 8 11 0 3
BITMAP
3C
3C
00
00
DB
DB
DB
DB
DB
7E
66
ENDCHAR
STARTCHAR LATIN_CAPITAL_LETTER_Y_WITH_CIRCUMFLEX
ENCODING 374
SWIDTH 500 0
DWIDTH 8 0
BBX 7 12 0 3
BITMAP
30
78
08
C6
C6
C6
C6
6C
78
38
30
30
ENDCHAR
STARTCHAR LATIN_SMALL_LETTER_Y_WITH_CIRCUMFLEX
ENCODING 375
SWIDTH 500 0
DWIDTH 6 0
BBX 5 13 0 1
BITMAP
60
70
50
00
D8
D8
D8
D8
78
70
60
E0
C0
ENDCHAR
STARTCHAR LATIN_CAPITAL_LETTER_Y_WITH_DIAERESIS
ENCODING 376
SWIDTH 500 0
DWIDTH 8 0
BBX 7 11 0 3
BITMAP
6C
4C
C6
C6
C6
C6
6C
78
38
30
30
ENDCHAR
STARTCHAR LATIN_CAPITAL_LETTER_Z_WITH_ACUTE
ENCODING 377
SWIDTH 500 0
DWIDTH 8 0
BBX 7 12 0 3
BITMAP
08
18
10
FE
FE
0C
1C
38
70
E0
FC
FE
ENDCHAR
STARTCHAR LATIN_SMALL_LETTER_Z_WITH_ACUTE
ENCODING 378
SWIDTH 500 0
DWIDTH 7 0
BBX 6 11 0 3
BITMAP
10
30
20
00
FC
FC
1C
38
70
FC
FC
ENDCHAR
STARTCHAR LATIN_CAPITAL_LETTER_Z_WITH_DOT_ABOVE
ENCODING 379
SWIDTH 500 0
DWIDTH 8 0
BBX 7 11 0 3
BITMAP
30
30
FE
FE
0C
1C
38
70
E0
FC
FE
ENDCHAR
STARTCHAR LATIN_SMALL_LETTER_Z_WITH_DOT_ABOVE
ENCODING 380
SWIDTH 500 0
DWIDTH 7 0
BBX 6 10 0 3
BITMAP
20
60
00
FC
FC
1C
38
70
FC
FC
ENDCHAR
STARTCHAR LATIN_CAPITAL_LETTER_Z_WITH_CARON
ENCODING 381
SWIDTH 500 0
DWIDTH 8 0
BBX 7 12 0 3
BITMAP
2C
38
10
FE
FE
0C
1C
38
70
E0
FC
FE
ENDCHAR
STARTCHAR LATIN_SMALL_LETTER_Z_WITH_CARON
ENCODING 382
SWIDTH 500 0
DWIDTH 7 0
BBX 6 11 0 3
BITMAP
78
30
20
00
FC
FC
1C
38
70
FC
FC
ENDCHAR
STARTCHAR GREEK_SMALL_LETTER_MU
ENCODING 956
SWIDTH 500 0
DWIDTH 6 0
BBX 5 8 0 1
BITMAP
88
88
88
88
98
68
80
80
ENDCHAR
STARTCHAR EN_DASH
ENCODING 8211
SWIDTH 500 0
DWIDTH 7 0
BBX 6 2 0 7
BITMAP
FC
FC
ENDCHAR
STARTCHAR EM_DASH
ENCODING 8212
SWIDTH 500 0
DWIDTH 9 0
BBX 8 2 0 7
BITMAP
FF
FF
ENDCHAR
STARTCHAR LEFT_SINGLE_QUOTATION_MARK
ENCODING 8216
SWIDTH 500 0
DWIDTH 3 0
BBX 2 4 0 8
BITMAP
40
80
C0
C0
ENDCHAR
STARTCHAR RIGHT_SINGLE_QUOTATION_MARK
ENCODING 8217
SWIDTH 500 0
DWIDTH 3 0
BBX 2 4 0 8
BITMAP
C0
C0
00
80
ENDCHAR
STARTCHAR LEFT_DOUBLE_QUOTATION_MARK
ENCODING 8220
SWIDTH 500 0
DWIDTH 5 0
BBX 4 4 0 8
BITMAP
50
A0
F0
F0
ENDCHAR
STARTCHAR RIGHT_DOUBLE_QUOTATION_MARK
ENCODING 8221
SWIDTH 500 0
DWIDTH 5 0
BBX 4 4 0 8
BITMAP
F0
F0
10
A0
ENDCHAR
STARTCHAR BULLET
ENCODING 8226
SWIDTH 500 0
DWIDTH 4 0
BBX 3 3 0 7
BITMAP
C0
E0
E0
ENDCHAR
STARTCHAR HORIZONTAL_ELLIPSIS
ENCODING 8230
SWIDTH 500 0
DWIDTH 8 0
BBX 7 2 0 3
BITMAP
F4
F6
ENDCHAR
STARTCHAR EURO_SIGN
ENCODING 8364
SWIDTH 500 0
DWIDTH 8 0
BBX 7 8 0 3
BITMAP
7C
7E
64
F0
F0
64
7E
7C
ENDCHAR
ENDFONT
