STARTFONT 2.1
FONT -pixbar-pixbar-digits-medium-r-normal--16-*-*-*-p-*-iso10646-1
SIZE 16 75 75
FONTBOUNDINGBOX 15 16 0 0
STARTPROPERTIES 8
FOUNDRY "Pixbar"
FAMILY_NAME "Pixbar Digits"
FONT_NAME "Pixbar Digits"
COPYRIGHT "Copyright 2021 The Pixelify Sans Project Authors; generated TC002 bitmap adaptation under SIL OFL 1.1"
PIXEL_SIZE 16
FONT_ASCENT 16
FONT_DESCENT 0
CHARSET_REGISTRY "ISO10646"
ENDPROPERTIES
CHARS 416
STARTCHAR SPACE
ENCODING 32
SWIDTH 500 0
DWIDTH 3 0
BBX 1 1 0 0
BITMAP
00
ENDCHAR
STARTCHAR EXCLAMATION_MARK
ENCODING 33
SWIDTH 500 0
DWIDTH 4 0
BBX 2 10 1 3
BITMAP
C0
C0
C0
C0
C0
C0
C0
00
C0
C0
ENDCHAR
STARTCHAR QUOTATION_MARK
ENCODING 34
SWIDTH 500 0
DWIDTH 7 0
BBX 5 3 1 10
BITMAP
F0
F8
50
ENDCHAR
STARTCHAR NUMBER_SIGN
ENCODING 35
SWIDTH 500 0
DWIDTH 10 0
BBX 8 10 1 3
BITMAP
66
66
66
FF
FF
66
66
FF
FF
66
ENDCHAR
STARTCHAR DOLLAR_SIGN
ENCODING 36
SWIDTH 500 0
DWIDTH 9 0
BBX 7 14 1 1
BITMAP
10
30
78
FE
C6
C0
78
78
06
C6
FE
78
30
10
ENDCHAR
STARTCHAR PERCENT_SIGN
ENCODING 37
SWIDTH 500 0
DWIDTH 12 0
BBX 10 10 1 3
BITMAP
60C0
F1C0
F180
6600
6E00
1D80
1980
33C0
F3C0
C180
ENDCHAR
STARTCHAR AMPERSAND
ENCODING 38
SWIDTH 500 0
DWIDTH 10 0
BBX 8 10 1 3
BITMAP
7C
FE
C6
6C
7C
7C
6C
C6
FF
7F
ENDCHAR
STARTCHAR APOSTROPHE
ENCODING 39
SWIDTH 500 0
DWIDTH 4 0
BBX 2 3 1 10
BITMAP
C0
C0
40
ENDCHAR
STARTCHAR LEFT_PARENTHESIS
ENCODING 40
SWIDTH 500 0
DWIDTH 6 0
BBX 4 14 1 1
BITMAP
30
30
30
60
60
E0
C0
C0
60
60
60
30
30
30
ENDCHAR
STARTCHAR RIGHT_PARENTHESIS
ENCODING 41
SWIDTH 500 0
DWIDTH 6 0
BBX 4 14 1 1
BITMAP
C0
C0
C0
60
60
70
30
30
60
60
60
C0
C0
C0
ENDCHAR
STARTCHAR ASTERISK
ENCODING 42
SWIDTH 500 0
DWIDTH 4 0
BBX 2 3 1 10
BITMAP
C0
C0
C0
ENDCHAR
STARTCHAR PLUS_SIGN
ENCODING 43
SWIDTH 500 0
DWIDTH 9 0
BBX 7 7 1 4
BITMAP
30
30
30
FE
FE
30
30
ENDCHAR
STARTCHAR COMMA
ENCODING 44
SWIDTH 500 0
DWIDTH 4 0
BBX 2 3 1 2
BITMAP
C0
C0
40
ENDCHAR
STARTCHAR HYPHEN-MINUS
ENCODING 45
SWIDTH 500 0
DWIDTH 6 0
BBX 4 2 1 6
BITMAP
F0
F0
ENDCHAR
STARTCHAR FULL_STOP
ENCODING 46
SWIDTH 500 0
DWIDTH 4 0
BBX 2 2 1 3
BITMAP
C0
C0
ENDCHAR
STARTCHAR SOLIDUS
ENCODING 47
SWIDTH 500 0
DWIDTH 8 0
BBX 6 10 1 3
BITMAP
0C
18
18
10
30
20
60
40
C0
C0
ENDCHAR
STARTCHAR DIGIT_ZERO
ENCODING 48
SWIDTH 500 0
DWIDTH 9 0
BBX 7 10 1 3
BITMAP
78
78
C6
C6
C6
C6
C6
C6
FE
78
ENDCHAR
STARTCHAR DIGIT_ONE
ENCODING 49
SWIDTH 500 0
DWIDTH 6 0
BBX 4 10 1 3
BITMAP
60
60
F0
F0
30
30
30
30
30
30
ENDCHAR
STARTCHAR DIGIT_TWO
ENCODING 50
SWIDTH 500 0
DWIDTH 9 0
BBX 7 10 1 3
BITMAP
78
FE
C6
06
78
78
C0
C6
FE
78
ENDCHAR
STARTCHAR DIGIT_THREE
ENCODING 51
SWIDTH 500 0
DWIDTH 9 0
BBX 7 10 1 3
BITMAP
78
FE
C6
06
78
78
06
C6
FE
78
ENDCHAR
STARTCHAR DIGIT_FOUR
ENCODING 52
SWIDTH 500 0
DWIDTH 9 0
BBX 7 10 1 3
BITMAP
0E
3E
36
66
E6
FE
FE
06
06
06
ENDCHAR
STARTCHAR DIGIT_FIVE
ENCODING 53
SWIDTH 500 0
DWIDTH 9 0
BBX 7 10 1 3
BITMAP
78
FE
C6
C6
60
78
38
C6
FE
78
ENDCHAR
STARTCHAR DIGIT_SIX
ENCODING 54
SWIDTH 500 0
DWIDTH 9 0
BBX 7 10 1 3
BITMAP
78
FE
C6
C0
F8
F8
C6
C6
FE
78
ENDCHAR
STARTCHAR DIGIT_SEVEN
ENCODING 55
SWIDTH 500 0
DWIDTH 9 0
BBX 7 10 1 3
BITMAP
78
78
C6
C6
06
06
06
06
06
06
ENDCHAR
STARTCHAR DIGIT_EIGHT
ENCODING 56
SWIDTH 500 0
DWIDTH 9 0
BBX 7 10 1 3
BITMAP
78
FE
C6
C6
78
78
C6
C6
FE
78
ENDCHAR
STARTCHAR DIGIT_NINE
ENCODING 57
SWIDTH 500 0
DWIDTH 9 0
BBX 7 10 1 3
BITMAP
78
FE
C6
C6
7E
7E
06
C6
FE
78
ENDCHAR
STARTCHAR COLON
ENCODING 58
SWIDTH 500 0
DWIDTH 4 0
BBX 2 5 1 4
BITMAP
C0
C0
00
C0
C0
ENDCHAR
STARTCHAR SEMICOLON
ENCODING 59
SWIDTH 500 0
DWIDTH 4 0
BBX 2 6 1 3
BITMAP
C0
C0
00
C0
C0
40
ENDCHAR
STARTCHAR LESS-THAN_SIGN
ENCODING 60
SWIDTH 500 0
DWIDTH 9 0
BBX 7 13 1 1
BITMAP
06
0E
3C
30
60
E0
E0
60
30
3C
0C
06
06
ENDCHAR
STARTCHAR EQUALS_SIGN
ENCODING 61
SWIDTH 500 0
DWIDTH 7 0
BBX 5 4 1 5
BITMAP
F8
F8
F8
F8
ENDCHAR
STARTCHAR GREATER-THAN_SIGN
ENCODING 62
SWIDTH 500 0
DWIDTH 9 0
BBX 7 13 1 1
BITMAP
C0
E0
70
30
0C
0E
0E
0C
30
70
60
C0
C0
ENDCHAR
STARTCHAR QUESTION_MARK
ENCODING 63
SWIDTH 500 0
DWIDTH 9 0
BBX 7 10 1 3
BITMAP
78
FE
C6
C6
38
38
30
00
30
30
ENDCHAR
STARTCHAR COMMERCIAL_AT
ENCODING 64
SWIDTH 500 0
DWIDTH 9 0
BBX 7 6 1 4
BITMAP
7C
B6
CA
FC
00
70
ENDCHAR
STARTCHAR LATIN_CAPITAL_LETTER_A
ENCODING 65
SWIDTH 500 0
DWIDTH 9 0
BBX 7 10 1 3
BITMAP
30
7C
6C
C6
C6
FE
FE
C6
C6
C6
ENDCHAR
STARTCHAR LATIN_CAPITAL_LETTER_B
ENCODING 66
SWIDTH 500 0
DWIDTH 9 0
BBX 7 10 1 3
BITMAP
78
FE
C6
C6
F8
F8
C6
C6
FE
78
ENDCHAR
STARTCHAR LATIN_CAPITAL_LETTER_C
ENCODING 67
SWIDTH 500 0
DWIDTH 9 0
BBX 7 10 1 3
BITMAP
78
FE
C6
C6
C0
C0
C6
C6
FE
78
ENDCHAR
STARTCHAR LATIN_CAPITAL_LETTER_D
ENCODING 68
SWIDTH 500 0
DWIDTH 9 0
BBX 7 10 1 3
BITMAP
F0
FC
CC
C6
C6
C6
C6
CC
FC
F0
ENDCHAR
STARTCHAR LATIN_CAPITAL_LETTER_E
ENCODING 69
SWIDTH 500 0
DWIDTH 9 0
BBX 7 10 1 3
BITMAP
78
FE
C6
C0
F0
F0
C0
C6
FE
78
ENDCHAR
STARTCHAR LATIN_CAPITAL_LETTER_F
ENCODING 70
SWIDTH 500 0
DWIDTH 9 0
BBX 7 10 1 3
BITMAP
F8
FE
C6
C0
F0
F0
C0
C0
C0
C0
ENDCHAR
STARTCHAR LATIN_CAPITAL_LETTER_G
ENCODING 71
SWIDTH 500 0
DWIDTH 9 0
BBX 7 10 1 3
BITMAP
78
78
C6
C6
F6
FE
CE
C6
FE
78
ENDCHAR
STARTCHAR LATIN_CAPITAL_LETTER_H
ENCODING 72
SWIDTH 500 0
DWIDTH 9 0
BBX 7 10 1 3
BITMAP
C6
C6
C6
F6
FE
FE
C6
C6
C6
C6
ENDCHAR
STARTCHAR LATIN_CAPITAL_LETTER_I
ENCODING 73
SWIDTH 500 0
DWIDTH 6 0
BBX 4 10 1 3
BITMAP
F0
F0
60
60
60
60
60
60
F0
F0
ENDCHAR
STARTCHAR LATIN_CAPITAL_LETTER_J
ENCODING 74
SWIDTH 500 0
DWIDTH 9 0
BBX 7 10 1 3
BITMAP
78
78
06
06
06
06
C6
C6
FE
78
ENDCHAR
STARTCHAR LATIN_CAPITAL_LETTER_K
ENCODING 75
SWIDTH 500 0
DWIDTH 9 0
BBX 7 10 1 3
BITMAP
66
EE
CC
F0
F0
F0
F0
CC
CE
C6
ENDCHAR
STARTCHAR LATIN_CAPITAL_LETTER_L
ENCODING 76
SWIDTH 500 0
DWIDTH 9 0
BBX 7 10 1 3
BITMAP
C0
C0
C0
C0
C0
C0
C0
C6
FE
78
ENDCHAR
STARTCHAR LATIN_CAPITAL_LETTER_M
ENCODING 77
SWIDTH 500 0
DWIDTH 11 0
BBX 9 10 1 3
BITMAP
6300
6300
F780
F780
FF80
CD80
CD80
CD80
C180
C180
ENDCHAR
STARTCHAR LATIN_CAPITAL_LETTER_N
ENCODING 78
SWIDTH 500 0
DWIDTH 9 0
BBX 7 10 1 3
BITMAP
C6
E6
E6
F6
F6
F6
F6
CE
CE
C6
ENDCHAR
STARTCHAR LATIN_CAPITAL_LETTER_O
ENCODING 79
SWIDTH 500 0
DWIDTH 9 0
BBX 7 10 1 3
BITMAP
78
78
C6
C6
C6
C6
C6
C6
FE
78
ENDCHAR
STARTCHAR LATIN_CAPITAL_LETTER_P
ENCODING 80
SWIDTH 500 0
DWIDTH 9 0
BBX 7 10 1 3
BITMAP
78
78
C6
C6
C6
FE
F8
C0
C0
C0
ENDCHAR
STARTCHAR LATIN_CAPITAL_LETTER_Q
ENCODING 81
SWIDTH 500 0
DWIDTH 9 0
BBX 7 13 1 0
BITMAP
78
78
C6
C6
C6
C6
C6
C6
FE
78
30
18
18
ENDCHAR
STARTCHAR LATIN_CAPITAL_LETTER_R
ENCODING 82
SWIDTH 500 0
DWIDTH 9 0
BBX 7 10 1 3
BITMAP
78
78
C6
C6
C6
FE
F8
D8
DC
CC
ENDCHAR
STARTCHAR LATIN_CAPITAL_LETTER_S
ENCODING 83
SWIDTH 500 0
DWIDTH 9 0
BBX 7 10 1 3
BITMAP
78
FE
C6
C0
78
78
06
C6
FE
78
ENDCHAR
STARTCHAR LATIN_CAPITAL_LETTER_T
ENCODING 84
SWIDTH 500 0
DWIDTH 9 0
BBX 7 10 1 3
BITMAP
78
FE
F6
30
30
30
30
30
30
30
ENDCHAR
STARTCHAR LATIN_CAPITAL_LETTER_U
ENCODING 85
SWIDTH 500 0
DWIDTH 9 0
BBX 7 10 1 3
BITMAP
C6
C6
C6
C6
C6
C6
C6
C6
FE
78
ENDCHAR
STARTCHAR LATIN_CAPITAL_LETTER_V
ENCODING 86
SWIDTH 500 0
DWIDTH 9 0
BBX 7 10 1 3
BITMAP
C6
C6
C6
C6
C6
C6
6C
6C
7C
30
ENDCHAR
STARTCHAR LATIN_CAPITAL_LETTER_W
ENCODING 87
SWIDTH 500 0
DWIDTH 11 0
BBX 9 10 1 3
BITMAP
C180
C180
CD80
CD80
CD80
CD80
F780
F780
F780
6300
ENDCHAR
STARTCHAR LATIN_CAPITAL_LETTER_X
ENCODING 88
SWIDTH 500 0
DWIDTH 9 0
BBX 7 10 1 3
BITMAP
C6
EE
6C
6C
30
30
6C
6C
EE
C6
ENDCHAR
STARTCHAR LATIN_CAPITAL_LETTER_Y
ENCODING 89
SWIDTH 500 0
DWIDTH 9 0
BBX 7 10 1 3
BITMAP
C6
C6
C6
6C
7C
30
30
30
30
30
ENDCHAR
STARTCHAR LATIN_CAPITAL_LETTER_Z
ENCODING 90
SWIDTH 500 0
DWIDTH 9 0
BBX 7 10 1 3
BITMAP
F8
FE
C6
06
78
78
C0
C6
FE
7E
ENDCHAR
STARTCHAR LEFT_SQUARE_BRACKET
ENCODING 91
SWIDTH 500 0
DWIDTH 6 0
BBX 4 11 1 2
BITMAP
70
F0
C0
C0
C0
C0
C0
C0
C0
F0
70
ENDCHAR
STARTCHAR REVERSE_SOLIDUS
ENCODING 92
SWIDTH 500 0
DWIDTH 8 0
BBX 6 10 1 3
BITMAP
C0
C0
40
60
20
30
10
18
18
0C
ENDCHAR
STARTCHAR RIGHT_SQUARE_BRACKET
ENCODING 93
SWIDTH 500 0
DWIDTH 6 0
BBX 4 11 1 2
BITMAP
E0
F0
30
30
30
30
30
30
30
F0
E0
ENDCHAR
STARTCHAR CIRCUMFLEX_ACCENT
ENCODING 94
SWIDTH 500 0
DWIDTH 4 0
BBX 2 2 1 11
BITMAP
C0
C0
ENDCHAR
STARTCHAR LOW_LINE
ENCODING 95
SWIDTH 500 0
DWIDTH 7 0
BBX 5 2 1 3
BITMAP
F8
F8
ENDCHAR
STARTCHAR GRAVE_ACCENT
ENCODING 96
SWIDTH 500 0
DWIDTH 4 0
BBX 2 2 1 11
BITMAP
C0
40
ENDCHAR
STARTCHAR LATIN_SMALL_LETTER_A
ENCODING 97
SWIDTH 500 0
DWIDTH 10 0
BBX 8 7 1 3
BITMAP
78
FE
C6
C6
C6
7B
7B
ENDCHAR
STARTCHAR LATIN_SMALL_LETTER_B
ENCODING 98
SWIDTH 500 0
DWIDTH 9 0
BBX 7 10 1 3
BITMAP
C0
C0
C0
F8
F8
C6
C6
C6
FE
78
ENDCHAR
STARTCHAR LATIN_SMALL_LETTER_C
ENCODING 99
SWIDTH 500 0
DWIDTH 9 0
BBX 7 7 1 3
BITMAP
78
FE
C6
C0
C6
FE
78
ENDCHAR
STARTCHAR LATIN_SMALL_LETTER_D
ENCODING 100
SWIDTH 500 0
DWIDTH 9 0
BBX 7 10 1 3
BITMAP
06
06
06
7E
7E
C6
C6
C6
FE
78
ENDCHAR
STARTCHAR LATIN_SMALL_LETTER_E
ENCODING 101
SWIDTH 500 0
DWIDTH 9 0
BBX 7 7 1 3
BITMAP
78
FE
F6
F0
C6
FE
78
ENDCHAR
STARTCHAR LATIN_SMALL_LETTER_F
ENCODING 102
SWIDTH 500 0
DWIDTH 9 0
BBX 7 10 1 3
BITMAP
78
78
C6
C6
F0
F0
C0
C0
C0
C0
ENDCHAR
STARTCHAR LATIN_SMALL_LETTER_G
ENCODING 103
SWIDTH 500 0
DWIDTH 9 0
BBX 7 10 1 0
BITMAP
78
78
C6
C6
FE
7E
06
C6
FE
78
ENDCHAR
STARTCHAR LATIN_SMALL_LETTER_H
ENCODING 104
SWIDTH 500 0
DWIDTH 9 0
BBX 7 10 1 3
BITMAP
C0
C0
C0
F8
FE
C6
C6
C6
C6
C6
ENDCHAR
STARTCHAR LATIN_SMALL_LETTER_I
ENCODING 105
SWIDTH 500 0
DWIDTH 4 0
BBX 2 10 1 3
BITMAP
C0
C0
00
C0
C0
C0
C0
C0
C0
C0
ENDCHAR
STARTCHAR LATIN_SMALL_LETTER_J
ENCODING 106
SWIDTH 500 0
DWIDTH 8 0
BBX 6 7 1 3
BITMAP
0C
0C
0C
0C
CC
FC
70
ENDCHAR
STARTCHAR LATIN_SMALL_LETTER_K
ENCODING 107
SWIDTH 500 0
DWIDTH 9 0
BBX 7 10 1 3
BITMAP
C0
C0
C0
C6
FE
F8
E0
F8
FE
C6
ENDCHAR
STARTCHAR LATIN_SMALL_LETTER_L
ENCODING 108
SWIDTH 500 0
DWIDTH 4 0
BBX 2 10 1 3
BITMAP
C0
C0
C0
C0
C0
C0
C0
C0
C0
C0
ENDCHAR
STARTCHAR LATIN_SMALL_LETTER_M
ENCODING 109
SWIDTH 500 0
DWIDTH 11 0
BBX 9 7 1 3
BITMAP
F700
FF80
CD80
CD80
CD80
CD80
CD80
ENDCHAR
STARTCHAR LATIN_SMALL_LETTER_N
ENCODING 110
SWIDTH 500 0
DWIDTH 9 0
BBX 7 7 1 3
BITMAP
F8
FE
C6
C6
C6
C6
C6
ENDCHAR
STARTCHAR LATIN_SMALL_LETTER_O
ENCODING 111
SWIDTH 500 0
DWIDTH 9 0
BBX 7 7 1 3
BITMAP
78
FE
C6
C6
C6
78
78
ENDCHAR
STARTCHAR LATIN_SMALL_LETTER_P
ENCODING 112
SWIDTH 500 0
DWIDTH 9 0
BBX 7 10 1 0
BITMAP
78
78
C6
C6
C6
FE
F8
C0
C0
C0
ENDCHAR
STARTCHAR LATIN_SMALL_LETTER_Q
ENCODING 113
SWIDTH 500 0
DWIDTH 9 0
BBX 7 10 1 0
BITMAP
78
78
C6
C6
C6
FE
7E
06
06
06
ENDCHAR
STARTCHAR LATIN_SMALL_LETTER_R
ENCODING 114
SWIDTH 500 0
DWIDTH 9 0
BBX 7 7 1 3
BITMAP
78
FE
C6
C0
C0
C0
C0
ENDCHAR
STARTCHAR LATIN_SMALL_LETTER_S
ENCODING 115
SWIDTH 500 0
DWIDTH 9 0
BBX 7 7 1 3
BITMAP
7E
FE
F8
78
06
FE
F8
ENDCHAR
STARTCHAR LATIN_SMALL_LETTER_T
ENCODING 116
SWIDTH 500 0
DWIDTH 10 0
BBX 8 10 1 3
BITMAP
60
60
60
FE
FE
60
60
63
7F
1E
ENDCHAR
STARTCHAR LATIN_SMALL_LETTER_U
ENCODING 117
SWIDTH 500 0
DWIDTH 9 0
BBX 7 7 1 3
BITMAP
C6
C6
C6
C6
C6
FE
78
ENDCHAR
STARTCHAR LATIN_SMALL_LETTER_V
ENCODING 118
SWIDTH 500 0
DWIDTH 9 0
BBX 7 7 1 3
BITMAP
C6
C6
C6
6C
6C
7C
30
ENDCHAR
STARTCHAR LATIN_SMALL_LETTER_W
ENCODING 119
SWIDTH 500 0
DWIDTH 11 0
BBX 9 7 1 3
BITMAP
CD80
CD80
CD80
CD80
CD80
FF80
F700
ENDCHAR
STARTCHAR LATIN_SMALL_LETTER_X
ENCODING 120
SWIDTH 500 0
DWIDTH 9 0
BBX 7 7 1 3
BITMAP
C6
EE
7C
30
6C
EE
C6
ENDCHAR
STARTCHAR LATIN_SMALL_LETTER_Y
ENCODING 121
SWIDTH 500 0
DWIDTH 9 0
BBX 7 10 1 0
BITMAP
C6
C6
C6
C6
7E
7E
06
C6
FE
78
ENDCHAR
STARTCHAR LATIN_SMALL_LETTER_Z
ENCODING 122
SWIDTH 500 0
DWIDTH 9 0
BBX 7 7 1 3
BITMAP
FE
FE
3C
30
60
FE
FE
ENDCHAR
STARTCHAR LEFT_CURLY_BRACKET
ENCODING 123
SWIDTH 500 0
DWIDTH 8 0
BBX 6 13 1 1
BITMAP
30
7C
6C
60
60
C0
C0
60
60
6C
6C
30
30
ENDCHAR
STARTCHAR VERTICAL_LINE
ENCODING 124
SWIDTH 500 0
DWIDTH 4 0
BBX 2 10 1 3
BITMAP
C0
C0
C0
C0
C0
C0
C0
C0
C0
C0
ENDCHAR
STARTCHAR RIGHT_CURLY_BRACKET
ENCODING 125
SWIDTH 500 0
DWIDTH 8 0
BBX 6 13 1 1
BITMAP
60
F0
F0
30
30
0C
0C
30
30
F0
F0
60
60
ENDCHAR
STARTCHAR TILDE
ENCODING 126
SWIDTH 500 0
DWIDTH 8 0
BBX 4 2 2 6
BITMAP
F0
F0
ENDCHAR
STARTCHAR NO-BREAK_SPACE
ENCODING 160
SWIDTH 500 0
DWIDTH 3 0
BBX 1 1 0 0
BITMAP
00
ENDCHAR
STARTCHAR INVERTED_EXCLAMATION_MARK
ENCODING 161
SWIDTH 500 0
DWIDTH 4 0
BBX 2 10 1 3
BITMAP
C0
C0
00
C0
C0
C0
C0
C0
C0
C0
ENDCHAR
STARTCHAR CENT_SIGN
ENCODING 162
SWIDTH 500 0
DWIDTH 9 0
BBX 7 10 1 3
BITMAP
30
78
78
C6
C6
C6
C6
78
78
30
ENDCHAR
STARTCHAR POUND_SIGN
ENCODING 163
SWIDTH 500 0
DWIDTH 10 0
BBX 8 10 1 3
BITMAP
1E
7F
63
60
78
7C
60
63
FF
FE
ENDCHAR
STARTCHAR CURRENCY_SIGN
ENCODING 164
SWIDTH 500 0
DWIDTH 8 0
BBX 6 5 1 5
BITMAP
84
78
48
78
84
ENDCHAR
STARTCHAR YEN_SIGN
ENCODING 165
SWIDTH 500 0
DWIDTH 9 0
BBX 7 10 1 3
BITMAP
C6
C6
C6
6C
7C
7C
7C
7C
7C
30
ENDCHAR
STARTCHAR SECTION_SIGN
ENCODING 167
SWIDTH 500 0
DWIDTH 9 0
BBX 7 10 1 3
BITMAP
78
FE
C6
C0
78
78
FE
FE
FE
7E
ENDCHAR
STARTCHAR DIAERESIS
ENCODING 168
SWIDTH 500 0
DWIDTH 6 0
BBX 5 2 0 11
BITMAP
D8
D8
ENDCHAR
STARTCHAR COPYRIGHT_SIGN
ENCODING 169
SWIDTH 500 0
DWIDTH 6 0
BBX 4 4 1 8
BITMAP
F0
F0
F0
60
ENDCHAR
STARTCHAR FEMININE_ORDINAL_INDICATOR
ENCODING 170
SWIDTH 500 0
DWIDTH 6 0
BBX 4 4 1 8
BITMAP
40
A0
A0
50
ENDCHAR
STARTCHAR LEFT-POINTING_DOUBLE_ANGLE_QUOTATION_MARK
ENCODING 171
SWIDTH 500 0
DWIDTH 13 0
BBX 11 13 1 1
BITMAP
0660
0EE0
3DC0
3180
6600
EE00
EE00
6600
3180
3DC0
0CC0
0660
0660
ENDCHAR
STARTCHAR NOT_SIGN
ENCODING 172
SWIDTH 500 0
DWIDTH 8 0
BBX 6 4 1 5
BITMAP
FC
FC
0C
08
ENDCHAR
STARTCHAR REGISTERED_SIGN
ENCODING 174
SWIDTH 500 0
DWIDTH 6 0
BBX 4 4 1 8
BITMAP
F0
F0
90
60
ENDCHAR
STARTCHAR MACRON
ENCODING 175
SWIDTH 500 0
DWIDTH 6 0
BBX 4 2 1 12
BITMAP
F0
F0
ENDCHAR
STARTCHAR DEGREE_SIGN
ENCODING 176
SWIDTH 500 0
DWIDTH 3 0
BBX 3 3 0 11
BITMAP
E0
A0
E0
ENDCHAR
STARTCHAR PLUS-MINUS_SIGN
ENCODING 177
SWIDTH 500 0
DWIDTH 8 0
BBX 6 8 1 3
BITMAP
30
30
FC
FC
30
00
FC
FC
ENDCHAR
STARTCHAR SUPERSCRIPT_TWO
ENCODING 178
SWIDTH 500 0
DWIDTH 4 0
BBX 3 5 0 10
BITMAP
E0
20
40
80
E0
ENDCHAR
STARTCHAR SUPERSCRIPT_THREE
ENCODING 179
SWIDTH 500 0
DWIDTH 4 0
BBX 3 5 0 10
BITMAP
E0
20
60
20
E0
ENDCHAR
STARTCHAR ACUTE_ACCENT
ENCODING 180
SWIDTH 500 0
DWIDTH 4 0
BBX 2 2 1 11
BITMAP
C0
80
ENDCHAR
STARTCHAR MICRO_SIGN
ENCODING 181
SWIDTH 500 0
DWIDTH 6 0
BBX 5 8 0 1
BITMAP
88
88
88
88
98
68
80
80
ENDCHAR
STARTCHAR PILCROW_SIGN
ENCODING 182
SWIDTH 500 0
DWIDTH 11 0
BBX 9 13 1 0
BITMAP
7F80
7F80
FD00
FD00
FD00
FD00
7D00
7D00
0500
0500
0500
0500
0500
ENDCHAR
STARTCHAR MIDDLE_DOT
ENCODING 183
SWIDTH 500 0
DWIDTH 4 0
BBX 2 2 1 7
BITMAP
C0
C0
ENDCHAR
STARTCHAR CEDILLA
ENCODING 184
SWIDTH 500 0
DWIDTH 6 0
BBX 5 4 0 0
BITMAP
30
30
D8
70
ENDCHAR
STARTCHAR SUPERSCRIPT_ONE
ENCODING 185
SWIDTH 500 0
DWIDTH 4 0
BBX 2 5 1 7
BITMAP
80
C0
40
40
40
ENDCHAR
STARTCHAR MASCULINE_ORDINAL_INDICATOR
ENCODING 186
SWIDTH 500 0
DWIDTH 5 0
BBX 3 5 1 7
BITMAP
40
A0
A0
40
40
ENDCHAR
STARTCHAR RIGHT-POINTING_DOUBLE_ANGLE_QUOTATION_MARK
ENCODING 187
SWIDTH 500 0
DWIDTH 13 0
BBX 11 13 1 1
BITMAP
CC00
EE00
7380
3180
0CC0
0EE0
0EE0
0CC0
3180
7380
6600
CC00
CC00
ENDCHAR
STARTCHAR VULGAR_FRACTION_ONE_QUARTER
ENCODING 188
SWIDTH 500 0
DWIDTH 12 0
BBX 11 10 0 3
BITMAP
4180
F380
3380
3700
3600
0E60
0C60
1CE0
1820
1820
ENDCHAR
STARTCHAR VULGAR_FRACTION_ONE_HALF
ENCODING 189
SWIDTH 500 0
DWIDTH 11 0
BBX 10 10 0 3
BITMAP
4300
E700
2700
2600
2C80
1D40
1DC0
3940
3140
3080
ENDCHAR
STARTCHAR VULGAR_FRACTION_THREE_QUARTERS
ENCODING 190
SWIDTH 500 0
DWIDTH 13 0
BBX 12 10 0 3
BITMAP
60C0
99C0
79C0
9B80
DB00
6730
0650
1E50
1870
1810
ENDCHAR
STARTCHAR INVERTED_QUESTION_MARK
ENCODING 191
SWIDTH 500 0
DWIDTH 9 0
BBX 7 10 1 3
BITMAP
30
30
00
30
70
70
C6
C6
FE
78
ENDCHAR
STARTCHAR LATIN_CAPITAL_LETTER_A_WITH_GRAVE
ENCODING 192
SWIDTH 500 0
DWIDTH 9 0
BBX 7 13 1 3
BITMAP
60
10
00
30
7C
6C
C6
C6
FE
FE
C6
C6
C6
ENDCHAR
STARTCHAR LATIN_CAPITAL_LETTER_A_WITH_ACUTE
ENCODING 193
SWIDTH 500 0
DWIDTH 9 0
BBX 7 13 1 3
BITMAP
10
20
00
30
7C
6C
C6
C6
FE
FE
C6
C6
C6
ENDCHAR
STARTCHAR LATIN_CAPITAL_LETTER_A_WITH_CIRCUMFLEX
ENCODING 194
SWIDTH 500 0
DWIDTH 9 0
BBX 7 13 1 3
BITMAP
10
30
00
30
7C
6C
C6
C6
FE
FE
C6
C6
C6
ENDCHAR
STARTCHAR LATIN_CAPITAL_LETTER_A_WITH_TILDE
ENCODING 195
SWIDTH 500 0
DWIDTH 9 0
BBX 7 13 1 3
BITMAP
78
78
00
30
7C
6C
C6
C6
FE
FE
C6
C6
C6
ENDCHAR
STARTCHAR LATIN_CAPITAL_LETTER_A_WITH_DIAERESIS
ENCODING 196
SWIDTH 500 0
DWIDTH 9 0
BBX 7 13 1 3
BITMAP
6C
6C
00
30
7C
6C
C6
C6
FE
FE
C6
C6
C6
ENDCHAR
STARTCHAR LATIN_CAPITAL_LETTER_A_WITH_RING_ABOVE
ENCODING 197
SWIDTH 500 0
DWIDTH 9 0
BBX 7 13 1 3
BITMAP
30
30
00
30
7C
6C
C6
C6
FE
FE
C6
C6
C6
ENDCHAR
STARTCHAR LATIN_CAPITAL_LETTER_AE
ENCODING 198
SWIDTH 500 0
DWIDTH 14 0
BBX 12 10 1 3
BITMAP
33C0
7FF0
6E30
C600
C780
FF80
FE00
C630
C7F0
C7C0
ENDCHAR
STARTCHAR LATIN_CAPITAL_LETTER_C_WITH_CEDILLA
ENCODING 199
SWIDTH 500 0
DWIDTH 9 0
BBX 7 13 1 0
BITMAP
78
FE
C6
C6
C0
C0
C6
C6
FE
78
30
58
38
ENDCHAR
STARTCHAR LATIN_CAPITAL_LETTER_E_WITH_GRAVE
ENCODING 200
SWIDTH 500 0
DWIDTH 9 0
BBX 7 13 1 3
BITMAP
60
10
00
78
FE
C6
C0
F0
F0
C0
C6
FE
78
ENDCHAR
STARTCHAR LATIN_CAPITAL_LETTER_E_WITH_ACUTE
ENCODING 201
SWIDTH 500 0
DWIDTH 9 0
BBX 7 13 1 3
BITMAP
10
20
00
78
FE
C6
C0
F0
F0
C0
C6
FE
78
ENDCHAR
STARTCHAR LATIN_CAPITAL_LETTER_E_WITH_CIRCUMFLEX
ENCODING 202
SWIDTH 500 0
DWIDTH 9 0
BBX 7 13 1 3
BITMAP
10
30
00
78
FE
C6
C0
F0
F0
C0
C6
FE
78
ENDCHAR
STARTCHAR LATIN_CAPITAL_LETTER_E_WITH_DIAERESIS
ENCODING 203
SWIDTH 500 0
DWIDTH 9 0
BBX 7 13 1 3
BITMAP
6C
6C
00
78
FE
C6
C0
F0
F0
C0
C6
FE
78
ENDCHAR
STARTCHAR LATIN_CAPITAL_LETTER_I_WITH_GRAVE
ENCODING 204
SWIDTH 500 0
DWIDTH 6 0
BBX 4 13 1 3
BITMAP
C0
20
00
F0
F0
60
60
60
60
60
60
F0
F0
ENDCHAR
STARTCHAR LATIN_CAPITAL_LETTER_I_WITH_ACUTE
ENCODING 205
SWIDTH 500 0
DWIDTH 6 0
BBX 4 13 1 3
BITMAP
60
40
00
F0
F0
60
60
60
60
60
60
F0
F0
ENDCHAR
STARTCHAR LATIN_CAPITAL_LETTER_I_WITH_CIRCUMFLEX
ENCODING 206
SWIDTH 500 0
DWIDTH 6 0
BBX 4 13 1 3
BITMAP
20
60
00
F0
F0
60
60
60
60
60
60
F0
F0
ENDCHAR
STARTCHAR LATIN_CAPITAL_LETTER_I_WITH_DIAERESIS
ENCODING 207
SWIDTH 500 0
DWIDTH 7 0
BBX 5 13 1 3
BITMAP
D8
D8
00
F0
F0
60
60
60
60
60
60
F0
F0
ENDCHAR
STARTCHAR LATIN_CAPITAL_LETTER_ETH
ENCODING 208
SWIDTH 500 0
DWIDTH 9 0
BBX 7 10 1 3
BITMAP
F8
FC
CC
C6
E6
E6
C6
CC
FC
F8
ENDCHAR
STARTCHAR LATIN_CAPITAL_LETTER_N_WITH_TILDE
ENCODING 209
SWIDTH 500 0
DWIDTH 9 0
BBX 7 13 1 3
BITMAP
78
78
00
C6
E6
E6
F6
F6
F6
F6
CE
CE
C6
ENDCHAR
STARTCHAR LATIN_CAPITAL_LETTER_O_WITH_GRAVE
ENCODING 210
SWIDTH 500 0
DWIDTH 9 0
BBX 7 13 1 3
BITMAP
60
10
00
78
78
C6
C6
C6
C6
C6
C6
FE
78
ENDCHAR
STARTCHAR LATIN_CAPITAL_LETTER_O_WITH_ACUTE
ENCODING 211
SWIDTH 500 0
DWIDTH 9 0
BBX 7 13 1 3
BITMAP
10
20
00
78
78
C6
C6
C6
C6
C6
C6
FE
78
ENDCHAR
STARTCHAR LATIN_CAPITAL_LETTER_O_WITH_CIRCUMFLEX
ENCODING 212
SWIDTH 500 0
DWIDTH 9 0
BBX 7 13 1 3
BITMAP
10
30
00
78
78
C6
C6
C6
C6
C6
C6
FE
78
ENDCHAR
STARTCHAR LATIN_CAPITAL_LETTER_O_WITH_TILDE
ENCODING 213
SWIDTH 500 0
DWIDTH 9 0
BBX 7 13 1 3
BITMAP
78
78
00
78
78
C6
C6
C6
C6
C6
C6
FE
78
ENDCHAR
STARTCHAR LATIN_CAPITAL_LETTER_O_WITH_DIAERESIS
ENCODING 214
SWIDTH 500 0
DWIDTH 9 0
BBX 7 13 1 3
BITMAP
6C
6C
00
78
78
C6
C6
C6
C6
C6
C6
FE
78
ENDCHAR
STARTCHAR MULTIPLICATION_SIGN
ENCODING 215
SWIDTH 500 0
DWIDTH 8 0
BBX 6 6 1 5
BITMAP
44
EC
78
38
7C
4C
ENDCHAR
STARTCHAR LATIN_CAPITAL_LETTER_O_WITH_STROKE
ENCODING 216
SWIDTH 500 0
DWIDTH 9 0
BBX 7 12 1 2
BITMAP
04
7C
7C
DE
DE
F6
F6
E6
E6
FE
F8
80
ENDCHAR
STARTCHAR LATIN_CAPITAL_LETTER_U_WITH_GRAVE
ENCODING 217
SWIDTH 500 0
DWIDTH 9 0
BBX 7 13 1 3
BITMAP
60
10
00
C6
C6
C6
C6
C6
C6
C6
C6
FE
78
ENDCHAR
STARTCHAR LATIN_CAPITAL_LETTER_U_WITH_ACUTE
ENCODING 218
SWIDTH 500 0
DWIDTH 9 0
BBX 7 13 1 3
BITMAP
10
20
00
C6
C6
C6
C6
C6
C6
C6
C6
FE
78
ENDCHAR
STARTCHAR LATIN_CAPITAL_LETTER_U_WITH_CIRCUMFLEX
ENCODING 219
SWIDTH 500 0
DWIDTH 9 0
BBX 7 13 1 3
BITMAP
10
30
00
C6
C6
C6
C6
C6
C6
C6
C6
FE
78
ENDCHAR
STARTCHAR LATIN_CAPITAL_LETTER_U_WITH_DIAERESIS
ENCODING 220
SWIDTH 500 0
DWIDTH 9 0
BBX 7 13 1 3
BITMAP
6C
6C
00
C6
C6
C6
C6
C6
C6
C6
C6
FE
78
ENDCHAR
STARTCHAR LATIN_CAPITAL_LETTER_Y_WITH_ACUTE
ENCODING 221
SWIDTH 500 0
DWIDTH 9 0
BBX 7 13 1 3
BITMAP
10
20
00
C6
C6
C6
6C
7C
30
30
30
30
30
ENDCHAR
STARTCHAR LATIN_CAPITAL_LETTER_THORN
ENCODING 222
SWIDTH 500 0
DWIDTH 9 0
BBX 7 10 1 3
BITMAP
C0
C0
F8
FE
C6
C6
C6
F8
F8
C0
ENDCHAR
STARTCHAR LATIN_SMALL_LETTER_SHARP_S
ENCODING 223
SWIDTH 500 0
DWIDTH 9 0
BBX 7 10 1 3
BITMAP
F8
FE
C6
C6
F8
F8
C6
C6
FE
F8
ENDCHAR
STARTCHAR LATIN_SMALL_LETTER_A_WITH_GRAVE
ENCODING 224
SWIDTH 500 0
DWIDTH 10 0
BBX 8 11 1 3
BITMAP
20
20
10
00
78
FE
C6
C6
C6
7B
7B
ENDCHAR
STARTCHAR LATIN_SMALL_LETTER_A_WITH_ACUTE
ENCODING 225
SWIDTH 500 0
DWIDTH 10 0
BBX 8 11 1 3
BITMAP
10
10
20
00
78
FE
C6
C6
C6
7B
7B
ENDCHAR
STARTCHAR LATIN_SMALL_LETTER_A_WITH_CIRCUMFLEX
ENCODING 226
SWIDTH 500 0
DWIDTH 10 0
BBX 8 10 1 3
BITMAP
10
38
00
78
FE
C6
C6
C6
7B
7B
ENDCHAR
STARTCHAR LATIN_SMALL_LETTER_A_WITH_TILDE
ENCODING 227
SWIDTH 500 0
DWIDTH 10 0
BBX 8 10 1 3
BITMAP
78
78
00
78
FE
C6
C6
C6
7B
7B
ENDCHAR
STARTCHAR LATIN_SMALL_LETTER_A_WITH_DIAERESIS
ENCODING 228
SWIDTH 500 0
DWIDTH 10 0
BBX 8 10 1 3
BITMAP
6C
6C
00
78
FE
C6
C6
C6
7B
7B
ENDCHAR
STARTCHAR LATIN_SMALL_LETTER_A_WITH_RING_ABOVE
ENCODING 229
SWIDTH 500 0
DWIDTH 10 0
BBX 8 10 1 3
BITMAP
30
30
00
78
FE
C6
C6
C6
7B
7B
ENDCHAR
STARTCHAR LATIN_SMALL_LETTER_AE
ENCODING 230
SWIDTH 500 0
DWIDTH 16 0
BBX 14 7 1 3
BITMAP
7878
FFFC
C7EC
C7F0
C78C
FFFC
7B78
ENDCHAR
STARTCHAR LATIN_SMALL_LETTER_C_WITH_CEDILLA
ENCODING 231
SWIDTH 500 0
DWIDTH 9 0
BBX 7 10 1 0
BITMAP
78
FE
C6
C0
C6
FE
78
30
58
38
ENDCHAR
STARTCHAR LATIN_SMALL_LETTER_E_WITH_GRAVE
ENCODING 232
SWIDTH 500 0
DWIDTH 9 0
BBX 7 11 1 3
BITMAP
60
20
10
00
78
FE
F6
F0
C6
FE
78
ENDCHAR
STARTCHAR LATIN_SMALL_LETTER_E_WITH_ACUTE
ENCODING 233
SWIDTH 500 0
DWIDTH 9 0
BBX 7 11 1 3
BITMAP
10
10
20
00
78
FE
F6
F0
C6
FE
78
ENDCHAR
STARTCHAR LATIN_SMALL_LETTER_E_WITH_CIRCUMFLEX
ENCODING 234
SWIDTH 500 0
DWIDTH 9 0
BBX 7 10 1 3
BITMAP
10
30
00
78
FE
F6
F0
C6
FE
78
ENDCHAR
STARTCHAR LATIN_SMALL_LETTER_E_WITH_DIAERESIS
ENCODING 235
SWIDTH 500 0
DWIDTH 9 0
BBX 7 10 1 3
BITMAP
6C
6C
00
78
FE
F6
F0
C6
FE
78
ENDCHAR
STARTCHAR LATIN_SMALL_LETTER_I_WITH_GRAVE
ENCODING 236
SWIDTH 500 0
DWIDTH 4 0
BBX 3 11 0 3
BITMAP
80
40
40
00
60
60
60
60
60
60
60
ENDCHAR
STARTCHAR LATIN_SMALL_LETTER_I_WITH_ACUTE
ENCODING 237
SWIDTH 500 0
DWIDTH 4 0
BBX 3 11 0 3
BITMAP
20
40
C0
00
60
60
60
60
60
60
60
ENDCHAR
STARTCHAR LATIN_SMALL_LETTER_I_WITH_CIRCUMFLEX
ENCODING 238
SWIDTH 500 0
DWIDTH 4 0
BBX 3 10 0 3
BITMAP
40
E0
00
60
60
60
60
60
60
60
ENDCHAR
STARTCHAR LATIN_SMALL_LETTER_I_WITH_DIAERESIS
ENCODING 239
SWIDTH 500 0
DWIDTH 5 0
BBX 4 10 0 3
BITMAP
F0
F0
00
60
60
60
60
60
60
60
ENDCHAR
STARTCHAR LATIN_SMALL_LETTER_ETH
ENCODING 240
SWIDTH 500 0
DWIDTH 9 0
BBX 7 11 1 3
BITMAP
06
7C
FE
DE
06
7E
7E
C6
C6
FE
78
ENDCHAR
STARTCHAR LATIN_SMALL_LETTER_N_WITH_TILDE
ENCODING 241
SWIDTH 500 0
DWIDTH 9 0
BBX 7 10 1 3
BITMAP
78
78
00
F8
FE
C6
C6
C6
C6
C6
ENDCHAR
STARTCHAR LATIN_SMALL_LETTER_O_WITH_GRAVE
ENCODING 242
SWIDTH 500 0
DWIDTH 9 0
BBX 7 11 1 3
BITMAP
60
20
10
00
78
FE
C6
C6
C6
78
78
ENDCHAR
STARTCHAR LATIN_SMALL_LETTER_O_WITH_ACUTE
ENCODING 243
SWIDTH 500 0
DWIDTH 9 0
BBX 7 11 1 3
BITMAP
10
10
20
00
78
FE
C6
C6
C6
78
78
ENDCHAR
STARTCHAR LATIN_SMALL_LETTER_O_WITH_CIRCUMFLEX
ENCODING 244
SWIDTH 500 0
DWIDTH 9 0
BBX 7 10 1 3
BITMAP
10
30
00
78
FE
C6
C6
C6
78
78
ENDCHAR
STARTCHAR LATIN_SMALL_LETTER_O_WITH_TILDE
ENCODING 245
SWIDTH 500 0
DWIDTH 9 0
BBX 7 10 1 3
BITMAP
78
78
00
78
FE
C6
C6
C6
78
78
ENDCHAR
STARTCHAR LATIN_SMALL_LETTER_O_WITH_DIAERESIS
ENCODING 246
SWIDTH 500 0
DWIDTH 9 0
BBX 7 10 1 3
BITMAP
6C
6C
00
78
FE
C6
C6
C6
78
78
ENDCHAR
STARTCHAR DIVISION_SIGN
ENCODING 247
SWIDTH 500 0
DWIDTH 8 0
BBX 5 7 1 4
BITMAP
30
30
00
F8
F8
30
30
ENDCHAR
STARTCHAR LATIN_SMALL_LETTER_O_WITH_STROKE
ENCODING 248
SWIDTH 500 0
DWIDTH 9 0
BBX 7 9 1 2
BITMAP
06
7C
FE
DE
F6
E6
78
F8
80
ENDCHAR
STARTCHAR LATIN_SMALL_LETTER_U_WITH_GRAVE
ENCODING 249
SWIDTH 500 0
DWIDTH 9 0
BBX 7 11 1 3
BITMAP
60
20
10
00
C6
C6
C6
C6
C6
FE
78
ENDCHAR
STARTCHAR LATIN_SMALL_LETTER_U_WITH_ACUTE
ENCODING 250
SWIDTH 500 0
DWIDTH 9 0
BBX 7 11 1 3
BITMAP
10
10
20
00
C6
C6
C6
C6
C6
FE
78
ENDCHAR
STARTCHAR LATIN_SMALL_LETTER_U_WITH_CIRCUMFLEX
ENCODING 251
SWIDTH 500 0
DWIDTH 9 0
BBX 7 10 1 3
BITMAP
10
30
00
C6
C6
C6
C6
C6
FE
78
ENDCHAR
STARTCHAR LATIN_SMALL_LETTER_U_WITH_DIAERESIS
ENCODING 252
SWIDTH 500 0
DWIDTH 9 0
BBX 7 10 1 3
BITMAP
6C
6C
00
C6
C6
C6
C6
C6
FE
78
ENDCHAR
STARTCHAR LATIN_SMALL_LETTER_Y_WITH_ACUTE
ENCODING 253
SWIDTH 500 0
DWIDTH 9 0
BBX 7 13 1 0
BITMAP
10
20
00
C6
C6
C6
C6
7E
7E
06
C6
FE
78
ENDCHAR
STARTCHAR LATIN_SMALL_LETTER_THORN
ENCODING 254
SWIDTH 500 0
DWIDTH 9 0
BBX 7 10 1 3
BITMAP
C0
C0
F8
F8
C6
C6
C6
FE
F8
C0
ENDCHAR
STARTCHAR LATIN_SMALL_LETTER_Y_WITH_DIAERESIS
ENCODING 255
SWIDTH 500 0
DWIDTH 9 0
BBX 7 13 1 0
BITMAP
6C
6C
00
C6
C6
C6
C6
7E
7E
06
C6
FE
78
ENDCHAR
STARTCHAR LATIN_CAPITAL_LETTER_A_WITH_MACRON
ENCODING 256
SWIDTH 500 0
DWIDTH 9 0
BBX 7 13 1 3
BITMAP
7C
7C
00
30
7C
6C
C6
C6
FE
FE
C6
C6
C6
ENDCHAR
STARTCHAR LATIN_SMALL_LETTER_A_WITH_MACRON
ENCODING 257
SWIDTH 500 0
DWIDTH 10 0
BBX 8 10 1 3
BITMAP
78
78
00
78
FE
C6
C6
C6
7B
7B
ENDCHAR
STARTCHAR LATIN_CAPITAL_LETTER_A_WITH_BREVE
ENCODING 258
SWIDTH 500 0
DWIDTH 9 0
BBX 7 13 1 3
BITMAP
08
78
00
30
7C
6C
C6
C6
FE
FE
C6
C6
C6
ENDCHAR
STARTCHAR LATIN_SMALL_LETTER_A_WITH_BREVE
ENCODING 259
SWIDTH 500 0
DWIDTH 10 0
BBX 8 10 1 3
BITMAP
68
78
00
78
FE
C6
C6
C6
7B
7B
ENDCHAR
STARTCHAR LATIN_CAPITAL_LETTER_A_WITH_OGONEK
ENCODING 260
SWIDTH 500 0
DWIDTH 10 0
BBX 8 13 1 0
BITMAP
30
7C
6C
C6
C6
FE
FE
C6
C6
C6
06
0D
0E
ENDCHAR
STARTCHAR LATIN_SMALL_LETTER_A_WITH_OGONEK
ENCODING 261
SWIDTH 500 0
DWIDTH 11 0
BBX 9 10 1 0
BITMAP
7800
FE00
C600
C600
C600
7B00
7B00
0300
0680
0380
ENDCHAR
STARTCHAR LATIN_CAPITAL_LETTER_C_WITH_ACUTE
ENCODING 262
SWIDTH 500 0
DWIDTH 9 0
BBX 7 13 1 3
BITMAP
10
20
00
78
FE
C6
C6
C0
C0
C6
C6
FE
78
ENDCHAR
STARTCHAR LATIN_SMALL_LETTER_C_WITH_ACUTE
ENCODING 263
SWIDTH 500 0
DWIDTH 9 0
BBX 7 11 1 3
BITMAP
10
10
20
00
78
FE
C6
C0
C6
FE
78
ENDCHAR
STARTCHAR LATIN_CAPITAL_LETTER_C_WITH_CIRCUMFLEX
ENCODING 264
SWIDTH 500 0
DWIDTH 9 0
BBX 7 13 1 3
BITMAP
10
30
00
78
FE
C6
C6
C0
C0
C6
C6
FE
78
ENDCHAR
STARTCHAR LATIN_SMALL_LETTER_C_WITH_CIRCUMFLEX
ENCODING 265
SWIDTH 500 0
DWIDTH 9 0
BBX 7 10 1 3
BITMAP
10
30
00
78
FE
C6
C0
C6
FE
78
ENDCHAR
STARTCHAR LATIN_CAPITAL_LETTER_C_WITH_DOT_ABOVE
ENCODING 266
SWIDTH 500 0
DWIDTH 9 0
BBX 7 13 1 3
BITMAP
30
30
00
78
FE
C6
C6
C0
C0
C6
C6
FE
78
ENDCHAR
STARTCHAR LATIN_SMALL_LETTER_C_WITH_DOT_ABOVE
ENCODING 267
SWIDTH 500 0
DWIDTH 9 0
BBX 7 10 1 3
BITMAP
30
30
00
78
FE
C6
C0
C6
FE
78
ENDCHAR
STARTCHAR LATIN_CAPITAL_LETTER_C_WITH_CARON
ENCODING 268
SWIDTH 500 0
DWIDTH 9 0
BBX 7 13 1 3
BITMAP
30
10
00
78
FE
C6
C6
C0
C0
C6
C6
FE
78
ENDCHAR
STARTCHAR LATIN_SMALL_LETTER_C_WITH_CARON
ENCODING 269
SWIDTH 500 0
DWIDTH 9 0
BBX 7 10 1 3
BITMAP
30
10
00
78
FE
C6
C0
C6
FE
78
ENDCHAR
STARTCHAR LATIN_CAPITAL_LETTER_D_WITH_CARON
ENCODING 270
SWIDTH 500 0
DWIDTH 9 0
BBX 7 13 1 3
BITMAP
70
20
00
F0
FC
CC
C6
C6
C6
C6
CC
FC
F0
ENDCHAR
STARTCHAR LATIN_SMALL_LETTER_D_WITH_CARON
ENCODING 271
SWIDTH 500 0
DWIDTH 11 0
BBX 9 10 1 3
BITMAP
0780
0780
0680
7E00
FE00
C600
C600
C600
7800
7800
ENDCHAR
STARTCHAR LATIN_CAPITAL_LETTER_D_WITH_STROKE
ENCODING 272
SWIDTH 500 0
DWIDTH 9 0
BBX 7 10 1 3
BITMAP
F8
FC
CC
C6
E6
E6
C6
CC
FC
F8
ENDCHAR
STARTCHAR LATIN_SMALL_LETTER_D_WITH_STROKE
ENCODING 273
SWIDTH 500 0
DWIDTH 9 0
BBX 7 10 1 3
BITMAP
3E
3E
06
7E
7E
C6
C6
C6
FE
78
ENDCHAR
STARTCHAR LATIN_CAPITAL_LETTER_E_WITH_MACRON
ENCODING 274
SWIDTH 500 0
DWIDTH 9 0
BBX 7 13 1 3
BITMAP
78
78
00
78
FE
C6
C0
F0
F0
C0
C6
FE
78
ENDCHAR
STARTCHAR LATIN_SMALL_LETTER_E_WITH_MACRON
ENCODING 275
SWIDTH 500 0
DWIDTH 9 0
BBX 7 10 1 3
BITMAP
78
78
00
78
FE
F6
F0
C6
FE
78
ENDCHAR
STARTCHAR LATIN_CAPITAL_LETTER_E_WITH_BREVE
ENCODING 276
SWIDTH 500 0
DWIDTH 9 0
BBX 7 13 1 3
BITMAP
48
78
00
78
FE
C6
C0
F0
F0
C0
C6
FE
78
ENDCHAR
STARTCHAR LATIN_SMALL_LETTER_E_WITH_BREVE
ENCODING 277
SWIDTH 500 0
DWIDTH 9 0
BBX 7 10 1 3
BITMAP
68
78
00
78
FE
F6
F0
C6
FE
78
ENDCHAR
STARTCHAR LATIN_CAPITAL_LETTER_E_WITH_DOT_ABOVE
ENCODING 278
SWIDTH 500 0
DWIDTH 9 0
BBX 7 13 1 3
BITMAP
30
30
00
78
FE
C6
C0
F0
F0
C0
C6
FE
78
ENDCHAR
STARTCHAR LATIN_SMALL_LETTER_E_WITH_DOT_ABOVE
ENCODING 279
SWIDTH 500 0
DWIDTH 9 0
BBX 7 10 1 3
BITMAP
30
30
00
78
FE
F6
F0
C6
FE
78
ENDCHAR
STARTCHAR LATIN_CAPITAL_LETTER_E_WITH_OGONEK
ENCODING 280
SWIDTH 500 0
DWIDTH 9 0
BBX 7 13 1 0
BITMAP
78
FE
C6
C0
F0
F0
C0
C6
FE
78
30
28
38
ENDCHAR
STARTCHAR LATIN_SMALL_LETTER_E_WITH_OGONEK
ENCODING 281
SWIDTH 500 0
DWIDTH 9 0
BBX 7 10 1 0
BITMAP
78
FE
F6
F0
C6
FE
78
30
28
38
ENDCHAR
STARTCHAR LATIN_CAPITAL_LETTER_E_WITH_CARON
ENCODING 282
SWIDTH 500 0
DWIDTH 9 0
BBX 7 13 1 3
BITMAP
30
10
00
78
FE
C6
C0
F0
F0
C0
C6
FE
78
ENDCHAR
STARTCHAR LATIN_SMALL_LETTER_E_WITH_CARON
ENCODING 283
SWIDTH 500 0
DWIDTH 9 0
BBX 7 10 1 3
BITMAP
30
10
00
78
FE
F6
F0
C6
FE
78
ENDCHAR
STARTCHAR LATIN_CAPITAL_LETTER_G_WITH_CIRCUMFLEX
ENCODING 284
SWIDTH 500 0
DWIDTH 9 0
BBX 7 13 1 3
BITMAP
10
30
00
78
78
C6
C6
F6
FE
CE
C6
FE
78
ENDCHAR
STARTCHAR LATIN_SMALL_LETTER_G_WITH_CIRCUMFLEX
ENCODING 285
SWIDTH 500 0
DWIDTH 9 0
BBX 7 13 1 0
BITMAP
10
30
00
78
78
C6
C6
FE
7E
06
C6
FE
78
ENDCHAR
STARTCHAR LATIN_CAPITAL_LETTER_G_WITH_BREVE
ENCODING 286
SWIDTH 500 0
DWIDTH 9 0
BBX 7 13 1 3
BITMAP
08
78
00
78
78
C6
C6
F6
FE
CE
C6
FE
78
ENDCHAR
STARTCHAR LATIN_SMALL_LETTER_G_WITH_BREVE
ENCODING 287
SWIDTH 500 0
DWIDTH 9 0
BBX 7 13 1 0
BITMAP
68
78
00
78
78
C6
C6
FE
7E
06
C6
FE
78
ENDCHAR
STARTCHAR LATIN_CAPITAL_LETTER_G_WITH_DOT_ABOVE
ENCODING 288
SWIDTH 500 0
DWIDTH 9 0
BBX 7 13 1 3
BITMAP
30
30
00
78
78
C6
C6
F6
FE
CE
C6
FE
78
ENDCHAR
STARTCHAR LATIN_SMALL_LETTER_G_WITH_DOT_ABOVE
ENCODING 289
SWIDTH 500 0
DWIDTH 9 0
BBX 7 13 1 0
BITMAP
30
30
00
78
78
C6
C6
FE
7E
06
C6
FE
78
ENDCHAR
STARTCHAR LATIN_CAPITAL_LETTER_G_WITH_CEDILLA
ENCODING 290
SWIDTH 500 0
DWIDTH 9 0
BBX 7 13 1 0
BITMAP
78
78
C6
C6
F6
FE
CE
C6
FE
78
00
30
38
ENDCHAR
STARTCHAR LATIN_SMALL_LETTER_G_WITH_CEDILLA
ENCODING 291
SWIDTH 500 0
DWIDTH 9 0
BBX 7 14 1 0
BITMAP
10
38
18
00
78
78
C6
C6
FE
7E
06
C6
FE
78
ENDCHAR
STARTCHAR LATIN_CAPITAL_LETTER_H_WITH_CIRCUMFLEX
ENCODING 292
SWIDTH 500 0
DWIDTH 9 0
BBX 7 13 1 3
BITMAP
10
30
00
C6
C6
C6
F6
FE
FE
C6
C6
C6
C6
ENDCHAR
STARTCHAR LATIN_SMALL_LETTER_H_WITH_CIRCUMFLEX
ENCODING 293
SWIDTH 500 0
DWIDTH 9 0
BBX 7 13 1 3
BITMAP
30
30
00
C0
C0
C0
F8
FE
C6
C6
C6
C6
C6
ENDCHAR
STARTCHAR LATIN_CAPITAL_LETTER_H_WITH_STROKE
ENCODING 294
SWIDTH 500 0
DWIDTH 9 0
BBX 7 10 1 3
BITMAP
C6
FE
FE
F6
FE
FE
C6
C6
C6
C6
ENDCHAR
STARTCHAR LATIN_SMALL_LETTER_H_WITH_STROKE
ENCODING 295
SWIDTH 500 0
DWIDTH 9 0
BBX 7 10 1 3
BITMAP
E0
E0
C0
DC
FE
E6
C6
C6
C6
C6
ENDCHAR
STARTCHAR LATIN_CAPITAL_LETTER_I_WITH_TILDE
ENCODING 296
SWIDTH 500 0
DWIDTH 6 0
BBX 4 13 1 3
BITMAP
F0
F0
00
F0
F0
60
60
60
60
60
60
F0
F0
ENDCHAR
STARTCHAR LATIN_SMALL_LETTER_I_WITH_TILDE
ENCODING 297
SWIDTH 500 0
DWIDTH 5 0
BBX 4 10 0 3
BITMAP
F0
F0
00
60
60
60
60
60
60
60
ENDCHAR
STARTCHAR LATIN_CAPITAL_LETTER_I_WITH_MACRON
ENCODING 298
SWIDTH 500 0
DWIDTH 6 0
BBX 4 13 1 3
BITMAP
F0
F0
00
F0
F0
60
60
60
60
60
60
F0
F0
ENDCHAR
STARTCHAR LATIN_SMALL_LETTER_I_WITH_MACRON
ENCODING 299
SWIDTH 500 0
DWIDTH 5 0
BBX 4 10 0 3
BITMAP
F0
F0
00
60
60
60
60
60
60
60
ENDCHAR
STARTCHAR LATIN_CAPITAL_LETTER_I_WITH_BREVE
ENCODING 300
SWIDTH 500 0
DWIDTH 6 0
BBX 4 13 1 3
BITMAP
90
F0
00
F0
F0
60
60
60
60
60
60
F0
F0
ENDCHAR
STARTCHAR LATIN_SMALL_LETTER_I_WITH_BREVE
ENCODING 301
SWIDTH 500 0
DWIDTH 5 0
BBX 4 10 0 3
BITMAP
B0
F0
00
60
60
60
60
60
60
60
ENDCHAR
STARTCHAR LATIN_CAPITAL_LETTER_I_WITH_OGONEK
ENCODING 302
SWIDTH 500 0
DWIDTH 6 0
BBX 4 13 1 0
BITMAP
F0
F0
60
60
60
60
60
60
F0
F0
60
F0
60
ENDCHAR
STARTCHAR LATIN_SMALL_LETTER_I_WITH_OGONEK
ENCODING 303
SWIDTH 500 0
DWIDTH 5 0
BBX 4 13 0 0
BITMAP
60
60
00
60
60
60
60
60
60
60
60
D0
60
ENDCHAR
STARTCHAR LATIN_CAPITAL_LETTER_I_WITH_DOT_ABOVE
ENCODING 304
SWIDTH 500 0
DWIDTH 6 0
BBX 4 13 1 3
BITMAP
60
60
00
F0
F0
60
60
60
60
60
60
F0
F0
ENDCHAR
STARTCHAR LATIN_SMALL_LETTER_DOTLESS_I
ENCODING 305
SWIDTH 500 0
DWIDTH 4 0
BBX 2 7 1 3
BITMAP
C0
C0
C0
C0
C0
C0
C0
ENDCHAR
STARTCHAR LATIN_CAPITAL_LIGATURE_IJ
ENCODING 306
SWIDTH 500 0
DWIDTH 15 0
BBX 13 10 1 3
BITMAP
F1E0
F1E0
6018
6018
6018
6018
6318
6318
F3F8
F1E0
ENDCHAR
STARTCHAR LATIN_SMALL_LIGATURE_IJ
ENCODING 307
SWIDTH 500 0
DWIDTH 11 0
BBX 9 7 1 3
BITMAP
C180
C180
C180
C180
D980
DF80
CE00
ENDCHAR
STARTCHAR LATIN_CAPITAL_LETTER_J_WITH_CIRCUMFLEX
ENCODING 308
SWIDTH 500 0
DWIDTH 9 0
BBX 7 13 1 3
BITMAP
10
30
00
78
78
06
06
06
06
C6
C6
FE
78
ENDCHAR
STARTCHAR LATIN_SMALL_LETTER_J_WITH_CIRCUMFLEX
ENCODING 309
SWIDTH 500 0
DWIDTH 8 0
BBX 6 10 1 3
BITMAP
08
1C
00
0C
0C
0C
0C
CC
FC
70
ENDCHAR
STARTCHAR LATIN_CAPITAL_LETTER_K_WITH_CEDILLA
ENCODING 310
SWIDTH 500 0
DWIDTH 9 0
BBX 7 13 1 0
BITMAP
66
EE
CC
F0
F0
F0
F0
CC
CE
C6
00
30
38
ENDCHAR
STARTCHAR LATIN_SMALL_LETTER_K_WITH_CEDILLA
ENCODING 311
SWIDTH 500 0
DWIDTH 9 0
BBX 7 13 1 0
BITMAP
C0
C0
C0
C6
FE
F8
E0
F8
FE
C6
00
30
38
ENDCHAR
STARTCHAR LATIN_CAPITAL_LETTER_L_WITH_ACUTE
ENCODING 313
SWIDTH 500 0
DWIDTH 9 0
BBX 7 13 1 3
BITMAP
10
20
00
C0
C0
C0
C0
C0
C0
C0
C6
FE
78
ENDCHAR
STARTCHAR LATIN_SMALL_LETTER_L_WITH_ACUTE
ENCODING 314
SWIDTH 500 0
DWIDTH 4 0
BBX 3 13 0 3
BITMAP
60
C0
00
60
60
60
60
60
60
60
60
60
60
ENDCHAR
STARTCHAR LATIN_CAPITAL_LETTER_L_WITH_CEDILLA
ENCODING 315
SWIDTH 500 0
DWIDTH 9 0
BBX 7 13 1 0
BITMAP
C0
C0
C0
C0
C0
C0
C0
C6
FE
78
00
30
38
ENDCHAR
STARTCHAR LATIN_SMALL_LETTER_L_WITH_CEDILLA
ENCODING 316
SWIDTH 500 0
DWIDTH 4 0
BBX 2 13 1 0
BITMAP
C0
C0
C0
C0
C0
C0
C0
C0
C0
C0
00
C0
C0
ENDCHAR
STARTCHAR LATIN_CAPITAL_LETTER_L_WITH_CARON
ENCODING 317
SWIDTH 500 0
DWIDTH 9 0
BBX 7 10 1 3
BITMAP
D8
DC
C8
C0
C0
C0
C0
C6
FE
78
ENDCHAR
STARTCHAR LATIN_SMALL_LETTER_L_WITH_CARON
ENCODING 318
SWIDTH 500 0
DWIDTH 6 0
BBX 4 10 1 3
BITMAP
F0
F0
D0
C0
C0
C0
C0
C0
C0
C0
ENDCHAR
STARTCHAR LATIN_CAPITAL_LETTER_L_WITH_MIDDLE_DOT
ENCODING 319
SWIDTH 500 0
DWIDTH 9 0
BBX 7 10 1 3
BITMAP
C0
C0
F0
F0
C0
C0
C0
C6
FE
78
ENDCHAR
STARTCHAR LATIN_SMALL_LETTER_L_WITH_MIDDLE_DOT
ENCODING 320
SWIDTH 500 0
DWIDTH 4 0
BBX 2 10 1 3
BITMAP
C0
C0
C0
C0
C0
C0
C0
C0
C0
C0
ENDCHAR
STARTCHAR LATIN_CAPITAL_LETTER_L_WITH_STROKE
ENCODING 321
SWIDTH 500 0
DWIDTH 9 0
BBX 8 10 0 3
BITMAP
60
60
70
70
60
60
E0
E3
7F
3C
ENDCHAR
STARTCHAR LATIN_SMALL_LETTER_L_WITH_STROKE
ENCODING 322
SWIDTH 500 0
DWIDTH 5 0
BBX 4 10 0 3
BITMAP
60
60
70
60
60
60
E0
E0
60
60
ENDCHAR
STARTCHAR LATIN_CAPITAL_LETTER_N_WITH_ACUTE
ENCODING 323
SWIDTH 500 0
DWIDTH 9 0
BBX 7 13 1 3
BITMAP
30
20
00
C6
E6
E6
F6
F6
F6
F6
CE
CE
C6
ENDCHAR
STARTCHAR LATIN_SMALL_LETTER_N_WITH_ACUTE
ENCODING 324
SWIDTH 500 0
DWIDTH 9 0
BBX 7 11 1 3
BITMAP
10
10
20
00
F8
FE
C6
C6
C6
C6
C6
ENDCHAR
STARTCHAR LATIN_CAPITAL_LETTER_N_WITH_CEDILLA
ENCODING 325
SWIDTH 500 0
DWIDTH 9 0
BBX 7 13 1 0
BITMAP
C6
E6
E6
F6
F6
F6
F6
CE
CE
C6
00
30
38
ENDCHAR
STARTCHAR LATIN_SMALL_LETTER_N_WITH_CEDILLA
ENCODING 326
SWIDTH 500 0
DWIDTH 9 0
BBX 7 10 1 0
BITMAP
F8
FE
C6
C6
C6
C6
C6
00
30
38
ENDCHAR
STARTCHAR LATIN_CAPITAL_LETTER_N_WITH_CARON
ENCODING 327
SWIDTH 500 0
DWIDTH 9 0
BBX 7 13 1 3
BITMAP
30
10
00
C6
E6
E6
F6
F6
F6
F6
CE
CE
C6
ENDCHAR
STARTCHAR LATIN_SMALL_LETTER_N_WITH_CARON
ENCODING 328
SWIDTH 500 0
DWIDTH 9 0
BBX 7 10 1 3
BITMAP
30
10
00
F8
FE
C6
C6
C6
C6
C6
ENDCHAR
STARTCHAR LATIN_SMALL_LETTER_N_PRECEDED_BY_APOSTROPHE
ENCODING 329
SWIDTH 500 0
DWIDTH 11 0
BBX 9 10 1 3
BITMAP
C000
C000
4000
3E00
3F80
3180
3180
3180
3180
3180
ENDCHAR
STARTCHAR LATIN_CAPITAL_LETTER_ENG
ENCODING 330
SWIDTH 500 0
DWIDTH 9 0
BBX 7 13 1 0
BITMAP
C6
E6
E6
F6
F6
F6
F6
CE
CE
C6
66
66
38
ENDCHAR
STARTCHAR LATIN_SMALL_LETTER_ENG
ENCODING 331
SWIDTH 500 0
DWIDTH 9 0
BBX 7 10 1 0
BITMAP
F8
FE
C6
C6
C6
C6
C6
66
66
38
ENDCHAR
STARTCHAR LATIN_CAPITAL_LETTER_O_WITH_MACRON
ENCODING 332
SWIDTH 500 0
DWIDTH 9 0
BBX 7 13 1 3
BITMAP
78
78
00
78
78
C6
C6
C6
C6
C6
C6
FE
78
ENDCHAR
STARTCHAR LATIN_SMALL_LETTER_O_WITH_MACRON
ENCODING 333
SWIDTH 500 0
DWIDTH 9 0
BBX 7 10 1 3
BITMAP
78
78
00
78
FE
C6
C6
C6
78
78
ENDCHAR
STARTCHAR LATIN_CAPITAL_LETTER_O_WITH_BREVE
ENCODING 334
SWIDTH 500 0
DWIDTH 9 0
BBX 7 13 1 3
BITMAP
08
78
00
78
78
C6
C6
C6
C6
C6
C6
FE
78
ENDCHAR
STARTCHAR LATIN_SMALL_LETTER_O_WITH_BREVE
ENCODING 335
SWIDTH 500 0
DWIDTH 9 0
BBX 7 10 1 3
BITMAP
68
78
00
78
FE
C6
C6
C6
78
78
ENDCHAR
STARTCHAR LATIN_CAPITAL_LETTER_O_WITH_DOUBLE_ACUTE
ENCODING 336
SWIDTH 500 0
DWIDTH 9 0
BBX 7 13 1 3
BITMAP
78
28
00
78
78
C6
C6
C6
C6
C6
C6
FE
78
ENDCHAR
STARTCHAR LATIN_SMALL_LETTER_O_WITH_DOUBLE_ACUTE
ENCODING 337
SWIDTH 500 0
DWIDTH 9 0
BBX 7 11 1 3
BITMAP
50
28
28
00
78
FE
C6
C6
C6
78
78
ENDCHAR
STARTCHAR LATIN_CAPITAL_LIGATURE_OE
ENCODING 338
SWIDTH 500 0
DWIDTH 14 0
BBX 12 10 1 3
BITMAP
7BC0
FFF0
C630
C600
C780
C780
C600
C630
FFF0
7BC0
ENDCHAR
STARTCHAR LATIN_SMALL_LIGATURE_OE
ENCODING 339
SWIDTH 500 0
DWIDTH 14 0
BBX 12 7 1 3
BITMAP
7BC0
FFF0
C7B0
C780
C630
FFF0
7BC0
ENDCHAR
STARTCHAR LATIN_CAPITAL_LETTER_R_WITH_ACUTE
ENCODING 340
SWIDTH 500 0
DWIDTH 9 0
BBX 7 13 1 3
BITMAP
30
20
00
78
78
C6
C6
C6
FE
F8
D8
DC
CC
ENDCHAR
STARTCHAR LATIN_SMALL_LETTER_R_WITH_ACUTE
ENCODING 341
SWIDTH 500 0
DWIDTH 9 0
BBX 7 11 1 3
BITMAP
10
10
20
00
78
FE
C6
C0
C0
C0
C0
ENDCHAR
STARTCHAR LATIN_CAPITAL_LETTER_R_WITH_CEDILLA
ENCODING 342
SWIDTH 500 0
DWIDTH 9 0
BBX 7 13 1 0
BITMAP
78
78
C6
C6
C6
FE
F8
D8
DC
CC
00
30
38
ENDCHAR
STARTCHAR LATIN_SMALL_LETTER_R_WITH_CEDILLA
ENCODING 343
SWIDTH 500 0
DWIDTH 9 0
BBX 7 10 1 0
BITMAP
78
FE
C6
C0
C0
C0
C0
00
30
38
ENDCHAR
STARTCHAR LATIN_CAPITAL_LETTER_R_WITH_CARON
ENCODING 344
SWIDTH 500 0
DWIDTH 9 0
BBX 7 13 1 3
BITMAP
38
10
00
78
78
C6
C6
C6
FE
F8
D8
DC
CC
ENDCHAR
STARTCHAR LATIN_SMALL_LETTER_R_WITH_CARON
ENCODING 345
SWIDTH 500 0
DWIDTH 9 0
BBX 7 10 1 3
BITMAP
30
10
00
78
FE
C6
C0
C0
C0
C0
ENDCHAR
STARTCHAR LATIN_CAPITAL_LETTER_S_WITH_ACUTE
ENCODING 346
SWIDTH 500 0
DWIDTH 9 0
BBX 7 13 1 3
BITMAP
10
20
00
78
FE
C6
C0
78
78
06
C6
FE
78
ENDCHAR
STARTCHAR LATIN_SMALL_LETTER_S_WITH_ACUTE
ENCODING 347
SWIDTH 500 0
DWIDTH 9 0
BBX 7 11 1 3
BITMAP
08
10
10
00
7E
FE
F8
78
06
FE
F8
ENDCHAR
STARTCHAR LATIN_CAPITAL_LETTER_S_WITH_CIRCUMFLEX
ENCODING 348
SWIDTH 500 0
DWIDTH 9 0
BBX 7 13 1 3
BITMAP
10
30
00
78
FE
C6
C0
78
78
06
C6
FE
78
ENDCHAR
STARTCHAR LATIN_SMALL_LETTER_S_WITH_CIRCUMFLEX
ENCODING 349
SWIDTH 500 0
DWIDTH 9 0
BBX 7 10 1 3
BITMAP
10
18
00
7E
FE
F8
78
06
FE
F8
ENDCHAR
STARTCHAR LATIN_CAPITAL_LETTER_S_WITH_CEDILLA
ENCODING 350
SWIDTH 500 0
DWIDTH 9 0
BBX 7 13 1 0
BITMAP
78
FE
C6
C0
78
78
06
C6
FE
78
30
58
38
ENDCHAR
STARTCHAR LATIN_SMALL_LETTER_S_WITH_CEDILLA
ENCODING 351
SWIDTH 500 0
DWIDTH 9 0
BBX 7 10 1 0
BITMAP
7E
FE
F8
78
06
FE
F8
30
58
38
ENDCHAR
STARTCHAR LATIN_CAPITAL_LETTER_S_WITH_CARON
ENCODING 352
SWIDTH 500 0
DWIDTH 9 0
BBX 7 13 1 3
BITMAP
30
10
00
78
FE
C6
C0
78
78
06
C6
FE
78
ENDCHAR
STARTCHAR LATIN_SMALL_LETTER_S_WITH_CARON
ENCODING 353
SWIDTH 500 0
DWIDTH 9 0
BBX 7 10 1 3
BITMAP
18
10
00
7E
FE
F8
78
06
FE
F8
ENDCHAR
STARTCHAR LATIN_CAPITAL_LETTER_T_WITH_CEDILLA
ENCODING 354
SWIDTH 500 0
DWIDTH 9 0
BBX 7 13 1 0
BITMAP
78
FE
F6
30
30
30
30
30
30
30
30
58
30
ENDCHAR
STARTCHAR LATIN_SMALL_LETTER_T_WITH_CEDILLA
ENCODING 355
SWIDTH 500 0
DWIDTH 10 0
BBX 8 13 1 0
BITMAP
60
60
60
FE
FE
60
60
63
7F
1E
18
0C
1C
ENDCHAR
STARTCHAR LATIN_CAPITAL_LETTER_T_WITH_CARON
ENCODING 356
SWIDTH 500 0
DWIDTH 9 0
BBX 7 13 1 3
BITMAP
30
10
00
78
FE
F6
30
30
30
30
30
30
30
ENDCHAR
STARTCHAR LATIN_SMALL_LETTER_T_WITH_CARON
ENCODING 357
SWIDTH 500 0
DWIDTH 11 0
BBX 9 10 1 3
BITMAP
6100
6180
6100
FE00
FE00
6000
6000
6300
7F00
1E00
ENDCHAR
STARTCHAR LATIN_CAPITAL_LETTER_T_WITH_STROKE
ENCODING 358
SWIDTH 500 0
DWIDTH 9 0
BBX 7 10 1 3
BITMAP
78
FE
F6
30
78
78
30
30
30
30
ENDCHAR
STARTCHAR LATIN_SMALL_LETTER_T_WITH_STROKE
ENCODING 359
SWIDTH 500 0
DWIDTH 10 0
BBX 8 10 1 3
BITMAP
60
60
60
FE
FE
60
F0
F3
7F
1E
ENDCHAR
STARTCHAR LATIN_CAPITAL_LETTER_U_WITH_TILDE
ENCODING 360
SWIDTH 500 0
DWIDTH 9 0
BBX 7 13 1 3
BITMAP
78
78
00
C6
C6
C6
C6
C6
C6
C6
C6
FE
78
ENDCHAR
STARTCHAR LATIN_SMALL_LETTER_U_WITH_TILDE
ENCODING 361
SWIDTH 500 0
DWIDTH 9 0
BBX 7 10 1 3
BITMAP
78
78
00
C6
C6
C6
C6
C6
FE
78
ENDCHAR
STARTCHAR LATIN_CAPITAL_LETTER_U_WITH_MACRON
ENCODING 362
SWIDTH 500 0
DWIDTH 9 0
BBX 7 13 1 3
BITMAP
78
78
00
C6
C6
C6
C6
C6
C6
C6
C6
FE
78
ENDCHAR
STARTCHAR LATIN_SMALL_LETTER_U_WITH_MACRON
ENCODING 363
SWIDTH 500 0
DWIDTH 9 0
BBX 7 10 1 3
BITMAP
78
78
00
C6
C6
C6
C6
C6
FE
78
ENDCHAR
STARTCHAR LATIN_CAPITAL_LETTER_U_WITH_BREVE
ENCODING 364
SWIDTH 500 0
DWIDTH 9 0
BBX 7 13 1 3
BITMAP
08
78
00
C6
C6
C6
C6
C6
C6
C6
C6
FE
78
ENDCHAR
STARTCHAR LATIN_SMALL_LETTER_U_WITH_BREVE
ENCODING 365
SWIDTH 500 0
DWIDTH 9 0
BBX 7 10 1 3
BITMAP
68
78
00
C6
C6
C6
C6
C6
FE
78
ENDCHAR
STARTCHAR LATIN_CAPITAL_LETTER_U_WITH_RING_ABOVE
ENCODING 366
SWIDTH 500 0
DWIDTH 9 0
BBX 7 13 1 3
BITMAP
30
30
00
C6
C6
C6
C6
C6
C6
C6
C6
FE
78
ENDCHAR
STARTCHAR LATIN_SMALL_LETTER_U_WITH_RING_ABOVE
ENCODING 367
SWIDTH 500 0
DWIDTH 9 0
BBX 7 10 1 3
BITMAP
30
30
00
C6
C6
C6
C6
C6
FE
78
ENDCHAR
STARTCHAR LATIN_CAPITAL_LETTER_U_WITH_DOUBLE_ACUTE
ENCODING 368
SWIDTH 500 0
DWIDTH 9 0
BBX 7 13 1 3
BITMAP
78
28
00
C6
C6
C6
C6
C6
C6
C6
C6
FE
78
ENDCHAR
STARTCHAR LATIN_SMALL_LETTER_U_WITH_DOUBLE_ACUTE
ENCODING 369
SWIDTH 500 0
DWIDTH 9 0
BBX 7 11 1 3
BITMAP
50
28
28
00
C6
C6
C6
C6
C6
FE
78
ENDCHAR
STARTCHAR LATIN_CAPITAL_LETTER_U_WITH_OGONEK
ENCODING 370
SWIDTH 500 0
DWIDTH 9 0
BBX 7 13 1 0
BITMAP
C6
C6
C6
C6
C6
C6
C6
C6
FE
78
30
28
38
ENDCHAR
STARTCHAR LATIN_SMALL_LETTER_U_WITH_OGONEK
ENCODING 371
SWIDTH 500 0
DWIDTH 9 0
BBX 7 10 1 0
BITMAP
C6
C6
C6
C6
C6
FE
78
30
28
38
ENDCHAR
STARTCHAR LATIN_CAPITAL_LETTER_W_WITH_CIRCUMFLEX
ENCODING 372
SWIDTH 500 0
DWIDTH 11 0
BBX 9 13 1 3
BITMAP
0800
0C00
0000
C180
C180
CD80
CD80
CD80
CD80
F780
F780
F780
6300
ENDCHAR
STARTCHAR LATIN_SMALL_LETTER_W_WITH_CIRCUMFLEX
ENCODING 373
SWIDTH 500 0
DWIDTH 11 0
BBX 9 10 1 3
BITMAP
0800
0C00
0000
CD80
CD80
CD80
CD80
CD80
FF80
F700
ENDCHAR
STARTCHAR LATIN_CAPITAL_LETTER_Y_WITH_CIRCUMFLEX
ENCODING 374
SWIDTH 500 0
DWIDTH 9 0
BBX 7 13 1 3
BITMAP
10
30
00
C6
C6
C6
6C
7C
30
30
30
30
30
ENDCHAR
STARTCHAR LATIN_SMALL_LETTER_Y_WITH_CIRCUMFLEX
ENCODING 375
SWIDTH 500 0
DWIDTH 9 0
BBX 7 13 1 0
BITMAP
10
30
00
C6
C6
C6
C6
7E
7E
06
C6
FE
78
ENDCHAR
STARTCHAR LATIN_CAPITAL_LETTER_Y_WITH_DIAERESIS
ENCODING 376
SWIDTH 500 0
DWIDTH 9 0
BBX 7 13 1 3
BITMAP
6C
6C
00
C6
C6
C6
6C
7C
30
30
30
30
30
ENDCHAR
STARTCHAR LATIN_CAPITAL_LETTER_Z_WITH_ACUTE
ENCODING 377
SWIDTH 500 0
DWIDTH 9 0
BBX 7 13 1 3
BITMAP
10
20
00
F8
FE
C6
06
78
78
C0
C6
FE
7E
ENDCHAR
STARTCHAR LATIN_SMALL_LETTER_Z_WITH_ACUTE
ENCODING 378
SWIDTH 500 0
DWIDTH 9 0
BBX 7 11 1 3
BITMAP
10
10
20
00
FE
FE
3C
30
60
FE
FE
ENDCHAR
STARTCHAR LATIN_CAPITAL_LETTER_Z_WITH_DOT_ABOVE
ENCODING 379
SWIDTH 500 0
DWIDTH 9 0
BBX 7 13 1 3
BITMAP
30
30
00
F8
FE
C6
06
78
78
C0
C6
FE
7E
ENDCHAR
STARTCHAR LATIN_SMALL_LETTER_Z_WITH_DOT_ABOVE
ENCODING 380
SWIDTH 500 0
DWIDTH 9 0
BBX 7 10 1 3
BITMAP
30
30
00
FE
FE
3C
30
60
FE
FE
ENDCHAR
STARTCHAR LATIN_CAPITAL_LETTER_Z_WITH_CARON
ENCODING 381
SWIDTH 500 0
DWIDTH 9 0
BBX 7 13 1 3
BITMAP
30
10
00
F8
FE
C6
06
78
78
C0
C6
FE
7E
ENDCHAR
STARTCHAR LATIN_SMALL_LETTER_Z_WITH_CARON
ENCODING 382
SWIDTH 500 0
DWIDTH 9 0
BBX 7 10 1 3
BITMAP
30
10
00
FE
FE
3C
30
60
FE
FE
ENDCHAR
STARTCHAR GREEK_SMALL_LETTER_MU
ENCODING 956
SWIDTH 500 0
DWIDTH 6 0
BBX 5 8 0 1
BITMAP
88
88
88
88
98
68
80
80
ENDCHAR
STARTCHAR CYRILLIC_CAPITAL_LETTER_IO
ENCODING 1025
SWIDTH 500 0
DWIDTH 9 0
BBX 7 13 1 3
BITMAP
6C
6C
00
7C
FE
C6
C0
F0
F0
C0
C6
FE
7C
ENDCHAR
STARTCHAR CYRILLIC_CAPITAL_LETTER_DJE
ENCODING 1026
SWIDTH 500 0
DWIDTH 9 0
BBX 8 10 0 3
BITMAP
F0
F0
60
7E
7F
63
63
63
1E
1E
ENDCHAR
STARTCHAR CYRILLIC_CAPITAL_LETTER_GJE
ENCODING 1027
SWIDTH 500 0
DWIDTH 8 0
BBX 6 10 1 3
BITMAP
FC
F8
C0
C0
C0
C0
C0
C0
C0
C0
ENDCHAR
STARTCHAR CYRILLIC_CAPITAL_LETTER_UKRAINIAN_IE
ENCODING 1028
SWIDTH 500 0
DWIDTH 9 0
BBX 7 10 1 3
BITMAP
78
FE
C6
C0
78
78
C0
C6
FE
78
ENDCHAR
STARTCHAR CYRILLIC_CAPITAL_LETTER_DZE
ENCODING 1029
SWIDTH 500 0
DWIDTH 9 0
BBX 7 7 1 3
BITMAP
7E
FE
F8
78
06
FE
F8
ENDCHAR
STARTCHAR CYRILLIC_CAPITAL_LETTER_YI
ENCODING 1031
SWIDTH 500 0
DWIDTH 6 0
BBX 5 10 0 3
BITMAP
D8
D8
00
60
60
60
60
60
60
60
ENDCHAR
STARTCHAR CYRILLIC_CAPITAL_LETTER_JE
ENCODING 1032
SWIDTH 500 0
DWIDTH 9 0
BBX 7 10 1 3
BITMAP
78
78
06
06
06
06
C6
C6
FE
78
ENDCHAR
STARTCHAR CYRILLIC_CAPITAL_LETTER_LJE
ENCODING 1033
SWIDTH 500 0
DWIDTH 10 0
BBX 8 10 1 3
BITMAP
7F
7F
63
63
63
63
63
63
E3
E3
ENDCHAR
STARTCHAR CYRILLIC_CAPITAL_LETTER_NJE
ENCODING 1034
SWIDTH 500 0
DWIDTH 14 0
BBX 12 10 1 3
BITMAP
C600
C600
C600
C7C0
FFF0
FE30
C630
C630
C7C0
C7C0
ENDCHAR
STARTCHAR CYRILLIC_CAPITAL_LETTER_TSHE
ENCODING 1035
SWIDTH 500 0
DWIDTH 9 0
BBX 8 10 0 3
BITMAP
F0
F0
60
6E
7F
73
63
63
63
63
ENDCHAR
STARTCHAR CYRILLIC_CAPITAL_LETTER_KJE
ENCODING 1036
SWIDTH 500 0
DWIDTH 9 0
BBX 7 10 1 3
BITMAP
66
EE
CC
F0
F0
F0
F0
CC
CE
C6
ENDCHAR
STARTCHAR CYRILLIC_CAPITAL_LETTER_SHORT_U
ENCODING 1038
SWIDTH 500 0
DWIDTH 9 0
BBX 7 13 1 3
BITMAP
0C
7C
00
C6
C6
C6
6C
7C
30
30
30
30
30
ENDCHAR
STARTCHAR CYRILLIC_CAPITAL_LETTER_DZHE
ENCODING 1039
SWIDTH 500 0
DWIDTH 9 0
BBX 7 12 1 1
BITMAP
C6
C6
C6
C6
C6
C6
C6
C6
FE
FE
30
10
ENDCHAR
STARTCHAR CYRILLIC_CAPITAL_LETTER_A
ENCODING 1040
SWIDTH 500 0
DWIDTH 9 0
BBX 7 10 1 3
BITMAP
30
7C
6C
C6
C6
FE
FE
C6
C6
C6
ENDCHAR
STARTCHAR CYRILLIC_CAPITAL_LETTER_BE
ENCODING 1041
SWIDTH 500 0
DWIDTH 9 0
BBX 7 10 1 3
BITMAP
F8
FE
C6
C0
F8
F8
C6
C6
FE
78
ENDCHAR
STARTCHAR CYRILLIC_CAPITAL_LETTER_VE
ENCODING 1042
SWIDTH 500 0
DWIDTH 9 0
BBX 7 10 1 3
BITMAP
78
FE
C6
C6
F8
F8
C6
C6
FE
78
ENDCHAR
STARTCHAR CYRILLIC_CAPITAL_LETTER_GHE
ENCODING 1043
SWIDTH 500 0
DWIDTH 8 0
BBX 6 10 1 3
BITMAP
FC
F8
C0
C0
C0
C0
C0
C0
C0
C0
ENDCHAR
STARTCHAR CYRILLIC_CAPITAL_LETTER_DE
ENCODING 1044
SWIDTH 500 0
DWIDTH 10 0
BBX 8 10 1 3
BITMAP
7F
7F
63
63
63
63
E3
FF
FF
C3
ENDCHAR
STARTCHAR CYRILLIC_CAPITAL_LETTER_IE
ENCODING 1045
SWIDTH 500 0
DWIDTH 9 0
BBX 7 10 1 3
BITMAP
78
FE
C6
C0
F0
F0
C0
C6
FE
78
ENDCHAR
STARTCHAR CYRILLIC_CAPITAL_LETTER_ZHE
ENCODING 1046
SWIDTH 500 0
DWIDTH 14 0
BBX 12 10 1 3
BITMAP
C630
E670
6660
3780
3F80
3F80
3780
6660
E670
C630
ENDCHAR
STARTCHAR CYRILLIC_CAPITAL_LETTER_ZE
ENCODING 1047
SWIDTH 500 0
DWIDTH 9 0
BBX 7 10 1 3
BITMAP
78
FE
C6
06
78
78
06
C6
FE
78
ENDCHAR
STARTCHAR CYRILLIC_CAPITAL_LETTER_I
ENCODING 1048
SWIDTH 500 0
DWIDTH 9 0
BBX 7 10 1 3
BITMAP
C6
CE
CE
F6
F6
F6
F6
E6
E6
C6
ENDCHAR
STARTCHAR CYRILLIC_CAPITAL_LETTER_SHORT_I
ENCODING 1049
SWIDTH 500 0
DWIDTH 9 0
BBX 7 13 1 3
BITMAP
08
78
00
C6
CE
CE
F6
F6
F6
F6
E6
E6
C6
ENDCHAR
STARTCHAR CYRILLIC_CAPITAL_LETTER_KA
ENCODING 1050
SWIDTH 500 0
DWIDTH 9 0
BBX 7 13 1 3
BITMAP
08
10
00
66
EE
CC
F0
F0
F0
F0
CC
CE
C6
ENDCHAR
STARTCHAR CYRILLIC_CAPITAL_LETTER_EL
ENCODING 1051
SWIDTH 500 0
DWIDTH 10 0
BBX 8 10 1 3
BITMAP
7F
7F
63
63
63
63
63
63
E3
E3
ENDCHAR
STARTCHAR CYRILLIC_CAPITAL_LETTER_EM
ENCODING 1052
SWIDTH 500 0
DWIDTH 11 0
BBX 9 10 1 3
BITMAP
6300
6300
F780
F780
FF80
CD80
CD80
CD80
C180
C180
ENDCHAR
STARTCHAR CYRILLIC_CAPITAL_LETTER_EN
ENCODING 1053
SWIDTH 500 0
DWIDTH 9 0
BBX 7 10 1 3
BITMAP
C6
C6
C6
C6
FE
FE
C6
C6
C6
C6
ENDCHAR
STARTCHAR CYRILLIC_CAPITAL_LETTER_ER
ENCODING 1056
SWIDTH 500 0
DWIDTH 9 0
BBX 7 10 1 3
BITMAP
78
78
C6
C6
C6
FE
F8
C0
C0
C0
ENDCHAR
STARTCHAR CYRILLIC_CAPITAL_LETTER_ES
ENCODING 1057
SWIDTH 500 0
DWIDTH 9 0
BBX 7 10 1 3
BITMAP
78
FE
C6
C6
C0
C0
C6
C6
FE
78
ENDCHAR
STARTCHAR CYRILLIC_CAPITAL_LETTER_TE
ENCODING 1058
SWIDTH 500 0
DWIDTH 9 0
BBX 7 10 1 3
BITMAP
78
FE
F6
30
30
30
30
30
30
30
ENDCHAR
STARTCHAR CYRILLIC_CAPITAL_LETTER_U
ENCODING 1059
SWIDTH 500 0
DWIDTH 9 0
BBX 7 10 1 3
BITMAP
C6
C6
C6
6C
7C
30
30
30
30
30
ENDCHAR
STARTCHAR CYRILLIC_CAPITAL_LETTER_EF
ENCODING 1060
SWIDTH 500 0
DWIDTH 9 0
BBX 7 10 1 3
BITMAP
30
78
78
F6
F6
F6
F6
78
78
30
ENDCHAR
STARTCHAR CYRILLIC_CAPITAL_LETTER_HA
ENCODING 1061
SWIDTH 500 0
DWIDTH 9 0
BBX 7 10 1 3
BITMAP
C6
EE
6C
6C
30
30
6C
6C
EE
C6
ENDCHAR
STARTCHAR CYRILLIC_CAPITAL_LETTER_TSE
ENCODING 1062
SWIDTH 500 0
DWIDTH 9 0
BBX 7 11 1 2
BITMAP
C6
C6
C6
C6
C6
C6
C6
C6
FE
FE
02
ENDCHAR
STARTCHAR CYRILLIC_CAPITAL_LETTER_CHE
ENCODING 1063
SWIDTH 500 0
DWIDTH 9 0
BBX 7 10 1 3
BITMAP
C6
C6
C6
C6
7E
7E
06
06
06
06
ENDCHAR
STARTCHAR CYRILLIC_CAPITAL_LETTER_SHA
ENCODING 1064
SWIDTH 500 0
DWIDTH 11 0
BBX 9 10 1 3
BITMAP
C180
C180
CD80
CD80
CD80
CD80
F780
F780
F780
6300
ENDCHAR
STARTCHAR CYRILLIC_CAPITAL_LETTER_SHCHA
ENCODING 1065
SWIDTH 500 0
DWIDTH 12 0
BBX 10 11 1 2
BITMAP
C180
C180
CD80
CD80
CD80
CD80
F780
F780
F780
6380
00C0
ENDCHAR
STARTCHAR CYRILLIC_CAPITAL_LETTER_HARD_SIGN
ENCODING 1066
SWIDTH 500 0
DWIDTH 9 0
BBX 8 10 0 3
BITMAP
F0
F0
60
7E
7F
63
63
63
1E
1E
ENDCHAR
STARTCHAR CYRILLIC_CAPITAL_LETTER_YERU
ENCODING 1067
SWIDTH 500 0
DWIDTH 11 0
BBX 9 10 1 3
BITMAP
C000
C000
C000
C180
F980
F980
C780
C780
FF80
7980
ENDCHAR
STARTCHAR CYRILLIC_CAPITAL_LETTER_SOFT_SIGN
ENCODING 1068
SWIDTH 500 0
DWIDTH 9 0
BBX 7 10 1 3
BITMAP
C0
C0
C0
F8
F8
C6
C6
C6
FE
78
ENDCHAR
STARTCHAR CYRILLIC_CAPITAL_LETTER_E
ENCODING 1069
SWIDTH 500 0
DWIDTH 9 0
BBX 7 10 1 3
BITMAP
78
FE
C6
06
78
78
06
C6
FE
78
ENDCHAR
STARTCHAR CYRILLIC_CAPITAL_LETTER_YU
ENCODING 1070
SWIDTH 500 0
DWIDTH 12 0
BBX 10 10 1 3
BITMAP
C780
C780
D8C0
D8C0
F8C0
F8C0
D8C0
D8C0
DFC0
C780
ENDCHAR
STARTCHAR CYRILLIC_CAPITAL_LETTER_YA
ENCODING 1071
SWIDTH 500 0
DWIDTH 9 0
BBX 7 10 1 3
BITMAP
78
78
C6
C6
C6
FE
7E
36
F6
C6
ENDCHAR
STARTCHAR CYRILLIC_SMALL_LETTER_A
ENCODING 1072
SWIDTH 500 0
DWIDTH 10 0
BBX 8 7 1 3
BITMAP
F8
FE
FE
FE
C6
7B
7B
ENDCHAR
STARTCHAR CYRILLIC_SMALL_LETTER_BE
ENCODING 1073
SWIDTH 500 0
DWIDTH 9 0
BBX 7 10 1 3
BITMAP
78
FE
C6
C0
F8
F8
C6
C6
FE
78
ENDCHAR
STARTCHAR CYRILLIC_SMALL_LETTER_VE
ENCODING 1074
SWIDTH 500 0
DWIDTH 9 0
BBX 7 7 1 3
BITMAP
78
FE
DE
F8
C6
FE
78
ENDCHAR
STARTCHAR CYRILLIC_SMALL_LETTER_GHE
ENCODING 1075
SWIDTH 500 0
DWIDTH 8 0
BBX 6 7 1 3
BITMAP
FC
F8
C0
C0
C0
C0
C0
ENDCHAR
STARTCHAR CYRILLIC_SMALL_LETTER_DE
ENCODING 1076
SWIDTH 500 0
DWIDTH 10 0
BBX 8 7 1 3
BITMAP
7F
7F
63
E3
FF
FF
C3
ENDCHAR
STARTCHAR CYRILLIC_SMALL_LETTER_IE
ENCODING 1077
SWIDTH 500 0
DWIDTH 9 0
BBX 7 7 1 3
BITMAP
78
FE
F6
F0
C6
FE
78
ENDCHAR
STARTCHAR CYRILLIC_SMALL_LETTER_ZHE
ENCODING 1078
SWIDTH 500 0
DWIDTH 11 0
BBX 10 7 0 3
BITMAP
CCC0
6D80
3F00
1E00
6D80
6D80
CCC0
ENDCHAR
STARTCHAR CYRILLIC_SMALL_LETTER_ZE
ENCODING 1079
SWIDTH 500 0
DWIDTH 9 0
BBX 7 7 1 3
BITMAP
78
FE
DE
3E
C6
FE
78
ENDCHAR
STARTCHAR CYRILLIC_SMALL_LETTER_I
ENCODING 1080
SWIDTH 500 0
DWIDTH 9 0
BBX 7 7 1 3
BITMAP
C6
CE
FE
F6
E6
E6
C6
ENDCHAR
STARTCHAR CYRILLIC_SMALL_LETTER_SHORT_I
ENCODING 1081
SWIDTH 500 0
DWIDTH 9 0
BBX 7 10 1 3
BITMAP
28
38
00
C6
CE
FE
F6
E6
E6
C6
ENDCHAR
STARTCHAR CYRILLIC_SMALL_LETTER_KA
ENCODING 1082
SWIDTH 500 0
DWIDTH 9 0
BBX 7 7 1 3
BITMAP
C6
FE
F8
E0
F8
FE
C6
ENDCHAR
STARTCHAR CYRILLIC_SMALL_LETTER_EL
ENCODING 1083
SWIDTH 500 0
DWIDTH 10 0
BBX 8 7 1 3
BITMAP
7F
7F
63
63
63
E3
E3
ENDCHAR
STARTCHAR CYRILLIC_SMALL_LETTER_EM
ENCODING 1084
SWIDTH 500 0
DWIDTH 11 0
BBX 9 7 1 3
BITMAP
6300
F780
F780
F780
CD80
CD80
C180
ENDCHAR
STARTCHAR CYRILLIC_SMALL_LETTER_EN
ENCODING 1085
SWIDTH 500 0
DWIDTH 9 0
BBX 7 7 1 3
BITMAP
C6
C6
C6
FE
FE
C6
C6
ENDCHAR
STARTCHAR CYRILLIC_SMALL_LETTER_O
ENCODING 1086
SWIDTH 500 0
DWIDTH 9 0
BBX 7 7 1 3
BITMAP
78
FE
C6
C6
C6
78
78
ENDCHAR
STARTCHAR CYRILLIC_SMALL_LETTER_PE
ENCODING 1087
SWIDTH 500 0
DWIDTH 9 0
BBX 7 7 1 3
BITMAP
FE
FE
C6
C6
C6
C6
C6
ENDCHAR
STARTCHAR CYRILLIC_SMALL_LETTER_ER
ENCODING 1088
SWIDTH 500 0
DWIDTH 9 0
BBX 7 10 1 0
BITMAP
78
78
C6
C6
C6
FE
F8
C0
C0
C0
ENDCHAR
STARTCHAR CYRILLIC_SMALL_LETTER_ES
ENCODING 1089
SWIDTH 500 0
DWIDTH 9 0
BBX 7 7 1 3
BITMAP
78
FE
C6
C0
C6
FE
78
ENDCHAR
STARTCHAR CYRILLIC_SMALL_LETTER_TE
ENCODING 1090
SWIDTH 500 0
DWIDTH 9 0
BBX 7 7 1 3
BITMAP
78
FE
F6
30
30
30
30
ENDCHAR
STARTCHAR CYRILLIC_SMALL_LETTER_U
ENCODING 1091
SWIDTH 500 0
DWIDTH 9 0
BBX 7 10 1 0
BITMAP
C6
C6
C6
C6
7E
7E
06
C6
FE
78
ENDCHAR
STARTCHAR CYRILLIC_SMALL_LETTER_EF
ENCODING 1092
SWIDTH 500 0
DWIDTH 8 0
BBX 6 10 1 3
BITMAP
30
30
78
FC
FC
FC
FC
78
30
30
ENDCHAR
STARTCHAR CYRILLIC_SMALL_LETTER_HA
ENCODING 1093
SWIDTH 500 0
DWIDTH 9 0
BBX 7 7 1 3
BITMAP
C6
EE
7C
30
6C
EE
C6
ENDCHAR
STARTCHAR CYRILLIC_SMALL_LETTER_TSE
ENCODING 1094
SWIDTH 500 0
DWIDTH 9 0
BBX 7 8 1 2
BITMAP
C6
C6
C6
C6
C6
FE
FE
02
ENDCHAR
STARTCHAR CYRILLIC_SMALL_LETTER_CHE
ENCODING 1095
SWIDTH 500 0
DWIDTH 9 0
BBX 7 7 1 3
BITMAP
C6
C6
C6
C6
7E
7E
06
ENDCHAR
STARTCHAR CYRILLIC_SMALL_LETTER_SHA
ENCODING 1096
SWIDTH 500 0
DWIDTH 12 0
BBX 10 7 1 3
BITMAP
CCC0
CCC0
CCC0
CCC0
CCC0
FFC0
F7C0
ENDCHAR
STARTCHAR CYRILLIC_SMALL_LETTER_SHCHA
ENCODING 1097
SWIDTH 500 0
DWIDTH 12 0
BBX 10 8 1 2
BITMAP
CD80
CD80
CD80
CD80
CD80
FF80
F780
00C0
ENDCHAR
STARTCHAR CYRILLIC_SMALL_LETTER_HARD_SIGN
ENCODING 1098
SWIDTH 500 0
DWIDTH 9 0
BBX 8 10 0 3
BITMAP
E0
E0
60
7C
7F
63
63
63
3C
3C
ENDCHAR
STARTCHAR CYRILLIC_SMALL_LETTER_YERU
ENCODING 1099
SWIDTH 500 0
DWIDTH 11 0
BBX 9 10 1 3
BITMAP
C180
C180
C180
F980
F980
C780
C780
C780
FF80
7980
ENDCHAR
STARTCHAR CYRILLIC_SMALL_LETTER_SOFT_SIGN
ENCODING 1100
SWIDTH 500 0
DWIDTH 8 0
BBX 7 10 0 3
BITMAP
C0
C0
C0
F8
F8
C6
C6
C6
FE
78
ENDCHAR
STARTCHAR CYRILLIC_SMALL_LETTER_E
ENCODING 1101
SWIDTH 500 0
DWIDTH 9 0
BBX 7 7 1 3
BITMAP
78
FE
DE
3E
C6
FE
78
ENDCHAR
STARTCHAR CYRILLIC_SMALL_LETTER_YU
ENCODING 1102
SWIDTH 500 0
DWIDTH 12 0
BBX 10 7 1 3
BITMAP
C780
DFC0
D8C0
F8C0
F8C0
C780
C780
ENDCHAR
STARTCHAR CYRILLIC_SMALL_LETTER_YA
ENCODING 1103
SWIDTH 500 0
DWIDTH 8 0
BBX 7 7 0 3
BITMAP
3C
7E
FE
3E
36
76
66
ENDCHAR
STARTCHAR CYRILLIC_SMALL_LETTER_IO
ENCODING 1105
SWIDTH 500 0
DWIDTH 9 0
BBX 7 10 1 3
BITMAP
6C
6C
00
7C
FE
F6
F0
C6
FE
7C
ENDCHAR
STARTCHAR CYRILLIC_SMALL_LETTER_DJE
ENCODING 1106
SWIDTH 500 0
DWIDTH 9 0
BBX 7 13 1 0
BITMAP
C0
E0
E0
DC
DC
E6
E6
C6
C6
C6
06
66
66
ENDCHAR
STARTCHAR CYRILLIC_SMALL_LETTER_GJE
ENCODING 1107
SWIDTH 500 0
DWIDTH 9 0
BBX 7 11 1 3
BITMAP
10
10
20
00
78
FE
C6
C0
C0
C0
C0
ENDCHAR
STARTCHAR CYRILLIC_SMALL_LETTER_UKRAINIAN_IE
ENCODING 1108
SWIDTH 500 0
DWIDTH 9 0
BBX 7 7 1 3
BITMAP
78
FE
F6
F0
C6
FE
78
ENDCHAR
STARTCHAR CYRILLIC_SMALL_LETTER_DZE
ENCODING 1109
SWIDTH 500 0
DWIDTH 9 0
BBX 7 7 1 3
BITMAP
7E
FE
F8
78
06
FE
F8
ENDCHAR
STARTCHAR CYRILLIC_SMALL_LETTER_BYELORUSSIAN-UKRAINIAN_I
ENCODING 1110
SWIDTH 500 0
DWIDTH 4 0
BBX 2 10 1 3
BITMAP
C0
C0
00
C0
C0
C0
C0
C0
C0
C0
ENDCHAR
STARTCHAR CYRILLIC_SMALL_LETTER_YI
ENCODING 1111
SWIDTH 500 0
DWIDTH 7 0
BBX 5 7 1 3
BITMAP
D8
D8
00
60
60
60
60
ENDCHAR
STARTCHAR CYRILLIC_SMALL_LETTER_JE
ENCODING 1112
SWIDTH 500 0
DWIDTH 8 0
BBX 6 7 1 3
BITMAP
0C
0C
0C
0C
CC
FC
70
ENDCHAR
STARTCHAR CYRILLIC_SMALL_LETTER_LJE
ENCODING 1113
SWIDTH 500 0
DWIDTH 13 0
BBX 11 7 1 3
BITMAP
7C00
7FC0
6FC0
6C60
6C60
EFE0
EFC0
ENDCHAR
STARTCHAR CYRILLIC_SMALL_LETTER_NJE
ENCODING 1114
SWIDTH 500 0
DWIDTH 12 0
BBX 10 7 1 3
BITMAP
D800
DF80
DF80
F8C0
F8C0
DFC0
DF80
ENDCHAR
STARTCHAR CYRILLIC_SMALL_LETTER_TSHE
ENCODING 1115
SWIDTH 500 0
DWIDTH 9 0
BBX 7 10 1 3
BITMAP
E0
E0
C0
F8
FE
E6
C6
C6
C6
C6
ENDCHAR
STARTCHAR CYRILLIC_SMALL_LETTER_KJE
ENCODING 1116
SWIDTH 500 0
DWIDTH 9 0
BBX 7 11 1 3
BITMAP
10
30
20
00
C6
FE
F8
E0
F8
FE
C6
ENDCHAR
STARTCHAR CYRILLIC_SMALL_LETTER_SHORT_U
ENCODING 1118
SWIDTH 500 0
DWIDTH 9 0
BBX 7 13 1 0
BITMAP
68
78
00
C6
C6
C6
C6
7E
7E
06
C6
FE
78
ENDCHAR
STARTCHAR CYRILLIC_SMALL_LETTER_DZHE
ENCODING 1119
SWIDTH 500 0
DWIDTH 9 0
BBX 7 9 1 1
BITMAP
C6
C6
C6
C6
C6
FE
FE
30
10
ENDCHAR
STARTCHAR CYRILLIC_CAPITAL_LETTER_GHE_WITH_UPTURN
ENCODING 1168
SWIDTH 500 0
DWIDTH 8 0
BBX 6 11 1 3
BITMAP
0C
FC
FC
C0
C0
C0
C0
C0
C0
C0
C0
ENDCHAR
STARTCHAR CYRILLIC_SMALL_LETTER_GHE_WITH_UPTURN
ENCODING 1169
SWIDTH 500 0
DWIDTH 9 0
BBX 7 10 1 3
BITMAP
C6
C6
C6
6C
7C
30
30
30
30
30
ENDCHAR
STARTCHAR EN_DASH
ENCODING 8211
SWIDTH 500 0
DWIDTH 6 0
BBX 4 2 1 7
BITMAP
F0
F0
ENDCHAR
STARTCHAR EM_DASH
ENCODING 8212
SWIDTH 500 0
DWIDTH 7 0
BBX 5 2 1 7
BITMAP
F8
F8
ENDCHAR
STARTCHAR LEFT_SINGLE_QUOTATION_MARK
ENCODING 8216
SWIDTH 500 0
DWIDTH 4 0
BBX 3 3 0 10
BITMAP
40
E0
60
ENDCHAR
STARTCHAR RIGHT_SINGLE_QUOTATION_MARK
ENCODING 8217
SWIDTH 500 0
DWIDTH 4 0
BBX 2 3 1 10
BITMAP
C0
C0
40
ENDCHAR
STARTCHAR LEFT_DOUBLE_QUOTATION_MARK
ENCODING 8220
SWIDTH 500 0
DWIDTH 7 0
BBX 6 3 0 10
BITMAP
48
FC
6C
ENDCHAR
STARTCHAR RIGHT_DOUBLE_QUOTATION_MARK
ENCODING 8221
SWIDTH 500 0
DWIDTH 7 0
BBX 5 3 1 10
BITMAP
F0
F8
50
ENDCHAR
STARTCHAR BULLET
ENCODING 8226
SWIDTH 500 0
DWIDTH 4 0
BBX 2 2 1 7
BITMAP
C0
C0
ENDCHAR
STARTCHAR HORIZONTAL_ELLIPSIS
ENCODING 8230
SWIDTH 500 0
DWIDTH 10 0
BBX 8 2 1 3
BITMAP
DB
DB
ENDCHAR
STARTCHAR EURO_SIGN
ENCODING 8364
SWIDTH 500 0
DWIDTH 9 0
BBX 7 10 1 3
BITMAP
78
FE
C6
F6
F0
C0
F6
F6
FE
78
ENDCHAR
ENDFONT
