STARTFONT 2.1
FONT -pixbar-pixbar-sans-medium-r-normal--16-*-*-*-p-*-iso10646-1
SIZE 16 75 75
FONTBOUNDINGBOX 13 16 0 0
STARTPROPERTIES 8
FOUNDRY "Pixbar"
FAMILY_NAME "Pixbar Sans"
FONT_NAME "Pixbar Sans"
COPYRIGHT "Copyright 2021 The Pixelify Sans Project Authors; generated TC002 bitmap adaptation under SIL OFL 1.1"
PIXEL_SIZE 16
FONT_ASCENT 16
FONT_DESCENT 0
CHARSET_REGISTRY "ISO10646"
ENDPROPERTIES
CHARS 416
STARTCHAR SPACE
ENCODING 32
SWIDTH 500 0
DWIDTH 2 0
BBX 1 1 0 0
BITMAP
00
ENDCHAR
STARTCHAR EXCLAMATION_MARK
ENCODING 33
SWIDTH 500 0
DWIDTH 3 0
BBX 1 8 1 4
BITMAP
80
80
80
80
80
80
00
80
ENDCHAR
STARTCHAR QUOTATION_MARK
ENCODING 34
SWIDTH 500 0
DWIDTH 6 0
BBX 4 3 1 9
BITMAP
A0
F0
A0
ENDCHAR
STARTCHAR NUMBER_SIGN
ENCODING 35
SWIDTH 500 0
DWIDTH 9 0
BBX 7 8 1 4
BITMAP
44
44
FE
CC
44
44
FE
CC
ENDCHAR
STARTCHAR DOLLAR_SIGN
ENCODING 36
SWIDTH 500 0
DWIDTH 7 0
BBX 5 10 1 3
BITMAP
20
F8
88
80
70
18
08
98
70
20
ENDCHAR
STARTCHAR PERCENT_SIGN
ENCODING 37
SWIDTH 500 0
DWIDTH 11 0
BBX 9 8 1 4
BITMAP
4100
E200
C400
0800
1100
0100
6380
4300
ENDCHAR
STARTCHAR AMPERSAND
ENCODING 38
SWIDTH 500 0
DWIDTH 8 0
BBX 6 8 1 4
BITMAP
70
98
D0
70
70
10
98
FC
ENDCHAR
STARTCHAR APOSTROPHE
ENCODING 39
SWIDTH 500 0
DWIDTH 4 0
BBX 2 3 1 9
BITMAP
80
C0
80
ENDCHAR
STARTCHAR LEFT_PARENTHESIS
ENCODING 40
SWIDTH 500 0
DWIDTH 5 0
BBX 3 12 1 2
BITMAP
20
20
60
40
C0
80
80
40
40
60
20
20
ENDCHAR
STARTCHAR RIGHT_PARENTHESIS
ENCODING 41
SWIDTH 500 0
DWIDTH 5 0
BBX 3 12 1 2
BITMAP
80
80
C0
40
60
20
20
40
40
C0
80
80
ENDCHAR
STARTCHAR ASTERISK
ENCODING 42
SWIDTH 500 0
DWIDTH 4 0
BBX 2 2 1 10
BITMAP
C0
C0
ENDCHAR
STARTCHAR PLUS_SIGN
ENCODING 43
SWIDTH 500 0
DWIDTH 8 0
BBX 6 6 1 5
BITMAP
20
20
FC
60
20
20
ENDCHAR
STARTCHAR COMMA
ENCODING 44
SWIDTH 500 0
DWIDTH 4 0
BBX 2 2 1 3
BITMAP
80
C0
ENDCHAR
STARTCHAR HYPHEN-MINUS
ENCODING 45
SWIDTH 500 0
DWIDTH 5 0
BBX 3 1 1 7
BITMAP
E0
ENDCHAR
STARTCHAR FULL_STOP
ENCODING 46
SWIDTH 500 0
DWIDTH 3 0
BBX 1 1 1 4
BITMAP
80
ENDCHAR
STARTCHAR SOLIDUS
ENCODING 47
SWIDTH 500 0
DWIDTH 6 0
BBX 4 8 1 4
BITMAP
10
10
30
20
60
40
C0
80
ENDCHAR
STARTCHAR DIGIT_ZERO
ENCODING 48
SWIDTH 500 0
DWIDTH 7 0
BBX 5 8 1 4
BITMAP
70
98
88
88
88
88
98
70
ENDCHAR
STARTCHAR DIGIT_ONE
ENCODING 49
SWIDTH 500 0
DWIDTH 5 0
BBX 3 8 1 4
BITMAP
40
E0
20
20
20
20
20
20
ENDCHAR
STARTCHAR DIGIT_TWO
ENCODING 50
SWIDTH 500 0
DWIDTH 7 0
BBX 5 8 1 4
BITMAP
F8
98
08
70
80
80
98
70
ENDCHAR
STARTCHAR DIGIT_THREE
ENCODING 51
SWIDTH 500 0
DWIDTH 7 0
BBX 5 8 1 4
BITMAP
F8
98
08
70
18
08
98
70
ENDCHAR
STARTCHAR DIGIT_FOUR
ENCODING 52
SWIDTH 500 0
DWIDTH 7 0
BBX 5 8 1 4
BITMAP
18
38
48
C8
F8
18
08
08
ENDCHAR
STARTCHAR DIGIT_FIVE
ENCODING 53
SWIDTH 500 0
DWIDTH 7 0
BBX 5 8 1 4
BITMAP
F8
98
88
40
30
10
98
F0
ENDCHAR
STARTCHAR DIGIT_SIX
ENCODING 54
SWIDTH 500 0
DWIDTH 7 0
BBX 5 8 1 4
BITMAP
70
98
80
F0
98
88
98
70
ENDCHAR
STARTCHAR DIGIT_SEVEN
ENCODING 55
SWIDTH 500 0
DWIDTH 7 0
BBX 5 8 1 4
BITMAP
70
98
08
08
08
08
08
08
ENDCHAR
STARTCHAR DIGIT_EIGHT
ENCODING 56
SWIDTH 500 0
DWIDTH 7 0
BBX 5 8 1 4
BITMAP
F8
98
88
70
98
88
98
70
ENDCHAR
STARTCHAR DIGIT_NINE
ENCODING 57
SWIDTH 500 0
DWIDTH 7 0
BBX 5 8 1 4
BITMAP
F8
98
88
78
18
08
98
70
ENDCHAR
STARTCHAR COLON
ENCODING 58
SWIDTH 500 0
DWIDTH 3 0
BBX 1 3 1 5
BITMAP
80
00
80
ENDCHAR
STARTCHAR SEMICOLON
ENCODING 59
SWIDTH 500 0
DWIDTH 4 0
BBX 2 5 1 4
BITMAP
80
00
00
C0
80
ENDCHAR
STARTCHAR LESS-THAN_SIGN
ENCODING 60
SWIDTH 500 0
DWIDTH 7 0
BBX 5 11 1 3
BITMAP
08
00
10
20
40
C0
C0
40
20
30
08
ENDCHAR
STARTCHAR EQUALS_SIGN
ENCODING 61
SWIDTH 500 0
DWIDTH 7 0
BBX 5 3 1 6
BITMAP
F8
00
F8
ENDCHAR
STARTCHAR GREATER-THAN_SIGN
ENCODING 62
SWIDTH 500 0
DWIDTH 7 0
BBX 5 11 1 3
BITMAP
80
80
40
60
30
18
10
00
60
40
80
ENDCHAR
STARTCHAR QUESTION_MARK
ENCODING 63
SWIDTH 500 0
DWIDTH 7 0
BBX 5 8 1 4
BITMAP
F8
98
88
30
20
20
00
20
ENDCHAR
STARTCHAR COMMERCIAL_AT
ENCODING 64
SWIDTH 500 0
DWIDTH 8 0
BBX 6 6 1 4
BITMAP
78
88
F4
F8
80
60
ENDCHAR
STARTCHAR LATIN_CAPITAL_LETTER_A
ENCODING 65
SWIDTH 500 0
DWIDTH 7 0
BBX 5 8 1 4
BITMAP
20
70
98
88
F8
98
88
88
ENDCHAR
STARTCHAR LATIN_CAPITAL_LETTER_B
ENCODING 66
SWIDTH 500 0
DWIDTH 7 0
BBX 5 8 1 4
BITMAP
F8
98
88
B0
98
88
98
70
ENDCHAR
STARTCHAR LATIN_CAPITAL_LETTER_C
ENCODING 67
SWIDTH 500 0
DWIDTH 7 0
BBX 5 8 1 4
BITMAP
F8
98
88
80
88
88
98
70
ENDCHAR
STARTCHAR LATIN_CAPITAL_LETTER_D
ENCODING 68
SWIDTH 500 0
DWIDTH 7 0
BBX 5 8 1 4
BITMAP
E0
B0
98
88
88
88
B0
E0
ENDCHAR
STARTCHAR LATIN_CAPITAL_LETTER_E
ENCODING 69
SWIDTH 500 0
DWIDTH 7 0
BBX 5 8 1 4
BITMAP
70
98
80
E0
80
80
98
70
ENDCHAR
STARTCHAR LATIN_CAPITAL_LETTER_F
ENCODING 70
SWIDTH 500 0
DWIDTH 7 0
BBX 5 8 1 4
BITMAP
F0
98
80
E0
80
80
80
80
ENDCHAR
STARTCHAR LATIN_CAPITAL_LETTER_G
ENCODING 71
SWIDTH 500 0
DWIDTH 7 0
BBX 5 8 1 4
BITMAP
70
98
88
A8
98
98
98
70
ENDCHAR
STARTCHAR LATIN_CAPITAL_LETTER_H
ENCODING 72
SWIDTH 500 0
DWIDTH 7 0
BBX 5 8 1 4
BITMAP
88
88
A8
F8
98
88
88
88
ENDCHAR
STARTCHAR LATIN_CAPITAL_LETTER_I
ENCODING 73
SWIDTH 500 0
DWIDTH 5 0
BBX 3 8 1 4
BITMAP
E0
C0
40
40
40
40
C0
E0
ENDCHAR
STARTCHAR LATIN_CAPITAL_LETTER_J
ENCODING 74
SWIDTH 500 0
DWIDTH 7 0
BBX 5 8 1 4
BITMAP
70
18
08
08
88
88
98
70
ENDCHAR
STARTCHAR LATIN_CAPITAL_LETTER_K
ENCODING 75
SWIDTH 500 0
DWIDTH 7 0
BBX 5 8 1 4
BITMAP
48
90
A0
E0
E0
A0
90
98
ENDCHAR
STARTCHAR LATIN_CAPITAL_LETTER_L
ENCODING 76
SWIDTH 500 0
DWIDTH 7 0
BBX 5 8 1 4
BITMAP
80
80
80
80
80
80
98
70
ENDCHAR
STARTCHAR LATIN_CAPITAL_LETTER_M
ENCODING 77
SWIDTH 500 0
DWIDTH 10 0
BBX 8 8 1 4
BITMAP
44
EB
A9
B9
91
91
91
81
ENDCHAR
STARTCHAR LATIN_CAPITAL_LETTER_N
ENCODING 78
SWIDTH 500 0
DWIDTH 7 0
BBX 5 8 1 4
BITMAP
88
C8
E8
A8
A8
A8
98
98
ENDCHAR
STARTCHAR LATIN_CAPITAL_LETTER_O
ENCODING 79
SWIDTH 500 0
DWIDTH 7 0
BBX 5 8 1 4
BITMAP
70
98
88
88
88
88
98
70
ENDCHAR
STARTCHAR LATIN_CAPITAL_LETTER_P
ENCODING 80
SWIDTH 500 0
DWIDTH 7 0
BBX 5 8 1 4
BITMAP
70
98
88
88
F8
80
80
80
ENDCHAR
STARTCHAR LATIN_CAPITAL_LETTER_Q
ENCODING 81
SWIDTH 500 0
DWIDTH 7 0
BBX 5 10 1 2
BITMAP
F8
98
88
88
88
88
10
70
20
30
ENDCHAR
STARTCHAR LATIN_CAPITAL_LETTER_R
ENCODING 82
SWIDTH 500 0
DWIDTH 7 0
BBX 5 8 1 4
BITMAP
70
88
88
88
F8
B0
90
88
ENDCHAR
STARTCHAR LATIN_CAPITAL_LETTER_S
ENCODING 83
SWIDTH 500 0
DWIDTH 7 0
BBX 5 8 1 4
BITMAP
F8
88
80
70
18
08
98
70
ENDCHAR
STARTCHAR LATIN_CAPITAL_LETTER_T
ENCODING 84
SWIDTH 500 0
DWIDTH 7 0
BBX 5 8 1 4
BITMAP
70
F8
20
20
20
20
20
20
ENDCHAR
STARTCHAR LATIN_CAPITAL_LETTER_U
ENCODING 85
SWIDTH 500 0
DWIDTH 7 0
BBX 5 8 1 4
BITMAP
88
88
88
88
88
88
98
70
ENDCHAR
STARTCHAR LATIN_CAPITAL_LETTER_V
ENCODING 86
SWIDTH 500 0
DWIDTH 7 0
BBX 5 8 1 4
BITMAP
88
88
88
88
D8
50
70
20
ENDCHAR
STARTCHAR LATIN_CAPITAL_LETTER_W
ENCODING 87
SWIDTH 500 0
DWIDTH 10 0
BBX 8 8 1 4
BITMAP
81
91
91
91
B9
A9
EB
44
ENDCHAR
STARTCHAR LATIN_CAPITAL_LETTER_X
ENCODING 88
SWIDTH 500 0
DWIDTH 7 0
BBX 5 8 1 4
BITMAP
D8
D0
50
20
70
50
D0
88
ENDCHAR
STARTCHAR LATIN_CAPITAL_LETTER_Y
ENCODING 89
SWIDTH 500 0
DWIDTH 7 0
BBX 5 8 1 4
BITMAP
88
88
D8
60
20
20
20
20
ENDCHAR
STARTCHAR LATIN_CAPITAL_LETTER_Z
ENCODING 90
SWIDTH 500 0
DWIDTH 7 0
BBX 5 8 1 4
BITMAP
F8
98
88
70
80
88
98
78
ENDCHAR
STARTCHAR LEFT_SQUARE_BRACKET
ENCODING 91
SWIDTH 500 0
DWIDTH 5 0
BBX 3 9 1 3
BITMAP
60
80
80
80
80
80
80
80
60
ENDCHAR
STARTCHAR REVERSE_SOLIDUS
ENCODING 92
SWIDTH 500 0
DWIDTH 6 0
BBX 4 8 1 4
BITMAP
80
C0
40
60
20
30
10
10
ENDCHAR
STARTCHAR RIGHT_SQUARE_BRACKET
ENCODING 93
SWIDTH 500 0
DWIDTH 5 0
BBX 3 9 1 3
BITMAP
C0
60
20
20
20
20
20
20
C0
ENDCHAR
STARTCHAR CIRCUMFLEX_ACCENT
ENCODING 94
SWIDTH 500 0
DWIDTH 4 0
BBX 2 1 1 11
BITMAP
C0
ENDCHAR
STARTCHAR LOW_LINE
ENCODING 95
SWIDTH 500 0
DWIDTH 6 0
BBX 4 1 1 4
BITMAP
F0
ENDCHAR
STARTCHAR GRAVE_ACCENT
ENCODING 96
SWIDTH 500 0
DWIDTH 4 0
BBX 2 2 1 11
BITMAP
80
C0
ENDCHAR
STARTCHAR LATIN_SMALL_LETTER_A
ENCODING 97
SWIDTH 500 0
DWIDTH 8 0
BBX 6 6 1 4
BITMAP
70
98
88
88
98
74
ENDCHAR
STARTCHAR LATIN_SMALL_LETTER_B
ENCODING 98
SWIDTH 500 0
DWIDTH 7 0
BBX 5 8 1 4
BITMAP
80
80
F0
98
88
88
98
70
ENDCHAR
STARTCHAR LATIN_SMALL_LETTER_C
ENCODING 99
SWIDTH 500 0
DWIDTH 7 0
BBX 5 6 1 4
BITMAP
70
98
80
80
98
70
ENDCHAR
STARTCHAR LATIN_SMALL_LETTER_D
ENCODING 100
SWIDTH 500 0
DWIDTH 7 0
BBX 5 8 1 4
BITMAP
08
08
78
98
88
88
98
70
ENDCHAR
STARTCHAR LATIN_SMALL_LETTER_E
ENCODING 101
SWIDTH 500 0
DWIDTH 7 0
BBX 5 6 1 4
BITMAP
70
F8
E0
80
98
70
ENDCHAR
STARTCHAR LATIN_SMALL_LETTER_F
ENCODING 102
SWIDTH 500 0
DWIDTH 7 0
BBX 5 8 1 4
BITMAP
70
98
80
E0
80
80
80
80
ENDCHAR
STARTCHAR LATIN_SMALL_LETTER_G
ENCODING 103
SWIDTH 500 0
DWIDTH 7 0
BBX 5 8 1 2
BITMAP
F8
98
88
78
18
08
98
70
ENDCHAR
STARTCHAR LATIN_SMALL_LETTER_H
ENCODING 104
SWIDTH 500 0
DWIDTH 7 0
BBX 5 8 1 4
BITMAP
80
80
B0
F8
88
88
88
88
ENDCHAR
STARTCHAR LATIN_SMALL_LETTER_I
ENCODING 105
SWIDTH 500 0
DWIDTH 3 0
BBX 1 8 1 4
BITMAP
80
00
80
80
80
80
80
80
ENDCHAR
STARTCHAR LATIN_SMALL_LETTER_J
ENCODING 106
SWIDTH 500 0
DWIDTH 6 0
BBX 4 6 1 4
BITMAP
10
10
10
10
B0
60
ENDCHAR
STARTCHAR LATIN_SMALL_LETTER_K
ENCODING 107
SWIDTH 500 0
DWIDTH 7 0
BBX 5 8 1 4
BITMAP
80
80
88
B8
C0
80
B8
98
ENDCHAR
STARTCHAR LATIN_SMALL_LETTER_L
ENCODING 108
SWIDTH 500 0
DWIDTH 3 0
BBX 1 8 1 4
BITMAP
80
80
80
80
80
80
80
80
ENDCHAR
STARTCHAR LATIN_SMALL_LETTER_M
ENCODING 109
SWIDTH 500 0
DWIDTH 10 0
BBX 8 6 1 4
BITMAP
EC
B3
91
91
91
91
ENDCHAR
STARTCHAR LATIN_SMALL_LETTER_N
ENCODING 110
SWIDTH 500 0
DWIDTH 7 0
BBX 5 6 1 4
BITMAP
F0
98
88
88
88
88
ENDCHAR
STARTCHAR LATIN_SMALL_LETTER_O
ENCODING 111
SWIDTH 500 0
DWIDTH 7 0
BBX 5 6 1 4
BITMAP
70
98
88
88
98
70
ENDCHAR
STARTCHAR LATIN_SMALL_LETTER_P
ENCODING 112
SWIDTH 500 0
DWIDTH 7 0
BBX 5 8 1 2
BITMAP
70
98
88
88
98
F0
80
80
ENDCHAR
STARTCHAR LATIN_SMALL_LETTER_Q
ENCODING 113
SWIDTH 500 0
DWIDTH 7 0
BBX 5 8 1 2
BITMAP
70
98
88
88
98
78
08
08
ENDCHAR
STARTCHAR LATIN_SMALL_LETTER_R
ENCODING 114
SWIDTH 500 0
DWIDTH 7 0
BBX 5 6 1 4
BITMAP
70
98
80
80
80
80
ENDCHAR
STARTCHAR LATIN_SMALL_LETTER_S
ENCODING 115
SWIDTH 500 0
DWIDTH 7 0
BBX 5 6 1 4
BITMAP
78
F0
70
10
18
F0
ENDCHAR
STARTCHAR LATIN_SMALL_LETTER_T
ENCODING 116
SWIDTH 500 0
DWIDTH 9 0
BBX 7 8 1 4
BITMAP
40
40
F8
C0
40
40
46
38
ENDCHAR
STARTCHAR LATIN_SMALL_LETTER_U
ENCODING 117
SWIDTH 500 0
DWIDTH 7 0
BBX 5 6 1 4
BITMAP
88
88
88
88
98
70
ENDCHAR
STARTCHAR LATIN_SMALL_LETTER_V
ENCODING 118
SWIDTH 500 0
DWIDTH 7 0
BBX 5 6 1 4
BITMAP
88
88
D8
50
70
20
ENDCHAR
STARTCHAR LATIN_SMALL_LETTER_W
ENCODING 119
SWIDTH 500 0
DWIDTH 10 0
BBX 8 6 1 4
BITMAP
91
91
91
91
B3
EC
ENDCHAR
STARTCHAR LATIN_SMALL_LETTER_X
ENCODING 120
SWIDTH 500 0
DWIDTH 7 0
BBX 5 6 1 4
BITMAP
88
D0
60
20
D0
98
ENDCHAR
STARTCHAR LATIN_SMALL_LETTER_Y
ENCODING 121
SWIDTH 500 0
DWIDTH 7 0
BBX 5 8 1 2
BITMAP
88
88
88
F8
18
08
98
70
ENDCHAR
STARTCHAR LATIN_SMALL_LETTER_Z
ENCODING 122
SWIDTH 500 0
DWIDTH 8 0
BBX 6 6 1 4
BITMAP
FC
30
30
40
C0
FC
ENDCHAR
STARTCHAR LEFT_CURLY_BRACKET
ENCODING 123
SWIDTH 500 0
DWIDTH 6 0
BBX 4 11 1 3
BITMAP
20
20
50
40
40
80
C0
40
40
50
20
ENDCHAR
STARTCHAR VERTICAL_LINE
ENCODING 124
SWIDTH 500 0
DWIDTH 3 0
BBX 1 8 1 4
BITMAP
80
80
80
80
80
80
80
80
ENDCHAR
STARTCHAR RIGHT_CURLY_BRACKET
ENCODING 125
SWIDTH 500 0
DWIDTH 6 0
BBX 4 11 1 3
BITMAP
40
40
A0
20
20
10
20
20
20
A0
40
ENDCHAR
STARTCHAR TILDE
ENCODING 126
SWIDTH 500 0
DWIDTH 7 0
BBX 3 2 2 7
BITMAP
E0
E0
ENDCHAR
STARTCHAR NO-BREAK_SPACE
ENCODING 160
SWIDTH 500 0
DWIDTH 2 0
BBX 1 1 0 0
BITMAP
00
ENDCHAR
STARTCHAR INVERTED_EXCLAMATION_MARK
ENCODING 161
SWIDTH 500 0
DWIDTH 3 0
BBX 1 8 1 4
BITMAP
80
00
80
80
80
80
80
80
ENDCHAR
STARTCHAR CENT_SIGN
ENCODING 162
SWIDTH 500 0
DWIDTH 7 0
BBX 5 9 1 4
BITMAP
20
20
70
98
88
88
70
60
20
ENDCHAR
STARTCHAR POUND_SIGN
ENCODING 163
SWIDTH 500 0
DWIDTH 9 0
BBX 7 8 1 4
BITMAP
38
46
40
78
40
40
C6
F8
ENDCHAR
STARTCHAR CURRENCY_SIGN
ENCODING 164
SWIDTH 500 0
DWIDTH 6 0
BBX 5 4 0 6
BITMAP
A8
F0
50
A8
ENDCHAR
STARTCHAR YEN_SIGN
ENCODING 165
SWIDTH 500 0
DWIDTH 7 0
BBX 5 8 1 4
BITMAP
88
88
D8
70
70
60
70
60
ENDCHAR
STARTCHAR SECTION_SIGN
ENCODING 167
SWIDTH 500 0
DWIDTH 7 0
BBX 5 8 1 4
BITMAP
F8
88
80
70
F8
F8
80
78
ENDCHAR
STARTCHAR DIAERESIS
ENCODING 168
SWIDTH 500 0
DWIDTH 5 0
BBX 4 1 0 11
BITMAP
90
ENDCHAR
STARTCHAR COPYRIGHT_SIGN
ENCODING 169
SWIDTH 500 0
DWIDTH 5 0
BBX 3 4 1 9
BITMAP
40
E0
E0
40
ENDCHAR
STARTCHAR FEMININE_ORDINAL_INDICATOR
ENCODING 170
SWIDTH 500 0
DWIDTH 5 0
BBX 3 4 1 8
BITMAP
40
A0
E0
40
ENDCHAR
STARTCHAR LEFT-POINTING_DOUBLE_ANGLE_QUOTATION_MARK
ENCODING 171
SWIDTH 500 0
DWIDTH 11 0
BBX 9 11 1 3
BITMAP
0880
0000
1100
2200
4400
CC00
CC00
4400
2200
3300
0880
ENDCHAR
STARTCHAR NOT_SIGN
ENCODING 172
SWIDTH 500 0
DWIDTH 7 0
BBX 5 3 1 6
BITMAP
F8
18
08
ENDCHAR
STARTCHAR REGISTERED_SIGN
ENCODING 174
SWIDTH 500 0
DWIDTH 5 0
BBX 3 4 1 9
BITMAP
40
E0
E0
40
ENDCHAR
STARTCHAR MACRON
ENCODING 175
SWIDTH 500 0
DWIDTH 5 0
BBX 3 1 1 11
BITMAP
E0
ENDCHAR
STARTCHAR DEGREE_SIGN
ENCODING 176
SWIDTH 500 0
DWIDTH 3 0
BBX 3 3 0 10
BITMAP
E0
A0
E0
ENDCHAR
STARTCHAR PLUS-MINUS_SIGN
ENCODING 177
SWIDTH 500 0
DWIDTH 7 0
BBX 5 6 1 4
BITMAP
20
F8
60
20
00
F8
ENDCHAR
STARTCHAR SUPERSCRIPT_TWO
ENCODING 178
SWIDTH 500 0
DWIDTH 4 0
BBX 3 5 0 10
BITMAP
E0
20
40
80
E0
ENDCHAR
STARTCHAR SUPERSCRIPT_THREE
ENCODING 179
SWIDTH 500 0
DWIDTH 4 0
BBX 3 5 0 10
BITMAP
E0
20
60
20
E0
ENDCHAR
STARTCHAR ACUTE_ACCENT
ENCODING 180
SWIDTH 500 0
DWIDTH 4 0
BBX 2 2 1 11
BITMAP
40
80
ENDCHAR
STARTCHAR MICRO_SIGN
ENCODING 181
SWIDTH 500 0
DWIDTH 6 0
BBX 5 8 0 1
BITMAP
88
88
88
88
98
68
80
80
ENDCHAR
STARTCHAR PILCROW_SIGN
ENCODING 182
SWIDTH 500 0
DWIDTH 10 0
BBX 8 10 1 2
BITMAP
FF
FE
FA
FA
7A
0A
0A
0A
0A
0A
ENDCHAR
STARTCHAR MIDDLE_DOT
ENCODING 183
SWIDTH 500 0
DWIDTH 3 0
BBX 1 1 1 8
BITMAP
80
ENDCHAR
STARTCHAR CEDILLA
ENCODING 184
SWIDTH 500 0
DWIDTH 5 0
BBX 3 3 1 1
BITMAP
40
60
E0
ENDCHAR
STARTCHAR SUPERSCRIPT_ONE
ENCODING 185
SWIDTH 500 0
DWIDTH 4 0
BBX 2 3 1 8
BITMAP
C0
40
40
ENDCHAR
STARTCHAR MASCULINE_ORDINAL_INDICATOR
ENCODING 186
SWIDTH 500 0
DWIDTH 5 0
BBX 3 4 1 8
BITMAP
40
A0
E0
40
ENDCHAR
STARTCHAR RIGHT-POINTING_DOUBLE_ANGLE_QUOTATION_MARK
ENCODING 187
SWIDTH 500 0
DWIDTH 11 0
BBX 9 11 1 3
BITMAP
8800
8800
4400
6600
3300
1980
1100
0000
6600
4400
8800
ENDCHAR
STARTCHAR VULGAR_FRACTION_ONE_QUARTER
ENCODING 188
SWIDTH 500 0
DWIDTH 11 0
BBX 9 8 1 4
BITMAP
C200
4600
4400
4800
1980
1180
2380
2080
ENDCHAR
STARTCHAR VULGAR_FRACTION_ONE_HALF
ENCODING 189
SWIDTH 500 0
DWIDTH 10 0
BBX 9 8 0 4
BITMAP
E200
2600
2400
2900
1A80
1300
2280
2300
ENDCHAR
STARTCHAR VULGAR_FRACTION_THREE_QUARTERS
ENCODING 190
SWIDTH 500 0
DWIDTH 12 0
BBX 11 8 0 4
BITMAP
F100
6300
9600
6400
04E0
04A0
09E0
0820
ENDCHAR
STARTCHAR INVERTED_QUESTION_MARK
ENCODING 191
SWIDTH 500 0
DWIDTH 7 0
BBX 5 8 1 4
BITMAP
20
00
20
60
88
88
98
70
ENDCHAR
STARTCHAR LATIN_CAPITAL_LETTER_A_WITH_GRAVE
ENCODING 192
SWIDTH 500 0
DWIDTH 7 0
BBX 5 12 1 4
BITMAP
40
60
20
00
20
70
98
88
F8
98
88
88
ENDCHAR
STARTCHAR LATIN_CAPITAL_LETTER_A_WITH_ACUTE
ENCODING 193
SWIDTH 500 0
DWIDTH 7 0
BBX 5 12 1 4
BITMAP
20
20
40
00
20
70
98
88
F8
98
88
88
ENDCHAR
STARTCHAR LATIN_CAPITAL_LETTER_A_WITH_CIRCUMFLEX
ENCODING 194
SWIDTH 500 0
DWIDTH 7 0
BBX 5 11 1 4
BITMAP
20
60
00
20
70
98
88
F8
98
88
88
ENDCHAR
STARTCHAR LATIN_CAPITAL_LETTER_A_WITH_TILDE
ENCODING 195
SWIDTH 500 0
DWIDTH 7 0
BBX 5 10 1 4
BITMAP
70
00
20
70
88
88
F8
88
88
88
ENDCHAR
STARTCHAR LATIN_CAPITAL_LETTER_A_WITH_DIAERESIS
ENCODING 196
SWIDTH 500 0
DWIDTH 7 0
BBX 5 11 1 4
BITMAP
48
00
00
20
70
98
88
F8
98
88
88
ENDCHAR
STARTCHAR LATIN_CAPITAL_LETTER_A_WITH_RING_ABOVE
ENCODING 197
SWIDTH 500 0
DWIDTH 7 0
BBX 5 11 1 4
BITMAP
20
20
00
20
70
98
88
F8
98
88
88
ENDCHAR
STARTCHAR LATIN_CAPITAL_LETTER_AE
ENCODING 198
SWIDTH 500 0
DWIDTH 12 0
BBX 10 8 1 4
BITMAP
2700
78C0
9800
8F00
F800
9800
88C0
8F00
ENDCHAR
STARTCHAR LATIN_CAPITAL_LETTER_C_WITH_CEDILLA
ENCODING 199
SWIDTH 500 0
DWIDTH 7 0
BBX 5 11 1 1
BITMAP
F8
98
88
80
88
88
88
70
30
50
70
ENDCHAR
STARTCHAR LATIN_CAPITAL_LETTER_E_WITH_GRAVE
ENCODING 200
SWIDTH 500 0
DWIDTH 7 0
BBX 5 12 1 4
BITMAP
40
20
00
00
70
98
80
E0
80
80
98
70
ENDCHAR
STARTCHAR LATIN_CAPITAL_LETTER_E_WITH_ACUTE
ENCODING 201
SWIDTH 500 0
DWIDTH 7 0
BBX 5 12 1 4
BITMAP
20
60
00
00
70
98
80
E0
80
80
98
70
ENDCHAR
STARTCHAR LATIN_CAPITAL_LETTER_E_WITH_CIRCUMFLEX
ENCODING 202
SWIDTH 500 0
DWIDTH 7 0
BBX 5 11 1 4
BITMAP
20
00
00
70
98
80
E0
80
80
98
70
ENDCHAR
STARTCHAR LATIN_CAPITAL_LETTER_E_WITH_DIAERESIS
ENCODING 203
SWIDTH 500 0
DWIDTH 7 0
BBX 5 11 1 4
BITMAP
48
00
00
70
98
80
F0
80
80
98
F0
ENDCHAR
STARTCHAR LATIN_CAPITAL_LETTER_I_WITH_GRAVE
ENCODING 204
SWIDTH 500 0
DWIDTH 5 0
BBX 3 12 1 4
BITMAP
80
C0
00
00
E0
C0
40
40
40
40
C0
E0
ENDCHAR
STARTCHAR LATIN_CAPITAL_LETTER_I_WITH_ACUTE
ENCODING 205
SWIDTH 500 0
DWIDTH 5 0
BBX 3 12 1 4
BITMAP
40
C0
00
00
E0
C0
40
40
40
40
C0
E0
ENDCHAR
STARTCHAR LATIN_CAPITAL_LETTER_I_WITH_CIRCUMFLEX
ENCODING 206
SWIDTH 500 0
DWIDTH 5 0
BBX 3 11 1 4
BITMAP
C0
00
00
E0
C0
40
40
40
40
C0
E0
ENDCHAR
STARTCHAR LATIN_CAPITAL_LETTER_I_WITH_DIAERESIS
ENCODING 207
SWIDTH 500 0
DWIDTH 5 0
BBX 3 11 1 4
BITMAP
A0
00
00
E0
40
40
40
40
40
40
E0
ENDCHAR
STARTCHAR LATIN_CAPITAL_LETTER_ETH
ENCODING 208
SWIDTH 500 0
DWIDTH 8 0
BBX 6 8 1 4
BITMAP
70
58
4C
E4
C4
44
58
70
ENDCHAR
STARTCHAR LATIN_CAPITAL_LETTER_N_WITH_TILDE
ENCODING 209
SWIDTH 500 0
DWIDTH 7 0
BBX 5 10 1 4
BITMAP
70
00
88
C8
E8
A8
A8
A8
98
88
ENDCHAR
STARTCHAR LATIN_CAPITAL_LETTER_O_WITH_GRAVE
ENCODING 210
SWIDTH 500 0
DWIDTH 7 0
BBX 5 12 1 4
BITMAP
40
20
00
00
70
98
88
88
88
88
98
70
ENDCHAR
STARTCHAR LATIN_CAPITAL_LETTER_O_WITH_ACUTE
ENCODING 211
SWIDTH 500 0
DWIDTH 7 0
BBX 5 12 1 4
BITMAP
20
60
00
00
70
98
88
88
88
88
98
70
ENDCHAR
STARTCHAR LATIN_CAPITAL_LETTER_O_WITH_CIRCUMFLEX
ENCODING 212
SWIDTH 500 0
DWIDTH 7 0
BBX 5 11 1 4
BITMAP
20
00
00
70
98
88
88
88
88
98
70
ENDCHAR
STARTCHAR LATIN_CAPITAL_LETTER_O_WITH_TILDE
ENCODING 213
SWIDTH 500 0
DWIDTH 7 0
BBX 5 10 1 4
BITMAP
70
00
70
98
88
88
88
88
98
70
ENDCHAR
STARTCHAR LATIN_CAPITAL_LETTER_O_WITH_DIAERESIS
ENCODING 214
SWIDTH 500 0
DWIDTH 7 0
BBX 5 11 1 4
BITMAP
48
00
00
70
98
88
88
88
88
98
70
ENDCHAR
STARTCHAR MULTIPLICATION_SIGN
ENCODING 215
SWIDTH 500 0
DWIDTH 7 0
BBX 5 5 1 6
BITMAP
08
D8
70
70
D8
ENDCHAR
STARTCHAR LATIN_CAPITAL_LETTER_O_WITH_STROKE
ENCODING 216
SWIDTH 500 0
DWIDTH 7 0
BBX 5 10 1 3
BITMAP
08
78
B8
B8
B8
E8
C8
D8
F0
80
ENDCHAR
STARTCHAR LATIN_CAPITAL_LETTER_U_WITH_GRAVE
ENCODING 217
SWIDTH 500 0
DWIDTH 7 0
BBX 5 12 1 4
BITMAP
40
20
00
00
88
88
88
88
88
88
98
70
ENDCHAR
STARTCHAR LATIN_CAPITAL_LETTER_U_WITH_ACUTE
ENCODING 218
SWIDTH 500 0
DWIDTH 7 0
BBX 5 12 1 4
BITMAP
20
60
00
00
88
88
88
88
88
88
98
70
ENDCHAR
STARTCHAR LATIN_CAPITAL_LETTER_U_WITH_CIRCUMFLEX
ENCODING 219
SWIDTH 500 0
DWIDTH 7 0
BBX 5 11 1 4
BITMAP
20
00
00
88
88
88
88
88
88
98
70
ENDCHAR
STARTCHAR LATIN_CAPITAL_LETTER_U_WITH_DIAERESIS
ENCODING 220
SWIDTH 500 0
DWIDTH 7 0
BBX 5 11 1 4
BITMAP
48
00
00
88
88
88
88
88
88
98
70
ENDCHAR
STARTCHAR LATIN_CAPITAL_LETTER_Y_WITH_ACUTE
ENCODING 221
SWIDTH 500 0
DWIDTH 7 0
BBX 5 12 1 4
BITMAP
20
60
00
00
88
88
D8
60
20
20
20
20
ENDCHAR
STARTCHAR LATIN_CAPITAL_LETTER_THORN
ENCODING 222
SWIDTH 500 0
DWIDTH 7 0
BBX 5 8 1 4
BITMAP
80
F0
98
88
88
88
F0
80
ENDCHAR
STARTCHAR LATIN_SMALL_LETTER_SHARP_S
ENCODING 223
SWIDTH 500 0
DWIDTH 7 0
BBX 5 8 1 4
BITMAP
F8
98
88
B0
98
88
98
B0
ENDCHAR
STARTCHAR LATIN_SMALL_LETTER_A_WITH_GRAVE
ENCODING 224
SWIDTH 500 0
DWIDTH 8 0
BBX 6 9 1 4
BITMAP
40
20
00
70
98
88
88
98
74
ENDCHAR
STARTCHAR LATIN_SMALL_LETTER_A_WITH_ACUTE
ENCODING 225
SWIDTH 500 0
DWIDTH 8 0
BBX 6 9 1 4
BITMAP
20
60
00
70
98
88
88
98
74
ENDCHAR
STARTCHAR LATIN_SMALL_LETTER_A_WITH_CIRCUMFLEX
ENCODING 226
SWIDTH 500 0
DWIDTH 8 0
BBX 6 8 1 4
BITMAP
20
00
70
98
88
88
98
74
ENDCHAR
STARTCHAR LATIN_SMALL_LETTER_A_WITH_TILDE
ENCODING 227
SWIDTH 500 0
DWIDTH 8 0
BBX 6 8 1 4
BITMAP
70
00
70
98
88
88
98
74
ENDCHAR
STARTCHAR LATIN_SMALL_LETTER_A_WITH_DIAERESIS
ENCODING 228
SWIDTH 500 0
DWIDTH 8 0
BBX 6 8 1 4
BITMAP
48
00
70
98
88
88
98
74
ENDCHAR
STARTCHAR LATIN_SMALL_LETTER_A_WITH_RING_ABOVE
ENCODING 229
SWIDTH 500 0
DWIDTH 8 0
BBX 6 9 1 4
BITMAP
20
20
00
70
98
88
88
98
74
ENDCHAR
STARTCHAR LATIN_SMALL_LETTER_AE
ENCODING 230
SWIDTH 500 0
DWIDTH 14 0
BBX 12 6 1 4
BITMAP
70E0
99F0
89C0
8900
9B30
7CE0
ENDCHAR
STARTCHAR LATIN_SMALL_LETTER_C_WITH_CEDILLA
ENCODING 231
SWIDTH 500 0
DWIDTH 7 0
BBX 5 9 1 1
BITMAP
70
98
80
80
88
70
30
50
70
ENDCHAR
STARTCHAR LATIN_SMALL_LETTER_E_WITH_GRAVE
ENCODING 232
SWIDTH 500 0
DWIDTH 7 0
BBX 5 9 1 4
BITMAP
40
20
00
70
F8
E0
80
98
70
ENDCHAR
STARTCHAR LATIN_SMALL_LETTER_E_WITH_ACUTE
ENCODING 233
SWIDTH 500 0
DWIDTH 7 0
BBX 5 9 1 4
BITMAP
20
60
00
70
F8
E0
80
98
70
ENDCHAR
STARTCHAR LATIN_SMALL_LETTER_E_WITH_CIRCUMFLEX
ENCODING 234
SWIDTH 500 0
DWIDTH 7 0
BBX 5 8 1 4
BITMAP
20
00
70
F8
E0
80
98
70
ENDCHAR
STARTCHAR LATIN_SMALL_LETTER_E_WITH_DIAERESIS
ENCODING 235
SWIDTH 500 0
DWIDTH 7 0
BBX 5 8 1 4
BITMAP
48
00
70
F8
F0
80
98
F0
ENDCHAR
STARTCHAR LATIN_SMALL_LETTER_I_WITH_GRAVE
ENCODING 236
SWIDTH 500 0
DWIDTH 3 0
BBX 2 9 0 4
BITMAP
80
C0
00
40
40
40
40
40
40
ENDCHAR
STARTCHAR LATIN_SMALL_LETTER_I_WITH_ACUTE
ENCODING 237
SWIDTH 500 0
DWIDTH 3 0
BBX 2 9 0 4
BITMAP
40
C0
00
40
40
40
40
40
40
ENDCHAR
STARTCHAR LATIN_SMALL_LETTER_I_WITH_CIRCUMFLEX
ENCODING 238
SWIDTH 500 0
DWIDTH 3 0
BBX 2 8 0 4
BITMAP
C0
00
40
40
40
40
40
40
ENDCHAR
STARTCHAR LATIN_SMALL_LETTER_I_WITH_DIAERESIS
ENCODING 239
SWIDTH 500 0
DWIDTH 4 0
BBX 3 8 0 4
BITMAP
A0
00
40
40
40
40
40
40
ENDCHAR
STARTCHAR LATIN_SMALL_LETTER_ETH
ENCODING 240
SWIDTH 500 0
DWIDTH 7 0
BBX 5 10 1 4
BITMAP
08
08
70
B8
28
78
98
88
98
70
ENDCHAR
STARTCHAR LATIN_SMALL_LETTER_N_WITH_TILDE
ENCODING 241
SWIDTH 500 0
DWIDTH 7 0
BBX 5 8 1 4
BITMAP
70
00
F0
98
88
88
88
88
ENDCHAR
STARTCHAR LATIN_SMALL_LETTER_O_WITH_GRAVE
ENCODING 242
SWIDTH 500 0
DWIDTH 7 0
BBX 5 9 1 4
BITMAP
40
20
00
70
98
88
88
98
70
ENDCHAR
STARTCHAR LATIN_SMALL_LETTER_O_WITH_ACUTE
ENCODING 243
SWIDTH 500 0
DWIDTH 7 0
BBX 5 9 1 4
BITMAP
20
60
00
70
98
88
88
98
70
ENDCHAR
STARTCHAR LATIN_SMALL_LETTER_O_WITH_CIRCUMFLEX
ENCODING 244
SWIDTH 500 0
DWIDTH 7 0
BBX 5 8 1 4
BITMAP
20
00
70
98
88
88
98
70
ENDCHAR
STARTCHAR LATIN_SMALL_LETTER_O_WITH_TILDE
ENCODING 245
SWIDTH 500 0
DWIDTH 7 0
BBX 5 8 1 4
BITMAP
70
00
70
98
88
88
98
70
ENDCHAR
STARTCHAR LATIN_SMALL_LETTER_O_WITH_DIAERESIS
ENCODING 246
SWIDTH 500 0
DWIDTH 7 0
BBX 5 8 1 4
BITMAP
48
00
70
98
88
88
98
70
ENDCHAR
STARTCHAR DIVISION_SIGN
ENCODING 247
SWIDTH 500 0
DWIDTH 7 0
BBX 5 5 1 5
BITMAP
20
00
F8
00
20
ENDCHAR
STARTCHAR LATIN_SMALL_LETTER_O_WITH_STROKE
ENCODING 248
SWIDTH 500 0
DWIDTH 7 0
BBX 5 8 1 3
BITMAP
08
78
B8
B8
E8
F8
F0
80
ENDCHAR
STARTCHAR LATIN_SMALL_LETTER_U_WITH_GRAVE
ENCODING 249
SWIDTH 500 0
DWIDTH 7 0
BBX 5 9 1 4
BITMAP
40
20
00
88
88
88
88
98
70
ENDCHAR
STARTCHAR LATIN_SMALL_LETTER_U_WITH_ACUTE
ENCODING 250
SWIDTH 500 0
DWIDTH 7 0
BBX 5 9 1 4
BITMAP
20
60
00
88
88
88
88
98
70
ENDCHAR
STARTCHAR LATIN_SMALL_LETTER_U_WITH_CIRCUMFLEX
ENCODING 251
SWIDTH 500 0
DWIDTH 7 0
BBX 5 8 1 4
BITMAP
20
00
88
88
88
88
98
70
ENDCHAR
STARTCHAR LATIN_SMALL_LETTER_U_WITH_DIAERESIS
ENCODING 252
SWIDTH 500 0
DWIDTH 7 0
BBX 5 8 1 4
BITMAP
48
00
88
88
88
88
98
70
ENDCHAR
STARTCHAR LATIN_SMALL_LETTER_Y_WITH_ACUTE
ENCODING 253
SWIDTH 500 0
DWIDTH 7 0
BBX 5 12 1 2
BITMAP
20
40
20
00
88
88
88
F8
18
08
98
70
ENDCHAR
STARTCHAR LATIN_SMALL_LETTER_THORN
ENCODING 254
SWIDTH 500 0
DWIDTH 7 0
BBX 5 8 1 4
BITMAP
80
F0
98
88
88
88
F0
80
ENDCHAR
STARTCHAR LATIN_SMALL_LETTER_Y_WITH_DIAERESIS
ENCODING 255
SWIDTH 500 0
DWIDTH 7 0
BBX 5 10 1 2
BITMAP
48
00
88
88
88
F8
18
08
98
F0
ENDCHAR
STARTCHAR LATIN_CAPITAL_LETTER_A_WITH_MACRON
ENCODING 256
SWIDTH 500 0
DWIDTH 7 0
BBX 5 11 1 4
BITMAP
70
00
00
20
70
98
88
F8
98
88
88
ENDCHAR
STARTCHAR LATIN_SMALL_LETTER_A_WITH_MACRON
ENCODING 257
SWIDTH 500 0
DWIDTH 8 0
BBX 6 8 1 4
BITMAP
70
00
70
98
88
88
98
74
ENDCHAR
STARTCHAR LATIN_CAPITAL_LETTER_A_WITH_BREVE
ENCODING 258
SWIDTH 500 0
DWIDTH 7 0
BBX 5 10 1 4
BITMAP
70
00
20
70
88
88
F8
88
88
88
ENDCHAR
STARTCHAR LATIN_SMALL_LETTER_A_WITH_BREVE
ENCODING 259
SWIDTH 500 0
DWIDTH 8 0
BBX 6 8 1 4
BITMAP
70
00
70
98
88
88
98
74
ENDCHAR
STARTCHAR LATIN_CAPITAL_LETTER_A_WITH_OGONEK
ENCODING 260
SWIDTH 500 0
DWIDTH 8 0
BBX 6 11 1 1
BITMAP
20
70
88
88
F8
88
88
88
08
14
0C
ENDCHAR
STARTCHAR LATIN_SMALL_LETTER_A_WITH_OGONEK
ENCODING 261
SWIDTH 500 0
DWIDTH 9 0
BBX 7 9 1 1
BITMAP
70
98
88
88
98
74
04
0A
0E
ENDCHAR
STARTCHAR LATIN_CAPITAL_LETTER_C_WITH_ACUTE
ENCODING 262
SWIDTH 500 0
DWIDTH 7 0
BBX 5 12 1 4
BITMAP
20
60
00
00
F8
98
88
80
88
88
98
70
ENDCHAR
STARTCHAR LATIN_SMALL_LETTER_C_WITH_ACUTE
ENCODING 263
SWIDTH 500 0
DWIDTH 7 0
BBX 5 9 1 4
BITMAP
20
60
00
70
98
80
80
98
70
ENDCHAR
STARTCHAR LATIN_CAPITAL_LETTER_C_WITH_CIRCUMFLEX
ENCODING 264
SWIDTH 500 0
DWIDTH 7 0
BBX 5 11 1 4
BITMAP
20
00
00
F8
98
88
80
88
88
98
70
ENDCHAR
STARTCHAR LATIN_SMALL_LETTER_C_WITH_CIRCUMFLEX
ENCODING 265
SWIDTH 500 0
DWIDTH 7 0
BBX 5 8 1 4
BITMAP
20
00
70
98
80
80
98
70
ENDCHAR
STARTCHAR LATIN_CAPITAL_LETTER_C_WITH_DOT_ABOVE
ENCODING 266
SWIDTH 500 0
DWIDTH 7 0
BBX 5 11 1 4
BITMAP
20
00
00
F8
98
88
80
88
88
98
70
ENDCHAR
STARTCHAR LATIN_SMALL_LETTER_C_WITH_DOT_ABOVE
ENCODING 267
SWIDTH 500 0
DWIDTH 7 0
BBX 5 8 1 4
BITMAP
20
00
70
98
80
80
98
70
ENDCHAR
STARTCHAR LATIN_CAPITAL_LETTER_C_WITH_CARON
ENCODING 268
SWIDTH 500 0
DWIDTH 7 0
BBX 5 11 1 4
BITMAP
20
00
00
F8
98
88
80
88
88
98
70
ENDCHAR
STARTCHAR LATIN_SMALL_LETTER_C_WITH_CARON
ENCODING 269
SWIDTH 500 0
DWIDTH 7 0
BBX 5 8 1 4
BITMAP
20
00
70
98
80
80
98
70
ENDCHAR
STARTCHAR LATIN_CAPITAL_LETTER_D_WITH_CARON
ENCODING 270
SWIDTH 500 0
DWIDTH 7 0
BBX 5 11 1 4
BITMAP
60
00
00
E0
B0
98
88
88
88
B0
E0
ENDCHAR
STARTCHAR LATIN_SMALL_LETTER_D_WITH_CARON
ENCODING 271
SWIDTH 500 0
DWIDTH 10 0
BBX 8 8 1 4
BITMAP
0B
0A
78
98
88
88
98
70
ENDCHAR
STARTCHAR LATIN_CAPITAL_LETTER_D_WITH_STROKE
ENCODING 272
SWIDTH 500 0
DWIDTH 8 0
BBX 6 8 1 4
BITMAP
70
58
4C
E4
C4
44
58
70
ENDCHAR
STARTCHAR LATIN_SMALL_LETTER_D_WITH_STROKE
ENCODING 273
SWIDTH 500 0
DWIDTH 8 0
BBX 6 8 1 4
BITMAP
3C
18
78
98
88
88
98
70
ENDCHAR
STARTCHAR LATIN_CAPITAL_LETTER_E_WITH_MACRON
ENCODING 274
SWIDTH 500 0
DWIDTH 7 0
BBX 5 11 1 4
BITMAP
70
00
00
70
98
80
E0
80
80
98
70
ENDCHAR
STARTCHAR LATIN_SMALL_LETTER_E_WITH_MACRON
ENCODING 275
SWIDTH 500 0
DWIDTH 7 0
BBX 5 8 1 4
BITMAP
70
00
70
F8
E0
80
98
70
ENDCHAR
STARTCHAR LATIN_CAPITAL_LETTER_E_WITH_BREVE
ENCODING 276
SWIDTH 500 0
DWIDTH 7 0
BBX 5 10 1 4
BITMAP
70
00
70
88
80
E0
80
80
88
70
ENDCHAR
STARTCHAR LATIN_SMALL_LETTER_E_WITH_BREVE
ENCODING 277
SWIDTH 500 0
DWIDTH 7 0
BBX 5 8 1 4
BITMAP
70
00
70
E8
E0
80
88
70
ENDCHAR
STARTCHAR LATIN_CAPITAL_LETTER_E_WITH_DOT_ABOVE
ENCODING 278
SWIDTH 500 0
DWIDTH 7 0
BBX 5 11 1 4
BITMAP
20
00
00
70
98
80
E0
80
80
98
70
ENDCHAR
STARTCHAR LATIN_SMALL_LETTER_E_WITH_DOT_ABOVE
ENCODING 279
SWIDTH 500 0
DWIDTH 7 0
BBX 5 8 1 4
BITMAP
20
00
70
F8
E0
80
98
70
ENDCHAR
STARTCHAR LATIN_CAPITAL_LETTER_E_WITH_OGONEK
ENCODING 280
SWIDTH 500 0
DWIDTH 7 0
BBX 5 11 1 1
BITMAP
70
98
80
E0
80
80
88
70
20
50
70
ENDCHAR
STARTCHAR LATIN_SMALL_LETTER_E_WITH_OGONEK
ENCODING 281
SWIDTH 500 0
DWIDTH 7 0
BBX 5 9 1 1
BITMAP
70
F8
E0
80
88
70
60
50
70
ENDCHAR
STARTCHAR LATIN_CAPITAL_LETTER_E_WITH_CARON
ENCODING 282
SWIDTH 500 0
DWIDTH 7 0
BBX 5 11 1 4
BITMAP
20
00
00
70
98
80
E0
80
80
98
70
ENDCHAR
STARTCHAR LATIN_SMALL_LETTER_E_WITH_CARON
ENCODING 283
SWIDTH 500 0
DWIDTH 7 0
BBX 5 8 1 4
BITMAP
20
00
70
F8
E0
80
98
70
ENDCHAR
STARTCHAR LATIN_CAPITAL_LETTER_G_WITH_CIRCUMFLEX
ENCODING 284
SWIDTH 500 0
DWIDTH 7 0
BBX 5 11 1 4
BITMAP
60
00
00
70
98
88
A8
98
98
98
70
ENDCHAR
STARTCHAR LATIN_SMALL_LETTER_G_WITH_CIRCUMFLEX
ENCODING 285
SWIDTH 500 0
DWIDTH 7 0
BBX 5 11 1 2
BITMAP
20
20
00
F8
98
88
78
18
08
98
70
ENDCHAR
STARTCHAR LATIN_CAPITAL_LETTER_G_WITH_BREVE
ENCODING 286
SWIDTH 500 0
DWIDTH 7 0
BBX 5 10 1 4
BITMAP
70
00
70
88
88
A8
98
88
88
70
ENDCHAR
STARTCHAR LATIN_SMALL_LETTER_G_WITH_BREVE
ENCODING 287
SWIDTH 500 0
DWIDTH 7 0
BBX 5 10 1 2
BITMAP
70
00
F8
88
88
78
08
08
88
70
ENDCHAR
STARTCHAR LATIN_CAPITAL_LETTER_G_WITH_DOT_ABOVE
ENCODING 288
SWIDTH 500 0
DWIDTH 7 0
BBX 5 11 1 4
BITMAP
20
00
00
70
98
88
A8
98
98
98
70
ENDCHAR
STARTCHAR LATIN_SMALL_LETTER_G_WITH_DOT_ABOVE
ENCODING 289
SWIDTH 500 0
DWIDTH 7 0
BBX 5 10 1 2
BITMAP
20
00
F8
98
88
78
18
08
98
70
ENDCHAR
STARTCHAR LATIN_CAPITAL_LETTER_G_WITH_CEDILLA
ENCODING 290
SWIDTH 500 0
DWIDTH 7 0
BBX 5 11 1 1
BITMAP
F8
98
88
A0
98
98
10
70
20
30
20
ENDCHAR
STARTCHAR LATIN_SMALL_LETTER_G_WITH_CEDILLA
ENCODING 291
SWIDTH 500 0
DWIDTH 7 0
BBX 5 12 1 2
BITMAP
60
00
20
00
F8
98
88
78
18
08
98
70
ENDCHAR
STARTCHAR LATIN_CAPITAL_LETTER_H_WITH_CIRCUMFLEX
ENCODING 292
SWIDTH 500 0
DWIDTH 7 0
BBX 5 11 1 4
BITMAP
60
00
00
88
88
A8
F8
98
88
88
88
ENDCHAR
STARTCHAR LATIN_SMALL_LETTER_H_WITH_CIRCUMFLEX
ENCODING 293
SWIDTH 500 0
DWIDTH 7 0
BBX 5 11 1 4
BITMAP
20
00
00
80
80
B0
F8
88
88
88
88
ENDCHAR
STARTCHAR LATIN_CAPITAL_LETTER_H_WITH_STROKE
ENCODING 294
SWIDTH 500 0
DWIDTH 7 0
BBX 5 8 1 4
BITMAP
F8
98
A8
F8
98
88
88
88
ENDCHAR
STARTCHAR LATIN_SMALL_LETTER_H_WITH_STROKE
ENCODING 295
SWIDTH 500 0
DWIDTH 8 0
BBX 6 8 1 4
BITMAP
E0
C0
58
6C
44
44
44
44
ENDCHAR
STARTCHAR LATIN_CAPITAL_LETTER_I_WITH_TILDE
ENCODING 296
SWIDTH 500 0
DWIDTH 5 0
BBX 3 10 1 4
BITMAP
E0
00
E0
C0
40
40
40
40
C0
E0
ENDCHAR
STARTCHAR LATIN_SMALL_LETTER_I_WITH_TILDE
ENCODING 297
SWIDTH 500 0
DWIDTH 4 0
BBX 3 8 0 4
BITMAP
E0
00
40
40
40
40
40
40
ENDCHAR
STARTCHAR LATIN_CAPITAL_LETTER_I_WITH_MACRON
ENCODING 298
SWIDTH 500 0
DWIDTH 5 0
BBX 3 11 1 4
BITMAP
E0
00
00
E0
C0
40
40
40
40
C0
E0
ENDCHAR
STARTCHAR LATIN_SMALL_LETTER_I_WITH_MACRON
ENCODING 299
SWIDTH 500 0
DWIDTH 4 0
BBX 3 8 0 4
BITMAP
E0
00
40
40
40
40
40
40
ENDCHAR
STARTCHAR LATIN_CAPITAL_LETTER_I_WITH_BREVE
ENCODING 300
SWIDTH 500 0
DWIDTH 5 0
BBX 3 10 1 4
BITMAP
E0
00
E0
C0
40
40
40
40
C0
E0
ENDCHAR
STARTCHAR LATIN_SMALL_LETTER_I_WITH_BREVE
ENCODING 301
SWIDTH 500 0
DWIDTH 4 0
BBX 3 8 0 4
BITMAP
E0
00
40
40
40
40
40
40
ENDCHAR
STARTCHAR LATIN_CAPITAL_LETTER_I_WITH_OGONEK
ENCODING 302
SWIDTH 500 0
DWIDTH 5 0
BBX 3 11 1 1
BITMAP
E0
C0
40
40
40
40
C0
E0
40
A0
C0
ENDCHAR
STARTCHAR LATIN_SMALL_LETTER_I_WITH_OGONEK
ENCODING 303
SWIDTH 500 0
DWIDTH 4 0
BBX 3 11 0 1
BITMAP
40
00
40
40
40
40
40
40
40
A0
E0
ENDCHAR
STARTCHAR LATIN_CAPITAL_LETTER_I_WITH_DOT_ABOVE
ENCODING 304
SWIDTH 500 0
DWIDTH 5 0
BBX 3 11 1 4
BITMAP
40
00
00
E0
C0
40
40
40
40
C0
E0
ENDCHAR
STARTCHAR LATIN_SMALL_LETTER_DOTLESS_I
ENCODING 305
SWIDTH 500 0
DWIDTH 3 0
BBX 1 6 1 4
BITMAP
80
80
80
80
80
80
ENDCHAR
STARTCHAR LATIN_CAPITAL_LIGATURE_IJ
ENCODING 306
SWIDTH 500 0
DWIDTH 12 0
BBX 10 8 1 4
BITMAP
E380
C0C0
4040
4040
4440
4440
C4C0
E380
ENDCHAR
STARTCHAR LATIN_SMALL_LIGATURE_IJ
ENCODING 307
SWIDTH 500 0
DWIDTH 9 0
BBX 7 6 1 4
BITMAP
82
82
82
82
A6
98
ENDCHAR
STARTCHAR LATIN_CAPITAL_LETTER_J_WITH_CIRCUMFLEX
ENCODING 308
SWIDTH 500 0
DWIDTH 7 0
BBX 5 11 1 4
BITMAP
20
00
00
70
18
08
08
88
88
98
70
ENDCHAR
STARTCHAR LATIN_SMALL_LETTER_J_WITH_CIRCUMFLEX
ENCODING 309
SWIDTH 500 0
DWIDTH 6 0
BBX 4 8 1 4
BITMAP
30
00
10
10
10
10
B0
60
ENDCHAR
STARTCHAR LATIN_CAPITAL_LETTER_K_WITH_CEDILLA
ENCODING 310
SWIDTH 500 0
DWIDTH 7 0
BBX 5 11 1 1
BITMAP
D8
80
A0
E0
E0
B0
90
88
20
30
20
ENDCHAR
STARTCHAR LATIN_SMALL_LETTER_K_WITH_CEDILLA
ENCODING 311
SWIDTH 500 0
DWIDTH 7 0
BBX 5 11 1 1
BITMAP
80
80
88
B0
C0
F0
80
88
20
10
20
ENDCHAR
STARTCHAR LATIN_CAPITAL_LETTER_L_WITH_ACUTE
ENCODING 313
SWIDTH 500 0
DWIDTH 7 0
BBX 5 12 1 4
BITMAP
20
60
00
00
80
80
80
80
80
80
98
70
ENDCHAR
STARTCHAR LATIN_SMALL_LETTER_L_WITH_ACUTE
ENCODING 314
SWIDTH 500 0
DWIDTH 3 0
BBX 2 12 0 4
BITMAP
40
C0
00
00
40
40
40
40
40
40
40
40
ENDCHAR
STARTCHAR LATIN_CAPITAL_LETTER_L_WITH_CEDILLA
ENCODING 315
SWIDTH 500 0
DWIDTH 7 0
BBX 5 11 1 1
BITMAP
80
80
80
80
80
80
98
70
20
10
20
ENDCHAR
STARTCHAR LATIN_SMALL_LETTER_L_WITH_CEDILLA
ENCODING 316
SWIDTH 500 0
DWIDTH 4 0
BBX 2 11 1 1
BITMAP
80
80
80
80
80
80
80
80
80
C0
80
ENDCHAR
STARTCHAR LATIN_CAPITAL_LETTER_L_WITH_CARON
ENCODING 317
SWIDTH 500 0
DWIDTH 7 0
BBX 5 8 1 4
BITMAP
98
90
80
80
80
80
98
70
ENDCHAR
STARTCHAR LATIN_SMALL_LETTER_L_WITH_CARON
ENCODING 318
SWIDTH 500 0
DWIDTH 5 0
BBX 3 8 1 4
BITMAP
E0
C0
80
80
80
80
80
80
ENDCHAR
STARTCHAR LATIN_CAPITAL_LETTER_L_WITH_MIDDLE_DOT
ENCODING 319
SWIDTH 500 0
DWIDTH 7 0
BBX 5 8 1 4
BITMAP
80
A0
80
80
80
80
98
70
ENDCHAR
STARTCHAR LATIN_SMALL_LETTER_L_WITH_MIDDLE_DOT
ENCODING 320
SWIDTH 500 0
DWIDTH 3 0
BBX 2 8 0 4
BITMAP
40
40
40
40
40
40
40
C0
ENDCHAR
STARTCHAR LATIN_CAPITAL_LETTER_L_WITH_STROKE
ENCODING 321
SWIDTH 500 0
DWIDTH 7 0
BBX 6 8 0 4
BITMAP
40
40
60
40
C0
C0
4C
38
ENDCHAR
STARTCHAR LATIN_SMALL_LETTER_L_WITH_STROKE
ENCODING 322
SWIDTH 500 0
DWIDTH 4 0
BBX 3 8 0 4
BITMAP
40
40
60
40
C0
C0
40
40
ENDCHAR
STARTCHAR LATIN_CAPITAL_LETTER_N_WITH_ACUTE
ENCODING 323
SWIDTH 500 0
DWIDTH 7 0
BBX 5 12 1 4
BITMAP
20
60
00
00
88
C8
E8
A8
A8
A8
98
98
ENDCHAR
STARTCHAR LATIN_SMALL_LETTER_N_WITH_ACUTE
ENCODING 324
SWIDTH 500 0
DWIDTH 7 0
BBX 5 9 1 4
BITMAP
20
60
00
F0
98
88
88
88
88
ENDCHAR
STARTCHAR LATIN_CAPITAL_LETTER_N_WITH_CEDILLA
ENCODING 325
SWIDTH 500 0
DWIDTH 7 0
BBX 5 11 1 1
BITMAP
C8
88
A8
A8
A8
B8
98
88
20
30
20
ENDCHAR
STARTCHAR LATIN_SMALL_LETTER_N_WITH_CEDILLA
ENCODING 326
SWIDTH 500 0
DWIDTH 7 0
BBX 5 9 1 1
BITMAP
F0
98
88
88
88
88
20
10
20
ENDCHAR
STARTCHAR LATIN_CAPITAL_LETTER_N_WITH_CARON
ENCODING 327
SWIDTH 500 0
DWIDTH 7 0
BBX 5 11 1 4
BITMAP
60
00
00
88
C8
E8
A8
A8
A8
98
98
ENDCHAR
STARTCHAR LATIN_SMALL_LETTER_N_WITH_CARON
ENCODING 328
SWIDTH 500 0
DWIDTH 7 0
BBX 5 8 1 4
BITMAP
20
00
F0
98
88
88
88
88
ENDCHAR
STARTCHAR LATIN_SMALL_LETTER_N_PRECEDED_BY_APOSTROPHE
ENCODING 329
SWIDTH 500 0
DWIDTH 9 0
BBX 7 8 1 4
BITMAP
C0
80
3C
26
22
22
22
22
ENDCHAR
STARTCHAR LATIN_CAPITAL_LETTER_ENG
ENCODING 330
SWIDTH 500 0
DWIDTH 7 0
BBX 5 11 1 1
BITMAP
88
C8
E8
A8
A8
A8
98
98
08
48
70
ENDCHAR
STARTCHAR LATIN_SMALL_LETTER_ENG
ENCODING 331
SWIDTH 500 0
DWIDTH 7 0
BBX 5 9 1 1
BITMAP
F0
98
88
88
88
88
08
48
30
ENDCHAR
STARTCHAR LATIN_CAPITAL_LETTER_O_WITH_MACRON
ENCODING 332
SWIDTH 500 0
DWIDTH 7 0
BBX 5 11 1 4
BITMAP
70
00
00
70
98
88
88
88
88
98
70
ENDCHAR
STARTCHAR LATIN_SMALL_LETTER_O_WITH_MACRON
ENCODING 333
SWIDTH 500 0
DWIDTH 7 0
BBX 5 8 1 4
BITMAP
70
00
70
98
88
88
98
70
ENDCHAR
STARTCHAR LATIN_CAPITAL_LETTER_O_WITH_BREVE
ENCODING 334
SWIDTH 500 0
DWIDTH 7 0
BBX 5 10 1 4
BITMAP
70
00
70
88
88
88
88
88
88
70
ENDCHAR
STARTCHAR LATIN_SMALL_LETTER_O_WITH_BREVE
ENCODING 335
SWIDTH 500 0
DWIDTH 7 0
BBX 5 8 1 4
BITMAP
70
00
70
88
88
88
88
70
ENDCHAR
STARTCHAR LATIN_CAPITAL_LETTER_O_WITH_DOUBLE_ACUTE
ENCODING 336
SWIDTH 500 0
DWIDTH 7 0
BBX 5 12 1 4
BITMAP
60
70
00
00
70
98
88
88
88
88
98
70
ENDCHAR
STARTCHAR LATIN_SMALL_LETTER_O_WITH_DOUBLE_ACUTE
ENCODING 337
SWIDTH 500 0
DWIDTH 7 0
BBX 5 9 1 4
BITMAP
60
70
00
70
98
88
88
98
70
ENDCHAR
STARTCHAR LATIN_CAPITAL_LIGATURE_OE
ENCODING 338
SWIDTH 500 0
DWIDTH 12 0
BBX 10 8 1 4
BITMAP
7700
98C0
8800
8F00
8800
8800
98C0
7700
ENDCHAR
STARTCHAR LATIN_SMALL_LIGATURE_OE
ENCODING 339
SWIDTH 500 0
DWIDTH 12 0
BBX 10 6 1 4
BITMAP
7700
9EC0
8F00
8800
98C0
7700
ENDCHAR
STARTCHAR LATIN_CAPITAL_LETTER_R_WITH_ACUTE
ENCODING 340
SWIDTH 500 0
DWIDTH 7 0
BBX 5 12 1 4
BITMAP
10
20
00
00
70
88
88
88
F8
B0
90
88
ENDCHAR
STARTCHAR LATIN_SMALL_LETTER_R_WITH_ACUTE
ENCODING 341
SWIDTH 500 0
DWIDTH 7 0
BBX 5 9 1 4
BITMAP
20
60
00
70
98
80
80
80
80
ENDCHAR
STARTCHAR LATIN_CAPITAL_LETTER_R_WITH_CEDILLA
ENCODING 342
SWIDTH 500 0
DWIDTH 7 0
BBX 5 10 1 2
BITMAP
F8
88
88
88
F0
B0
90
88
20
10
ENDCHAR
STARTCHAR LATIN_SMALL_LETTER_R_WITH_CEDILLA
ENCODING 343
SWIDTH 500 0
DWIDTH 7 0
BBX 5 9 1 1
BITMAP
70
98
80
80
80
80
20
10
20
ENDCHAR
STARTCHAR LATIN_CAPITAL_LETTER_R_WITH_CARON
ENCODING 344
SWIDTH 500 0
DWIDTH 7 0
BBX 5 11 1 4
BITMAP
30
00
00
70
88
88
88
F8
B0
90
88
ENDCHAR
STARTCHAR LATIN_SMALL_LETTER_R_WITH_CARON
ENCODING 345
SWIDTH 500 0
DWIDTH 7 0
BBX 5 8 1 4
BITMAP
20
00
70
98
80
80
80
80
ENDCHAR
STARTCHAR LATIN_CAPITAL_LETTER_S_WITH_ACUTE
ENCODING 346
SWIDTH 500 0
DWIDTH 7 0
BBX 5 12 1 4
BITMAP
20
60
00
00
F8
88
80
70
18
08
98
70
ENDCHAR
STARTCHAR LATIN_SMALL_LETTER_S_WITH_ACUTE
ENCODING 347
SWIDTH 500 0
DWIDTH 7 0
BBX 5 9 1 4
BITMAP
20
20
00
78
F0
70
10
18
F0
ENDCHAR
STARTCHAR LATIN_CAPITAL_LETTER_S_WITH_CIRCUMFLEX
ENCODING 348
SWIDTH 500 0
DWIDTH 7 0
BBX 5 11 1 4
BITMAP
20
00
00
F8
88
80
70
18
08
98
70
ENDCHAR
STARTCHAR LATIN_SMALL_LETTER_S_WITH_CIRCUMFLEX
ENCODING 349
SWIDTH 500 0
DWIDTH 7 0
BBX 5 8 1 4
BITMAP
30
00
78
F0
70
10
18
F0
ENDCHAR
STARTCHAR LATIN_CAPITAL_LETTER_S_WITH_CEDILLA
ENCODING 350
SWIDTH 500 0
DWIDTH 7 0
BBX 5 11 1 1
BITMAP
F8
88
80
70
18
08
88
70
30
50
70
ENDCHAR
STARTCHAR LATIN_SMALL_LETTER_S_WITH_CEDILLA
ENCODING 351
SWIDTH 500 0
DWIDTH 7 0
BBX 5 9 1 1
BITMAP
78
F0
70
10
18
F0
30
50
70
ENDCHAR
STARTCHAR LATIN_CAPITAL_LETTER_S_WITH_CARON
ENCODING 352
SWIDTH 500 0
DWIDTH 7 0
BBX 5 11 1 4
BITMAP
20
00
00
F8
88
80
70
18
08
98
70
ENDCHAR
STARTCHAR LATIN_SMALL_LETTER_S_WITH_CARON
ENCODING 353
SWIDTH 500 0
DWIDTH 7 0
BBX 5 8 1 4
BITMAP
30
00
78
F0
70
10
18
F0
ENDCHAR
STARTCHAR LATIN_CAPITAL_LETTER_T_WITH_CEDILLA
ENCODING 354
SWIDTH 500 0
DWIDTH 7 0
BBX 5 11 1 1
BITMAP
70
F8
60
60
60
60
60
60
30
50
70
ENDCHAR
STARTCHAR LATIN_SMALL_LETTER_T_WITH_CEDILLA
ENCODING 355
SWIDTH 500 0
DWIDTH 9 0
BBX 7 11 1 1
BITMAP
40
40
FC
C0
40
40
42
3C
18
2C
38
ENDCHAR
STARTCHAR LATIN_CAPITAL_LETTER_T_WITH_CARON
ENCODING 356
SWIDTH 500 0
DWIDTH 7 0
BBX 5 11 1 4
BITMAP
60
00
00
70
F8
20
20
20
20
20
20
ENDCHAR
STARTCHAR LATIN_SMALL_LETTER_T_WITH_CARON
ENCODING 357
SWIDTH 500 0
DWIDTH 10 0
BBX 8 8 1 4
BITMAP
43
42
F8
C0
40
40
46
38
ENDCHAR
STARTCHAR LATIN_CAPITAL_LETTER_T_WITH_STROKE
ENCODING 358
SWIDTH 500 0
DWIDTH 7 0
BBX 5 8 1 4
BITMAP
70
F8
20
70
60
20
20
20
ENDCHAR
STARTCHAR LATIN_SMALL_LETTER_T_WITH_STROKE
ENCODING 359
SWIDTH 500 0
DWIDTH 9 0
BBX 7 8 1 4
BITMAP
40
40
F8
C0
40
E0
E6
38
ENDCHAR
STARTCHAR LATIN_CAPITAL_LETTER_U_WITH_TILDE
ENCODING 360
SWIDTH 500 0
DWIDTH 7 0
BBX 5 10 1 4
BITMAP
70
00
88
88
88
88
88
88
98
70
ENDCHAR
STARTCHAR LATIN_SMALL_LETTER_U_WITH_TILDE
ENCODING 361
SWIDTH 500 0
DWIDTH 7 0
BBX 5 8 1 4
BITMAP
70
00
88
88
88
88
98
70
ENDCHAR
STARTCHAR LATIN_CAPITAL_LETTER_U_WITH_MACRON
ENCODING 362
SWIDTH 500 0
DWIDTH 7 0
BBX 5 11 1 4
BITMAP
70
00
00
88
88
88
88
88
88
98
70
ENDCHAR
STARTCHAR LATIN_SMALL_LETTER_U_WITH_MACRON
ENCODING 363
SWIDTH 500 0
DWIDTH 7 0
BBX 5 8 1 4
BITMAP
70
00
88
88
88
88
98
70
ENDCHAR
STARTCHAR LATIN_CAPITAL_LETTER_U_WITH_BREVE
ENCODING 364
SWIDTH 500 0
DWIDTH 7 0
BBX 5 10 1 4
BITMAP
70
00
88
88
88
88
88
88
88
70
ENDCHAR
STARTCHAR LATIN_SMALL_LETTER_U_WITH_BREVE
ENCODING 365
SWIDTH 500 0
DWIDTH 7 0
BBX 5 8 1 4
BITMAP
70
00
88
88
88
88
88
70
ENDCHAR
STARTCHAR LATIN_CAPITAL_LETTER_U_WITH_RING_ABOVE
ENCODING 366
SWIDTH 500 0
DWIDTH 7 0
BBX 5 11 1 4
BITMAP
20
20
00
88
88
88
88
88
88
98
70
ENDCHAR
STARTCHAR LATIN_SMALL_LETTER_U_WITH_RING_ABOVE
ENCODING 367
SWIDTH 500 0
DWIDTH 7 0
BBX 5 9 1 4
BITMAP
20
20
00
88
88
88
88
98
70
ENDCHAR
STARTCHAR LATIN_CAPITAL_LETTER_U_WITH_DOUBLE_ACUTE
ENCODING 368
SWIDTH 500 0
DWIDTH 7 0
BBX 5 12 1 4
BITMAP
60
70
00
00
88
88
88
88
88
88
98
70
ENDCHAR
STARTCHAR LATIN_SMALL_LETTER_U_WITH_DOUBLE_ACUTE
ENCODING 369
SWIDTH 500 0
DWIDTH 7 0
BBX 5 9 1 4
BITMAP
60
70
00
88
88
88
88
98
70
ENDCHAR
STARTCHAR LATIN_CAPITAL_LETTER_U_WITH_OGONEK
ENCODING 370
SWIDTH 500 0
DWIDTH 7 0
BBX 5 11 1 1
BITMAP
88
88
88
88
88
88
88
70
20
50
70
ENDCHAR
STARTCHAR LATIN_SMALL_LETTER_U_WITH_OGONEK
ENCODING 371
SWIDTH 500 0
DWIDTH 7 0
BBX 5 9 1 1
BITMAP
88
88
88
88
88
70
20
50
70
ENDCHAR
STARTCHAR LATIN_CAPITAL_LETTER_W_WITH_CIRCUMFLEX
ENCODING 372
SWIDTH 500 0
DWIDTH 10 0
BBX 8 11 1 4
BITMAP
30
00
00
81
91
91
91
B9
A9
EB
44
ENDCHAR
STARTCHAR LATIN_SMALL_LETTER_W_WITH_CIRCUMFLEX
ENCODING 373
SWIDTH 500 0
DWIDTH 10 0
BBX 8 8 1 4
BITMAP
30
00
91
91
91
91
B3
EC
ENDCHAR
STARTCHAR LATIN_CAPITAL_LETTER_Y_WITH_CIRCUMFLEX
ENCODING 374
SWIDTH 500 0
DWIDTH 7 0
BBX 5 11 1 4
BITMAP
60
00
00
88
88
D8
60
20
20
20
20
ENDCHAR
STARTCHAR LATIN_SMALL_LETTER_Y_WITH_CIRCUMFLEX
ENCODING 375
SWIDTH 500 0
DWIDTH 7 0
BBX 5 11 1 2
BITMAP
20
20
00
88
88
88
F8
18
08
98
70
ENDCHAR
STARTCHAR LATIN_CAPITAL_LETTER_Y_WITH_DIAERESIS
ENCODING 376
SWIDTH 500 0
DWIDTH 7 0
BBX 5 11 1 4
BITMAP
48
00
00
88
88
D8
60
20
20
20
20
ENDCHAR
STARTCHAR LATIN_CAPITAL_LETTER_Z_WITH_ACUTE
ENCODING 377
SWIDTH 500 0
DWIDTH 7 0
BBX 5 12 1 4
BITMAP
20
60
00
00
F8
98
88
70
80
88
98
78
ENDCHAR
STARTCHAR LATIN_SMALL_LETTER_Z_WITH_ACUTE
ENCODING 378
SWIDTH 500 0
DWIDTH 8 0
BBX 6 9 1 4
BITMAP
20
60
00
FC
30
30
40
C0
FC
ENDCHAR
STARTCHAR LATIN_CAPITAL_LETTER_Z_WITH_DOT_ABOVE
ENCODING 379
SWIDTH 500 0
DWIDTH 7 0
BBX 5 11 1 4
BITMAP
20
00
00
F8
98
88
70
80
88
98
78
ENDCHAR
STARTCHAR LATIN_SMALL_LETTER_Z_WITH_DOT_ABOVE
ENCODING 380
SWIDTH 500 0
DWIDTH 8 0
BBX 6 8 1 4
BITMAP
20
00
FC
30
30
40
C0
FC
ENDCHAR
STARTCHAR LATIN_CAPITAL_LETTER_Z_WITH_CARON
ENCODING 381
SWIDTH 500 0
DWIDTH 7 0
BBX 5 11 1 4
BITMAP
20
00
00
F8
98
88
70
80
88
98
78
ENDCHAR
STARTCHAR LATIN_SMALL_LETTER_Z_WITH_CARON
ENCODING 382
SWIDTH 500 0
DWIDTH 8 0
BBX 6 8 1 4
BITMAP
60
00
FC
30
30
40
C0
FC
ENDCHAR
STARTCHAR GREEK_SMALL_LETTER_MU
ENCODING 956
SWIDTH 500 0
DWIDTH 6 0
BBX 5 8 0 1
BITMAP
88
88
88
88
98
68
80
80
ENDCHAR
STARTCHAR CYRILLIC_CAPITAL_LETTER_IO
ENCODING 1025
SWIDTH 500 0
DWIDTH 7 0
BBX 5 10 1 4
BITMAP
50
00
70
98
80
E0
80
80
98
F0
ENDCHAR
STARTCHAR CYRILLIC_CAPITAL_LETTER_DJE
ENCODING 1026
SWIDTH 500 0
DWIDTH 8 0
BBX 7 8 0 4
BITMAP
F0
C0
78
46
42
42
46
38
ENDCHAR
STARTCHAR CYRILLIC_CAPITAL_LETTER_GJE
ENCODING 1027
SWIDTH 500 0
DWIDTH 6 0
BBX 4 8 1 4
BITMAP
F0
80
80
80
80
80
80
80
ENDCHAR
STARTCHAR CYRILLIC_CAPITAL_LETTER_UKRAINIAN_IE
ENCODING 1028
SWIDTH 500 0
DWIDTH 7 0
BBX 5 8 1 4
BITMAP
F8
88
80
70
80
80
98
70
ENDCHAR
STARTCHAR CYRILLIC_CAPITAL_LETTER_DZE
ENCODING 1029
SWIDTH 500 0
DWIDTH 7 0
BBX 5 6 1 4
BITMAP
78
F0
70
10
18
F0
ENDCHAR
STARTCHAR CYRILLIC_CAPITAL_LETTER_YI
ENCODING 1031
SWIDTH 500 0
DWIDTH 5 0
BBX 4 8 0 4
BITMAP
B0
00
40
40
40
40
40
40
ENDCHAR
STARTCHAR CYRILLIC_CAPITAL_LETTER_JE
ENCODING 1032
SWIDTH 500 0
DWIDTH 7 0
BBX 5 8 1 4
BITMAP
70
18
08
08
88
88
98
70
ENDCHAR
STARTCHAR CYRILLIC_CAPITAL_LETTER_LJE
ENCODING 1033
SWIDTH 500 0
DWIDTH 8 0
BBX 6 8 1 4
BITMAP
7C
4C
44
44
44
44
C4
C4
ENDCHAR
STARTCHAR CYRILLIC_CAPITAL_LETTER_NJE
ENCODING 1034
SWIDTH 500 0
DWIDTH 11 0
BBX 9 8 1 4
BITMAP
8800
8800
8F00
F980
9880
8880
8980
8F00
ENDCHAR
STARTCHAR CYRILLIC_CAPITAL_LETTER_TSHE
ENCODING 1035
SWIDTH 500 0
DWIDTH 8 0
BBX 7 8 0 4
BITMAP
F0
C0
4C
76
42
42
42
42
ENDCHAR
STARTCHAR CYRILLIC_CAPITAL_LETTER_KJE
ENCODING 1036
SWIDTH 500 0
DWIDTH 7 0
BBX 5 8 1 4
BITMAP
48
90
A0
E0
E0
A0
90
98
ENDCHAR
STARTCHAR CYRILLIC_CAPITAL_LETTER_SHORT_U
ENCODING 1038
SWIDTH 500 0
DWIDTH 7 0
BBX 5 10 1 4
BITMAP
70
00
88
88
D8
60
20
20
20
20
ENDCHAR
STARTCHAR CYRILLIC_CAPITAL_LETTER_DZHE
ENCODING 1039
SWIDTH 500 0
DWIDTH 7 0
BBX 5 9 1 3
BITMAP
88
88
88
88
88
88
98
F8
20
ENDCHAR
STARTCHAR CYRILLIC_CAPITAL_LETTER_A
ENCODING 1040
SWIDTH 500 0
DWIDTH 7 0
BBX 5 8 1 4
BITMAP
20
70
98
88
F8
98
88
88
ENDCHAR
STARTCHAR CYRILLIC_CAPITAL_LETTER_BE
ENCODING 1041
SWIDTH 500 0
DWIDTH 7 0
BBX 5 8 1 4
BITMAP
F0
98
80
F0
98
88
98
70
ENDCHAR
STARTCHAR CYRILLIC_CAPITAL_LETTER_VE
ENCODING 1042
SWIDTH 500 0
DWIDTH 7 0
BBX 5 8 1 4
BITMAP
F8
98
88
B0
98
88
98
70
ENDCHAR
STARTCHAR CYRILLIC_CAPITAL_LETTER_GHE
ENCODING 1043
SWIDTH 500 0
DWIDTH 6 0
BBX 4 8 1 4
BITMAP
F0
80
80
80
80
80
80
80
ENDCHAR
STARTCHAR CYRILLIC_CAPITAL_LETTER_DE
ENCODING 1044
SWIDTH 500 0
DWIDTH 8 0
BBX 6 8 1 4
BITMAP
7C
4C
44
44
C4
C4
FC
8C
ENDCHAR
STARTCHAR CYRILLIC_CAPITAL_LETTER_IE
ENCODING 1045
SWIDTH 500 0
DWIDTH 7 0
BBX 5 8 1 4
BITMAP
70
98
80
E0
80
80
98
70
ENDCHAR
STARTCHAR CYRILLIC_CAPITAL_LETTER_ZHE
ENCODING 1046
SWIDTH 500 0
DWIDTH 12 0
BBX 10 8 1 4
BITMAP
8840
C880
6900
3F00
3B00
0900
C880
88C0
ENDCHAR
STARTCHAR CYRILLIC_CAPITAL_LETTER_ZE
ENCODING 1047
SWIDTH 500 0
DWIDTH 7 0
BBX 5 8 1 4
BITMAP
F8
98
08
70
18
08
98
70
ENDCHAR
STARTCHAR CYRILLIC_CAPITAL_LETTER_I
ENCODING 1048
SWIDTH 500 0
DWIDTH 7 0
BBX 5 8 1 4
BITMAP
88
98
B8
A8
A8
A8
C8
88
ENDCHAR
STARTCHAR CYRILLIC_CAPITAL_LETTER_SHORT_I
ENCODING 1049
SWIDTH 500 0
DWIDTH 7 0
BBX 5 10 1 4
BITMAP
70
00
88
98
A8
A8
A8
A8
C8
88
ENDCHAR
STARTCHAR CYRILLIC_CAPITAL_LETTER_KA
ENCODING 1050
SWIDTH 500 0
DWIDTH 7 0
BBX 5 12 1 4
BITMAP
10
20
20
00
48
90
A0
E0
E0
A0
90
98
ENDCHAR
STARTCHAR CYRILLIC_CAPITAL_LETTER_EL
ENCODING 1051
SWIDTH 500 0
DWIDTH 8 0
BBX 6 8 1 4
BITMAP
7C
4C
44
44
44
44
C4
C4
ENDCHAR
STARTCHAR CYRILLIC_CAPITAL_LETTER_EM
ENCODING 1052
SWIDTH 500 0
DWIDTH 10 0
BBX 8 8 1 4
BITMAP
44
EB
A9
B9
91
91
91
81
ENDCHAR
STARTCHAR CYRILLIC_CAPITAL_LETTER_EN
ENCODING 1053
SWIDTH 500 0
DWIDTH 7 0
BBX 5 8 1 4
BITMAP
88
88
88
F8
98
88
88
88
ENDCHAR
STARTCHAR CYRILLIC_CAPITAL_LETTER_ER
ENCODING 1056
SWIDTH 500 0
DWIDTH 7 0
BBX 5 8 1 4
BITMAP
70
98
88
88
F8
80
80
80
ENDCHAR
STARTCHAR CYRILLIC_CAPITAL_LETTER_ES
ENCODING 1057
SWIDTH 500 0
DWIDTH 7 0
BBX 5 8 1 4
BITMAP
F8
98
88
80
88
88
98
70
ENDCHAR
STARTCHAR CYRILLIC_CAPITAL_LETTER_TE
ENCODING 1058
SWIDTH 500 0
DWIDTH 7 0
BBX 5 8 1 4
BITMAP
70
F8
20
20
20
20
20
20
ENDCHAR
STARTCHAR CYRILLIC_CAPITAL_LETTER_U
ENCODING 1059
SWIDTH 500 0
DWIDTH 7 0
BBX 5 8 1 4
BITMAP
88
88
D8
60
20
20
20
20
ENDCHAR
STARTCHAR CYRILLIC_CAPITAL_LETTER_EF
ENCODING 1060
SWIDTH 500 0
DWIDTH 7 0
BBX 5 8 1 4
BITMAP
20
70
F8
A8
A8
A8
70
60
ENDCHAR
STARTCHAR CYRILLIC_CAPITAL_LETTER_HA
ENCODING 1061
SWIDTH 500 0
DWIDTH 7 0
BBX 5 8 1 4
BITMAP
D8
D0
50
20
70
50
D0
88
ENDCHAR
STARTCHAR CYRILLIC_CAPITAL_LETTER_TSE
ENCODING 1062
SWIDTH 500 0
DWIDTH 8 0
BBX 6 9 1 3
BITMAP
88
88
88
88
88
88
98
F8
0C
ENDCHAR
STARTCHAR CYRILLIC_CAPITAL_LETTER_CHE
ENCODING 1063
SWIDTH 500 0
DWIDTH 7 0
BBX 5 8 1 4
BITMAP
88
88
88
78
18
08
08
08
ENDCHAR
STARTCHAR CYRILLIC_CAPITAL_LETTER_SHA
ENCODING 1064
SWIDTH 500 0
DWIDTH 10 0
BBX 8 8 1 4
BITMAP
81
91
91
91
B9
A9
EB
44
ENDCHAR
STARTCHAR CYRILLIC_CAPITAL_LETTER_SHCHA
ENCODING 1065
SWIDTH 500 0
DWIDTH 10 0
BBX 8 9 1 3
BITMAP
81
91
91
91
B9
B9
FB
47
01
ENDCHAR
STARTCHAR CYRILLIC_CAPITAL_LETTER_HARD_SIGN
ENCODING 1066
SWIDTH 500 0
DWIDTH 8 0
BBX 7 8 0 4
BITMAP
F0
C0
78
46
42
42
46
38
ENDCHAR
STARTCHAR CYRILLIC_CAPITAL_LETTER_YERU
ENCODING 1067
SWIDTH 500 0
DWIDTH 10 0
BBX 8 8 1 4
BITMAP
80
80
81
F1
99
89
99
71
ENDCHAR
STARTCHAR CYRILLIC_CAPITAL_LETTER_SOFT_SIGN
ENCODING 1068
SWIDTH 500 0
DWIDTH 7 0
BBX 5 8 1 4
BITMAP
80
80
F0
98
88
88
98
70
ENDCHAR
STARTCHAR CYRILLIC_CAPITAL_LETTER_E
ENCODING 1069
SWIDTH 500 0
DWIDTH 7 0
BBX 5 8 1 4
BITMAP
F8
98
08
70
18
08
98
70
ENDCHAR
STARTCHAR CYRILLIC_CAPITAL_LETTER_YU
ENCODING 1070
SWIDTH 500 0
DWIDTH 11 0
BBX 9 8 1 4
BITMAP
8E00
9180
9080
F080
B080
9080
9180
8E00
ENDCHAR
STARTCHAR CYRILLIC_CAPITAL_LETTER_YA
ENCODING 1071
SWIDTH 500 0
DWIDTH 7 0
BBX 5 8 1 4
BITMAP
70
98
88
88
F8
78
68
48
ENDCHAR
STARTCHAR CYRILLIC_SMALL_LETTER_A
ENCODING 1072
SWIDTH 500 0
DWIDTH 8 0
BBX 6 6 1 4
BITMAP
F0
F8
F8
98
98
74
ENDCHAR
STARTCHAR CYRILLIC_SMALL_LETTER_BE
ENCODING 1073
SWIDTH 500 0
DWIDTH 7 0
BBX 5 8 1 4
BITMAP
70
98
80
F0
98
88
98
70
ENDCHAR
STARTCHAR CYRILLIC_SMALL_LETTER_VE
ENCODING 1074
SWIDTH 500 0
DWIDTH 7 0
BBX 5 6 1 4
BITMAP
70
B8
B0
90
98
70
ENDCHAR
STARTCHAR CYRILLIC_SMALL_LETTER_GHE
ENCODING 1075
SWIDTH 500 0
DWIDTH 6 0
BBX 4 6 1 4
BITMAP
F0
80
80
80
80
80
ENDCHAR
STARTCHAR CYRILLIC_SMALL_LETTER_DE
ENCODING 1076
SWIDTH 500 0
DWIDTH 8 0
BBX 6 6 1 4
BITMAP
7C
4C
C4
C4
FC
8C
ENDCHAR
STARTCHAR CYRILLIC_SMALL_LETTER_IE
ENCODING 1077
SWIDTH 500 0
DWIDTH 7 0
BBX 5 6 1 4
BITMAP
70
F8
E0
80
98
70
ENDCHAR
STARTCHAR CYRILLIC_SMALL_LETTER_ZHE
ENCODING 1078
SWIDTH 500 0
DWIDTH 9 0
BBX 7 6 1 4
BITMAP
D6
54
38
74
D6
92
ENDCHAR
STARTCHAR CYRILLIC_SMALL_LETTER_ZE
ENCODING 1079
SWIDTH 500 0
DWIDTH 7 0
BBX 5 6 1 4
BITMAP
70
B8
38
18
98
70
ENDCHAR
STARTCHAR CYRILLIC_SMALL_LETTER_I
ENCODING 1080
SWIDTH 500 0
DWIDTH 7 0
BBX 5 6 1 4
BITMAP
88
98
B8
88
C8
88
ENDCHAR
STARTCHAR CYRILLIC_SMALL_LETTER_SHORT_I
ENCODING 1081
SWIDTH 500 0
DWIDTH 7 0
BBX 5 8 1 4
BITMAP
70
00
88
98
A8
88
C8
88
ENDCHAR
STARTCHAR CYRILLIC_SMALL_LETTER_KA
ENCODING 1082
SWIDTH 500 0
DWIDTH 7 0
BBX 5 6 1 4
BITMAP
88
B8
C0
80
B8
98
ENDCHAR
STARTCHAR CYRILLIC_SMALL_LETTER_EL
ENCODING 1083
SWIDTH 500 0
DWIDTH 8 0
BBX 6 6 1 4
BITMAP
7C
4C
44
44
C4
C4
ENDCHAR
STARTCHAR CYRILLIC_SMALL_LETTER_EM
ENCODING 1084
SWIDTH 500 0
DWIDTH 10 0
BBX 8 6 1 4
BITMAP
44
EB
A9
A9
91
81
ENDCHAR
STARTCHAR CYRILLIC_SMALL_LETTER_EN
ENCODING 1085
SWIDTH 500 0
DWIDTH 7 0
BBX 5 6 1 4
BITMAP
88
88
F8
98
88
88
ENDCHAR
STARTCHAR CYRILLIC_SMALL_LETTER_O
ENCODING 1086
SWIDTH 500 0
DWIDTH 7 0
BBX 5 6 1 4
BITMAP
70
98
88
88
98
70
ENDCHAR
STARTCHAR CYRILLIC_SMALL_LETTER_PE
ENCODING 1087
SWIDTH 500 0
DWIDTH 7 0
BBX 5 6 1 4
BITMAP
F8
98
88
88
88
88
ENDCHAR
STARTCHAR CYRILLIC_SMALL_LETTER_ER
ENCODING 1088
SWIDTH 500 0
DWIDTH 7 0
BBX 5 8 1 2
BITMAP
70
98
88
88
98
F0
80
80
ENDCHAR
STARTCHAR CYRILLIC_SMALL_LETTER_ES
ENCODING 1089
SWIDTH 500 0
DWIDTH 7 0
BBX 5 6 1 4
BITMAP
70
98
80
80
98
70
ENDCHAR
STARTCHAR CYRILLIC_SMALL_LETTER_TE
ENCODING 1090
SWIDTH 500 0
DWIDTH 7 0
BBX 5 6 1 4
BITMAP
70
F8
20
20
20
20
ENDCHAR
STARTCHAR CYRILLIC_SMALL_LETTER_U
ENCODING 1091
SWIDTH 500 0
DWIDTH 7 0
BBX 5 8 1 2
BITMAP
88
88
88
F8
18
08
98
70
ENDCHAR
STARTCHAR CYRILLIC_SMALL_LETTER_EF
ENCODING 1092
SWIDTH 500 0
DWIDTH 7 0
BBX 5 8 1 4
BITMAP
20
70
F8
A8
A8
70
60
20
ENDCHAR
STARTCHAR CYRILLIC_SMALL_LETTER_HA
ENCODING 1093
SWIDTH 500 0
DWIDTH 7 0
BBX 5 6 1 4
BITMAP
88
D0
60
20
D0
98
ENDCHAR
STARTCHAR CYRILLIC_SMALL_LETTER_TSE
ENCODING 1094
SWIDTH 500 0
DWIDTH 8 0
BBX 6 7 1 3
BITMAP
88
88
88
88
98
F8
0C
ENDCHAR
STARTCHAR CYRILLIC_SMALL_LETTER_CHE
ENCODING 1095
SWIDTH 500 0
DWIDTH 7 0
BBX 5 6 1 4
BITMAP
88
88
88
88
78
18
ENDCHAR
STARTCHAR CYRILLIC_SMALL_LETTER_SHA
ENCODING 1096
SWIDTH 500 0
DWIDTH 9 0
BBX 7 6 1 4
BITMAP
92
92
92
92
B6
EE
ENDCHAR
STARTCHAR CYRILLIC_SMALL_LETTER_SHCHA
ENCODING 1097
SWIDTH 500 0
DWIDTH 10 0
BBX 8 7 1 3
BITMAP
92
92
92
92
B6
EE
03
ENDCHAR
STARTCHAR CYRILLIC_SMALL_LETTER_HARD_SIGN
ENCODING 1098
SWIDTH 500 0
DWIDTH 7 0
BBX 6 8 0 4
BITMAP
C0
C0
78
4C
44
44
4C
38
ENDCHAR
STARTCHAR CYRILLIC_SMALL_LETTER_YERU
ENCODING 1099
SWIDTH 500 0
DWIDTH 10 0
BBX 8 8 1 4
BITMAP
81
81
F1
99
89
89
99
71
ENDCHAR
STARTCHAR CYRILLIC_SMALL_LETTER_SOFT_SIGN
ENCODING 1100
SWIDTH 500 0
DWIDTH 6 0
BBX 5 8 0 4
BITMAP
80
80
F0
98
88
88
98
70
ENDCHAR
STARTCHAR CYRILLIC_SMALL_LETTER_E
ENCODING 1101
SWIDTH 500 0
DWIDTH 7 0
BBX 5 6 1 4
BITMAP
70
B8
38
18
98
70
ENDCHAR
STARTCHAR CYRILLIC_SMALL_LETTER_YU
ENCODING 1102
SWIDTH 500 0
DWIDTH 11 0
BBX 9 6 1 4
BITMAP
8E00
9180
F080
B080
9180
8E00
ENDCHAR
STARTCHAR CYRILLIC_SMALL_LETTER_YA
ENCODING 1103
SWIDTH 500 0
DWIDTH 7 0
BBX 5 6 1 4
BITMAP
70
F8
78
78
68
48
ENDCHAR
STARTCHAR CYRILLIC_SMALL_LETTER_IO
ENCODING 1105
SWIDTH 500 0
DWIDTH 7 0
BBX 5 8 1 4
BITMAP
50
00
70
F8
E0
80
98
F0
ENDCHAR
STARTCHAR CYRILLIC_SMALL_LETTER_DJE
ENCODING 1106
SWIDTH 500 0
DWIDTH 8 0
BBX 6 11 1 1
BITMAP
E0
C0
58
6C
44
44
44
44
04
24
18
ENDCHAR
STARTCHAR CYRILLIC_SMALL_LETTER_GJE
ENCODING 1107
SWIDTH 500 0
DWIDTH 7 0
BBX 5 10 1 4
BITMAP
20
00
20
00
70
98
80
80
80
80
ENDCHAR
STARTCHAR CYRILLIC_SMALL_LETTER_UKRAINIAN_IE
ENCODING 1108
SWIDTH 500 0
DWIDTH 7 0
BBX 5 6 1 4
BITMAP
70
F8
E0
80
98
70
ENDCHAR
STARTCHAR CYRILLIC_SMALL_LETTER_DZE
ENCODING 1109
SWIDTH 500 0
DWIDTH 7 0
BBX 5 6 1 4
BITMAP
78
F0
70
10
18
F0
ENDCHAR
STARTCHAR CYRILLIC_SMALL_LETTER_BYELORUSSIAN-UKRAINIAN_I
ENCODING 1110
SWIDTH 500 0
DWIDTH 3 0
BBX 1 8 1 4
BITMAP
80
00
80
80
80
80
80
80
ENDCHAR
STARTCHAR CYRILLIC_SMALL_LETTER_YI
ENCODING 1111
SWIDTH 500 0
DWIDTH 6 0
BBX 4 6 1 4
BITMAP
B0
00
40
40
40
40
ENDCHAR
STARTCHAR CYRILLIC_SMALL_LETTER_JE
ENCODING 1112
SWIDTH 500 0
DWIDTH 6 0
BBX 4 6 1 4
BITMAP
10
10
10
10
B0
60
ENDCHAR
STARTCHAR CYRILLIC_SMALL_LETTER_LJE
ENCODING 1113
SWIDTH 500 0
DWIDTH 12 0
BBX 10 6 1 4
BITMAP
7800
5F80
48C0
4840
C8C0
CF80
ENDCHAR
STARTCHAR CYRILLIC_SMALL_LETTER_NJE
ENCODING 1114
SWIDTH 500 0
DWIDTH 11 0
BBX 9 6 1 4
BITMAP
9000
9F00
9000
F080
9180
9F00
ENDCHAR
STARTCHAR CYRILLIC_SMALL_LETTER_TSHE
ENCODING 1115
SWIDTH 500 0
DWIDTH 7 0
BBX 5 8 1 4
BITMAP
C0
80
B0
F8
88
88
88
88
ENDCHAR
STARTCHAR CYRILLIC_SMALL_LETTER_KJE
ENCODING 1116
SWIDTH 500 0
DWIDTH 7 0
BBX 5 8 1 4
BITMAP
20
00
88
B8
C0
80
B8
98
ENDCHAR
STARTCHAR CYRILLIC_SMALL_LETTER_SHORT_U
ENCODING 1118
SWIDTH 500 0
DWIDTH 7 0
BBX 5 11 1 2
BITMAP
20
00
00
88
88
88
F8
18
08
98
70
ENDCHAR
STARTCHAR CYRILLIC_SMALL_LETTER_DZHE
ENCODING 1119
SWIDTH 500 0
DWIDTH 7 0
BBX 5 7 1 3
BITMAP
88
88
88
88
98
F8
20
ENDCHAR
STARTCHAR CYRILLIC_CAPITAL_LETTER_GHE_WITH_UPTURN
ENCODING 1168
SWIDTH 500 0
DWIDTH 6 0
BBX 4 9 1 4
BITMAP
10
F0
80
80
80
80
80
80
80
ENDCHAR
STARTCHAR CYRILLIC_SMALL_LETTER_GHE_WITH_UPTURN
ENCODING 1169
SWIDTH 500 0
DWIDTH 7 0
BBX 5 8 1 4
BITMAP
88
88
D8
60
20
20
20
20
ENDCHAR
STARTCHAR EN_DASH
ENCODING 8211
SWIDTH 500 0
DWIDTH 5 0
BBX 3 1 1 7
BITMAP
E0
ENDCHAR
STARTCHAR EM_DASH
ENCODING 8212
SWIDTH 500 0
DWIDTH 7 0
BBX 5 1 1 7
BITMAP
F8
ENDCHAR
STARTCHAR LEFT_SINGLE_QUOTATION_MARK
ENCODING 8216
SWIDTH 500 0
DWIDTH 3 0
BBX 2 3 0 9
BITMAP
40
80
40
ENDCHAR
STARTCHAR RIGHT_SINGLE_QUOTATION_MARK
ENCODING 8217
SWIDTH 500 0
DWIDTH 4 0
BBX 2 3 1 9
BITMAP
80
C0
80
ENDCHAR
STARTCHAR LEFT_DOUBLE_QUOTATION_MARK
ENCODING 8220
SWIDTH 500 0
DWIDTH 5 0
BBX 4 3 0 9
BITMAP
50
A0
50
ENDCHAR
STARTCHAR RIGHT_DOUBLE_QUOTATION_MARK
ENCODING 8221
SWIDTH 500 0
DWIDTH 6 0
BBX 4 3 1 9
BITMAP
A0
F0
A0
ENDCHAR
STARTCHAR BULLET
ENCODING 8226
SWIDTH 500 0
DWIDTH 3 0
BBX 1 1 1 8
BITMAP
80
ENDCHAR
STARTCHAR HORIZONTAL_ELLIPSIS
ENCODING 8230
SWIDTH 500 0
DWIDTH 9 0
BBX 7 1 1 4
BITMAP
92
ENDCHAR
STARTCHAR EURO_SIGN
ENCODING 8364
SWIDTH 500 0
DWIDTH 7 0
BBX 5 8 1 4
BITMAP
F8
98
E8
80
E8
88
98
70
ENDCHAR
ENDFONT
