STARTFONT 2.1
FONT -pixbar-silkscreen-digits-medium-r-normal--16-*-*-*-p-*-iso10646-1
SIZE 16 75 75
FONTBOUNDINGBOX 16 16 0 0
STARTPROPERTIES 8
FOUNDRY "Pixbar"
FAMILY_NAME "Silkscreen Digits"
FONT_NAME "Silkscreen Digits"
COPYRIGHT "Copyright 2001 The Silkscreen Project Authors; generated TC002 bitmap adaptation under SIL OFL 1.1"
PIXEL_SIZE 16
FONT_ASCENT 16
FONT_DESCENT 0
CHARSET_REGISTRY "ISO10646"
ENDPROPERTIES
CHARS 208
STARTCHAR SPACE
ENCODING 32
SWIDTH 500 0
DWIDTH 7 0
BBX 1 1 0 0
BITMAP
00
ENDCHAR
STARTCHAR EXCLAMATION_MARK
ENCODING 33
SWIDTH 500 0
DWIDTH 5 0
BBX 2 9 2 1
BITMAP
C0
C0
C0
C0
C0
00
00
C0
C0
ENDCHAR
STARTCHAR QUOTATION_MARK
ENCODING 34
SWIDTH 500 0
DWIDTH 9 0
BBX 5 4 2 6
BITMAP
D8
D8
D8
D8
ENDCHAR
STARTCHAR NUMBER_SIGN
ENCODING 35
SWIDTH 500 0
DWIDTH 12 0
BBX 9 9 2 1
BITMAP
6600
6600
FF80
FF80
6600
FF80
FF80
6600
6600
ENDCHAR
STARTCHAR DOLLAR_SIGN
ENCODING 36
SWIDTH 500 0
DWIDTH 11 0
BBX 7 12 2 0
BITMAP
18
18
7E
7E
C0
C0
78
06
06
F8
F8
60
ENDCHAR
STARTCHAR PERCENT_SIGN
ENCODING 37
SWIDTH 500 0
DWIDTH 12 0
BBX 9 9 2 1
BITMAP
E600
E600
E600
E600
1800
6780
6780
6780
6780
ENDCHAR
STARTCHAR AMPERSAND
ENCODING 38
SWIDTH 500 0
DWIDTH 11 0
BBX 7 12 2 0
BITMAP
18
18
7E
7E
C0
C0
78
C0
C0
7E
7E
18
ENDCHAR
STARTCHAR APOSTROPHE
ENCODING 39
SWIDTH 500 0
DWIDTH 5 0
BBX 2 4 2 6
BITMAP
C0
C0
C0
C0
ENDCHAR
STARTCHAR LEFT_PARENTHESIS
ENCODING 40
SWIDTH 500 0
DWIDTH 7 0
BBX 3 9 2 1
BITMAP
60
60
C0
C0
C0
C0
C0
60
60
ENDCHAR
STARTCHAR RIGHT_PARENTHESIS
ENCODING 41
SWIDTH 500 0
DWIDTH 7 0
BBX 3 9 2 1
BITMAP
C0
C0
60
60
60
60
60
C0
C0
ENDCHAR
STARTCHAR ASTERISK
ENCODING 42
SWIDTH 500 0
DWIDTH 12 0
BBX 9 9 2 1
BITMAP
1800
1800
D980
D980
7E00
D980
D980
1800
1800
ENDCHAR
STARTCHAR PLUS_SIGN
ENCODING 43
SWIDTH 500 0
DWIDTH 12 0
BBX 9 9 2 1
BITMAP
1800
1800
1800
1800
FF80
FF80
1800
1800
1800
ENDCHAR
STARTCHAR COMMA
ENCODING 44
SWIDTH 500 0
DWIDTH 7 0
BBX 3 3 2 0
BITMAP
60
60
C0
ENDCHAR
STARTCHAR HYPHEN-MINUS
ENCODING 45
SWIDTH 500 0
DWIDTH 9 0
BBX 5 2 2 5
BITMAP
F8
F8
ENDCHAR
STARTCHAR FULL_STOP
ENCODING 46
SWIDTH 500 0
DWIDTH 5 0
BBX 2 2 2 1
BITMAP
C0
C0
ENDCHAR
STARTCHAR SOLIDUS
ENCODING 47
SWIDTH 500 0
DWIDTH 9 0
BBX 5 9 2 1
BITMAP
18
18
18
18
60
C0
C0
C0
C0
ENDCHAR
STARTCHAR DIGIT_ZERO
ENCODING 48
SWIDTH 500 0
DWIDTH 11 0
BBX 7 9 2 1
BITMAP
78
78
C6
C6
C6
C6
C6
78
78
ENDCHAR
STARTCHAR DIGIT_ONE
ENCODING 49
SWIDTH 500 0
DWIDTH 9 0
BBX 5 9 2 1
BITMAP
E0
E0
60
60
60
60
60
F8
F8
ENDCHAR
STARTCHAR DIGIT_TWO
ENCODING 50
SWIDTH 500 0
DWIDTH 11 0
BBX 7 9 2 1
BITMAP
F8
F8
06
06
78
F8
C0
FE
FE
ENDCHAR
STARTCHAR DIGIT_THREE
ENCODING 51
SWIDTH 500 0
DWIDTH 11 0
BBX 7 9 2 1
BITMAP
F8
F8
06
06
78
06
06
F8
F8
ENDCHAR
STARTCHAR DIGIT_FOUR
ENCODING 52
SWIDTH 500 0
DWIDTH 11 0
BBX 7 9 2 1
BITMAP
D8
D8
D8
D8
FE
FE
18
18
18
ENDCHAR
STARTCHAR DIGIT_FIVE
ENCODING 53
SWIDTH 500 0
DWIDTH 11 0
BBX 7 9 2 1
BITMAP
FE
FE
C0
C0
F8
06
06
F8
F8
ENDCHAR
STARTCHAR DIGIT_SIX
ENCODING 54
SWIDTH 500 0
DWIDTH 11 0
BBX 7 9 2 1
BITMAP
78
78
C0
C0
F8
FE
C6
78
78
ENDCHAR
STARTCHAR DIGIT_SEVEN
ENCODING 55
SWIDTH 500 0
DWIDTH 11 0
BBX 7 9 2 1
BITMAP
FE
FE
06
06
18
60
60
60
60
ENDCHAR
STARTCHAR DIGIT_EIGHT
ENCODING 56
SWIDTH 500 0
DWIDTH 11 0
BBX 7 9 2 1
BITMAP
78
78
C6
C6
78
FE
C6
78
78
ENDCHAR
STARTCHAR DIGIT_NINE
ENCODING 57
SWIDTH 500 0
DWIDTH 11 0
BBX 7 9 2 1
BITMAP
78
78
C6
FE
7E
06
06
78
78
ENDCHAR
STARTCHAR COLON
ENCODING 58
SWIDTH 500 0
DWIDTH 5 0
BBX 2 5 2 3
BITMAP
C0
C0
00
C0
C0
ENDCHAR
STARTCHAR SEMICOLON
ENCODING 59
SWIDTH 500 0
DWIDTH 7 0
BBX 3 7 2 1
BITMAP
60
60
00
60
60
C0
C0
ENDCHAR
STARTCHAR LESS-THAN_SIGN
ENCODING 60
SWIDTH 500 0
DWIDTH 9 0
BBX 5 9 2 1
BITMAP
18
18
60
60
C0
60
60
18
18
ENDCHAR
STARTCHAR EQUALS_SIGN
ENCODING 61
SWIDTH 500 0
DWIDTH 9 0
BBX 5 5 2 3
BITMAP
F8
F8
00
F8
F8
ENDCHAR
STARTCHAR GREATER-THAN_SIGN
ENCODING 62
SWIDTH 500 0
DWIDTH 9 0
BBX 5 9 2 1
BITMAP
C0
C0
60
60
18
60
60
C0
C0
ENDCHAR
STARTCHAR QUESTION_MARK
ENCODING 63
SWIDTH 500 0
DWIDTH 11 0
BBX 7 9 2 1
BITMAP
F8
F8
06
06
78
78
00
60
60
ENDCHAR
STARTCHAR COMMERCIAL_AT
ENCODING 64
SWIDTH 500 0
DWIDTH 12 0
BBX 9 9 2 1
BITMAP
7E00
7E00
D980
D980
DE00
DE00
C000
7E00
7E00
ENDCHAR
STARTCHAR LATIN_CAPITAL_LETTER_A
ENCODING 65
SWIDTH 500 0
DWIDTH 11 0
BBX 7 9 2 1
BITMAP
78
78
C6
C6
FE
FE
C6
C6
C6
ENDCHAR
STARTCHAR LATIN_CAPITAL_LETTER_B
ENCODING 66
SWIDTH 500 0
DWIDTH 11 0
BBX 7 9 2 1
BITMAP
F8
F8
C6
C6
FE
FE
C6
F8
F8
ENDCHAR
STARTCHAR LATIN_CAPITAL_LETTER_C
ENCODING 67
SWIDTH 500 0
DWIDTH 11 0
BBX 7 9 2 1
BITMAP
78
78
C6
C6
C0
C6
C6
78
78
ENDCHAR
STARTCHAR LATIN_CAPITAL_LETTER_D
ENCODING 68
SWIDTH 500 0
DWIDTH 11 0
BBX 7 9 2 1
BITMAP
F8
F8
C6
C6
C6
C6
C6
F8
F8
ENDCHAR
STARTCHAR LATIN_CAPITAL_LETTER_E
ENCODING 69
SWIDTH 500 0
DWIDTH 9 0
BBX 5 9 2 1
BITMAP
F8
F8
C0
C0
F8
F8
C0
F8
F8
ENDCHAR
STARTCHAR LATIN_CAPITAL_LETTER_F
ENCODING 70
SWIDTH 500 0
DWIDTH 9 0
BBX 5 9 2 1
BITMAP
F8
F8
C0
C0
F8
F8
C0
C0
C0
ENDCHAR
STARTCHAR LATIN_CAPITAL_LETTER_G
ENCODING 71
SWIDTH 500 0
DWIDTH 11 0
BBX 7 9 2 1
BITMAP
7E
7E
C0
C0
DE
DE
C6
78
78
ENDCHAR
STARTCHAR LATIN_CAPITAL_LETTER_H
ENCODING 72
SWIDTH 500 0
DWIDTH 11 0
BBX 7 9 2 1
BITMAP
C6
C6
C6
C6
FE
FE
C6
C6
C6
ENDCHAR
STARTCHAR LATIN_CAPITAL_LETTER_I
ENCODING 73
SWIDTH 500 0
DWIDTH 5 0
BBX 2 9 2 1
BITMAP
C0
C0
C0
C0
C0
C0
C0
C0
C0
ENDCHAR
STARTCHAR LATIN_CAPITAL_LETTER_J
ENCODING 74
SWIDTH 500 0
DWIDTH 11 0
BBX 7 9 2 1
BITMAP
06
06
06
06
06
C6
C6
78
78
ENDCHAR
STARTCHAR LATIN_CAPITAL_LETTER_K
ENCODING 75
SWIDTH 500 0
DWIDTH 11 0
BBX 7 9 2 1
BITMAP
C6
C6
D8
D8
E0
D8
D8
C6
C6
ENDCHAR
STARTCHAR LATIN_CAPITAL_LETTER_L
ENCODING 76
SWIDTH 500 0
DWIDTH 9 0
BBX 5 9 2 1
BITMAP
C0
C0
C0
C0
C0
C0
C0
F8
F8
ENDCHAR
STARTCHAR LATIN_CAPITAL_LETTER_M
ENCODING 77
SWIDTH 500 0
DWIDTH 12 0
BBX 9 9 2 1
BITMAP
C180
C180
E780
E780
D980
D980
C180
C180
C180
ENDCHAR
STARTCHAR LATIN_CAPITAL_LETTER_N
ENCODING 78
SWIDTH 500 0
DWIDTH 12 0
BBX 9 9 2 1
BITMAP
C180
C180
E180
E180
D980
C780
C780
C180
C180
ENDCHAR
STARTCHAR LATIN_CAPITAL_LETTER_O
ENCODING 79
SWIDTH 500 0
DWIDTH 11 0
BBX 7 9 2 1
BITMAP
78
78
C6
C6
C6
C6
C6
78
78
ENDCHAR
STARTCHAR LATIN_CAPITAL_LETTER_P
ENCODING 80
SWIDTH 500 0
DWIDTH 11 0
BBX 7 9 2 1
BITMAP
F8
F8
C6
C6
F8
F8
C0
C0
C0
ENDCHAR
STARTCHAR LATIN_CAPITAL_LETTER_Q
ENCODING 81
SWIDTH 500 0
DWIDTH 11 0
BBX 7 10 2 0
BITMAP
78
78
C6
C6
C6
C6
C6
78
78
06
ENDCHAR
STARTCHAR LATIN_CAPITAL_LETTER_R
ENCODING 82
SWIDTH 500 0
DWIDTH 11 0
BBX 7 9 2 1
BITMAP
F8
F8
C6
C6
F8
F8
D8
C6
C6
ENDCHAR
STARTCHAR LATIN_CAPITAL_LETTER_S
ENCODING 83
SWIDTH 500 0
DWIDTH 11 0
BBX 7 9 2 1
BITMAP
7E
7E
C0
C0
78
06
06
F8
F8
ENDCHAR
STARTCHAR LATIN_CAPITAL_LETTER_T
ENCODING 84
SWIDTH 500 0
DWIDTH 9 0
BBX 5 9 2 1
BITMAP
F8
F8
60
60
60
60
60
60
60
ENDCHAR
STARTCHAR LATIN_CAPITAL_LETTER_U
ENCODING 85
SWIDTH 500 0
DWIDTH 11 0
BBX 7 9 2 1
BITMAP
C6
C6
C6
C6
C6
C6
C6
78
78
ENDCHAR
STARTCHAR LATIN_CAPITAL_LETTER_V
ENCODING 86
SWIDTH 500 0
DWIDTH 12 0
BBX 9 9 2 1
BITMAP
C180
C180
C180
E780
6600
6600
6600
1800
1800
ENDCHAR
STARTCHAR LATIN_CAPITAL_LETTER_W
ENCODING 87
SWIDTH 500 0
DWIDTH 12 0
BBX 9 9 2 1
BITMAP
C180
C180
D980
D980
D980
D980
D980
6600
6600
ENDCHAR
STARTCHAR LATIN_CAPITAL_LETTER_X
ENCODING 88
SWIDTH 500 0
DWIDTH 12 0
BBX 9 9 2 1
BITMAP
C180
C180
6600
6600
1800
6600
6600
C180
C180
ENDCHAR
STARTCHAR LATIN_CAPITAL_LETTER_Y
ENCODING 89
SWIDTH 500 0
DWIDTH 12 0
BBX 9 9 2 1
BITMAP
C180
C180
6600
6600
1800
1800
1800
1800
1800
ENDCHAR
STARTCHAR LATIN_CAPITAL_LETTER_Z
ENCODING 90
SWIDTH 500 0
DWIDTH 9 0
BBX 5 9 2 1
BITMAP
F8
F8
18
18
60
E0
C0
F8
F8
ENDCHAR
STARTCHAR LEFT_SQUARE_BRACKET
ENCODING 91
SWIDTH 500 0
DWIDTH 7 0
BBX 3 9 2 1
BITMAP
E0
E0
C0
C0
C0
C0
C0
E0
E0
ENDCHAR
STARTCHAR REVERSE_SOLIDUS
ENCODING 92
SWIDTH 500 0
DWIDTH 9 0
BBX 5 9 2 1
BITMAP
C0
C0
C0
C0
60
18
18
18
18
ENDCHAR
STARTCHAR RIGHT_SQUARE_BRACKET
ENCODING 93
SWIDTH 500 0
DWIDTH 7 0
BBX 3 9 2 1
BITMAP
E0
E0
60
60
60
60
60
E0
E0
ENDCHAR
STARTCHAR CIRCUMFLEX_ACCENT
ENCODING 94
SWIDTH 500 0
DWIDTH 9 0
BBX 5 4 2 8
BITMAP
60
60
D8
D8
ENDCHAR
STARTCHAR LOW_LINE
ENCODING 95
SWIDTH 500 0
DWIDTH 11 0
BBX 7 1 2 0
BITMAP
FE
ENDCHAR
STARTCHAR GRAVE_ACCENT
ENCODING 96
SWIDTH 500 0
DWIDTH 7 0
BBX 3 4 2 12
BITMAP
C0
C0
60
60
ENDCHAR
STARTCHAR LATIN_SMALL_LETTER_A
ENCODING 97
SWIDTH 500 0
DWIDTH 11 0
BBX 7 9 2 1
BITMAP
78
78
C6
C6
FE
FE
C6
C6
C6
ENDCHAR
STARTCHAR LATIN_SMALL_LETTER_B
ENCODING 98
SWIDTH 500 0
DWIDTH 11 0
BBX 7 9 2 1
BITMAP
F8
F8
C6
C6
FE
FE
C6
F8
F8
ENDCHAR
STARTCHAR LATIN_SMALL_LETTER_C
ENCODING 99
SWIDTH 500 0
DWIDTH 11 0
BBX 7 9 2 1
BITMAP
78
78
C6
C6
C0
C6
C6
78
78
ENDCHAR
STARTCHAR LATIN_SMALL_LETTER_D
ENCODING 100
SWIDTH 500 0
DWIDTH 11 0
BBX 7 9 2 1
BITMAP
F8
F8
C6
C6
C6
C6
C6
F8
F8
ENDCHAR
STARTCHAR LATIN_SMALL_LETTER_E
ENCODING 101
SWIDTH 500 0
DWIDTH 9 0
BBX 5 9 2 1
BITMAP
F8
F8
C0
C0
F8
F8
C0
F8
F8
ENDCHAR
STARTCHAR LATIN_SMALL_LETTER_F
ENCODING 102
SWIDTH 500 0
DWIDTH 9 0
BBX 5 9 2 1
BITMAP
F8
F8
C0
C0
F8
F8
C0
C0
C0
ENDCHAR
STARTCHAR LATIN_SMALL_LETTER_G
ENCODING 103
SWIDTH 500 0
DWIDTH 11 0
BBX 7 9 2 1
BITMAP
7E
7E
C0
C0
DE
DE
C6
78
78
ENDCHAR
STARTCHAR LATIN_SMALL_LETTER_H
ENCODING 104
SWIDTH 500 0
DWIDTH 11 0
BBX 7 9 2 1
BITMAP
C6
C6
C6
C6
FE
FE
C6
C6
C6
ENDCHAR
STARTCHAR LATIN_SMALL_LETTER_I
ENCODING 105
SWIDTH 500 0
DWIDTH 5 0
BBX 2 9 2 1
BITMAP
C0
C0
C0
C0
C0
C0
C0
C0
C0
ENDCHAR
STARTCHAR LATIN_SMALL_LETTER_J
ENCODING 106
SWIDTH 500 0
DWIDTH 11 0
BBX 7 9 2 1
BITMAP
06
06
06
06
06
C6
C6
78
78
ENDCHAR
STARTCHAR LATIN_SMALL_LETTER_K
ENCODING 107
SWIDTH 500 0
DWIDTH 11 0
BBX 7 9 2 1
BITMAP
C6
C6
D8
D8
E0
D8
D8
C6
C6
ENDCHAR
STARTCHAR LATIN_SMALL_LETTER_L
ENCODING 108
SWIDTH 500 0
DWIDTH 9 0
BBX 5 9 2 1
BITMAP
C0
C0
C0
C0
C0
C0
C0
F8
F8
ENDCHAR
STARTCHAR LATIN_SMALL_LETTER_M
ENCODING 109
SWIDTH 500 0
DWIDTH 12 0
BBX 9 9 2 1
BITMAP
C180
C180
E780
E780
D980
D980
C180
C180
C180
ENDCHAR
STARTCHAR LATIN_SMALL_LETTER_N
ENCODING 110
SWIDTH 500 0
DWIDTH 12 0
BBX 9 9 2 1
BITMAP
C180
C180
E180
E180
D980
C780
C780
C180
C180
ENDCHAR
STARTCHAR LATIN_SMALL_LETTER_O
ENCODING 111
SWIDTH 500 0
DWIDTH 11 0
BBX 7 9 2 1
BITMAP
78
78
C6
C6
C6
C6
C6
78
78
ENDCHAR
STARTCHAR LATIN_SMALL_LETTER_P
ENCODING 112
SWIDTH 500 0
DWIDTH 11 0
BBX 7 9 2 1
BITMAP
F8
F8
C6
C6
F8
F8
C0
C0
C0
ENDCHAR
STARTCHAR LATIN_SMALL_LETTER_Q
ENCODING 113
SWIDTH 500 0
DWIDTH 11 0
BBX 7 10 2 0
BITMAP
78
78
C6
C6
C6
C6
C6
78
78
06
ENDCHAR
STARTCHAR LATIN_SMALL_LETTER_R
ENCODING 114
SWIDTH 500 0
DWIDTH 11 0
BBX 7 9 2 1
BITMAP
F8
F8
C6
C6
F8
F8
D8
C6
C6
ENDCHAR
STARTCHAR LATIN_SMALL_LETTER_S
ENCODING 115
SWIDTH 500 0
DWIDTH 11 0
BBX 7 9 2 1
BITMAP
7E
7E
C0
C0
78
06
06
F8
F8
ENDCHAR
STARTCHAR LATIN_SMALL_LETTER_T
ENCODING 116
SWIDTH 500 0
DWIDTH 9 0
BBX 5 9 2 1
BITMAP
F8
F8
60
60
60
60
60
60
60
ENDCHAR
STARTCHAR LATIN_SMALL_LETTER_U
ENCODING 117
SWIDTH 500 0
DWIDTH 11 0
BBX 7 9 2 1
BITMAP
C6
C6
C6
C6
C6
C6
C6
78
78
ENDCHAR
STARTCHAR LATIN_SMALL_LETTER_V
ENCODING 118
SWIDTH 500 0
DWIDTH 12 0
BBX 9 9 2 1
BITMAP
C180
C180
C180
E780
6600
6600
6600
1800
1800
ENDCHAR
STARTCHAR LATIN_SMALL_LETTER_W
ENCODING 119
SWIDTH 500 0
DWIDTH 12 0
BBX 9 9 2 1
BITMAP
C180
C180
D980
D980
D980
D980
D980
6600
6600
ENDCHAR
STARTCHAR LATIN_SMALL_LETTER_X
ENCODING 120
SWIDTH 500 0
DWIDTH 12 0
BBX 9 9 2 1
BITMAP
C180
C180
6600
6600
1800
6600
6600
C180
C180
ENDCHAR
STARTCHAR LATIN_SMALL_LETTER_Y
ENCODING 121
SWIDTH 500 0
DWIDTH 12 0
BBX 9 9 2 1
BITMAP
C180
C180
6600
6600
1800
1800
1800
1800
1800
ENDCHAR
STARTCHAR LATIN_SMALL_LETTER_Z
ENCODING 122
SWIDTH 500 0
DWIDTH 9 0
BBX 5 9 2 1
BITMAP
F8
F8
18
18
60
E0
C0
F8
F8
ENDCHAR
STARTCHAR LEFT_CURLY_BRACKET
ENCODING 123
SWIDTH 500 0
DWIDTH 9 0
BBX 5 9 2 1
BITMAP
78
78
60
60
C0
E0
60
78
78
ENDCHAR
STARTCHAR VERTICAL_LINE
ENCODING 124
SWIDTH 500 0
DWIDTH 5 0
BBX 2 12 2 0
BITMAP
C0
C0
C0
C0
C0
C0
C0
C0
C0
C0
C0
C0
ENDCHAR
STARTCHAR RIGHT_CURLY_BRACKET
ENCODING 125
SWIDTH 500 0
DWIDTH 9 0
BBX 5 9 2 1
BITMAP
E0
E0
60
60
18
38
60
E0
E0
ENDCHAR
STARTCHAR TILDE
ENCODING 126
SWIDTH 500 0
DWIDTH 11 0
BBX 7 4 2 6
BITMAP
66
66
D8
D8
ENDCHAR
STARTCHAR NO-BREAK_SPACE
ENCODING 160
SWIDTH 500 0
DWIDTH 7 0
BBX 1 1 0 0
BITMAP
00
ENDCHAR
STARTCHAR INVERTED_EXCLAMATION_MARK
ENCODING 161
SWIDTH 500 0
DWIDTH 5 0
BBX 2 9 2 1
BITMAP
C0
C0
00
00
C0
C0
C0
C0
C0
ENDCHAR
STARTCHAR CENT_SIGN
ENCODING 162
SWIDTH 500 0
DWIDTH 9 0
BBX 5 9 2 1
BITMAP
60
60
F8
F8
C0
F8
F8
60
60
ENDCHAR
STARTCHAR POUND_SIGN
ENCODING 163
SWIDTH 500 0
DWIDTH 11 0
BBX 7 9 2 1
BITMAP
1E
1E
18
18
F8
F8
60
FE
FE
ENDCHAR
STARTCHAR CURRENCY_SIGN
ENCODING 164
SWIDTH 500 0
DWIDTH 12 0
BBX 9 9 2 1
BITMAP
D980
D980
6600
6600
6600
6600
6600
D980
D980
ENDCHAR
STARTCHAR YEN_SIGN
ENCODING 165
SWIDTH 500 0
DWIDTH 12 0
BBX 9 9 2 1
BITMAP
C180
C180
7E00
7E00
1800
7E00
7E00
1800
1800
ENDCHAR
STARTCHAR BROKEN_BAR
ENCODING 166
SWIDTH 500 0
DWIDTH 5 0
BBX 2 9 2 1
BITMAP
C0
C0
C0
C0
00
C0
C0
C0
C0
ENDCHAR
STARTCHAR SECTION_SIGN
ENCODING 167
SWIDTH 500 0
DWIDTH 11 0
BBX 7 12 2 0
BITMAP
78
78
C0
C0
78
78
C6
78
78
06
06
78
ENDCHAR
STARTCHAR DIAERESIS
ENCODING 168
SWIDTH 500 0
DWIDTH 9 0
BBX 5 2 2 14
BITMAP
D8
D8
ENDCHAR
STARTCHAR COPYRIGHT_SIGN
ENCODING 169
SWIDTH 500 0
DWIDTH 16 0
BBX 12 12 2 0
BITMAP
7FC0
7FC0
C030
C030
DFB0
DFB0
D830
D830
DFB0
DFB0
C030
7FC0
ENDCHAR
STARTCHAR FEMININE_ORDINAL_INDICATOR
ENCODING 170
SWIDTH 500 0
DWIDTH 9 0
BBX 5 5 2 5
BITMAP
60
60
D8
78
78
ENDCHAR
STARTCHAR LEFT-POINTING_DOUBLE_ANGLE_QUOTATION_MARK
ENCODING 171
SWIDTH 500 0
DWIDTH 12 0
BBX 9 5 2 3
BITMAP
6180
C600
C600
6180
6180
ENDCHAR
STARTCHAR NOT_SIGN
ENCODING 172
SWIDTH 500 0
DWIDTH 11 0
BBX 7 4 2 3
BITMAP
FE
FE
06
06
ENDCHAR
STARTCHAR SOFT_HYPHEN
ENCODING 173
SWIDTH 500 0
DWIDTH 4 0
BBX 6 2 -3 5
BITMAP
FC
FC
ENDCHAR
STARTCHAR REGISTERED_SIGN
ENCODING 174
SWIDTH 500 0
DWIDTH 16 0
BBX 12 12 2 0
BITMAP
7FC0
7FC0
C030
C030
C7B0
C7B0
D830
D830
D830
D830
C030
7FC0
ENDCHAR
STARTCHAR MACRON
ENCODING 175
SWIDTH 500 0
DWIDTH 11 0
BBX 7 2 2 8
BITMAP
FE
FE
ENDCHAR
STARTCHAR DEGREE_SIGN
ENCODING 176
SWIDTH 500 0
DWIDTH 2 0
BBX 3 3 0 8
BITMAP
E0
A0
E0
ENDCHAR
STARTCHAR PLUS-MINUS_SIGN
ENCODING 177
SWIDTH 500 0
DWIDTH 12 0
BBX 9 10 2 0
BITMAP
1800
1800
1800
1800
FF80
FF80
1800
1800
1800
FF80
ENDCHAR
STARTCHAR SUPERSCRIPT_TWO
ENCODING 178
SWIDTH 500 0
DWIDTH 4 0
BBX 3 5 0 10
BITMAP
E0
20
40
80
E0
ENDCHAR
STARTCHAR SUPERSCRIPT_THREE
ENCODING 179
SWIDTH 500 0
DWIDTH 4 0
BBX 3 5 0 10
BITMAP
E0
20
60
20
E0
ENDCHAR
STARTCHAR ACUTE_ACCENT
ENCODING 180
SWIDTH 500 0
DWIDTH 7 0
BBX 3 4 2 12
BITMAP
60
60
C0
C0
ENDCHAR
STARTCHAR MICRO_SIGN
ENCODING 181
SWIDTH 500 0
DWIDTH 6 0
BBX 5 8 0 1
BITMAP
88
88
88
88
98
68
80
80
ENDCHAR
STARTCHAR PILCROW_SIGN
ENCODING 182
SWIDTH 500 0
DWIDTH 12 0
BBX 9 9 2 1
BITMAP
7F80
7F80
D980
D980
7F80
7F80
1980
1980
1980
ENDCHAR
STARTCHAR MIDDLE_DOT
ENCODING 183
SWIDTH 500 0
DWIDTH 5 0
BBX 2 2 2 5
BITMAP
C0
C0
ENDCHAR
STARTCHAR CEDILLA
ENCODING 184
SWIDTH 500 0
DWIDTH 7 0
BBX 1 1 4 0
BITMAP
80
ENDCHAR
STARTCHAR SUPERSCRIPT_ONE
ENCODING 185
SWIDTH 500 0
DWIDTH 7 0
BBX 3 7 2 3
BITMAP
E0
E0
60
60
60
60
60
ENDCHAR
STARTCHAR MASCULINE_ORDINAL_INDICATOR
ENCODING 186
SWIDTH 500 0
DWIDTH 9 0
BBX 5 5 2 5
BITMAP
60
60
D8
F8
60
ENDCHAR
STARTCHAR RIGHT-POINTING_DOUBLE_ANGLE_QUOTATION_MARK
ENCODING 187
SWIDTH 500 0
DWIDTH 12 0
BBX 9 5 2 3
BITMAP
C600
6180
6180
C600
C600
ENDCHAR
STARTCHAR VULGAR_FRACTION_ONE_QUARTER
ENCODING 188
SWIDTH 500 0
DWIDTH 16 0
BBX 12 9 2 1
BITMAP
C600
C600
C600
C600
D9B0
61F0
61F0
6030
6030
ENDCHAR
STARTCHAR VULGAR_FRACTION_ONE_HALF
ENCODING 189
SWIDTH 500 0
DWIDTH 16 0
BBX 12 9 2 1
BITMAP
C600
C600
C7C0
C7C0
D830
60C0
60C0
61F0
61F0
ENDCHAR
STARTCHAR VULGAR_FRACTION_THREE_QUARTERS
ENCODING 190
SWIDTH 500 0
DWIDTH 18 0
BBX 14 9 2 1
BITMAP
E180
E180
7980
7980
1ECC
F8FC
F8FC
180C
180C
ENDCHAR
STARTCHAR INVERTED_QUESTION_MARK
ENCODING 191
SWIDTH 500 0
DWIDTH 11 0
BBX 7 9 2 1
BITMAP
18
18
00
00
78
C0
C0
7E
7E
ENDCHAR
STARTCHAR LATIN_CAPITAL_LETTER_A_WITH_GRAVE
ENCODING 192
SWIDTH 500 0
DWIDTH 11 0
BBX 7 15 2 1
BITMAP
60
60
18
18
00
00
78
78
C6
C6
FE
FE
C6
C6
C6
ENDCHAR
STARTCHAR LATIN_CAPITAL_LETTER_A_WITH_ACUTE
ENCODING 193
SWIDTH 500 0
DWIDTH 11 0
BBX 7 15 2 1
BITMAP
18
18
60
60
00
00
78
78
C6
C6
FE
FE
C6
C6
C6
ENDCHAR
STARTCHAR LATIN_CAPITAL_LETTER_A_WITH_CIRCUMFLEX
ENCODING 194
SWIDTH 500 0
DWIDTH 11 0
BBX 7 14 2 1
BITMAP
78
C6
C6
00
00
78
78
C6
C6
FE
FE
C6
C6
C6
ENDCHAR
STARTCHAR LATIN_CAPITAL_LETTER_A_WITH_TILDE
ENCODING 195
SWIDTH 500 0
DWIDTH 11 0
BBX 7 15 2 1
BITMAP
66
66
D8
D8
00
00
78
78
C6
C6
FE
FE
C6
C6
C6
ENDCHAR
STARTCHAR LATIN_CAPITAL_LETTER_A_WITH_DIAERESIS
ENCODING 196
SWIDTH 500 0
DWIDTH 11 0
BBX 7 13 2 1
BITMAP
C6
C6
00
00
78
78
C6
C6
FE
FE
C6
C6
C6
ENDCHAR
STARTCHAR LATIN_CAPITAL_LETTER_A_WITH_RING_ABOVE
ENCODING 197
SWIDTH 500 0
DWIDTH 11 0
BBX 7 14 2 1
BITMAP
C6
78
78
00
00
78
78
C6
C6
FE
FE
C6
C6
C6
ENDCHAR
STARTCHAR LATIN_CAPITAL_LETTER_AE
ENCODING 198
SWIDTH 500 0
DWIDTH 12 0
BBX 9 9 2 1
BITMAP
7F80
7F80
D800
D800
FF80
FF80
D800
DF80
DF80
ENDCHAR
STARTCHAR LATIN_CAPITAL_LETTER_C_WITH_CEDILLA
ENCODING 199
SWIDTH 500 0
DWIDTH 11 0
BBX 7 10 2 0
BITMAP
78
78
C6
C6
C0
C6
C6
78
78
60
ENDCHAR
STARTCHAR LATIN_CAPITAL_LETTER_E_WITH_GRAVE
ENCODING 200
SWIDTH 500 0
DWIDTH 9 0
BBX 5 15 2 1
BITMAP
C0
C0
60
60
00
00
F8
F8
C0
C0
F8
F8
C0
F8
F8
ENDCHAR
STARTCHAR LATIN_CAPITAL_LETTER_E_WITH_ACUTE
ENCODING 201
SWIDTH 500 0
DWIDTH 9 0
BBX 5 15 2 1
BITMAP
18
18
60
60
00
00
F8
F8
C0
C0
F8
F8
C0
F8
F8
ENDCHAR
STARTCHAR LATIN_CAPITAL_LETTER_E_WITH_CIRCUMFLEX
ENCODING 202
SWIDTH 500 0
DWIDTH 9 0
BBX 5 15 2 1
BITMAP
60
60
D8
D8
00
00
F8
F8
C0
C0
F8
F8
C0
F8
F8
ENDCHAR
STARTCHAR LATIN_CAPITAL_LETTER_E_WITH_DIAERESIS
ENCODING 203
SWIDTH 500 0
DWIDTH 9 0
BBX 5 13 2 1
BITMAP
D8
D8
00
00
F8
F8
C0
C0
F8
F8
C0
F8
F8
ENDCHAR
STARTCHAR LATIN_CAPITAL_LETTER_I_WITH_GRAVE
ENCODING 204
SWIDTH 500 0
DWIDTH 5 0
BBX 4 15 0 1
BITMAP
C0
C0
30
30
00
00
30
30
30
30
30
30
30
30
30
ENDCHAR
STARTCHAR LATIN_CAPITAL_LETTER_I_WITH_ACUTE
ENCODING 205
SWIDTH 500 0
DWIDTH 6 0
BBX 3 15 2 1
BITMAP
60
60
C0
C0
00
00
C0
C0
C0
C0
C0
C0
C0
C0
C0
ENDCHAR
STARTCHAR LATIN_CAPITAL_LETTER_I_WITH_CIRCUMFLEX
ENCODING 206
SWIDTH 500 0
DWIDTH 6 0
BBX 5 15 0 1
BITMAP
30
30
D8
D8
00
00
30
30
30
30
30
30
30
30
30
ENDCHAR
STARTCHAR LATIN_CAPITAL_LETTER_I_WITH_DIAERESIS
ENCODING 207
SWIDTH 500 0
DWIDTH 6 0
BBX 5 13 0 1
BITMAP
D8
D8
00
00
30
30
30
30
30
30
30
30
30
ENDCHAR
STARTCHAR LATIN_CAPITAL_LETTER_ETH
ENCODING 208
SWIDTH 500 0
DWIDTH 12 0
BBX 9 9 2 1
BITMAP
7E00
7E00
6180
6180
F980
F980
6180
7E00
7E00
ENDCHAR
STARTCHAR LATIN_CAPITAL_LETTER_N_WITH_TILDE
ENCODING 209
SWIDTH 500 0
DWIDTH 12 0
BBX 9 15 2 1
BITMAP
1980
1980
6600
6600
0000
0000
C180
C180
E180
E180
D980
C780
C780
C180
C180
ENDCHAR
STARTCHAR LATIN_CAPITAL_LETTER_O_WITH_GRAVE
ENCODING 210
SWIDTH 500 0
DWIDTH 11 0
BBX 7 15 2 1
BITMAP
60
60
18
18
00
00
78
78
C6
C6
C6
C6
C6
78
78
ENDCHAR
STARTCHAR LATIN_CAPITAL_LETTER_O_WITH_ACUTE
ENCODING 211
SWIDTH 500 0
DWIDTH 11 0
BBX 7 15 2 1
BITMAP
18
18
60
60
00
00
78
78
C6
C6
C6
C6
C6
78
78
ENDCHAR
STARTCHAR LATIN_CAPITAL_LETTER_O_WITH_CIRCUMFLEX
ENCODING 212
SWIDTH 500 0
DWIDTH 11 0
BBX 7 15 2 1
BITMAP
30
30
4C
EC
00
00
78
78
C6
C6
C6
C6
C6
78
78
ENDCHAR
STARTCHAR LATIN_CAPITAL_LETTER_O_WITH_TILDE
ENCODING 213
SWIDTH 500 0
DWIDTH 11 0
BBX 7 15 2 1
BITMAP
66
66
D8
D8
00
00
78
78
C6
C6
C6
C6
C6
78
78
ENDCHAR
STARTCHAR LATIN_CAPITAL_LETTER_O_WITH_DIAERESIS
ENCODING 214
SWIDTH 500 0
DWIDTH 11 0
BBX 7 13 2 1
BITMAP
4C
EC
00
00
78
78
C6
C6
C6
C6
C6
78
78
ENDCHAR
STARTCHAR MULTIPLICATION_SIGN
ENCODING 215
SWIDTH 500 0
DWIDTH 9 0
BBX 5 5 2 3
BITMAP
D8
60
60
D8
D8
ENDCHAR
STARTCHAR LATIN_CAPITAL_LETTER_O_WITH_STROKE
ENCODING 216
SWIDTH 500 0
DWIDTH 12 0
BBX 9 9 2 1
BITMAP
7E00
7E00
C780
C780
D980
F980
E180
7E00
7E00
ENDCHAR
STARTCHAR LATIN_CAPITAL_LETTER_U_WITH_GRAVE
ENCODING 217
SWIDTH 500 0
DWIDTH 11 0
BBX 7 15 2 1
BITMAP
60
60
18
18
00
00
C6
C6
C6
C6
C6
C6
C6
78
78
ENDCHAR
STARTCHAR LATIN_CAPITAL_LETTER_U_WITH_ACUTE
ENCODING 218
SWIDTH 500 0
DWIDTH 11 0
BBX 7 15 2 1
BITMAP
18
18
60
60
00
00
C6
C6
C6
C6
C6
C6
C6
78
78
ENDCHAR
STARTCHAR LATIN_CAPITAL_LETTER_U_WITH_CIRCUMFLEX
ENCODING 219
SWIDTH 500 0
DWIDTH 11 0
BBX 7 15 2 1
BITMAP
30
30
4C
EC
00
00
C6
C6
C6
C6
C6
C6
C6
78
78
ENDCHAR
STARTCHAR LATIN_CAPITAL_LETTER_U_WITH_DIAERESIS
ENCODING 220
SWIDTH 500 0
DWIDTH 11 0
BBX 7 13 2 1
BITMAP
4C
EC
00
00
C6
C6
C6
C6
C6
C6
C6
78
78
ENDCHAR
STARTCHAR LATIN_CAPITAL_LETTER_Y_WITH_ACUTE
ENCODING 221
SWIDTH 500 0
DWIDTH 12 0
BBX 9 15 2 1
BITMAP
0C00
0C00
3000
3000
0000
0000
C180
C180
6600
6600
1800
1800
1800
1800
1800
ENDCHAR
STARTCHAR LATIN_CAPITAL_LETTER_THORN
ENCODING 222
SWIDTH 500 0
DWIDTH 9 0
BBX 5 9 2 1
BITMAP
C0
C0
E0
E0
D8
E0
E0
C0
C0
ENDCHAR
STARTCHAR LATIN_SMALL_LETTER_SHARP_S
ENCODING 223
SWIDTH 500 0
DWIDTH 11 0
BBX 7 9 2 1
BITMAP
78
78
C6
C6
D8
C6
C6
D8
D8
ENDCHAR
STARTCHAR LATIN_SMALL_LETTER_A_WITH_GRAVE
ENCODING 224
SWIDTH 500 0
DWIDTH 11 0
BBX 7 15 2 1
BITMAP
60
60
18
18
00
00
78
78
C6
C6
FE
FE
C6
C6
C6
ENDCHAR
STARTCHAR LATIN_SMALL_LETTER_A_WITH_ACUTE
ENCODING 225
SWIDTH 500 0
DWIDTH 11 0
BBX 7 15 2 1
BITMAP
18
18
60
60
00
00
78
78
C6
C6
FE
FE
C6
C6
C6
ENDCHAR
STARTCHAR LATIN_SMALL_LETTER_A_WITH_CIRCUMFLEX
ENCODING 226
SWIDTH 500 0
DWIDTH 11 0
BBX 7 14 2 1
BITMAP
78
C6
C6
00
00
78
78
C6
C6
FE
FE
C6
C6
C6
ENDCHAR
STARTCHAR LATIN_SMALL_LETTER_A_WITH_TILDE
ENCODING 227
SWIDTH 500 0
DWIDTH 11 0
BBX 7 15 2 1
BITMAP
66
66
D8
D8
00
00
78
78
C6
C6
FE
FE
C6
C6
C6
ENDCHAR
STARTCHAR LATIN_SMALL_LETTER_A_WITH_DIAERESIS
ENCODING 228
SWIDTH 500 0
DWIDTH 11 0
BBX 7 13 2 1
BITMAP
C6
C6
00
00
78
78
C6
C6
FE
FE
C6
C6
C6
ENDCHAR
STARTCHAR LATIN_SMALL_LETTER_A_WITH_RING_ABOVE
ENCODING 229
SWIDTH 500 0
DWIDTH 11 0
BBX 7 14 2 1
BITMAP
C6
78
78
00
00
78
78
C6
C6
FE
FE
C6
C6
C6
ENDCHAR
STARTCHAR LATIN_SMALL_LETTER_AE
ENCODING 230
SWIDTH 500 0
DWIDTH 12 0
BBX 9 9 2 1
BITMAP
7F80
7F80
D800
D800
FF80
FF80
D800
DF80
DF80
ENDCHAR
STARTCHAR LATIN_SMALL_LETTER_C_WITH_CEDILLA
ENCODING 231
SWIDTH 500 0
DWIDTH 11 0
BBX 7 10 2 0
BITMAP
78
78
C6
C6
C0
C6
C6
78
78
60
ENDCHAR
STARTCHAR LATIN_SMALL_LETTER_E_WITH_GRAVE
ENCODING 232
SWIDTH 500 0
DWIDTH 9 0
BBX 5 15 2 1
BITMAP
C0
C0
60
60
00
00
F8
F8
C0
C0
F8
F8
C0
F8
F8
ENDCHAR
STARTCHAR LATIN_SMALL_LETTER_E_WITH_ACUTE
ENCODING 233
SWIDTH 500 0
DWIDTH 9 0
BBX 5 15 2 1
BITMAP
18
18
60
60
00
00
F8
F8
C0
C0
F8
F8
C0
F8
F8
ENDCHAR
STARTCHAR LATIN_SMALL_LETTER_E_WITH_CIRCUMFLEX
ENCODING 234
SWIDTH 500 0
DWIDTH 9 0
BBX 5 15 2 1
BITMAP
60
60
D8
D8
00
00
F8
F8
C0
C0
F8
F8
C0
F8
F8
ENDCHAR
STARTCHAR LATIN_SMALL_LETTER_E_WITH_DIAERESIS
ENCODING 235
SWIDTH 500 0
DWIDTH 9 0
BBX 5 13 2 1
BITMAP
D8
D8
00
00
F8
F8
C0
C0
F8
F8
C0
F8
F8
ENDCHAR
STARTCHAR LATIN_SMALL_LETTER_I_WITH_GRAVE
ENCODING 236
SWIDTH 500 0
DWIDTH 5 0
BBX 4 14 0 1
BITMAP
C0
30
30
00
00
30
30
30
30
30
30
30
30
30
ENDCHAR
STARTCHAR LATIN_SMALL_LETTER_I_WITH_ACUTE
ENCODING 237
SWIDTH 500 0
DWIDTH 6 0
BBX 3 14 2 1
BITMAP
60
C0
C0
00
00
C0
C0
C0
C0
C0
C0
C0
C0
C0
ENDCHAR
STARTCHAR LATIN_SMALL_LETTER_I_WITH_CIRCUMFLEX
ENCODING 238
SWIDTH 500 0
DWIDTH 6 0
BBX 5 14 0 1
BITMAP
30
D8
D8
00
00
30
30
30
30
30
30
30
30
30
ENDCHAR
STARTCHAR LATIN_SMALL_LETTER_I_WITH_DIAERESIS
ENCODING 239
SWIDTH 500 0
DWIDTH 6 0
BBX 5 13 0 1
BITMAP
D8
D8
00
00
30
30
30
30
30
30
30
30
30
ENDCHAR
STARTCHAR LATIN_SMALL_LETTER_ETH
ENCODING 240
SWIDTH 500 0
DWIDTH 12 0
BBX 9 9 2 1
BITMAP
7E00
7E00
6180
6180
F980
F980
6180
7E00
7E00
ENDCHAR
STARTCHAR LATIN_SMALL_LETTER_N_WITH_TILDE
ENCODING 241
SWIDTH 500 0
DWIDTH 12 0
BBX 9 15 2 1
BITMAP
1980
1980
6600
6600
0000
0000
C180
C180
E180
E180
D980
C780
C780
C180
C180
ENDCHAR
STARTCHAR LATIN_SMALL_LETTER_O_WITH_GRAVE
ENCODING 242
SWIDTH 500 0
DWIDTH 11 0
BBX 7 15 2 1
BITMAP
60
60
18
18
00
00
78
78
C6
C6
C6
C6
C6
78
78
ENDCHAR
STARTCHAR LATIN_SMALL_LETTER_O_WITH_ACUTE
ENCODING 243
SWIDTH 500 0
DWIDTH 11 0
BBX 7 15 2 1
BITMAP
18
18
60
60
00
00
78
78
C6
C6
C6
C6
C6
78
78
ENDCHAR
STARTCHAR LATIN_SMALL_LETTER_O_WITH_CIRCUMFLEX
ENCODING 244
SWIDTH 500 0
DWIDTH 11 0
BBX 7 14 2 1
BITMAP
78
C6
C6
00
00
78
78
C6
C6
C6
C6
C6
78
78
ENDCHAR
STARTCHAR LATIN_SMALL_LETTER_O_WITH_TILDE
ENCODING 245
SWIDTH 500 0
DWIDTH 11 0
BBX 7 15 2 1
BITMAP
66
66
D8
D8
00
00
78
78
C6
C6
C6
C6
C6
78
78
ENDCHAR
STARTCHAR LATIN_SMALL_LETTER_O_WITH_DIAERESIS
ENCODING 246
SWIDTH 500 0
DWIDTH 11 0
BBX 7 13 2 1
BITMAP
C6
C6
00
00
78
78
C6
C6
C6
C6
C6
78
78
ENDCHAR
STARTCHAR DIVISION_SIGN
ENCODING 247
SWIDTH 500 0
DWIDTH 9 0
BBX 5 9 2 1
BITMAP
60
60
00
00
F8
F8
00
60
60
ENDCHAR
STARTCHAR LATIN_SMALL_LETTER_O_WITH_STROKE
ENCODING 248
SWIDTH 500 0
DWIDTH 12 0
BBX 9 9 2 1
BITMAP
7E00
7E00
C780
C780
D980
F980
E180
7E00
7E00
ENDCHAR
STARTCHAR LATIN_SMALL_LETTER_U_WITH_GRAVE
ENCODING 249
SWIDTH 500 0
DWIDTH 11 0
BBX 7 15 2 1
BITMAP
60
60
18
18
00
00
C6
C6
C6
C6
C6
C6
C6
78
78
ENDCHAR
STARTCHAR LATIN_SMALL_LETTER_U_WITH_ACUTE
ENCODING 250
SWIDTH 500 0
DWIDTH 11 0
BBX 7 15 2 1
BITMAP
18
18
60
60
00
00
C6
C6
C6
C6
C6
C6
C6
78
78
ENDCHAR
STARTCHAR LATIN_SMALL_LETTER_U_WITH_CIRCUMFLEX
ENCODING 251
SWIDTH 500 0
DWIDTH 11 0
BBX 7 14 2 1
BITMAP
78
C6
C6
00
00
C6
C6
C6
C6
C6
C6
C6
78
78
ENDCHAR
STARTCHAR LATIN_SMALL_LETTER_U_WITH_DIAERESIS
ENCODING 252
SWIDTH 500 0
DWIDTH 11 0
BBX 7 13 2 1
BITMAP
C6
C6
00
00
C6
C6
C6
C6
C6
C6
C6
78
78
ENDCHAR
STARTCHAR LATIN_SMALL_LETTER_Y_WITH_ACUTE
ENCODING 253
SWIDTH 500 0
DWIDTH 12 0
BBX 9 15 2 1
BITMAP
0600
0600
1800
1800
0000
0000
C180
C180
6600
6600
1800
1800
1800
1800
1800
ENDCHAR
STARTCHAR LATIN_SMALL_LETTER_THORN
ENCODING 254
SWIDTH 500 0
DWIDTH 9 0
BBX 5 9 2 1
BITMAP
C0
C0
E0
E0
D8
E0
E0
C0
C0
ENDCHAR
STARTCHAR LATIN_SMALL_LETTER_Y_WITH_DIAERESIS
ENCODING 255
SWIDTH 500 0
DWIDTH 12 0
BBX 9 13 2 1
BITMAP
6600
6600
0000
0000
C180
C180
6600
6600
1800
1800
1800
1800
1800
ENDCHAR
STARTCHAR LATIN_CAPITAL_LIGATURE_OE
ENCODING 338
SWIDTH 500 0
DWIDTH 12 0
BBX 9 9 2 1
BITMAP
7F80
7F80
D800
D800
DF80
DF80
D800
7F80
7F80
ENDCHAR
STARTCHAR LATIN_SMALL_LIGATURE_OE
ENCODING 339
SWIDTH 500 0
DWIDTH 12 0
BBX 9 9 2 1
BITMAP
7F80
7F80
D800
D800
DF80
DF80
D800
7F80
7F80
ENDCHAR
STARTCHAR LATIN_CAPITAL_LETTER_S_WITH_CARON
ENCODING 352
SWIDTH 500 0
DWIDTH 11 0
BBX 7 14 2 1
BITMAP
C6
78
78
00
00
7E
7E
C0
C0
78
06
06
F8
F8
ENDCHAR
STARTCHAR LATIN_SMALL_LETTER_S_WITH_CARON
ENCODING 353
SWIDTH 500 0
DWIDTH 11 0
BBX 7 14 2 1
BITMAP
C6
78
78
00
00
7E
7E
C0
C0
78
06
06
F8
F8
ENDCHAR
STARTCHAR LATIN_CAPITAL_LETTER_Y_WITH_DIAERESIS
ENCODING 376
SWIDTH 500 0
DWIDTH 12 0
BBX 9 13 2 1
BITMAP
6600
6600
0000
0000
C180
C180
6600
6600
1800
1800
1800
1800
1800
ENDCHAR
STARTCHAR LATIN_CAPITAL_LETTER_Z_WITH_CARON
ENCODING 381
SWIDTH 500 0
DWIDTH 9 0
BBX 5 14 2 1
BITMAP
D8
60
60
00
00
F8
F8
18
18
60
E0
C0
F8
F8
ENDCHAR
STARTCHAR LATIN_SMALL_LETTER_Z_WITH_CARON
ENCODING 382
SWIDTH 500 0
DWIDTH 9 0
BBX 5 14 2 1
BITMAP
D8
60
60
00
00
F8
F8
18
18
60
E0
C0
F8
F8
ENDCHAR
STARTCHAR GREEK_SMALL_LETTER_MU
ENCODING 956
SWIDTH 500 0
DWIDTH 6 0
BBX 5 8 0 1
BITMAP
88
88
88
88
98
68
80
80
ENDCHAR
STARTCHAR EN_DASH
ENCODING 8211
SWIDTH 500 0
DWIDTH 11 0
BBX 7 2 2 5
BITMAP
FE
FE
ENDCHAR
STARTCHAR EM_DASH
ENCODING 8212
SWIDTH 500 0
DWIDTH 14 0
BBX 10 2 2 5
BITMAP
FFC0
FFC0
ENDCHAR
STARTCHAR LEFT_SINGLE_QUOTATION_MARK
ENCODING 8216
SWIDTH 500 0
DWIDTH 5 0
BBX 2 4 2 6
BITMAP
C0
C0
C0
C0
ENDCHAR
STARTCHAR RIGHT_SINGLE_QUOTATION_MARK
ENCODING 8217
SWIDTH 500 0
DWIDTH 5 0
BBX 2 4 2 6
BITMAP
C0
C0
C0
C0
ENDCHAR
STARTCHAR LEFT_DOUBLE_QUOTATION_MARK
ENCODING 8220
SWIDTH 500 0
DWIDTH 9 0
BBX 5 4 2 6
BITMAP
D8
D8
D8
D8
ENDCHAR
STARTCHAR RIGHT_DOUBLE_QUOTATION_MARK
ENCODING 8221
SWIDTH 500 0
DWIDTH 9 0
BBX 5 4 2 6
BITMAP
D8
D8
D8
D8
ENDCHAR
STARTCHAR BULLET
ENCODING 8226
SWIDTH 500 0
DWIDTH 5 0
BBX 2 2 2 5
BITMAP
C0
C0
ENDCHAR
STARTCHAR HORIZONTAL_ELLIPSIS
ENCODING 8230
SWIDTH 500 0
DWIDTH 12 0
BBX 9 2 2 1
BITMAP
D980
D980
ENDCHAR
STARTCHAR EURO_SIGN
ENCODING 8364
SWIDTH 500 0
DWIDTH 12 0
BBX 9 9 2 1
BITMAP
1E00
1E00
6180
6180
F800
6180
6180
1E00
1E00
ENDCHAR
ENDFONT
