STARTFONT 2.1
FONT -pixbar-silkscreen-compact-medium-r-normal--12-*-*-*-p-*-iso10646-1
SIZE 12 75 75
FONTBOUNDINGBOX 9 12 0 0
STARTPROPERTIES 8
FOUNDRY "Pixbar"
FAMILY_NAME "Silkscreen Compact"
FONT_NAME "Silkscreen Compact"
COPYRIGHT "Copyright 2001 The Silkscreen Project Authors; generated TC002 bitmap adaptation under SIL OFL 1.1"
PIXEL_SIZE 12
FONT_ASCENT 12
FONT_DESCENT 0
CHARSET_REGISTRY "ISO10646"
ENDPROPERTIES
CHARS 208
STARTCHAR SPACE
ENCODING 32
SWIDTH 500 0
DWIDTH 4 0
BBX 1 1 0 0
BITMAP
00
ENDCHAR
STARTCHAR EXCLAMATION_MARK
ENCODING 33
SWIDTH 500 0
DWIDTH 3 0
BBX 1 5 1 3
BITMAP
80
80
80
00
80
ENDCHAR
STARTCHAR QUOTATION_MARK
ENCODING 34
SWIDTH 500 0
DWIDTH 5 0
BBX 3 2 1 6
BITMAP
A0
A0
ENDCHAR
STARTCHAR NUMBER_SIGN
ENCODING 35
SWIDTH 500 0
DWIDTH 7 0
BBX 5 5 1 3
BITMAP
50
F8
50
F8
50
ENDCHAR
STARTCHAR DOLLAR_SIGN
ENCODING 36
SWIDTH 500 0
DWIDTH 6 0
BBX 4 7 1 2
BITMAP
20
70
80
60
10
E0
40
ENDCHAR
STARTCHAR PERCENT_SIGN
ENCODING 37
SWIDTH 500 0
DWIDTH 7 0
BBX 5 5 1 3
BITMAP
D0
D0
20
58
58
ENDCHAR
STARTCHAR AMPERSAND
ENCODING 38
SWIDTH 500 0
DWIDTH 6 0
BBX 4 7 1 2
BITMAP
20
70
80
60
80
70
20
ENDCHAR
STARTCHAR APOSTROPHE
ENCODING 39
SWIDTH 500 0
DWIDTH 3 0
BBX 1 2 1 6
BITMAP
80
80
ENDCHAR
STARTCHAR LEFT_PARENTHESIS
ENCODING 40
SWIDTH 500 0
DWIDTH 4 0
BBX 2 5 1 3
BITMAP
40
80
80
80
40
ENDCHAR
STARTCHAR RIGHT_PARENTHESIS
ENCODING 41
SWIDTH 500 0
DWIDTH 4 0
BBX 2 5 1 3
BITMAP
80
40
40
40
80
ENDCHAR
STARTCHAR ASTERISK
ENCODING 42
SWIDTH 500 0
DWIDTH 7 0
BBX 5 5 1 3
BITMAP
20
A8
70
A8
20
ENDCHAR
STARTCHAR PLUS_SIGN
ENCODING 43
SWIDTH 500 0
DWIDTH 7 0
BBX 5 5 1 3
BITMAP
20
20
F8
20
20
ENDCHAR
STARTCHAR COMMA
ENCODING 44
SWIDTH 500 0
DWIDTH 4 0
BBX 2 2 1 2
BITMAP
40
80
ENDCHAR
STARTCHAR HYPHEN-MINUS
ENCODING 45
SWIDTH 500 0
DWIDTH 5 0
BBX 3 1 1 5
BITMAP
E0
ENDCHAR
STARTCHAR FULL_STOP
ENCODING 46
SWIDTH 500 0
DWIDTH 3 0
BBX 1 1 1 3
BITMAP
80
ENDCHAR
STARTCHAR SOLIDUS
ENCODING 47
SWIDTH 500 0
DWIDTH 5 0
BBX 3 5 1 3
BITMAP
20
20
40
80
80
ENDCHAR
STARTCHAR DIGIT_ZERO
ENCODING 48
SWIDTH 500 0
DWIDTH 6 0
BBX 4 5 1 3
BITMAP
60
90
90
90
60
ENDCHAR
STARTCHAR DIGIT_ONE
ENCODING 49
SWIDTH 500 0
DWIDTH 5 0
BBX 3 5 1 3
BITMAP
C0
40
40
40
E0
ENDCHAR
STARTCHAR DIGIT_TWO
ENCODING 50
SWIDTH 500 0
DWIDTH 6 0
BBX 4 5 1 3
BITMAP
E0
10
60
80
F0
ENDCHAR
STARTCHAR DIGIT_THREE
ENCODING 51
SWIDTH 500 0
DWIDTH 6 0
BBX 4 5 1 3
BITMAP
E0
10
60
10
E0
ENDCHAR
STARTCHAR DIGIT_FOUR
ENCODING 52
SWIDTH 500 0
DWIDTH 6 0
BBX 4 5 1 3
BITMAP
A0
A0
F0
20
20
ENDCHAR
STARTCHAR DIGIT_FIVE
ENCODING 53
SWIDTH 500 0
DWIDTH 6 0
BBX 4 5 1 3
BITMAP
F0
80
E0
10
E0
ENDCHAR
STARTCHAR DIGIT_SIX
ENCODING 54
SWIDTH 500 0
DWIDTH 6 0
BBX 4 5 1 3
BITMAP
60
80
E0
90
60
ENDCHAR
STARTCHAR DIGIT_SEVEN
ENCODING 55
SWIDTH 500 0
DWIDTH 6 0
BBX 4 5 1 3
BITMAP
F0
10
20
40
40
ENDCHAR
STARTCHAR DIGIT_EIGHT
ENCODING 56
SWIDTH 500 0
DWIDTH 6 0
BBX 4 5 1 3
BITMAP
60
90
60
90
60
ENDCHAR
STARTCHAR DIGIT_NINE
ENCODING 57
SWIDTH 500 0
DWIDTH 6 0
BBX 4 5 1 3
BITMAP
60
90
70
10
60
ENDCHAR
STARTCHAR COLON
ENCODING 58
SWIDTH 500 0
DWIDTH 3 0
BBX 1 3 1 4
BITMAP
80
00
80
ENDCHAR
STARTCHAR SEMICOLON
ENCODING 59
SWIDTH 500 0
DWIDTH 4 0
BBX 2 4 1 3
BITMAP
40
00
40
80
ENDCHAR
STARTCHAR LESS-THAN_SIGN
ENCODING 60
SWIDTH 500 0
DWIDTH 5 0
BBX 3 5 1 3
BITMAP
20
40
80
40
20
ENDCHAR
STARTCHAR EQUALS_SIGN
ENCODING 61
SWIDTH 500 0
DWIDTH 5 0
BBX 3 3 1 4
BITMAP
E0
00
E0
ENDCHAR
STARTCHAR GREATER-THAN_SIGN
ENCODING 62
SWIDTH 500 0
DWIDTH 5 0
BBX 3 5 1 3
BITMAP
80
40
20
40
80
ENDCHAR
STARTCHAR QUESTION_MARK
ENCODING 63
SWIDTH 500 0
DWIDTH 6 0
BBX 4 5 1 3
BITMAP
E0
10
60
00
40
ENDCHAR
STARTCHAR COMMERCIAL_AT
ENCODING 64
SWIDTH 500 0
DWIDTH 7 0
BBX 5 5 1 3
BITMAP
70
A8
B0
80
70
ENDCHAR
STARTCHAR LATIN_CAPITAL_LETTER_A
ENCODING 65
SWIDTH 500 0
DWIDTH 6 0
BBX 4 5 1 3
BITMAP
60
90
F0
90
90
ENDCHAR
STARTCHAR LATIN_CAPITAL_LETTER_B
ENCODING 66
SWIDTH 500 0
DWIDTH 6 0
BBX 4 5 1 3
BITMAP
E0
90
F0
90
E0
ENDCHAR
STARTCHAR LATIN_CAPITAL_LETTER_C
ENCODING 67
SWIDTH 500 0
DWIDTH 6 0
BBX 4 5 1 3
BITMAP
60
90
80
90
60
ENDCHAR
STARTCHAR LATIN_CAPITAL_LETTER_D
ENCODING 68
SWIDTH 500 0
DWIDTH 6 0
BBX 4 5 1 3
BITMAP
E0
90
90
90
E0
ENDCHAR
STARTCHAR LATIN_CAPITAL_LETTER_E
ENCODING 69
SWIDTH 500 0
DWIDTH 5 0
BBX 3 5 1 3
BITMAP
E0
80
E0
80
E0
ENDCHAR
STARTCHAR LATIN_CAPITAL_LETTER_F
ENCODING 70
SWIDTH 500 0
DWIDTH 5 0
BBX 3 5 1 3
BITMAP
E0
80
E0
80
80
ENDCHAR
STARTCHAR LATIN_CAPITAL_LETTER_G
ENCODING 71
SWIDTH 500 0
DWIDTH 6 0
BBX 4 5 1 3
BITMAP
70
80
B0
90
60
ENDCHAR
STARTCHAR LATIN_CAPITAL_LETTER_H
ENCODING 72
SWIDTH 500 0
DWIDTH 6 0
BBX 4 5 1 3
BITMAP
90
90
F0
90
90
ENDCHAR
STARTCHAR LATIN_CAPITAL_LETTER_I
ENCODING 73
SWIDTH 500 0
DWIDTH 3 0
BBX 1 5 1 3
BITMAP
80
80
80
80
80
ENDCHAR
STARTCHAR LATIN_CAPITAL_LETTER_J
ENCODING 74
SWIDTH 500 0
DWIDTH 6 0
BBX 4 5 1 3
BITMAP
10
10
10
90
60
ENDCHAR
STARTCHAR LATIN_CAPITAL_LETTER_K
ENCODING 75
SWIDTH 500 0
DWIDTH 6 0
BBX 4 5 1 3
BITMAP
90
A0
C0
A0
90
ENDCHAR
STARTCHAR LATIN_CAPITAL_LETTER_L
ENCODING 76
SWIDTH 500 0
DWIDTH 5 0
BBX 3 5 1 3
BITMAP
80
80
80
80
E0
ENDCHAR
STARTCHAR LATIN_CAPITAL_LETTER_M
ENCODING 77
SWIDTH 500 0
DWIDTH 7 0
BBX 5 5 1 3
BITMAP
88
D8
A8
88
88
ENDCHAR
STARTCHAR LATIN_CAPITAL_LETTER_N
ENCODING 78
SWIDTH 500 0
DWIDTH 7 0
BBX 5 5 1 3
BITMAP
88
C8
A8
98
88
ENDCHAR
STARTCHAR LATIN_CAPITAL_LETTER_O
ENCODING 79
SWIDTH 500 0
DWIDTH 6 0
BBX 4 5 1 3
BITMAP
60
90
90
90
60
ENDCHAR
STARTCHAR LATIN_CAPITAL_LETTER_P
ENCODING 80
SWIDTH 500 0
DWIDTH 6 0
BBX 4 5 1 3
BITMAP
E0
90
E0
80
80
ENDCHAR
STARTCHAR LATIN_CAPITAL_LETTER_Q
ENCODING 81
SWIDTH 500 0
DWIDTH 6 0
BBX 4 6 1 2
BITMAP
60
90
90
90
60
10
ENDCHAR
STARTCHAR LATIN_CAPITAL_LETTER_R
ENCODING 82
SWIDTH 500 0
DWIDTH 6 0
BBX 4 5 1 3
BITMAP
E0
90
E0
A0
90
ENDCHAR
STARTCHAR LATIN_CAPITAL_LETTER_S
ENCODING 83
SWIDTH 500 0
DWIDTH 6 0
BBX 4 5 1 3
BITMAP
70
80
60
10
E0
ENDCHAR
STARTCHAR LATIN_CAPITAL_LETTER_T
ENCODING 84
SWIDTH 500 0
DWIDTH 5 0
BBX 3 5 1 3
BITMAP
E0
40
40
40
40
ENDCHAR
STARTCHAR LATIN_CAPITAL_LETTER_U
ENCODING 85
SWIDTH 500 0
DWIDTH 6 0
BBX 4 5 1 3
BITMAP
90
90
90
90
60
ENDCHAR
STARTCHAR LATIN_CAPITAL_LETTER_V
ENCODING 86
SWIDTH 500 0
DWIDTH 7 0
BBX 5 5 1 3
BITMAP
88
88
50
50
20
ENDCHAR
STARTCHAR LATIN_CAPITAL_LETTER_W
ENCODING 87
SWIDTH 500 0
DWIDTH 7 0
BBX 5 5 1 3
BITMAP
88
A8
A8
A8
50
ENDCHAR
STARTCHAR LATIN_CAPITAL_LETTER_X
ENCODING 88
SWIDTH 500 0
DWIDTH 7 0
BBX 5 5 1 3
BITMAP
88
50
20
50
88
ENDCHAR
STARTCHAR LATIN_CAPITAL_LETTER_Y
ENCODING 89
SWIDTH 500 0
DWIDTH 7 0
BBX 5 5 1 3
BITMAP
88
50
20
20
20
ENDCHAR
STARTCHAR LATIN_CAPITAL_LETTER_Z
ENCODING 90
SWIDTH 500 0
DWIDTH 5 0
BBX 3 5 1 3
BITMAP
E0
20
40
80
E0
ENDCHAR
STARTCHAR LEFT_SQUARE_BRACKET
ENCODING 91
SWIDTH 500 0
DWIDTH 4 0
BBX 2 5 1 3
BITMAP
C0
80
80
80
C0
ENDCHAR
STARTCHAR REVERSE_SOLIDUS
ENCODING 92
SWIDTH 500 0
DWIDTH 5 0
BBX 3 5 1 3
BITMAP
80
80
40
20
20
ENDCHAR
STARTCHAR RIGHT_SQUARE_BRACKET
ENCODING 93
SWIDTH 500 0
DWIDTH 4 0
BBX 2 5 1 3
BITMAP
C0
40
40
40
C0
ENDCHAR
STARTCHAR CIRCUMFLEX_ACCENT
ENCODING 94
SWIDTH 500 0
DWIDTH 5 0
BBX 3 2 1 7
BITMAP
40
A0
ENDCHAR
STARTCHAR LOW_LINE
ENCODING 95
SWIDTH 500 0
DWIDTH 6 0
BBX 4 1 1 2
BITMAP
F0
ENDCHAR
STARTCHAR GRAVE_ACCENT
ENCODING 96
SWIDTH 500 0
DWIDTH 4 0
BBX 2 2 1 9
BITMAP
80
40
ENDCHAR
STARTCHAR LATIN_SMALL_LETTER_A
ENCODING 97
SWIDTH 500 0
DWIDTH 6 0
BBX 4 5 1 3
BITMAP
60
90
F0
90
90
ENDCHAR
STARTCHAR LATIN_SMALL_LETTER_B
ENCODING 98
SWIDTH 500 0
DWIDTH 6 0
BBX 4 5 1 3
BITMAP
E0
90
F0
90
E0
ENDCHAR
STARTCHAR LATIN_SMALL_LETTER_C
ENCODING 99
SWIDTH 500 0
DWIDTH 6 0
BBX 4 5 1 3
BITMAP
60
90
80
90
60
ENDCHAR
STARTCHAR LATIN_SMALL_LETTER_D
ENCODING 100
SWIDTH 500 0
DWIDTH 6 0
BBX 4 5 1 3
BITMAP
E0
90
90
90
E0
ENDCHAR
STARTCHAR LATIN_SMALL_LETTER_E
ENCODING 101
SWIDTH 500 0
DWIDTH 5 0
BBX 3 5 1 3
BITMAP
E0
80
E0
80
E0
ENDCHAR
STARTCHAR LATIN_SMALL_LETTER_F
ENCODING 102
SWIDTH 500 0
DWIDTH 5 0
BBX 3 5 1 3
BITMAP
E0
80
E0
80
80
ENDCHAR
STARTCHAR LATIN_SMALL_LETTER_G
ENCODING 103
SWIDTH 500 0
DWIDTH 6 0
BBX 4 5 1 3
BITMAP
70
80
B0
90
60
ENDCHAR
STARTCHAR LATIN_SMALL_LETTER_H
ENCODING 104
SWIDTH 500 0
DWIDTH 6 0
BBX 4 5 1 3
BITMAP
90
90
F0
90
90
ENDCHAR
STARTCHAR LATIN_SMALL_LETTER_I
ENCODING 105
SWIDTH 500 0
DWIDTH 3 0
BBX 1 5 1 3
BITMAP
80
80
80
80
80
ENDCHAR
STARTCHAR LATIN_SMALL_LETTER_J
ENCODING 106
SWIDTH 500 0
DWIDTH 6 0
BBX 4 5 1 3
BITMAP
10
10
10
90
60
ENDCHAR
STARTCHAR LATIN_SMALL_LETTER_K
ENCODING 107
SWIDTH 500 0
DWIDTH 6 0
BBX 4 5 1 3
BITMAP
90
A0
C0
A0
90
ENDCHAR
STARTCHAR LATIN_SMALL_LETTER_L
ENCODING 108
SWIDTH 500 0
DWIDTH 5 0
BBX 3 5 1 3
BITMAP
80
80
80
80
E0
ENDCHAR
STARTCHAR LATIN_SMALL_LETTER_M
ENCODING 109
SWIDTH 500 0
DWIDTH 7 0
BBX 5 5 1 3
BITMAP
88
D8
A8
88
88
ENDCHAR
STARTCHAR LATIN_SMALL_LETTER_N
ENCODING 110
SWIDTH 500 0
DWIDTH 7 0
BBX 5 5 1 3
BITMAP
88
C8
A8
98
88
ENDCHAR
STARTCHAR LATIN_SMALL_LETTER_O
ENCODING 111
SWIDTH 500 0
DWIDTH 6 0
BBX 4 5 1 3
BITMAP
60
90
90
90
60
ENDCHAR
STARTCHAR LATIN_SMALL_LETTER_P
ENCODING 112
SWIDTH 500 0
DWIDTH 6 0
BBX 4 5 1 3
BITMAP
E0
90
E0
80
80
ENDCHAR
STARTCHAR LATIN_SMALL_LETTER_Q
ENCODING 113
SWIDTH 500 0
DWIDTH 6 0
BBX 4 6 1 2
BITMAP
60
90
90
90
60
10
ENDCHAR
STARTCHAR LATIN_SMALL_LETTER_R
ENCODING 114
SWIDTH 500 0
DWIDTH 6 0
BBX 4 5 1 3
BITMAP
E0
90
E0
A0
90
ENDCHAR
STARTCHAR LATIN_SMALL_LETTER_S
ENCODING 115
SWIDTH 500 0
DWIDTH 6 0
BBX 4 5 1 3
BITMAP
70
80
60
10
E0
ENDCHAR
STARTCHAR LATIN_SMALL_LETTER_T
ENCODING 116
SWIDTH 500 0
DWIDTH 5 0
BBX 3 5 1 3
BITMAP
E0
40
40
40
40
ENDCHAR
STARTCHAR LATIN_SMALL_LETTER_U
ENCODING 117
SWIDTH 500 0
DWIDTH 6 0
BBX 4 5 1 3
BITMAP
90
90
90
90
60
ENDCHAR
STARTCHAR LATIN_SMALL_LETTER_V
ENCODING 118
SWIDTH 500 0
DWIDTH 7 0
BBX 5 5 1 3
BITMAP
88
88
50
50
20
ENDCHAR
STARTCHAR LATIN_SMALL_LETTER_W
ENCODING 119
SWIDTH 500 0
DWIDTH 7 0
BBX 5 5 1 3
BITMAP
88
A8
A8
A8
50
ENDCHAR
STARTCHAR LATIN_SMALL_LETTER_X
ENCODING 120
SWIDTH 500 0
DWIDTH 7 0
BBX 5 5 1 3
BITMAP
88
50
20
50
88
ENDCHAR
STARTCHAR LATIN_SMALL_LETTER_Y
ENCODING 121
SWIDTH 500 0
DWIDTH 7 0
BBX 5 5 1 3
BITMAP
88
50
20
20
20
ENDCHAR
STARTCHAR LATIN_SMALL_LETTER_Z
ENCODING 122
SWIDTH 500 0
DWIDTH 5 0
BBX 3 5 1 3
BITMAP
E0
20
40
80
E0
ENDCHAR
STARTCHAR LEFT_CURLY_BRACKET
ENCODING 123
SWIDTH 500 0
DWIDTH 5 0
BBX 3 5 1 3
BITMAP
60
40
80
40
60
ENDCHAR
STARTCHAR VERTICAL_LINE
ENCODING 124
SWIDTH 500 0
DWIDTH 3 0
BBX 1 7 1 2
BITMAP
80
80
80
80
80
80
80
ENDCHAR
STARTCHAR RIGHT_CURLY_BRACKET
ENCODING 125
SWIDTH 500 0
DWIDTH 5 0
BBX 3 5 1 3
BITMAP
C0
40
20
40
C0
ENDCHAR
STARTCHAR TILDE
ENCODING 126
SWIDTH 500 0
DWIDTH 6 0
BBX 4 2 1 6
BITMAP
50
A0
ENDCHAR
STARTCHAR NO-BREAK_SPACE
ENCODING 160
SWIDTH 500 0
DWIDTH 4 0
BBX 1 1 0 0
BITMAP
00
ENDCHAR
STARTCHAR INVERTED_EXCLAMATION_MARK
ENCODING 161
SWIDTH 500 0
DWIDTH 3 0
BBX 1 5 1 3
BITMAP
80
00
80
80
80
ENDCHAR
STARTCHAR CENT_SIGN
ENCODING 162
SWIDTH 500 0
DWIDTH 5 0
BBX 3 5 1 3
BITMAP
40
E0
80
E0
40
ENDCHAR
STARTCHAR POUND_SIGN
ENCODING 163
SWIDTH 500 0
DWIDTH 6 0
BBX 4 5 1 3
BITMAP
30
20
E0
40
F0
ENDCHAR
STARTCHAR CURRENCY_SIGN
ENCODING 164
SWIDTH 500 0
DWIDTH 7 0
BBX 5 5 1 3
BITMAP
A8
50
50
50
A8
ENDCHAR
STARTCHAR YEN_SIGN
ENCODING 165
SWIDTH 500 0
DWIDTH 7 0
BBX 5 5 1 3
BITMAP
88
70
20
70
20
ENDCHAR
STARTCHAR BROKEN_BAR
ENCODING 166
SWIDTH 500 0
DWIDTH 3 0
BBX 1 5 1 3
BITMAP
80
80
00
80
80
ENDCHAR
STARTCHAR SECTION_SIGN
ENCODING 167
SWIDTH 500 0
DWIDTH 6 0
BBX 4 7 1 2
BITMAP
60
80
60
90
60
10
60
ENDCHAR
STARTCHAR DIAERESIS
ENCODING 168
SWIDTH 500 0
DWIDTH 5 0
BBX 3 1 1 10
BITMAP
A0
ENDCHAR
STARTCHAR COPYRIGHT_SIGN
ENCODING 169
SWIDTH 500 0
DWIDTH 9 0
BBX 7 7 1 2
BITMAP
7C
82
BA
A2
BA
82
7C
ENDCHAR
STARTCHAR FEMININE_ORDINAL_INDICATOR
ENCODING 170
SWIDTH 500 0
DWIDTH 5 0
BBX 3 3 1 5
BITMAP
40
A0
60
ENDCHAR
STARTCHAR LEFT-POINTING_DOUBLE_ANGLE_QUOTATION_MARK
ENCODING 171
SWIDTH 500 0
DWIDTH 7 0
BBX 5 3 1 4
BITMAP
48
90
48
ENDCHAR
STARTCHAR NOT_SIGN
ENCODING 172
SWIDTH 500 0
DWIDTH 6 0
BBX 4 2 1 4
BITMAP
F0
10
ENDCHAR
STARTCHAR SOFT_HYPHEN
ENCODING 173
SWIDTH 500 0
DWIDTH 3 0
BBX 4 1 -2 5
BITMAP
F0
ENDCHAR
STARTCHAR REGISTERED_SIGN
ENCODING 174
SWIDTH 500 0
DWIDTH 9 0
BBX 7 7 1 2
BITMAP
7C
82
9A
A2
A2
82
7C
ENDCHAR
STARTCHAR MACRON
ENCODING 175
SWIDTH 500 0
DWIDTH 6 0
BBX 4 1 1 7
BITMAP
F0
ENDCHAR
STARTCHAR DEGREE_SIGN
ENCODING 176
SWIDTH 500 0
DWIDTH 3 0
BBX 3 3 0 6
BITMAP
E0
A0
E0
ENDCHAR
STARTCHAR PLUS-MINUS_SIGN
ENCODING 177
SWIDTH 500 0
DWIDTH 7 0
BBX 5 6 1 2
BITMAP
20
20
F8
20
20
F8
ENDCHAR
STARTCHAR SUPERSCRIPT_TWO
ENCODING 178
SWIDTH 500 0
DWIDTH 4 0
BBX 3 5 0 6
BITMAP
E0
20
40
80
E0
ENDCHAR
STARTCHAR SUPERSCRIPT_THREE
ENCODING 179
SWIDTH 500 0
DWIDTH 4 0
BBX 3 5 0 6
BITMAP
E0
20
60
20
E0
ENDCHAR
STARTCHAR ACUTE_ACCENT
ENCODING 180
SWIDTH 500 0
DWIDTH 4 0
BBX 2 2 1 9
BITMAP
40
80
ENDCHAR
STARTCHAR MICRO_SIGN
ENCODING 181
SWIDTH 500 0
DWIDTH 6 0
BBX 5 8 0 1
BITMAP
88
88
88
88
98
68
80
80
ENDCHAR
STARTCHAR PILCROW_SIGN
ENCODING 182
SWIDTH 500 0
DWIDTH 7 0
BBX 5 5 1 3
BITMAP
78
A8
78
28
28
ENDCHAR
STARTCHAR MIDDLE_DOT
ENCODING 183
SWIDTH 500 0
DWIDTH 3 0
BBX 1 1 1 5
BITMAP
80
ENDCHAR
STARTCHAR CEDILLA
ENCODING 184
SWIDTH 500 0
DWIDTH 4 0
BBX 2 2 1 1
BITMAP
40
80
ENDCHAR
STARTCHAR SUPERSCRIPT_ONE
ENCODING 185
SWIDTH 500 0
DWIDTH 4 0
BBX 2 4 1 4
BITMAP
C0
40
40
40
ENDCHAR
STARTCHAR MASCULINE_ORDINAL_INDICATOR
ENCODING 186
SWIDTH 500 0
DWIDTH 5 0
BBX 3 3 1 5
BITMAP
40
A0
40
ENDCHAR
STARTCHAR RIGHT-POINTING_DOUBLE_ANGLE_QUOTATION_MARK
ENCODING 187
SWIDTH 500 0
DWIDTH 7 0
BBX 5 3 1 4
BITMAP
90
48
90
ENDCHAR
STARTCHAR VULGAR_FRACTION_ONE_QUARTER
ENCODING 188
SWIDTH 500 0
DWIDTH 9 0
BBX 7 5 1 3
BITMAP
90
90
AA
4E
42
ENDCHAR
STARTCHAR VULGAR_FRACTION_ONE_HALF
ENCODING 189
SWIDTH 500 0
DWIDTH 9 0
BBX 7 5 1 3
BITMAP
90
9C
A2
44
4E
ENDCHAR
STARTCHAR VULGAR_FRACTION_THREE_QUARTERS
ENCODING 190
SWIDTH 500 0
DWIDTH 10 0
BBX 8 5 1 3
BITMAP
C8
68
35
E7
21
ENDCHAR
STARTCHAR INVERTED_QUESTION_MARK
ENCODING 191
SWIDTH 500 0
DWIDTH 6 0
BBX 4 5 1 3
BITMAP
20
00
60
80
70
ENDCHAR
STARTCHAR LATIN_CAPITAL_LETTER_A_WITH_GRAVE
ENCODING 192
SWIDTH 500 0
DWIDTH 6 0
BBX 4 8 1 3
BITMAP
40
20
00
60
90
F0
90
90
ENDCHAR
STARTCHAR LATIN_CAPITAL_LETTER_A_WITH_ACUTE
ENCODING 193
SWIDTH 500 0
DWIDTH 6 0
BBX 4 8 1 3
BITMAP
20
40
00
60
90
F0
90
90
ENDCHAR
STARTCHAR LATIN_CAPITAL_LETTER_A_WITH_CIRCUMFLEX
ENCODING 194
SWIDTH 500 0
DWIDTH 6 0
BBX 4 8 1 3
BITMAP
60
90
00
60
90
F0
90
90
ENDCHAR
STARTCHAR LATIN_CAPITAL_LETTER_A_WITH_TILDE
ENCODING 195
SWIDTH 500 0
DWIDTH 6 0
BBX 4 8 1 3
BITMAP
50
A0
00
60
90
F0
90
90
ENDCHAR
STARTCHAR LATIN_CAPITAL_LETTER_A_WITH_DIAERESIS
ENCODING 196
SWIDTH 500 0
DWIDTH 6 0
BBX 4 7 1 3
BITMAP
90
00
60
90
F0
90
90
ENDCHAR
STARTCHAR LATIN_CAPITAL_LETTER_A_WITH_RING_ABOVE
ENCODING 197
SWIDTH 500 0
DWIDTH 6 0
BBX 4 8 1 3
BITMAP
90
60
00
60
90
F0
90
90
ENDCHAR
STARTCHAR LATIN_CAPITAL_LETTER_AE
ENCODING 198
SWIDTH 500 0
DWIDTH 7 0
BBX 5 5 1 3
BITMAP
78
A0
F8
A0
B8
ENDCHAR
STARTCHAR LATIN_CAPITAL_LETTER_C_WITH_CEDILLA
ENCODING 199
SWIDTH 500 0
DWIDTH 6 0
BBX 4 7 1 1
BITMAP
60
90
80
90
60
40
80
ENDCHAR
STARTCHAR LATIN_CAPITAL_LETTER_E_WITH_GRAVE
ENCODING 200
SWIDTH 500 0
DWIDTH 5 0
BBX 3 8 1 3
BITMAP
80
40
00
E0
80
E0
80
E0
ENDCHAR
STARTCHAR LATIN_CAPITAL_LETTER_E_WITH_ACUTE
ENCODING 201
SWIDTH 500 0
DWIDTH 5 0
BBX 3 8 1 3
BITMAP
20
40
00
E0
80
E0
80
E0
ENDCHAR
STARTCHAR LATIN_CAPITAL_LETTER_E_WITH_CIRCUMFLEX
ENCODING 202
SWIDTH 500 0
DWIDTH 5 0
BBX 3 8 1 3
BITMAP
40
A0
00
E0
80
E0
80
E0
ENDCHAR
STARTCHAR LATIN_CAPITAL_LETTER_E_WITH_DIAERESIS
ENCODING 203
SWIDTH 500 0
DWIDTH 5 0
BBX 3 7 1 3
BITMAP
A0
00
E0
80
E0
80
E0
ENDCHAR
STARTCHAR LATIN_CAPITAL_LETTER_I_WITH_GRAVE
ENCODING 204
SWIDTH 500 0
DWIDTH 3 0
BBX 2 8 0 3
BITMAP
80
40
00
40
40
40
40
40
ENDCHAR
STARTCHAR LATIN_CAPITAL_LETTER_I_WITH_ACUTE
ENCODING 205
SWIDTH 500 0
DWIDTH 4 0
BBX 2 8 1 3
BITMAP
40
80
00
80
80
80
80
80
ENDCHAR
STARTCHAR LATIN_CAPITAL_LETTER_I_WITH_CIRCUMFLEX
ENCODING 206
SWIDTH 500 0
DWIDTH 4 0
BBX 3 8 0 3
BITMAP
40
A0
00
40
40
40
40
40
ENDCHAR
STARTCHAR LATIN_CAPITAL_LETTER_I_WITH_DIAERESIS
ENCODING 207
SWIDTH 500 0
DWIDTH 4 0
BBX 3 7 0 3
BITMAP
A0
00
40
40
40
40
40
ENDCHAR
STARTCHAR LATIN_CAPITAL_LETTER_ETH
ENCODING 208
SWIDTH 500 0
DWIDTH 7 0
BBX 5 5 1 3
BITMAP
70
48
E8
48
70
ENDCHAR
STARTCHAR LATIN_CAPITAL_LETTER_N_WITH_TILDE
ENCODING 209
SWIDTH 500 0
DWIDTH 7 0
BBX 5 8 1 3
BITMAP
28
50
00
88
C8
A8
98
88
ENDCHAR
STARTCHAR LATIN_CAPITAL_LETTER_O_WITH_GRAVE
ENCODING 210
SWIDTH 500 0
DWIDTH 6 0
BBX 4 8 1 3
BITMAP
40
20
00
60
90
90
90
60
ENDCHAR
STARTCHAR LATIN_CAPITAL_LETTER_O_WITH_ACUTE
ENCODING 211
SWIDTH 500 0
DWIDTH 6 0
BBX 4 8 1 3
BITMAP
20
40
00
60
90
90
90
60
ENDCHAR
STARTCHAR LATIN_CAPITAL_LETTER_O_WITH_CIRCUMFLEX
ENCODING 212
SWIDTH 500 0
DWIDTH 6 0
BBX 4 8 1 3
BITMAP
60
F0
00
60
90
90
90
60
ENDCHAR
STARTCHAR LATIN_CAPITAL_LETTER_O_WITH_TILDE
ENCODING 213
SWIDTH 500 0
DWIDTH 6 0
BBX 4 8 1 3
BITMAP
50
A0
00
60
90
90
90
60
ENDCHAR
STARTCHAR LATIN_CAPITAL_LETTER_O_WITH_DIAERESIS
ENCODING 214
SWIDTH 500 0
DWIDTH 6 0
BBX 4 7 1 3
BITMAP
F0
00
60
90
90
90
60
ENDCHAR
STARTCHAR MULTIPLICATION_SIGN
ENCODING 215
SWIDTH 500 0
DWIDTH 5 0
BBX 3 3 1 4
BITMAP
A0
40
A0
ENDCHAR
STARTCHAR LATIN_CAPITAL_LETTER_O_WITH_STROKE
ENCODING 216
SWIDTH 500 0
DWIDTH 7 0
BBX 5 5 1 3
BITMAP
70
98
A8
C8
70
ENDCHAR
STARTCHAR LATIN_CAPITAL_LETTER_U_WITH_GRAVE
ENCODING 217
SWIDTH 500 0
DWIDTH 6 0
BBX 4 8 1 3
BITMAP
40
20
00
90
90
90
90
60
ENDCHAR
STARTCHAR LATIN_CAPITAL_LETTER_U_WITH_ACUTE
ENCODING 218
SWIDTH 500 0
DWIDTH 6 0
BBX 4 8 1 3
BITMAP
20
40
00
90
90
90
90
60
ENDCHAR
STARTCHAR LATIN_CAPITAL_LETTER_U_WITH_CIRCUMFLEX
ENCODING 219
SWIDTH 500 0
DWIDTH 6 0
BBX 4 8 1 3
BITMAP
60
F0
00
90
90
90
90
60
ENDCHAR
STARTCHAR LATIN_CAPITAL_LETTER_U_WITH_DIAERESIS
ENCODING 220
SWIDTH 500 0
DWIDTH 6 0
BBX 4 7 1 3
BITMAP
F0
00
90
90
90
90
60
ENDCHAR
STARTCHAR LATIN_CAPITAL_LETTER_Y_WITH_ACUTE
ENCODING 221
SWIDTH 500 0
DWIDTH 7 0
BBX 5 8 1 3
BITMAP
30
60
00
88
50
20
20
20
ENDCHAR
STARTCHAR LATIN_CAPITAL_LETTER_THORN
ENCODING 222
SWIDTH 500 0
DWIDTH 5 0
BBX 3 5 1 3
BITMAP
80
C0
A0
C0
80
ENDCHAR
STARTCHAR LATIN_SMALL_LETTER_SHARP_S
ENCODING 223
SWIDTH 500 0
DWIDTH 6 0
BBX 4 5 1 3
BITMAP
60
90
A0
90
A0
ENDCHAR
STARTCHAR LATIN_SMALL_LETTER_A_WITH_GRAVE
ENCODING 224
SWIDTH 500 0
DWIDTH 6 0
BBX 4 8 1 3
BITMAP
40
20
00
60
90
F0
90
90
ENDCHAR
STARTCHAR LATIN_SMALL_LETTER_A_WITH_ACUTE
ENCODING 225
SWIDTH 500 0
DWIDTH 6 0
BBX 4 8 1 3
BITMAP
20
40
00
60
90
F0
90
90
ENDCHAR
STARTCHAR LATIN_SMALL_LETTER_A_WITH_CIRCUMFLEX
ENCODING 226
SWIDTH 500 0
DWIDTH 6 0
BBX 4 8 1 3
BITMAP
60
90
00
60
90
F0
90
90
ENDCHAR
STARTCHAR LATIN_SMALL_LETTER_A_WITH_TILDE
ENCODING 227
SWIDTH 500 0
DWIDTH 6 0
BBX 4 8 1 3
BITMAP
50
A0
00
60
90
F0
90
90
ENDCHAR
STARTCHAR LATIN_SMALL_LETTER_A_WITH_DIAERESIS
ENCODING 228
SWIDTH 500 0
DWIDTH 6 0
BBX 4 7 1 3
BITMAP
90
00
60
90
F0
90
90
ENDCHAR
STARTCHAR LATIN_SMALL_LETTER_A_WITH_RING_ABOVE
ENCODING 229
SWIDTH 500 0
DWIDTH 6 0
BBX 4 8 1 3
BITMAP
90
60
00
60
90
F0
90
90
ENDCHAR
STARTCHAR LATIN_SMALL_LETTER_AE
ENCODING 230
SWIDTH 500 0
DWIDTH 7 0
BBX 5 5 1 3
BITMAP
78
A0
F8
A0
B8
ENDCHAR
STARTCHAR LATIN_SMALL_LETTER_C_WITH_CEDILLA
ENCODING 231
SWIDTH 500 0
DWIDTH 6 0
BBX 4 7 1 1
BITMAP
60
90
80
90
60
40
80
ENDCHAR
STARTCHAR LATIN_SMALL_LETTER_E_WITH_GRAVE
ENCODING 232
SWIDTH 500 0
DWIDTH 5 0
BBX 3 8 1 3
BITMAP
80
40
00
E0
80
E0
80
E0
ENDCHAR
STARTCHAR LATIN_SMALL_LETTER_E_WITH_ACUTE
ENCODING 233
SWIDTH 500 0
DWIDTH 5 0
BBX 3 8 1 3
BITMAP
20
40
00
E0
80
E0
80
E0
ENDCHAR
STARTCHAR LATIN_SMALL_LETTER_E_WITH_CIRCUMFLEX
ENCODING 234
SWIDTH 500 0
DWIDTH 5 0
BBX 3 8 1 3
BITMAP
40
A0
00
E0
80
E0
80
E0
ENDCHAR
STARTCHAR LATIN_SMALL_LETTER_E_WITH_DIAERESIS
ENCODING 235
SWIDTH 500 0
DWIDTH 5 0
BBX 3 7 1 3
BITMAP
A0
00
E0
80
E0
80
E0
ENDCHAR
STARTCHAR LATIN_SMALL_LETTER_I_WITH_GRAVE
ENCODING 236
SWIDTH 500 0
DWIDTH 3 0
BBX 2 8 0 3
BITMAP
80
40
00
40
40
40
40
40
ENDCHAR
STARTCHAR LATIN_SMALL_LETTER_I_WITH_ACUTE
ENCODING 237
SWIDTH 500 0
DWIDTH 4 0
BBX 2 8 1 3
BITMAP
40
80
00
80
80
80
80
80
ENDCHAR
STARTCHAR LATIN_SMALL_LETTER_I_WITH_CIRCUMFLEX
ENCODING 238
SWIDTH 500 0
DWIDTH 4 0
BBX 3 8 0 3
BITMAP
40
A0
00
40
40
40
40
40
ENDCHAR
STARTCHAR LATIN_SMALL_LETTER_I_WITH_DIAERESIS
ENCODING 239
SWIDTH 500 0
DWIDTH 4 0
BBX 3 7 0 3
BITMAP
A0
00
40
40
40
40
40
ENDCHAR
STARTCHAR LATIN_SMALL_LETTER_ETH
ENCODING 240
SWIDTH 500 0
DWIDTH 7 0
BBX 5 5 1 3
BITMAP
70
48
E8
48
70
ENDCHAR
STARTCHAR LATIN_SMALL_LETTER_N_WITH_TILDE
ENCODING 241
SWIDTH 500 0
DWIDTH 7 0
BBX 5 8 1 3
BITMAP
28
50
00
88
C8
A8
98
88
ENDCHAR
STARTCHAR LATIN_SMALL_LETTER_O_WITH_GRAVE
ENCODING 242
SWIDTH 500 0
DWIDTH 6 0
BBX 4 8 1 3
BITMAP
40
20
00
60
90
90
90
60
ENDCHAR
STARTCHAR LATIN_SMALL_LETTER_O_WITH_ACUTE
ENCODING 243
SWIDTH 500 0
DWIDTH 6 0
BBX 4 8 1 3
BITMAP
20
40
00
60
90
90
90
60
ENDCHAR
STARTCHAR LATIN_SMALL_LETTER_O_WITH_CIRCUMFLEX
ENCODING 244
SWIDTH 500 0
DWIDTH 6 0
BBX 4 8 1 3
BITMAP
60
90
00
60
90
90
90
60
ENDCHAR
STARTCHAR LATIN_SMALL_LETTER_O_WITH_TILDE
ENCODING 245
SWIDTH 500 0
DWIDTH 6 0
BBX 4 8 1 3
BITMAP
50
A0
00
60
90
90
90
60
ENDCHAR
STARTCHAR LATIN_SMALL_LETTER_O_WITH_DIAERESIS
ENCODING 246
SWIDTH 500 0
DWIDTH 6 0
BBX 4 7 1 3
BITMAP
90
00
60
90
90
90
60
ENDCHAR
STARTCHAR DIVISION_SIGN
ENCODING 247
SWIDTH 500 0
DWIDTH 5 0
BBX 3 5 1 3
BITMAP
40
00
E0
00
40
ENDCHAR
STARTCHAR LATIN_SMALL_LETTER_O_WITH_STROKE
ENCODING 248
SWIDTH 500 0
DWIDTH 7 0
BBX 5 5 1 3
BITMAP
70
98
A8
C8
70
ENDCHAR
STARTCHAR LATIN_SMALL_LETTER_U_WITH_GRAVE
ENCODING 249
SWIDTH 500 0
DWIDTH 6 0
BBX 4 8 1 3
BITMAP
40
20
00
90
90
90
90
60
ENDCHAR
STARTCHAR LATIN_SMALL_LETTER_U_WITH_ACUTE
ENCODING 250
SWIDTH 500 0
DWIDTH 6 0
BBX 4 8 1 3
BITMAP
20
40
00
90
90
90
90
60
ENDCHAR
STARTCHAR LATIN_SMALL_LETTER_U_WITH_CIRCUMFLEX
ENCODING 251
SWIDTH 500 0
DWIDTH 6 0
BBX 4 8 1 3
BITMAP
60
90
00
90
90
90
90
60
ENDCHAR
STARTCHAR LATIN_SMALL_LETTER_U_WITH_DIAERESIS
ENCODING 252
SWIDTH 500 0
DWIDTH 6 0
BBX 4 7 1 3
BITMAP
90
00
90
90
90
90
60
ENDCHAR
STARTCHAR LATIN_SMALL_LETTER_Y_WITH_ACUTE
ENCODING 253
SWIDTH 500 0
DWIDTH 7 0
BBX 5 8 1 3
BITMAP
10
20
00
88
50
20
20
20
ENDCHAR
STARTCHAR LATIN_SMALL_LETTER_THORN
ENCODING 254
SWIDTH 500 0
DWIDTH 5 0
BBX 3 5 1 3
BITMAP
80
C0
A0
C0
80
ENDCHAR
STARTCHAR LATIN_SMALL_LETTER_Y_WITH_DIAERESIS
ENCODING 255
SWIDTH 500 0
DWIDTH 7 0
BBX 5 7 1 3
BITMAP
50
00
88
50
20
20
20
ENDCHAR
STARTCHAR LATIN_CAPITAL_LIGATURE_OE
ENCODING 338
SWIDTH 500 0
DWIDTH 7 0
BBX 5 5 1 3
BITMAP
78
A0
B8
A0
78
ENDCHAR
STARTCHAR LATIN_SMALL_LIGATURE_OE
ENCODING 339
SWIDTH 500 0
DWIDTH 7 0
BBX 5 5 1 3
BITMAP
78
A0
B8
A0
78
ENDCHAR
STARTCHAR LATIN_CAPITAL_LETTER_S_WITH_CARON
ENCODING 352
SWIDTH 500 0
DWIDTH 6 0
BBX 4 8 1 3
BITMAP
90
60
00
70
80
60
10
E0
ENDCHAR
STARTCHAR LATIN_SMALL_LETTER_S_WITH_CARON
ENCODING 353
SWIDTH 500 0
DWIDTH 6 0
BBX 4 8 1 3
BITMAP
90
60
00
70
80
60
10
E0
ENDCHAR
STARTCHAR LATIN_CAPITAL_LETTER_Y_WITH_DIAERESIS
ENCODING 376
SWIDTH 500 0
DWIDTH 7 0
BBX 5 7 1 3
BITMAP
50
00
88
50
20
20
20
ENDCHAR
STARTCHAR LATIN_CAPITAL_LETTER_Z_WITH_CARON
ENCODING 381
SWIDTH 500 0
DWIDTH 5 0
BBX 3 8 1 3
BITMAP
A0
40
00
E0
20
40
80
E0
ENDCHAR
STARTCHAR LATIN_SMALL_LETTER_Z_WITH_CARON
ENCODING 382
SWIDTH 500 0
DWIDTH 5 0
BBX 3 8 1 3
BITMAP
A0
40
00
E0
20
40
80
E0
ENDCHAR
STARTCHAR GREEK_SMALL_LETTER_MU
ENCODING 956
SWIDTH 500 0
DWIDTH 6 0
BBX 5 8 0 1
BITMAP
88
88
88
88
98
68
80
80
ENDCHAR
STARTCHAR EN_DASH
ENCODING 8211
SWIDTH 500 0
DWIDTH 6 0
BBX 4 1 1 5
BITMAP
F0
ENDCHAR
STARTCHAR EM_DASH
ENCODING 8212
SWIDTH 500 0
DWIDTH 8 0
BBX 6 1 1 5
BITMAP
FC
ENDCHAR
STARTCHAR LEFT_SINGLE_QUOTATION_MARK
ENCODING 8216
SWIDTH 500 0
DWIDTH 3 0
BBX 1 2 1 6
BITMAP
80
80
ENDCHAR
STARTCHAR RIGHT_SINGLE_QUOTATION_MARK
ENCODING 8217
SWIDTH 500 0
DWIDTH 3 0
BBX 1 2 1 6
BITMAP
80
80
ENDCHAR
STARTCHAR LEFT_DOUBLE_QUOTATION_MARK
ENCODING 8220
SWIDTH 500 0
DWIDTH 5 0
BBX 3 2 1 6
BITMAP
A0
A0
ENDCHAR
STARTCHAR RIGHT_DOUBLE_QUOTATION_MARK
ENCODING 8221
SWIDTH 500 0
DWIDTH 5 0
BBX 3 2 1 6
BITMAP
A0
A0
ENDCHAR
STARTCHAR BULLET
ENCODING 8226
SWIDTH 500 0
DWIDTH 3 0
BBX 1 1 1 5
BITMAP
80
ENDCHAR
STARTCHAR HORIZONTAL_ELLIPSIS
ENCODING 8230
SWIDTH 500 0
DWIDTH 7 0
BBX 5 1 1 3
BITMAP
A8
ENDCHAR
STARTCHAR EURO_SIGN
ENCODING 8364
SWIDTH 500 0
DWIDTH 7 0
BBX 5 5 1 3
BITMAP
30
48
E0
48
30
ENDCHAR
ENDFONT
