STARTFONT 2.1
FONT -pixbar-tiny5-large-medium-r-normal--16-*-*-*-p-*-iso10646-1
SIZE 16 75 75
FONTBOUNDINGBOX 15 16 0 0
STARTPROPERTIES 8
FOUNDRY "Pixbar"
FAMILY_NAME "Tiny5 Large"
FONT_NAME "Tiny5 Large"
COPYRIGHT "Copyright 2022-2024 The Tiny5 Project Authors; generated TC002 bitmap adaptation under SIL OFL 1.1"
PIXEL_SIZE 16
FONT_ASCENT 16
FONT_DESCENT 0
CHARSET_REGISTRY "ISO10646"
ENDPROPERTIES
CHARS 506
STARTCHAR SPACE
ENCODING 32
SWIDTH 500 0
DWIDTH 3 0
BBX 1 1 0 0
BITMAP
00
ENDCHAR
STARTCHAR EXCLAMATION_MARK
ENCODING 33
SWIDTH 500 0
DWIDTH 3 0
BBX 2 9 0 4
BITMAP
C0
C0
C0
C0
C0
00
00
C0
C0
ENDCHAR
STARTCHAR QUOTATION_MARK
ENCODING 34
SWIDTH 500 0
DWIDTH 7 0
BBX 5 4 0 9
BITMAP
D8
D8
D8
D8
ENDCHAR
STARTCHAR NUMBER_SIGN
ENCODING 35
SWIDTH 500 0
DWIDTH 10 0
BBX 8 9 0 4
BITMAP
66
66
FF
FF
66
FF
FF
66
66
ENDCHAR
STARTCHAR DOLLAR_SIGN
ENCODING 36
SWIDTH 500 0
DWIDTH 7 0
BBX 5 11 0 2
BITMAP
60
60
78
78
E0
E0
18
F0
E0
60
60
ENDCHAR
STARTCHAR PERCENT_SIGN
ENCODING 37
SWIDTH 500 0
DWIDTH 8 0
BBX 7 7 0 6
BITMAP
C6
C6
18
18
60
C6
C6
ENDCHAR
STARTCHAR AMPERSAND
ENCODING 38
SWIDTH 500 0
DWIDTH 8 0
BBX 7 9 0 4
BITMAP
60
20
D8
D8
60
D8
D8
26
66
ENDCHAR
STARTCHAR APOSTROPHE
ENCODING 39
SWIDTH 500 0
DWIDTH 3 0
BBX 2 4 0 9
BITMAP
C0
C0
C0
C0
ENDCHAR
STARTCHAR LEFT_PARENTHESIS
ENCODING 40
SWIDTH 500 0
DWIDTH 5 0
BBX 3 9 0 4
BITMAP
60
20
C0
C0
C0
C0
C0
20
60
ENDCHAR
STARTCHAR RIGHT_PARENTHESIS
ENCODING 41
SWIDTH 500 0
DWIDTH 5 0
BBX 3 9 0 4
BITMAP
C0
C0
60
60
60
60
60
C0
C0
ENDCHAR
STARTCHAR ASTERISK
ENCODING 42
SWIDTH 500 0
DWIDTH 7 0
BBX 5 7 0 6
BITMAP
60
60
F8
F8
60
D8
D8
ENDCHAR
STARTCHAR PLUS_SIGN
ENCODING 43
SWIDTH 500 0
DWIDTH 7 0
BBX 5 5 0 6
BITMAP
60
F8
F8
60
60
ENDCHAR
STARTCHAR COMMA
ENCODING 44
SWIDTH 500 0
DWIDTH 5 0
BBX 3 4 0 2
BITMAP
20
60
C0
C0
ENDCHAR
STARTCHAR HYPHEN-MINUS
ENCODING 45
SWIDTH 500 0
DWIDTH 7 0
BBX 5 2 0 7
BITMAP
F8
F8
ENDCHAR
STARTCHAR FULL_STOP
ENCODING 46
SWIDTH 500 0
DWIDTH 3 0
BBX 2 2 0 4
BITMAP
C0
C0
ENDCHAR
STARTCHAR SOLIDUS
ENCODING 47
SWIDTH 500 0
DWIDTH 5 0
BBX 3 9 0 4
BITMAP
60
60
60
60
C0
C0
C0
C0
C0
ENDCHAR
STARTCHAR DIGIT_ZERO
ENCODING 48
SWIDTH 500 0
DWIDTH 7 0
BBX 5 9 0 4
BITMAP
60
20
D8
D8
D8
D8
D8
20
60
ENDCHAR
STARTCHAR DIGIT_ONE
ENCODING 49
SWIDTH 500 0
DWIDTH 7 0
BBX 3 9 0 4
BITMAP
60
60
E0
E0
60
60
60
60
60
ENDCHAR
STARTCHAR DIGIT_TWO
ENCODING 50
SWIDTH 500 0
DWIDTH 7 0
BBX 5 9 0 4
BITMAP
E0
E0
18
18
60
E0
C0
F8
F8
ENDCHAR
STARTCHAR DIGIT_THREE
ENCODING 51
SWIDTH 500 0
DWIDTH 7 0
BBX 5 9 0 4
BITMAP
E0
E0
18
18
60
18
18
E0
E0
ENDCHAR
STARTCHAR DIGIT_FOUR
ENCODING 52
SWIDTH 500 0
DWIDTH 7 0
BBX 5 9 0 4
BITMAP
18
18
78
78
D8
F8
F8
18
18
ENDCHAR
STARTCHAR DIGIT_FIVE
ENCODING 53
SWIDTH 500 0
DWIDTH 7 0
BBX 5 9 0 4
BITMAP
F8
F8
C0
C0
E0
18
18
E0
E0
ENDCHAR
STARTCHAR DIGIT_SIX
ENCODING 54
SWIDTH 500 0
DWIDTH 7 0
BBX 5 9 0 4
BITMAP
78
38
C0
C0
E0
D8
D8
20
60
ENDCHAR
STARTCHAR DIGIT_SEVEN
ENCODING 55
SWIDTH 500 0
DWIDTH 7 0
BBX 5 9 0 4
BITMAP
F8
F8
18
18
60
60
60
60
60
ENDCHAR
STARTCHAR DIGIT_EIGHT
ENCODING 56
SWIDTH 500 0
DWIDTH 7 0
BBX 5 9 0 4
BITMAP
60
20
D8
D8
60
D8
D8
20
60
ENDCHAR
STARTCHAR DIGIT_NINE
ENCODING 57
SWIDTH 500 0
DWIDTH 7 0
BBX 5 9 0 4
BITMAP
60
20
D8
D8
78
38
18
E0
E0
ENDCHAR
STARTCHAR COLON
ENCODING 58
SWIDTH 500 0
DWIDTH 3 0
BBX 2 7 0 4
BITMAP
C0
C0
00
00
00
C0
C0
ENDCHAR
STARTCHAR SEMICOLON
ENCODING 59
SWIDTH 500 0
DWIDTH 5 0
BBX 3 9 0 2
BITMAP
60
20
00
00
00
20
60
C0
C0
ENDCHAR
STARTCHAR LESS-THAN_SIGN
ENCODING 60
SWIDTH 500 0
DWIDTH 7 0
BBX 5 9 0 4
BITMAP
18
18
60
20
C0
60
60
18
18
ENDCHAR
STARTCHAR EQUALS_SIGN
ENCODING 61
SWIDTH 500 0
DWIDTH 7 0
BBX 5 5 0 6
BITMAP
F8
F8
00
F8
F8
ENDCHAR
STARTCHAR GREATER-THAN_SIGN
ENCODING 62
SWIDTH 500 0
DWIDTH 7 0
BBX 5 9 0 4
BITMAP
C0
C0
60
20
18
30
60
C0
C0
ENDCHAR
STARTCHAR QUESTION_MARK
ENCODING 63
SWIDTH 500 0
DWIDTH 7 0
BBX 5 9 0 4
BITMAP
E0
E0
18
18
60
20
00
20
60
ENDCHAR
STARTCHAR COMMERCIAL_AT
ENCODING 64
SWIDTH 500 0
DWIDTH 8 0
BBX 7 9 0 4
BITMAP
78
38
C6
C6
DE
DE
C0
38
78
ENDCHAR
STARTCHAR LATIN_CAPITAL_LETTER_A
ENCODING 65
SWIDTH 500 0
DWIDTH 8 0
BBX 7 9 0 4
BITMAP
78
38
C6
C6
FE
FE
C6
C6
C6
ENDCHAR
STARTCHAR LATIN_CAPITAL_LETTER_B
ENCODING 66
SWIDTH 500 0
DWIDTH 8 0
BBX 7 9 0 4
BITMAP
F8
F8
C6
C6
F8
C6
C6
F8
F8
ENDCHAR
STARTCHAR LATIN_CAPITAL_LETTER_C
ENCODING 67
SWIDTH 500 0
DWIDTH 8 0
BBX 7 9 0 4
BITMAP
78
38
C6
C6
C0
C6
C6
38
78
ENDCHAR
STARTCHAR LATIN_CAPITAL_LETTER_D
ENCODING 68
SWIDTH 500 0
DWIDTH 8 0
BBX 7 9 0 4
BITMAP
F8
F8
C6
C6
C6
C6
C6
F8
F8
ENDCHAR
STARTCHAR LATIN_CAPITAL_LETTER_E
ENCODING 69
SWIDTH 500 0
DWIDTH 8 0
BBX 7 9 0 4
BITMAP
FE
FE
C0
C0
F8
F8
C0
FE
FE
ENDCHAR
STARTCHAR LATIN_CAPITAL_LETTER_F
ENCODING 70
SWIDTH 500 0
DWIDTH 8 0
BBX 7 9 0 4
BITMAP
FE
FE
C0
C0
F8
F8
C0
C0
C0
ENDCHAR
STARTCHAR LATIN_CAPITAL_LETTER_G
ENCODING 71
SWIDTH 500 0
DWIDTH 8 0
BBX 7 9 0 4
BITMAP
7E
3E
C0
C0
DE
DE
C6
3E
7E
ENDCHAR
STARTCHAR LATIN_CAPITAL_LETTER_H
ENCODING 72
SWIDTH 500 0
DWIDTH 8 0
BBX 7 9 0 4
BITMAP
C6
C6
C6
C6
FE
FE
C6
C6
C6
ENDCHAR
STARTCHAR LATIN_CAPITAL_LETTER_I
ENCODING 73
SWIDTH 500 0
DWIDTH 3 0
BBX 2 9 0 4
BITMAP
C0
C0
C0
C0
C0
C0
C0
C0
C0
ENDCHAR
STARTCHAR LATIN_CAPITAL_LETTER_J
ENCODING 74
SWIDTH 500 0
DWIDTH 7 0
BBX 5 9 0 4
BITMAP
18
18
18
18
18
D8
D8
20
60
ENDCHAR
STARTCHAR LATIN_CAPITAL_LETTER_K
ENCODING 75
SWIDTH 500 0
DWIDTH 8 0
BBX 7 9 0 4
BITMAP
C6
C6
D8
D8
E0
D8
D8
C6
C6
ENDCHAR
STARTCHAR LATIN_CAPITAL_LETTER_L
ENCODING 76
SWIDTH 500 0
DWIDTH 7 0
BBX 5 9 0 4
BITMAP
C0
C0
C0
C0
C0
C0
C0
F8
F8
ENDCHAR
STARTCHAR LATIN_CAPITAL_LETTER_M
ENCODING 77
SWIDTH 500 0
DWIDTH 10 0
BBX 8 9 0 4
BITMAP
C3
C3
E7
E7
DB
DB
C3
C3
C3
ENDCHAR
STARTCHAR LATIN_CAPITAL_LETTER_N
ENCODING 78
SWIDTH 500 0
DWIDTH 8 0
BBX 7 9 0 4
BITMAP
C6
C6
E6
E6
DE
DE
C6
C6
C6
ENDCHAR
STARTCHAR LATIN_CAPITAL_LETTER_O
ENCODING 79
SWIDTH 500 0
DWIDTH 8 0
BBX 7 9 0 4
BITMAP
78
38
C6
C6
C6
C6
C6
38
78
ENDCHAR
STARTCHAR LATIN_CAPITAL_LETTER_P
ENCODING 80
SWIDTH 500 0
DWIDTH 8 0
BBX 7 9 0 4
BITMAP
F8
F8
C6
C6
F8
F8
C0
C0
C0
ENDCHAR
STARTCHAR LATIN_CAPITAL_LETTER_Q
ENCODING 81
SWIDTH 500 0
DWIDTH 8 0
BBX 7 9 0 4
BITMAP
78
38
C6
C6
C6
DE
D8
26
66
ENDCHAR
STARTCHAR LATIN_CAPITAL_LETTER_R
ENCODING 82
SWIDTH 500 0
DWIDTH 8 0
BBX 7 9 0 4
BITMAP
F8
F8
C6
C6
F8
F8
C6
C6
C6
ENDCHAR
STARTCHAR LATIN_CAPITAL_LETTER_S
ENCODING 83
SWIDTH 500 0
DWIDTH 8 0
BBX 7 9 0 4
BITMAP
7E
3E
C0
C0
78
06
06
F8
F8
ENDCHAR
STARTCHAR LATIN_CAPITAL_LETTER_T
ENCODING 84
SWIDTH 500 0
DWIDTH 7 0
BBX 5 9 0 4
BITMAP
F8
F8
60
60
60
60
60
60
60
ENDCHAR
STARTCHAR LATIN_CAPITAL_LETTER_U
ENCODING 85
SWIDTH 500 0
DWIDTH 8 0
BBX 7 9 0 4
BITMAP
C6
C6
C6
C6
C6
C6
C6
38
78
ENDCHAR
STARTCHAR LATIN_CAPITAL_LETTER_V
ENCODING 86
SWIDTH 500 0
DWIDTH 7 0
BBX 5 9 0 4
BITMAP
D8
D8
D8
D8
D8
00
60
60
60
ENDCHAR
STARTCHAR LATIN_CAPITAL_LETTER_W
ENCODING 87
SWIDTH 500 0
DWIDTH 10 0
BBX 8 9 0 4
BITMAP
DB
DB
DB
DB
DB
00
66
66
66
ENDCHAR
STARTCHAR LATIN_CAPITAL_LETTER_X
ENCODING 88
SWIDTH 500 0
DWIDTH 7 0
BBX 5 9 0 4
BITMAP
D8
D8
D8
00
60
20
D8
D8
D8
ENDCHAR
STARTCHAR LATIN_CAPITAL_LETTER_Y
ENCODING 89
SWIDTH 500 0
DWIDTH 7 0
BBX 5 9 0 4
BITMAP
D8
D8
D8
D8
60
60
60
60
60
ENDCHAR
STARTCHAR LATIN_CAPITAL_LETTER_Z
ENCODING 90
SWIDTH 500 0
DWIDTH 7 0
BBX 5 9 0 4
BITMAP
F8
F8
18
18
60
E0
C0
F8
F8
ENDCHAR
STARTCHAR LEFT_SQUARE_BRACKET
ENCODING 91
SWIDTH 500 0
DWIDTH 5 0
BBX 3 9 0 4
BITMAP
E0
E0
C0
C0
C0
C0
C0
E0
E0
ENDCHAR
STARTCHAR REVERSE_SOLIDUS
ENCODING 92
SWIDTH 500 0
DWIDTH 5 0
BBX 3 9 0 4
BITMAP
C0
C0
C0
C0
60
60
60
60
60
ENDCHAR
STARTCHAR RIGHT_SQUARE_BRACKET
ENCODING 93
SWIDTH 500 0
DWIDTH 5 0
BBX 3 9 0 4
BITMAP
E0
E0
60
60
60
60
60
E0
E0
ENDCHAR
STARTCHAR CIRCUMFLEX_ACCENT
ENCODING 94
SWIDTH 500 0
DWIDTH 7 0
BBX 5 4 0 9
BITMAP
20
60
D8
D8
ENDCHAR
STARTCHAR LOW_LINE
ENCODING 95
SWIDTH 500 0
DWIDTH 7 0
BBX 5 2 0 4
BITMAP
F8
F8
ENDCHAR
STARTCHAR GRAVE_ACCENT
ENCODING 96
SWIDTH 500 0
DWIDTH 5 0
BBX 3 4 0 9
BITMAP
C0
C0
20
60
ENDCHAR
STARTCHAR LATIN_SMALL_LETTER_A
ENCODING 97
SWIDTH 500 0
DWIDTH 7 0
BBX 5 7 0 4
BITMAP
78
38
D8
D8
D8
38
78
ENDCHAR
STARTCHAR LATIN_SMALL_LETTER_B
ENCODING 98
SWIDTH 500 0
DWIDTH 7 0
BBX 5 9 0 4
BITMAP
C0
C0
E0
E0
D8
D8
D8
E0
E0
ENDCHAR
STARTCHAR LATIN_SMALL_LETTER_C
ENCODING 99
SWIDTH 500 0
DWIDTH 7 0
BBX 5 7 0 4
BITMAP
78
38
C0
C0
C0
38
78
ENDCHAR
STARTCHAR LATIN_SMALL_LETTER_D
ENCODING 100
SWIDTH 500 0
DWIDTH 7 0
BBX 5 9 0 4
BITMAP
18
18
78
38
D8
D8
D8
38
78
ENDCHAR
STARTCHAR LATIN_SMALL_LETTER_E
ENCODING 101
SWIDTH 500 0
DWIDTH 7 0
BBX 5 7 0 4
BITMAP
60
60
F8
F8
C0
38
78
ENDCHAR
STARTCHAR LATIN_SMALL_LETTER_F
ENCODING 102
SWIDTH 500 0
DWIDTH 5 0
BBX 3 9 0 4
BITMAP
60
20
C0
C0
E0
E0
C0
C0
C0
ENDCHAR
STARTCHAR LATIN_SMALL_LETTER_G
ENCODING 103
SWIDTH 500 0
DWIDTH 7 0
BBX 5 9 0 2
BITMAP
78
38
D8
D8
D8
78
78
E0
E0
ENDCHAR
STARTCHAR LATIN_SMALL_LETTER_H
ENCODING 104
SWIDTH 500 0
DWIDTH 7 0
BBX 5 9 0 4
BITMAP
C0
C0
E0
E0
D8
D8
D8
D8
D8
ENDCHAR
STARTCHAR LATIN_SMALL_LETTER_I
ENCODING 105
SWIDTH 500 0
DWIDTH 3 0
BBX 2 11 0 4
BITMAP
C0
C0
00
00
C0
C0
C0
C0
C0
C0
C0
ENDCHAR
STARTCHAR LATIN_SMALL_LETTER_J
ENCODING 106
SWIDTH 500 0
DWIDTH 3 0
BBX 2 13 0 2
BITMAP
C0
C0
00
00
C0
C0
C0
C0
C0
C0
C0
C0
C0
ENDCHAR
STARTCHAR LATIN_SMALL_LETTER_K
ENCODING 107
SWIDTH 500 0
DWIDTH 7 0
BBX 5 9 0 4
BITMAP
C0
C0
D8
D8
E0
E0
D8
D8
D8
ENDCHAR
STARTCHAR LATIN_SMALL_LETTER_L
ENCODING 108
SWIDTH 500 0
DWIDTH 3 0
BBX 2 9 0 4
BITMAP
C0
C0
C0
C0
C0
C0
C0
C0
C0
ENDCHAR
STARTCHAR LATIN_SMALL_LETTER_M
ENCODING 109
SWIDTH 500 0
DWIDTH 10 0
BBX 8 7 0 4
BITMAP
FE
FE
DB
DB
DB
DB
DB
ENDCHAR
STARTCHAR LATIN_SMALL_LETTER_N
ENCODING 110
SWIDTH 500 0
DWIDTH 7 0
BBX 5 7 0 4
BITMAP
E0
E0
D8
D8
D8
D8
D8
ENDCHAR
STARTCHAR LATIN_SMALL_LETTER_O
ENCODING 111
SWIDTH 500 0
DWIDTH 7 0
BBX 5 7 0 4
BITMAP
60
20
D8
D8
D8
20
60
ENDCHAR
STARTCHAR LATIN_SMALL_LETTER_P
ENCODING 112
SWIDTH 500 0
DWIDTH 7 0
BBX 5 9 0 2
BITMAP
E0
E0
D8
D8
D8
E0
E0
C0
C0
ENDCHAR
STARTCHAR LATIN_SMALL_LETTER_Q
ENCODING 113
SWIDTH 500 0
DWIDTH 7 0
BBX 5 9 0 2
BITMAP
78
38
D8
D8
D8
38
78
18
18
ENDCHAR
STARTCHAR LATIN_SMALL_LETTER_R
ENCODING 114
SWIDTH 500 0
DWIDTH 5 0
BBX 3 7 0 4
BITMAP
E0
E0
C0
C0
C0
C0
C0
ENDCHAR
STARTCHAR LATIN_SMALL_LETTER_S
ENCODING 115
SWIDTH 500 0
DWIDTH 7 0
BBX 5 7 0 4
BITMAP
78
78
E0
18
18
E0
E0
ENDCHAR
STARTCHAR LATIN_SMALL_LETTER_T
ENCODING 116
SWIDTH 500 0
DWIDTH 5 0
BBX 3 9 0 4
BITMAP
C0
C0
E0
E0
C0
C0
C0
20
60
ENDCHAR
STARTCHAR LATIN_SMALL_LETTER_U
ENCODING 117
SWIDTH 500 0
DWIDTH 7 0
BBX 5 7 0 4
BITMAP
D8
D8
D8
D8
D8
38
78
ENDCHAR
STARTCHAR LATIN_SMALL_LETTER_V
ENCODING 118
SWIDTH 500 0
DWIDTH 7 0
BBX 5 7 0 4
BITMAP
D8
D8
D8
00
60
60
60
ENDCHAR
STARTCHAR LATIN_SMALL_LETTER_W
ENCODING 119
SWIDTH 500 0
DWIDTH 10 0
BBX 8 7 0 4
BITMAP
DB
DB
DB
00
66
66
66
ENDCHAR
STARTCHAR LATIN_SMALL_LETTER_X
ENCODING 120
SWIDTH 500 0
DWIDTH 7 0
BBX 5 7 0 4
BITMAP
D8
D8
60
60
60
D8
D8
ENDCHAR
STARTCHAR LATIN_SMALL_LETTER_Y
ENCODING 121
SWIDTH 500 0
DWIDTH 7 0
BBX 5 9 0 2
BITMAP
D8
D8
D8
D8
D8
20
60
C0
C0
ENDCHAR
STARTCHAR LATIN_SMALL_LETTER_Z
ENCODING 122
SWIDTH 500 0
DWIDTH 7 0
BBX 5 7 0 4
BITMAP
F8
F8
60
E0
C0
F8
F8
ENDCHAR
STARTCHAR LEFT_CURLY_BRACKET
ENCODING 123
SWIDTH 500 0
DWIDTH 7 0
BBX 5 9 0 4
BITMAP
78
78
60
60
C0
E0
60
78
78
ENDCHAR
STARTCHAR VERTICAL_LINE
ENCODING 124
SWIDTH 500 0
DWIDTH 3 0
BBX 2 9 0 4
BITMAP
C0
C0
C0
C0
C0
C0
C0
C0
C0
ENDCHAR
STARTCHAR RIGHT_CURLY_BRACKET
ENCODING 125
SWIDTH 500 0
DWIDTH 7 0
BBX 5 9 0 4
BITMAP
E0
E0
60
60
18
38
60
E0
E0
ENDCHAR
STARTCHAR TILDE
ENCODING 126
SWIDTH 500 0
DWIDTH 5 0
BBX 3 2 0 7
BITMAP
E0
E0
ENDCHAR
STARTCHAR NO-BREAK_SPACE
ENCODING 160
SWIDTH 500 0
DWIDTH 3 0
BBX 1 1 0 0
BITMAP
00
ENDCHAR
STARTCHAR INVERTED_EXCLAMATION_MARK
ENCODING 161
SWIDTH 500 0
DWIDTH 3 0
BBX 2 9 0 4
BITMAP
C0
C0
00
00
C0
C0
C0
C0
C0
ENDCHAR
STARTCHAR CENT_SIGN
ENCODING 162
SWIDTH 500 0
DWIDTH 7 0
BBX 5 9 0 4
BITMAP
60
60
78
38
C0
78
78
60
60
ENDCHAR
STARTCHAR POUND_SIGN
ENCODING 163
SWIDTH 500 0
DWIDTH 8 0
BBX 7 9 0 4
BITMAP
18
18
66
66
F8
F8
60
FE
FE
ENDCHAR
STARTCHAR CURRENCY_SIGN
ENCODING 164
SWIDTH 500 0
DWIDTH 8 0
BBX 7 7 0 4
BITMAP
C6
C6
78
78
78
C6
C6
ENDCHAR
STARTCHAR YEN_SIGN
ENCODING 165
SWIDTH 500 0
DWIDTH 7 0
BBX 5 9 0 4
BITMAP
D8
D8
D8
D8
60
F8
F8
60
60
ENDCHAR
STARTCHAR BROKEN_BAR
ENCODING 166
SWIDTH 500 0
DWIDTH 3 0
BBX 2 9 0 4
BITMAP
C0
C0
C0
00
00
00
C0
C0
C0
ENDCHAR
STARTCHAR SECTION_SIGN
ENCODING 167
SWIDTH 500 0
DWIDTH 7 0
BBX 5 9 0 4
BITMAP
78
78
E0
E0
D8
D8
78
F0
E0
ENDCHAR
STARTCHAR DIAERESIS
ENCODING 168
SWIDTH 500 0
DWIDTH 7 0
BBX 5 2 0 11
BITMAP
D8
D8
ENDCHAR
STARTCHAR COPYRIGHT_SIGN
ENCODING 169
SWIDTH 500 0
DWIDTH 7 0
BBX 5 7 0 6
BITMAP
78
38
C0
C0
C0
78
78
ENDCHAR
STARTCHAR FEMININE_ORDINAL_INDICATOR
ENCODING 170
SWIDTH 500 0
DWIDTH 7 0
BBX 5 6 0 6
BITMAP
78
F8
D8
D8
78
78
ENDCHAR
STARTCHAR LEFT-POINTING_DOUBLE_ANGLE_QUOTATION_MARK
ENCODING 171
SWIDTH 500 0
DWIDTH 10 0
BBX 8 5 0 6
BITMAP
63
23
C6
63
63
ENDCHAR
STARTCHAR NOT_SIGN
ENCODING 172
SWIDTH 500 0
DWIDTH 7 0
BBX 5 4 0 5
BITMAP
F8
F8
18
08
ENDCHAR
STARTCHAR REGISTERED_SIGN
ENCODING 174
SWIDTH 500 0
DWIDTH 7 0
BBX 5 7 0 6
BITMAP
E0
E0
D8
F0
E0
D8
D8
ENDCHAR
STARTCHAR MACRON
ENCODING 175
SWIDTH 500 0
DWIDTH 7 0
BBX 5 2 0 11
BITMAP
F8
F8
ENDCHAR
STARTCHAR DEGREE_SIGN
ENCODING 176
SWIDTH 500 0
DWIDTH 4 0
BBX 3 3 0 11
BITMAP
E0
A0
E0
ENDCHAR
STARTCHAR PLUS-MINUS_SIGN
ENCODING 177
SWIDTH 500 0
DWIDTH 7 0
BBX 5 9 0 4
BITMAP
60
60
F8
F8
60
00
00
F8
F8
ENDCHAR
STARTCHAR SUPERSCRIPT_TWO
ENCODING 178
SWIDTH 500 0
DWIDTH 4 0
BBX 3 5 0 10
BITMAP
E0
20
40
80
E0
ENDCHAR
STARTCHAR SUPERSCRIPT_THREE
ENCODING 179
SWIDTH 500 0
DWIDTH 4 0
BBX 3 5 0 10
BITMAP
E0
20
60
20
E0
ENDCHAR
STARTCHAR ACUTE_ACCENT
ENCODING 180
SWIDTH 500 0
DWIDTH 5 0
BBX 3 4 0 9
BITMAP
20
60
C0
C0
ENDCHAR
STARTCHAR MICRO_SIGN
ENCODING 181
SWIDTH 500 0
DWIDTH 6 0
BBX 5 8 0 1
BITMAP
88
88
88
88
98
68
80
80
ENDCHAR
STARTCHAR PILCROW_SIGN
ENCODING 182
SWIDTH 500 0
DWIDTH 7 0
BBX 5 9 0 4
BITMAP
78
78
F8
F8
78
18
18
18
18
ENDCHAR
STARTCHAR MIDDLE_DOT
ENCODING 183
SWIDTH 500 0
DWIDTH 3 0
BBX 2 2 0 7
BITMAP
C0
C0
ENDCHAR
STARTCHAR CEDILLA
ENCODING 184
SWIDTH 500 0
DWIDTH 3 0
BBX 2 2 0 4
BITMAP
C0
C0
ENDCHAR
STARTCHAR SUPERSCRIPT_ONE
ENCODING 185
SWIDTH 500 0
DWIDTH 5 0
BBX 3 6 0 6
BITMAP
60
E0
E0
60
60
60
ENDCHAR
STARTCHAR MASCULINE_ORDINAL_INDICATOR
ENCODING 186
SWIDTH 500 0
DWIDTH 7 0
BBX 5 6 0 6
BITMAP
60
F8
D8
D8
60
60
ENDCHAR
STARTCHAR RIGHT-POINTING_DOUBLE_ANGLE_QUOTATION_MARK
ENCODING 187
SWIDTH 500 0
DWIDTH 10 0
BBX 8 5 0 6
BITMAP
C6
C6
63
C6
C6
ENDCHAR
STARTCHAR VULGAR_FRACTION_ONE_QUARTER
ENCODING 188
SWIDTH 500 0
DWIDTH 15 0
BBX 13 8 0 4
BITMAP
6300
E318
E118
6638
66F8
66F8
0018
0018
ENDCHAR
STARTCHAR VULGAR_FRACTION_ONE_HALF
ENCODING 189
SWIDTH 500 0
DWIDTH 16 0
BBX 15 8 0 4
BITMAP
6300
E338
E338
6606
660C
6618
003E
003E
ENDCHAR
STARTCHAR VULGAR_FRACTION_THREE_QUARTERS
ENCODING 190
SWIDTH 500 0
DWIDTH 16 0
BBX 15 9 0 4
BITMAP
F8C0
F8C0
60C6
60C6
1B1E
F33E
E33E
0006
0006
ENDCHAR
STARTCHAR INVERTED_QUESTION_MARK
ENCODING 191
SWIDTH 500 0
DWIDTH 7 0
BBX 5 9 0 4
BITMAP
60
20
00
00
60
C0
C0
38
78
ENDCHAR
STARTCHAR LATIN_CAPITAL_LETTER_A_WITH_GRAVE
ENCODING 192
SWIDTH 500 0
DWIDTH 8 0
BBX 7 12 0 4
BITMAP
18
18
00
78
38
C6
C6
FE
FE
C6
C6
C6
ENDCHAR
STARTCHAR LATIN_CAPITAL_LETTER_A_WITH_ACUTE
ENCODING 193
SWIDTH 500 0
DWIDTH 8 0
BBX 7 12 0 4
BITMAP
20
60
00
78
38
C6
C6
FE
FE
C6
C6
C6
ENDCHAR
STARTCHAR LATIN_CAPITAL_LETTER_A_WITH_CIRCUMFLEX
ENCODING 194
SWIDTH 500 0
DWIDTH 8 0
BBX 7 12 0 4
BITMAP
C6
C6
00
78
38
C6
C6
FE
FE
C6
C6
C6
ENDCHAR
STARTCHAR LATIN_CAPITAL_LETTER_A_WITH_TILDE
ENCODING 195
SWIDTH 500 0
DWIDTH 8 0
BBX 7 12 0 4
BITMAP
38
78
00
78
38
C6
C6
FE
FE
C6
C6
C6
ENDCHAR
STARTCHAR LATIN_CAPITAL_LETTER_A_WITH_DIAERESIS
ENCODING 196
SWIDTH 500 0
DWIDTH 8 0
BBX 7 12 0 4
BITMAP
C6
C6
00
78
38
C6
C6
FE
FE
C6
C6
C6
ENDCHAR
STARTCHAR LATIN_CAPITAL_LETTER_A_WITH_RING_ABOVE
ENCODING 197
SWIDTH 500 0
DWIDTH 8 0
BBX 7 12 0 4
BITMAP
36
66
18
78
38
C6
C6
FE
FE
C6
C6
C6
ENDCHAR
STARTCHAR LATIN_CAPITAL_LETTER_AE
ENCODING 198
SWIDTH 500 0
DWIDTH 10 0
BBX 8 9 0 4
BITMAP
7F
3F
D8
D8
FF
FF
D8
DF
DF
ENDCHAR
STARTCHAR LATIN_CAPITAL_LETTER_C_WITH_CEDILLA
ENCODING 199
SWIDTH 500 0
DWIDTH 8 0
BBX 7 11 0 2
BITMAP
78
38
C6
C6
C0
C6
C6
38
78
18
18
ENDCHAR
STARTCHAR LATIN_CAPITAL_LETTER_E_WITH_GRAVE
ENCODING 200
SWIDTH 500 0
DWIDTH 8 0
BBX 7 12 0 4
BITMAP
18
18
00
FE
FE
C0
C0
F8
F8
C0
FE
FE
ENDCHAR
STARTCHAR LATIN_CAPITAL_LETTER_E_WITH_ACUTE
ENCODING 201
SWIDTH 500 0
DWIDTH 8 0
BBX 7 12 0 4
BITMAP
20
60
00
FE
FE
C0
C0
F8
F8
C0
FE
FE
ENDCHAR
STARTCHAR LATIN_CAPITAL_LETTER_E_WITH_CIRCUMFLEX
ENCODING 202
SWIDTH 500 0
DWIDTH 8 0
BBX 7 12 0 4
BITMAP
C6
C6
00
FE
FE
C0
C0
F8
F8
C0
FE
FE
ENDCHAR
STARTCHAR LATIN_CAPITAL_LETTER_E_WITH_DIAERESIS
ENCODING 203
SWIDTH 500 0
DWIDTH 8 0
BBX 7 12 0 4
BITMAP
C6
C6
00
FE
FE
C0
C0
F8
F8
C0
FE
FE
ENDCHAR
STARTCHAR LATIN_CAPITAL_LETTER_I_WITH_GRAVE
ENCODING 204
SWIDTH 500 0
DWIDTH 3 0
BBX 2 12 0 4
BITMAP
C0
C0
00
C0
C0
C0
C0
C0
C0
C0
C0
C0
ENDCHAR
STARTCHAR LATIN_CAPITAL_LETTER_I_WITH_ACUTE
ENCODING 205
SWIDTH 500 0
DWIDTH 3 0
BBX 2 12 0 4
BITMAP
C0
C0
00
C0
C0
C0
C0
C0
C0
C0
C0
C0
ENDCHAR
STARTCHAR LATIN_CAPITAL_LETTER_I_WITH_CIRCUMFLEX
ENCODING 206
SWIDTH 500 0
DWIDTH 4 0
BBX 5 12 -2 4
BITMAP
C8
D8
00
30
30
30
30
30
30
30
30
30
ENDCHAR
STARTCHAR LATIN_CAPITAL_LETTER_I_WITH_DIAERESIS
ENCODING 207
SWIDTH 500 0
DWIDTH 4 0
BBX 5 12 -2 4
BITMAP
C8
D8
00
30
30
30
30
30
30
30
30
30
ENDCHAR
STARTCHAR LATIN_CAPITAL_LETTER_ETH
ENCODING 208
SWIDTH 500 0
DWIDTH 8 0
BBX 7 9 0 4
BITMAP
F8
F8
C6
C6
E6
E6
C6
F8
F8
ENDCHAR
STARTCHAR LATIN_CAPITAL_LETTER_N_WITH_TILDE
ENCODING 209
SWIDTH 500 0
DWIDTH 8 0
BBX 7 12 0 4
BITMAP
38
78
00
C6
C6
E6
E6
DE
DE
C6
C6
C6
ENDCHAR
STARTCHAR LATIN_CAPITAL_LETTER_O_WITH_GRAVE
ENCODING 210
SWIDTH 500 0
DWIDTH 8 0
BBX 7 12 0 4
BITMAP
18
18
00
78
38
C6
C6
C6
C6
C6
38
78
ENDCHAR
STARTCHAR LATIN_CAPITAL_LETTER_O_WITH_ACUTE
ENCODING 211
SWIDTH 500 0
DWIDTH 8 0
BBX 7 12 0 4
BITMAP
20
60
00
78
38
C6
C6
C6
C6
C6
38
78
ENDCHAR
STARTCHAR LATIN_CAPITAL_LETTER_O_WITH_CIRCUMFLEX
ENCODING 212
SWIDTH 500 0
DWIDTH 8 0
BBX 7 12 0 4
BITMAP
C6
C6
00
78
38
C6
C6
C6
C6
C6
38
78
ENDCHAR
STARTCHAR LATIN_CAPITAL_LETTER_O_WITH_TILDE
ENCODING 213
SWIDTH 500 0
DWIDTH 8 0
BBX 7 12 0 4
BITMAP
38
78
00
78
38
C6
C6
C6
C6
C6
38
78
ENDCHAR
STARTCHAR LATIN_CAPITAL_LETTER_O_WITH_DIAERESIS
ENCODING 214
SWIDTH 500 0
DWIDTH 8 0
BBX 7 12 0 4
BITMAP
C6
C6
00
78
38
C6
C6
C6
C6
C6
38
78
ENDCHAR
STARTCHAR MULTIPLICATION_SIGN
ENCODING 215
SWIDTH 500 0
DWIDTH 7 0
BBX 5 5 0 6
BITMAP
D8
D8
60
D8
D8
ENDCHAR
STARTCHAR LATIN_CAPITAL_LETTER_O_WITH_STROKE
ENCODING 216
SWIDTH 500 0
DWIDTH 8 0
BBX 7 9 0 4
BITMAP
78
38
DE
DE
E6
E6
C6
38
78
ENDCHAR
STARTCHAR LATIN_CAPITAL_LETTER_U_WITH_GRAVE
ENCODING 217
SWIDTH 500 0
DWIDTH 8 0
BBX 7 12 0 4
BITMAP
18
18
00
C6
C6
C6
C6
C6
C6
C6
38
78
ENDCHAR
STARTCHAR LATIN_CAPITAL_LETTER_U_WITH_ACUTE
ENCODING 218
SWIDTH 500 0
DWIDTH 8 0
BBX 7 12 0 4
BITMAP
20
60
00
C6
C6
C6
C6
C6
C6
C6
38
78
ENDCHAR
STARTCHAR LATIN_CAPITAL_LETTER_U_WITH_CIRCUMFLEX
ENCODING 219
SWIDTH 500 0
DWIDTH 8 0
BBX 7 12 0 4
BITMAP
C6
C6
00
C6
C6
C6
C6
C6
C6
C6
38
78
ENDCHAR
STARTCHAR LATIN_CAPITAL_LETTER_U_WITH_DIAERESIS
ENCODING 220
SWIDTH 500 0
DWIDTH 8 0
BBX 7 12 0 4
BITMAP
C6
C6
00
C6
C6
C6
C6
C6
C6
C6
38
78
ENDCHAR
STARTCHAR LATIN_CAPITAL_LETTER_Y_WITH_ACUTE
ENCODING 221
SWIDTH 500 0
DWIDTH 7 0
BBX 5 12 0 4
BITMAP
20
60
00
D8
D8
D8
D8
60
60
60
60
60
ENDCHAR
STARTCHAR LATIN_CAPITAL_LETTER_THORN
ENCODING 222
SWIDTH 500 0
DWIDTH 8 0
BBX 7 9 0 4
BITMAP
C0
C0
F8
F8
C6
F8
F8
C0
C0
ENDCHAR
STARTCHAR LATIN_SMALL_LETTER_SHARP_S
ENCODING 223
SWIDTH 500 0
DWIDTH 8 0
BBX 7 9 0 4
BITMAP
78
38
C6
C6
D8
C6
C6
D8
D8
ENDCHAR
STARTCHAR LATIN_SMALL_LETTER_A_WITH_GRAVE
ENCODING 224
SWIDTH 500 0
DWIDTH 7 0
BBX 5 12 0 4
BITMAP
C0
C0
20
60
00
78
38
D8
D8
D8
38
78
ENDCHAR
STARTCHAR LATIN_SMALL_LETTER_A_WITH_ACUTE
ENCODING 225
SWIDTH 500 0
DWIDTH 7 0
BBX 5 12 0 4
BITMAP
18
18
20
60
00
78
38
D8
D8
D8
38
78
ENDCHAR
STARTCHAR LATIN_SMALL_LETTER_A_WITH_CIRCUMFLEX
ENCODING 226
SWIDTH 500 0
DWIDTH 7 0
BBX 5 12 0 4
BITMAP
20
60
D8
D8
00
78
38
D8
D8
D8
38
78
ENDCHAR
STARTCHAR LATIN_SMALL_LETTER_A_WITH_TILDE
ENCODING 227
SWIDTH 500 0
DWIDTH 7 0
BBX 5 11 0 4
BITMAP
38
78
00
00
78
38
D8
D8
D8
38
78
ENDCHAR
STARTCHAR LATIN_SMALL_LETTER_A_WITH_DIAERESIS
ENCODING 228
SWIDTH 500 0
DWIDTH 7 0
BBX 5 11 0 4
BITMAP
D8
D8
00
00
78
38
D8
D8
D8
38
78
ENDCHAR
STARTCHAR LATIN_SMALL_LETTER_A_WITH_RING_ABOVE
ENCODING 229
SWIDTH 500 0
DWIDTH 7 0
BBX 5 11 0 4
BITMAP
60
D8
D8
20
78
38
D8
D8
D8
38
78
ENDCHAR
STARTCHAR LATIN_SMALL_LETTER_AE
ENCODING 230
SWIDTH 500 0
DWIDTH 10 0
BBX 8 7 0 4
BITMAP
7E
3E
DF
DF
D8
3F
7F
ENDCHAR
STARTCHAR LATIN_SMALL_LETTER_C_WITH_CEDILLA
ENCODING 231
SWIDTH 500 0
DWIDTH 7 0
BBX 5 9 0 2
BITMAP
78
38
C0
C0
C0
38
78
20
60
ENDCHAR
STARTCHAR LATIN_SMALL_LETTER_E_WITH_GRAVE
ENCODING 232
SWIDTH 500 0
DWIDTH 7 0
BBX 5 12 0 4
BITMAP
C0
C0
20
60
00
60
60
F8
F8
C0
38
78
ENDCHAR
STARTCHAR LATIN_SMALL_LETTER_E_WITH_ACUTE
ENCODING 233
SWIDTH 500 0
DWIDTH 7 0
BBX 5 12 0 4
BITMAP
18
18
20
60
00
60
60
F8
F8
C0
38
78
ENDCHAR
STARTCHAR LATIN_SMALL_LETTER_E_WITH_CIRCUMFLEX
ENCODING 234
SWIDTH 500 0
DWIDTH 7 0
BBX 5 12 0 4
BITMAP
20
60
D8
D8
00
60
60
F8
F8
C0
38
78
ENDCHAR
STARTCHAR LATIN_SMALL_LETTER_E_WITH_DIAERESIS
ENCODING 235
SWIDTH 500 0
DWIDTH 7 0
BBX 5 11 0 4
BITMAP
D8
D8
00
00
60
60
F8
F8
C0
38
78
ENDCHAR
STARTCHAR LATIN_SMALL_LETTER_I_WITH_GRAVE
ENCODING 236
SWIDTH 500 0
DWIDTH 3 0
BBX 4 12 -2 4
BITMAP
C0
C0
30
30
00
30
30
30
30
30
30
30
ENDCHAR
STARTCHAR LATIN_SMALL_LETTER_I_WITH_ACUTE
ENCODING 237
SWIDTH 500 0
DWIDTH 4 0
BBX 3 12 0 4
BITMAP
20
60
C0
C0
00
C0
C0
C0
C0
C0
C0
C0
ENDCHAR
STARTCHAR LATIN_SMALL_LETTER_I_WITH_CIRCUMFLEX
ENCODING 238
SWIDTH 500 0
DWIDTH 4 0
BBX 5 12 -2 4
BITMAP
30
30
C8
D8
00
30
30
30
30
30
30
30
ENDCHAR
STARTCHAR LATIN_SMALL_LETTER_I_WITH_DIAERESIS
ENCODING 239
SWIDTH 500 0
DWIDTH 4 0
BBX 5 11 -2 4
BITMAP
C8
D8
00
00
30
30
30
30
30
30
30
ENDCHAR
STARTCHAR LATIN_SMALL_LETTER_ETH
ENCODING 240
SWIDTH 500 0
DWIDTH 7 0
BBX 5 9 0 4
BITMAP
60
20
18
18
78
D8
D8
20
60
ENDCHAR
STARTCHAR LATIN_SMALL_LETTER_N_WITH_TILDE
ENCODING 241
SWIDTH 500 0
DWIDTH 7 0
BBX 5 11 0 4
BITMAP
E0
E0
00
00
E0
E0
D8
D8
D8
D8
D8
ENDCHAR
STARTCHAR LATIN_SMALL_LETTER_O_WITH_GRAVE
ENCODING 242
SWIDTH 500 0
DWIDTH 7 0
BBX 5 12 0 4
BITMAP
C0
C0
20
60
00
60
20
D8
D8
D8
20
60
ENDCHAR
STARTCHAR LATIN_SMALL_LETTER_O_WITH_ACUTE
ENCODING 243
SWIDTH 500 0
DWIDTH 7 0
BBX 5 12 0 4
BITMAP
18
18
20
60
00
60
20
D8
D8
D8
20
60
ENDCHAR
STARTCHAR LATIN_SMALL_LETTER_O_WITH_CIRCUMFLEX
ENCODING 244
SWIDTH 500 0
DWIDTH 7 0
BBX 5 12 0 4
BITMAP
20
60
D8
D8
00
60
20
D8
D8
D8
20
60
ENDCHAR
STARTCHAR LATIN_SMALL_LETTER_O_WITH_TILDE
ENCODING 245
SWIDTH 500 0
DWIDTH 7 0
BBX 5 11 0 4
BITMAP
38
78
00
00
60
20
D8
D8
D8
20
60
ENDCHAR
STARTCHAR LATIN_SMALL_LETTER_O_WITH_DIAERESIS
ENCODING 246
SWIDTH 500 0
DWIDTH 7 0
BBX 5 11 0 4
BITMAP
D8
D8
00
00
60
20
D8
D8
D8
20
60
ENDCHAR
STARTCHAR DIVISION_SIGN
ENCODING 247
SWIDTH 500 0
DWIDTH 7 0
BBX 5 9 0 4
BITMAP
60
20
00
00
F8
F8
00
20
60
ENDCHAR
STARTCHAR LATIN_SMALL_LETTER_O_WITH_STROKE
ENCODING 248
SWIDTH 500 0
DWIDTH 7 0
BBX 5 7 0 4
BITMAP
60
60
F8
F8
D8
70
60
ENDCHAR
STARTCHAR LATIN_SMALL_LETTER_U_WITH_GRAVE
ENCODING 249
SWIDTH 500 0
DWIDTH 7 0
BBX 5 12 0 4
BITMAP
C0
C0
20
60
00
D8
D8
D8
D8
D8
38
78
ENDCHAR
STARTCHAR LATIN_SMALL_LETTER_U_WITH_ACUTE
ENCODING 250
SWIDTH 500 0
DWIDTH 7 0
BBX 5 12 0 4
BITMAP
18
18
20
60
00
D8
D8
D8
D8
D8
38
78
ENDCHAR
STARTCHAR LATIN_SMALL_LETTER_U_WITH_CIRCUMFLEX
ENCODING 251
SWIDTH 500 0
DWIDTH 7 0
BBX 5 12 0 4
BITMAP
20
60
D8
D8
00
D8
D8
D8
D8
D8
38
78
ENDCHAR
STARTCHAR LATIN_SMALL_LETTER_U_WITH_DIAERESIS
ENCODING 252
SWIDTH 500 0
DWIDTH 7 0
BBX 5 11 0 4
BITMAP
D8
D8
00
00
D8
D8
D8
D8
D8
38
78
ENDCHAR
STARTCHAR LATIN_SMALL_LETTER_Y_WITH_ACUTE
ENCODING 253
SWIDTH 500 0
DWIDTH 7 0
BBX 5 14 0 2
BITMAP
18
18
20
60
00
D8
D8
D8
D8
D8
20
60
C0
C0
ENDCHAR
STARTCHAR LATIN_SMALL_LETTER_THORN
ENCODING 254
SWIDTH 500 0
DWIDTH 7 0
BBX 5 11 0 2
BITMAP
C0
C0
E0
E0
D8
D8
D8
E0
E0
C0
C0
ENDCHAR
STARTCHAR LATIN_SMALL_LETTER_Y_WITH_DIAERESIS
ENCODING 255
SWIDTH 500 0
DWIDTH 7 0
BBX 5 13 0 2
BITMAP
D8
D8
00
00
D8
D8
D8
D8
D8
20
60
C0
C0
ENDCHAR
STARTCHAR LATIN_CAPITAL_LETTER_A_WITH_MACRON
ENCODING 256
SWIDTH 500 0
DWIDTH 8 0
BBX 7 12 0 4
BITMAP
FE
FE
00
78
38
C6
C6
FE
FE
C6
C6
C6
ENDCHAR
STARTCHAR LATIN_SMALL_LETTER_A_WITH_MACRON
ENCODING 257
SWIDTH 500 0
DWIDTH 7 0
BBX 5 11 0 4
BITMAP
F8
F8
00
00
78
38
D8
D8
D8
38
78
ENDCHAR
STARTCHAR LATIN_CAPITAL_LETTER_A_WITH_BREVE
ENCODING 258
SWIDTH 500 0
DWIDTH 8 0
BBX 7 12 0 4
BITMAP
78
38
00
78
38
C6
C6
FE
FE
C6
C6
C6
ENDCHAR
STARTCHAR LATIN_SMALL_LETTER_A_WITH_BREVE
ENCODING 259
SWIDTH 500 0
DWIDTH 7 0
BBX 5 12 0 4
BITMAP
D8
D8
20
60
00
78
38
D8
D8
D8
38
78
ENDCHAR
STARTCHAR LATIN_CAPITAL_LETTER_A_WITH_OGONEK
ENCODING 260
SWIDTH 500 0
DWIDTH 8 0
BBX 7 11 0 2
BITMAP
78
38
C6
C6
FE
FE
C6
C6
C6
18
18
ENDCHAR
STARTCHAR LATIN_SMALL_LETTER_A_WITH_OGONEK
ENCODING 261
SWIDTH 500 0
DWIDTH 7 0
BBX 5 9 0 2
BITMAP
78
38
D8
D8
D8
38
78
20
60
ENDCHAR
STARTCHAR LATIN_CAPITAL_LETTER_C_WITH_ACUTE
ENCODING 262
SWIDTH 500 0
DWIDTH 8 0
BBX 7 12 0 4
BITMAP
20
60
00
78
38
C6
C6
C0
C6
C6
38
78
ENDCHAR
STARTCHAR LATIN_SMALL_LETTER_C_WITH_ACUTE
ENCODING 263
SWIDTH 500 0
DWIDTH 7 0
BBX 5 12 0 4
BITMAP
18
18
20
60
00
78
38
C0
C0
C0
38
78
ENDCHAR
STARTCHAR LATIN_CAPITAL_LETTER_C_WITH_CIRCUMFLEX
ENCODING 264
SWIDTH 500 0
DWIDTH 8 0
BBX 7 12 0 4
BITMAP
C6
C6
00
78
38
C6
C6
C0
C6
C6
38
78
ENDCHAR
STARTCHAR LATIN_SMALL_LETTER_C_WITH_CIRCUMFLEX
ENCODING 265
SWIDTH 500 0
DWIDTH 7 0
BBX 5 12 0 4
BITMAP
20
60
D8
D8
00
78
38
C0
C0
C0
38
78
ENDCHAR
STARTCHAR LATIN_CAPITAL_LETTER_C_WITH_DOT_ABOVE
ENCODING 266
SWIDTH 500 0
DWIDTH 8 0
BBX 7 12 0 4
BITMAP
18
18
00
78
38
C6
C6
C0
C6
C6
38
78
ENDCHAR
STARTCHAR LATIN_SMALL_LETTER_C_WITH_DOT_ABOVE
ENCODING 267
SWIDTH 500 0
DWIDTH 7 0
BBX 5 11 0 4
BITMAP
20
60
00
00
78
38
C0
C0
C0
38
78
ENDCHAR
STARTCHAR LATIN_CAPITAL_LETTER_C_WITH_CARON
ENCODING 268
SWIDTH 500 0
DWIDTH 8 0
BBX 7 12 0 4
BITMAP
78
38
00
78
38
C6
C6
C0
C6
C6
38
78
ENDCHAR
STARTCHAR LATIN_SMALL_LETTER_C_WITH_CARON
ENCODING 269
SWIDTH 500 0
DWIDTH 7 0
BBX 5 12 0 4
BITMAP
D8
D8
20
60
00
78
38
C0
C0
C0
38
78
ENDCHAR
STARTCHAR LATIN_CAPITAL_LETTER_D_WITH_CARON
ENCODING 270
SWIDTH 500 0
DWIDTH 8 0
BBX 7 12 0 4
BITMAP
78
38
00
F8
F8
C6
C6
C6
C6
C6
F8
F8
ENDCHAR
STARTCHAR LATIN_SMALL_LETTER_D_WITH_CARON
ENCODING 271
SWIDTH 500 0
DWIDTH 10 0
BBX 8 9 0 4
BITMAP
1B
1B
7B
3B
D8
D8
D8
38
78
ENDCHAR
STARTCHAR LATIN_CAPITAL_LETTER_D_WITH_STROKE
ENCODING 272
SWIDTH 500 0
DWIDTH 8 0
BBX 7 9 0 4
BITMAP
F8
F8
C6
C6
E6
E6
C6
F8
F8
ENDCHAR
STARTCHAR LATIN_SMALL_LETTER_D_WITH_STROKE
ENCODING 273
SWIDTH 500 0
DWIDTH 8 0
BBX 7 11 0 4
BITMAP
18
18
7E
7E
78
78
D8
D8
D8
78
78
ENDCHAR
STARTCHAR LATIN_CAPITAL_LETTER_E_WITH_MACRON
ENCODING 274
SWIDTH 500 0
DWIDTH 8 0
BBX 7 12 0 4
BITMAP
FE
FE
00
FE
FE
C0
C0
F8
F8
C0
FE
FE
ENDCHAR
STARTCHAR LATIN_SMALL_LETTER_E_WITH_MACRON
ENCODING 275
SWIDTH 500 0
DWIDTH 7 0
BBX 5 11 0 4
BITMAP
F8
F8
00
00
60
60
F8
F8
C0
38
78
ENDCHAR
STARTCHAR LATIN_CAPITAL_LETTER_E_WITH_BREVE
ENCODING 276
SWIDTH 500 0
DWIDTH 8 0
BBX 7 12 0 4
BITMAP
78
38
00
FE
FE
C0
C0
F8
F8
C0
FE
FE
ENDCHAR
STARTCHAR LATIN_SMALL_LETTER_E_WITH_BREVE
ENCODING 277
SWIDTH 500 0
DWIDTH 7 0
BBX 5 12 0 4
BITMAP
D8
D8
20
60
00
60
60
F8
F8
C0
38
78
ENDCHAR
STARTCHAR LATIN_CAPITAL_LETTER_E_WITH_DOT_ABOVE
ENCODING 278
SWIDTH 500 0
DWIDTH 8 0
BBX 7 12 0 4
BITMAP
18
18
00
FE
FE
C0
C0
F8
F8
C0
FE
FE
ENDCHAR
STARTCHAR LATIN_SMALL_LETTER_E_WITH_DOT_ABOVE
ENCODING 279
SWIDTH 500 0
DWIDTH 7 0
BBX 5 11 0 4
BITMAP
20
60
00
00
60
60
F8
F8
C0
38
78
ENDCHAR
STARTCHAR LATIN_CAPITAL_LETTER_E_WITH_OGONEK
ENCODING 280
SWIDTH 500 0
DWIDTH 8 0
BBX 7 11 0 2
BITMAP
FE
FE
C0
C0
F8
F8
C0
FE
FE
18
18
ENDCHAR
STARTCHAR LATIN_SMALL_LETTER_E_WITH_OGONEK
ENCODING 281
SWIDTH 500 0
DWIDTH 7 0
BBX 5 9 0 2
BITMAP
60
60
F8
F8
C0
38
78
20
60
ENDCHAR
STARTCHAR LATIN_CAPITAL_LETTER_E_WITH_CARON
ENCODING 282
SWIDTH 500 0
DWIDTH 8 0
BBX 7 12 0 4
BITMAP
78
38
00
FE
FE
C0
C0
F8
F8
C0
FE
FE
ENDCHAR
STARTCHAR LATIN_SMALL_LETTER_E_WITH_CARON
ENCODING 283
SWIDTH 500 0
DWIDTH 7 0
BBX 5 12 0 4
BITMAP
D8
D8
20
60
00
60
60
F8
F8
C0
38
78
ENDCHAR
STARTCHAR LATIN_CAPITAL_LETTER_G_WITH_CIRCUMFLEX
ENCODING 284
SWIDTH 500 0
DWIDTH 8 0
BBX 7 12 0 4
BITMAP
C6
C6
00
7E
3E
C0
C0
DE
DE
C6
3E
7E
ENDCHAR
STARTCHAR LATIN_SMALL_LETTER_G_WITH_CIRCUMFLEX
ENCODING 285
SWIDTH 500 0
DWIDTH 7 0
BBX 5 14 0 2
BITMAP
20
60
D8
D8
00
78
38
D8
D8
D8
78
78
E0
E0
ENDCHAR
STARTCHAR LATIN_CAPITAL_LETTER_G_WITH_BREVE
ENCODING 286
SWIDTH 500 0
DWIDTH 8 0
BBX 7 12 0 4
BITMAP
78
38
00
7E
3E
C0
C0
DE
DE
C6
3E
7E
ENDCHAR
STARTCHAR LATIN_SMALL_LETTER_G_WITH_BREVE
ENCODING 287
SWIDTH 500 0
DWIDTH 7 0
BBX 5 14 0 2
BITMAP
D8
D8
20
60
00
78
38
D8
D8
D8
78
78
E0
E0
ENDCHAR
STARTCHAR LATIN_CAPITAL_LETTER_G_WITH_DOT_ABOVE
ENCODING 288
SWIDTH 500 0
DWIDTH 8 0
BBX 7 12 0 4
BITMAP
18
18
00
7E
3E
C0
C0
DE
DE
C6
3E
7E
ENDCHAR
STARTCHAR LATIN_SMALL_LETTER_G_WITH_DOT_ABOVE
ENCODING 289
SWIDTH 500 0
DWIDTH 7 0
BBX 5 13 0 2
BITMAP
20
60
00
00
78
38
D8
D8
D8
78
78
E0
E0
ENDCHAR
STARTCHAR LATIN_CAPITAL_LETTER_G_WITH_CEDILLA
ENCODING 290
SWIDTH 500 0
DWIDTH 8 0
BBX 7 12 0 1
BITMAP
7E
3E
C0
C0
DE
DE
C6
3E
7E
00
18
18
ENDCHAR
STARTCHAR LATIN_SMALL_LETTER_G_WITH_CEDILLA
ENCODING 291
SWIDTH 500 0
DWIDTH 7 0
BBX 5 14 0 2
BITMAP
60
60
60
60
00
78
38
D8
D8
D8
78
78
E0
E0
ENDCHAR
STARTCHAR LATIN_CAPITAL_LETTER_H_WITH_CIRCUMFLEX
ENCODING 292
SWIDTH 500 0
DWIDTH 8 0
BBX 7 12 0 4
BITMAP
C6
C6
00
C6
C6
C6
C6
FE
FE
C6
C6
C6
ENDCHAR
STARTCHAR LATIN_SMALL_LETTER_H_WITH_CIRCUMFLEX
ENCODING 293
SWIDTH 500 0
DWIDTH 7 0
BBX 5 12 0 4
BITMAP
D8
D8
00
C0
C0
E0
E0
D8
D8
D8
D8
D8
ENDCHAR
STARTCHAR LATIN_CAPITAL_LETTER_H_WITH_STROKE
ENCODING 294
SWIDTH 500 0
DWIDTH 11 0
BBX 10 11 0 4
BITMAP
2100
6300
FFC0
FFC0
6300
6300
7F00
7F00
6300
6300
6300
ENDCHAR
STARTCHAR LATIN_SMALL_LETTER_H_WITH_STROKE
ENCODING 295
SWIDTH 500 0
DWIDTH 8 0
BBX 7 11 0 4
BITMAP
20
60
F8
F8
78
78
66
66
66
66
66
ENDCHAR
STARTCHAR LATIN_CAPITAL_LETTER_I_WITH_TILDE
ENCODING 296
SWIDTH 500 0
DWIDTH 4 0
BBX 3 12 0 4
BITMAP
E0
E0
00
C0
C0
C0
C0
C0
C0
C0
C0
C0
ENDCHAR
STARTCHAR LATIN_SMALL_LETTER_I_WITH_TILDE
ENCODING 297
SWIDTH 500 0
DWIDTH 4 0
BBX 3 11 0 4
BITMAP
E0
E0
00
00
C0
C0
C0
C0
C0
C0
C0
ENDCHAR
STARTCHAR LATIN_CAPITAL_LETTER_I_WITH_MACRON
ENCODING 298
SWIDTH 500 0
DWIDTH 4 0
BBX 5 12 -2 4
BITMAP
F8
F8
00
30
30
30
30
30
30
30
30
30
ENDCHAR
STARTCHAR LATIN_SMALL_LETTER_I_WITH_MACRON
ENCODING 299
SWIDTH 500 0
DWIDTH 4 0
BBX 5 11 -2 4
BITMAP
F8
F8
00
00
30
30
30
30
30
30
30
ENDCHAR
STARTCHAR LATIN_CAPITAL_LETTER_I_WITH_BREVE
ENCODING 300
SWIDTH 500 0
DWIDTH 3 0
BBX 2 12 0 4
BITMAP
C0
C0
00
C0
C0
C0
C0
C0
C0
C0
C0
C0
ENDCHAR
STARTCHAR LATIN_SMALL_LETTER_I_WITH_BREVE
ENCODING 301
SWIDTH 500 0
DWIDTH 4 0
BBX 5 12 -2 4
BITMAP
C8
D8
30
30
00
30
30
30
30
30
30
30
ENDCHAR
STARTCHAR LATIN_CAPITAL_LETTER_I_WITH_OGONEK
ENCODING 302
SWIDTH 500 0
DWIDTH 3 0
BBX 4 11 -2 2
BITMAP
30
30
30
30
30
30
30
30
30
C0
C0
ENDCHAR
STARTCHAR LATIN_SMALL_LETTER_I_WITH_OGONEK
ENCODING 303
SWIDTH 500 0
DWIDTH 3 0
BBX 4 13 -2 2
BITMAP
30
30
00
00
30
30
30
30
30
30
30
C0
C0
ENDCHAR
STARTCHAR LATIN_CAPITAL_LETTER_I_WITH_DOT_ABOVE
ENCODING 304
SWIDTH 500 0
DWIDTH 3 0
BBX 2 12 0 4
BITMAP
C0
C0
00
C0
C0
C0
C0
C0
C0
C0
C0
C0
ENDCHAR
STARTCHAR LATIN_SMALL_LETTER_DOTLESS_I
ENCODING 305
SWIDTH 500 0
DWIDTH 3 0
BBX 2 7 0 4
BITMAP
C0
C0
C0
C0
C0
C0
C0
ENDCHAR
STARTCHAR LATIN_CAPITAL_LIGATURE_IJ
ENCODING 306
SWIDTH 500 0
DWIDTH 10 0
BBX 8 9 0 4
BITMAP
C3
C3
C3
C3
C3
DB
DB
C6
C6
ENDCHAR
STARTCHAR LATIN_SMALL_LIGATURE_IJ
ENCODING 307
SWIDTH 500 0
DWIDTH 7 0
BBX 5 12 0 2
BITMAP
D8
D8
00
D8
D8
D8
D8
D8
D8
D8
18
18
ENDCHAR
STARTCHAR LATIN_CAPITAL_LETTER_J_WITH_CIRCUMFLEX
ENCODING 308
SWIDTH 500 0
DWIDTH 7 0
BBX 5 12 0 4
BITMAP
D8
D8
00
18
18
18
18
18
D8
D8
20
60
ENDCHAR
STARTCHAR LATIN_SMALL_LETTER_J_WITH_CIRCUMFLEX
ENCODING 309
SWIDTH 500 0
DWIDTH 4 0
BBX 5 14 -2 2
BITMAP
30
30
C8
D8
00
30
30
30
30
30
30
30
30
30
ENDCHAR
STARTCHAR LATIN_CAPITAL_LETTER_K_WITH_CEDILLA
ENCODING 310
SWIDTH 500 0
DWIDTH 8 0
BBX 7 12 0 1
BITMAP
C6
C6
D8
D8
E0
D8
D8
C6
C6
00
18
18
ENDCHAR
STARTCHAR LATIN_SMALL_LETTER_K_WITH_CEDILLA
ENCODING 311
SWIDTH 500 0
DWIDTH 7 0
BBX 5 12 0 1
BITMAP
C0
C0
D8
D8
E0
E0
D8
D8
D8
00
20
60
ENDCHAR
STARTCHAR LATIN_SMALL_LETTER_KRA
ENCODING 312
SWIDTH 500 0
DWIDTH 7 0
BBX 5 7 0 4
BITMAP
D8
D8
E0
E0
D8
D8
D8
ENDCHAR
STARTCHAR LATIN_CAPITAL_LETTER_L_WITH_ACUTE
ENCODING 313
SWIDTH 500 0
DWIDTH 7 0
BBX 5 12 0 4
BITMAP
20
60
00
C0
C0
C0
C0
C0
C0
C0
F8
F8
ENDCHAR
STARTCHAR LATIN_SMALL_LETTER_L_WITH_ACUTE
ENCODING 314
SWIDTH 500 0
DWIDTH 3 0
BBX 2 12 0 4
BITMAP
C0
C0
00
C0
C0
C0
C0
C0
C0
C0
C0
C0
ENDCHAR
STARTCHAR LATIN_CAPITAL_LETTER_L_WITH_CEDILLA
ENCODING 315
SWIDTH 500 0
DWIDTH 7 0
BBX 5 12 0 1
BITMAP
C0
C0
C0
C0
C0
C0
C0
F8
F8
00
20
60
ENDCHAR
STARTCHAR LATIN_SMALL_LETTER_L_WITH_CEDILLA
ENCODING 316
SWIDTH 500 0
DWIDTH 3 0
BBX 2 12 0 1
BITMAP
C0
C0
C0
C0
C0
C0
C0
C0
C0
00
C0
C0
ENDCHAR
STARTCHAR LATIN_CAPITAL_LETTER_L_WITH_CARON
ENCODING 317
SWIDTH 500 0
DWIDTH 7 0
BBX 5 9 0 4
BITMAP
D8
D8
D8
D8
C0
C0
C0
F8
F8
ENDCHAR
STARTCHAR LATIN_SMALL_LETTER_L_WITH_CARON
ENCODING 318
SWIDTH 500 0
DWIDTH 7 0
BBX 5 9 0 4
BITMAP
D8
D8
D8
D8
C0
C0
C0
C0
C0
ENDCHAR
STARTCHAR LATIN_CAPITAL_LETTER_L_WITH_MIDDLE_DOT
ENCODING 319
SWIDTH 500 0
DWIDTH 7 0
BBX 5 9 0 4
BITMAP
C0
C0
C0
C0
D8
D8
C0
F8
F8
ENDCHAR
STARTCHAR LATIN_SMALL_LETTER_L_WITH_MIDDLE_DOT
ENCODING 320
SWIDTH 500 0
DWIDTH 7 0
BBX 5 9 0 4
BITMAP
C0
C0
C0
C0
D8
D8
C0
C0
C0
ENDCHAR
STARTCHAR LATIN_CAPITAL_LETTER_L_WITH_STROKE
ENCODING 321
SWIDTH 500 0
DWIDTH 8 0
BBX 7 9 0 4
BITMAP
60
60
78
78
E0
E0
60
7E
7E
ENDCHAR
STARTCHAR LATIN_SMALL_LETTER_L_WITH_STROKE
ENCODING 322
SWIDTH 500 0
DWIDTH 7 0
BBX 5 9 0 4
BITMAP
60
60
78
78
E0
E0
60
60
60
ENDCHAR
STARTCHAR LATIN_CAPITAL_LETTER_N_WITH_ACUTE
ENCODING 323
SWIDTH 500 0
DWIDTH 8 0
BBX 7 12 0 4
BITMAP
20
60
00
C6
C6
E6
E6
DE
DE
C6
C6
C6
ENDCHAR
STARTCHAR LATIN_SMALL_LETTER_N_WITH_ACUTE
ENCODING 324
SWIDTH 500 0
DWIDTH 7 0
BBX 5 12 0 4
BITMAP
18
18
20
60
00
E0
E0
D8
D8
D8
D8
D8
ENDCHAR
STARTCHAR LATIN_CAPITAL_LETTER_N_WITH_CEDILLA
ENCODING 325
SWIDTH 500 0
DWIDTH 8 0
BBX 7 12 0 1
BITMAP
C6
C6
E6
E6
DE
DE
C6
C6
C6
00
18
18
ENDCHAR
STARTCHAR LATIN_SMALL_LETTER_N_WITH_CEDILLA
ENCODING 326
SWIDTH 500 0
DWIDTH 7 0
BBX 5 10 0 1
BITMAP
E0
E0
D8
D8
D8
D8
D8
00
20
60
ENDCHAR
STARTCHAR LATIN_CAPITAL_LETTER_N_WITH_CARON
ENCODING 327
SWIDTH 500 0
DWIDTH 8 0
BBX 7 12 0 4
BITMAP
78
38
00
C6
C6
E6
E6
DE
DE
C6
C6
C6
ENDCHAR
STARTCHAR LATIN_SMALL_LETTER_N_WITH_CARON
ENCODING 328
SWIDTH 500 0
DWIDTH 7 0
BBX 5 12 0 4
BITMAP
D8
D8
20
60
00
E0
E0
D8
D8
D8
D8
D8
ENDCHAR
STARTCHAR LATIN_SMALL_LETTER_N_PRECEDED_BY_APOSTROPHE
ENCODING 329
SWIDTH 500 0
DWIDTH 10 0
BBX 8 9 0 4
BITMAP
C0
C0
DE
DE
1B
1B
1B
1B
1B
ENDCHAR
STARTCHAR LATIN_CAPITAL_LETTER_ENG
ENCODING 330
SWIDTH 500 0
DWIDTH 8 0
BBX 7 11 0 2
BITMAP
C6
C6
E6
E6
DE
DE
C6
C6
C6
18
18
ENDCHAR
STARTCHAR LATIN_SMALL_LETTER_ENG
ENCODING 331
SWIDTH 500 0
DWIDTH 7 0
BBX 5 9 0 2
BITMAP
E0
E0
D8
D8
D8
D8
D8
20
60
ENDCHAR
STARTCHAR LATIN_CAPITAL_LETTER_O_WITH_MACRON
ENCODING 332
SWIDTH 500 0
DWIDTH 8 0
BBX 7 12 0 4
BITMAP
FE
FE
00
78
38
C6
C6
C6
C6
C6
38
78
ENDCHAR
STARTCHAR LATIN_SMALL_LETTER_O_WITH_MACRON
ENCODING 333
SWIDTH 500 0
DWIDTH 7 0
BBX 5 11 0 4
BITMAP
F8
F8
00
00
60
20
D8
D8
D8
20
60
ENDCHAR
STARTCHAR LATIN_CAPITAL_LETTER_O_WITH_BREVE
ENCODING 334
SWIDTH 500 0
DWIDTH 8 0
BBX 7 12 0 4
BITMAP
78
38
00
78
38
C6
C6
C6
C6
C6
38
78
ENDCHAR
STARTCHAR LATIN_SMALL_LETTER_O_WITH_BREVE
ENCODING 335
SWIDTH 500 0
DWIDTH 7 0
BBX 5 12 0 4
BITMAP
D8
D8
20
60
00
60
20
D8
D8
D8
20
60
ENDCHAR
STARTCHAR LATIN_CAPITAL_LETTER_O_WITH_DOUBLE_ACUTE
ENCODING 336
SWIDTH 500 0
DWIDTH 8 0
BBX 7 12 0 4
BITMAP
D8
D8
00
78
38
C6
C6
C6
C6
C6
38
78
ENDCHAR
STARTCHAR LATIN_SMALL_LETTER_O_WITH_DOUBLE_ACUTE
ENCODING 337
SWIDTH 500 0
DWIDTH 8 0
BBX 7 12 0 4
BITMAP
26
66
D8
D8
00
60
20
D8
D8
D8
20
60
ENDCHAR
STARTCHAR LATIN_CAPITAL_LIGATURE_OE
ENCODING 338
SWIDTH 500 0
DWIDTH 10 0
BBX 8 9 0 4
BITMAP
7F
3F
D8
D8
DF
DF
D8
3F
7F
ENDCHAR
STARTCHAR LATIN_SMALL_LIGATURE_OE
ENCODING 339
SWIDTH 500 0
DWIDTH 10 0
BBX 8 7 0 4
BITMAP
66
26
DF
DF
D8
27
67
ENDCHAR
STARTCHAR LATIN_CAPITAL_LETTER_R_WITH_ACUTE
ENCODING 340
SWIDTH 500 0
DWIDTH 8 0
BBX 7 12 0 4
BITMAP
20
60
00
F8
F8
C6
C6
F8
F8
C6
C6
C6
ENDCHAR
STARTCHAR LATIN_SMALL_LETTER_R_WITH_ACUTE
ENCODING 341
SWIDTH 500 0
DWIDTH 5 0
BBX 3 12 0 4
BITMAP
20
60
C0
C0
00
E0
E0
C0
C0
C0
C0
C0
ENDCHAR
STARTCHAR LATIN_CAPITAL_LETTER_R_WITH_CEDILLA
ENCODING 342
SWIDTH 500 0
DWIDTH 8 0
BBX 7 12 0 1
BITMAP
F8
F8
C6
C6
F8
F8
C6
C6
C6
00
18
18
ENDCHAR
STARTCHAR LATIN_SMALL_LETTER_R_WITH_CEDILLA
ENCODING 343
SWIDTH 500 0
DWIDTH 5 0
BBX 3 10 0 1
BITMAP
E0
E0
C0
C0
C0
C0
C0
00
C0
C0
ENDCHAR
STARTCHAR LATIN_CAPITAL_LETTER_R_WITH_CARON
ENCODING 344
SWIDTH 500 0
DWIDTH 8 0
BBX 7 12 0 4
BITMAP
78
38
00
F8
F8
C6
C6
F8
F8
C6
C6
C6
ENDCHAR
STARTCHAR LATIN_SMALL_LETTER_R_WITH_CARON
ENCODING 345
SWIDTH 500 0
DWIDTH 5 0
BBX 5 12 -2 4
BITMAP
C8
D8
30
30
00
38
38
30
30
30
30
30
ENDCHAR
STARTCHAR LATIN_CAPITAL_LETTER_S_WITH_ACUTE
ENCODING 346
SWIDTH 500 0
DWIDTH 8 0
BBX 7 12 0 4
BITMAP
20
60
00
7E
3E
C0
C0
78
06
06
F8
F8
ENDCHAR
STARTCHAR LATIN_SMALL_LETTER_S_WITH_ACUTE
ENCODING 347
SWIDTH 500 0
DWIDTH 7 0
BBX 5 12 0 4
BITMAP
18
18
20
60
00
78
78
E0
18
18
E0
E0
ENDCHAR
STARTCHAR LATIN_CAPITAL_LETTER_S_WITH_CIRCUMFLEX
ENCODING 348
SWIDTH 500 0
DWIDTH 8 0
BBX 7 12 0 4
BITMAP
C6
C6
00
7E
3E
C0
C0
78
06
06
F8
F8
ENDCHAR
STARTCHAR LATIN_SMALL_LETTER_S_WITH_CIRCUMFLEX
ENCODING 349
SWIDTH 500 0
DWIDTH 7 0
BBX 5 12 0 4
BITMAP
20
60
D8
D8
00
78
78
E0
18
18
E0
E0
ENDCHAR
STARTCHAR LATIN_CAPITAL_LETTER_S_WITH_CEDILLA
ENCODING 350
SWIDTH 500 0
DWIDTH 8 0
BBX 7 11 0 2
BITMAP
7E
3E
C0
C0
78
06
06
F8
F8
18
18
ENDCHAR
STARTCHAR LATIN_SMALL_LETTER_S_WITH_CEDILLA
ENCODING 351
SWIDTH 500 0
DWIDTH 7 0
BBX 5 9 0 2
BITMAP
78
78
E0
18
18
E0
E0
20
60
ENDCHAR
STARTCHAR LATIN_CAPITAL_LETTER_S_WITH_CARON
ENCODING 352
SWIDTH 500 0
DWIDTH 8 0
BBX 7 12 0 4
BITMAP
78
38
00
7E
3E
C0
C0
78
06
06
F8
F8
ENDCHAR
STARTCHAR LATIN_SMALL_LETTER_S_WITH_CARON
ENCODING 353
SWIDTH 500 0
DWIDTH 7 0
BBX 5 12 0 4
BITMAP
D8
D8
20
60
00
78
78
E0
18
18
E0
E0
ENDCHAR
STARTCHAR LATIN_CAPITAL_LETTER_T_WITH_CEDILLA
ENCODING 354
SWIDTH 500 0
DWIDTH 7 0
BBX 5 11 0 2
BITMAP
F8
F8
60
60
60
60
60
60
60
C0
C0
ENDCHAR
STARTCHAR LATIN_SMALL_LETTER_T_WITH_CEDILLA
ENCODING 355
SWIDTH 500 0
DWIDTH 5 0
BBX 3 11 0 2
BITMAP
C0
C0
E0
E0
C0
C0
C0
20
60
C0
C0
ENDCHAR
STARTCHAR LATIN_CAPITAL_LETTER_T_WITH_CARON
ENCODING 356
SWIDTH 500 0
DWIDTH 7 0
BBX 5 12 0 4
BITMAP
20
60
00
F8
F8
60
60
60
60
60
60
60
ENDCHAR
STARTCHAR LATIN_SMALL_LETTER_T_WITH_CARON
ENCODING 357
SWIDTH 500 0
DWIDTH 8 0
BBX 7 9 0 4
BITMAP
C6
C6
E6
E6
C0
C0
C0
20
60
ENDCHAR
STARTCHAR LATIN_CAPITAL_LETTER_T_WITH_STROKE
ENCODING 358
SWIDTH 500 0
DWIDTH 7 0
BBX 5 9 0 4
BITMAP
F8
F8
60
60
F8
F8
60
60
60
ENDCHAR
STARTCHAR LATIN_SMALL_LETTER_T_WITH_STROKE
ENCODING 359
SWIDTH 500 0
DWIDTH 5 0
BBX 3 11 0 4
BITMAP
C0
C0
E0
E0
C0
C0
E0
E0
C0
20
60
ENDCHAR
STARTCHAR LATIN_CAPITAL_LETTER_U_WITH_TILDE
ENCODING 360
SWIDTH 500 0
DWIDTH 8 0
BBX 7 12 0 4
BITMAP
38
78
00
C6
C6
C6
C6
C6
C6
C6
38
78
ENDCHAR
STARTCHAR LATIN_SMALL_LETTER_U_WITH_TILDE
ENCODING 361
SWIDTH 500 0
DWIDTH 7 0
BBX 5 11 0 4
BITMAP
38
78
00
00
D8
D8
D8
D8
D8
38
78
ENDCHAR
STARTCHAR LATIN_CAPITAL_LETTER_U_WITH_MACRON
ENCODING 362
SWIDTH 500 0
DWIDTH 8 0
BBX 7 12 0 4
BITMAP
FE
FE
00
C6
C6
C6
C6
C6
C6
C6
38
78
ENDCHAR
STARTCHAR LATIN_SMALL_LETTER_U_WITH_MACRON
ENCODING 363
SWIDTH 500 0
DWIDTH 7 0
BBX 5 11 0 4
BITMAP
F8
F8
00
00
D8
D8
D8
D8
D8
38
78
ENDCHAR
STARTCHAR LATIN_CAPITAL_LETTER_U_WITH_BREVE
ENCODING 364
SWIDTH 500 0
DWIDTH 8 0
BBX 7 12 0 4
BITMAP
78
38
00
C6
C6
C6
C6
C6
C6
C6
38
78
ENDCHAR
STARTCHAR LATIN_SMALL_LETTER_U_WITH_BREVE
ENCODING 365
SWIDTH 500 0
DWIDTH 7 0
BBX 5 12 0 4
BITMAP
D8
D8
20
60
00
D8
D8
D8
D8
D8
38
78
ENDCHAR
STARTCHAR LATIN_CAPITAL_LETTER_U_WITH_RING_ABOVE
ENCODING 366
SWIDTH 500 0
DWIDTH 8 0
BBX 7 12 0 4
BITMAP
36
66
18
DE
C6
C6
C6
C6
C6
C6
38
78
ENDCHAR
STARTCHAR LATIN_SMALL_LETTER_U_WITH_RING_ABOVE
ENCODING 367
SWIDTH 500 0
DWIDTH 7 0
BBX 5 11 0 4
BITMAP
60
D8
D8
20
F8
D8
D8
D8
D8
38
78
ENDCHAR
STARTCHAR LATIN_CAPITAL_LETTER_U_WITH_DOUBLE_ACUTE
ENCODING 368
SWIDTH 500 0
DWIDTH 8 0
BBX 7 12 0 4
BITMAP
D8
D8
00
C6
C6
C6
C6
C6
C6
C6
38
78
ENDCHAR
STARTCHAR LATIN_SMALL_LETTER_U_WITH_DOUBLE_ACUTE
ENCODING 369
SWIDTH 500 0
DWIDTH 8 0
BBX 7 12 0 4
BITMAP
26
66
D8
D8
00
D8
D8
D8
D8
D8
38
78
ENDCHAR
STARTCHAR LATIN_CAPITAL_LETTER_U_WITH_OGONEK
ENCODING 370
SWIDTH 500 0
DWIDTH 8 0
BBX 7 11 0 2
BITMAP
C6
C6
C6
C6
C6
C6
C6
38
78
18
18
ENDCHAR
STARTCHAR LATIN_SMALL_LETTER_U_WITH_OGONEK
ENCODING 371
SWIDTH 500 0
DWIDTH 7 0
BBX 5 9 0 2
BITMAP
D8
D8
D8
D8
D8
38
78
20
60
ENDCHAR
STARTCHAR LATIN_CAPITAL_LETTER_W_WITH_CIRCUMFLEX
ENCODING 372
SWIDTH 500 0
DWIDTH 10 0
BBX 8 12 0 4
BITMAP
26
66
00
DB
DB
DB
DB
DB
00
66
66
66
ENDCHAR
STARTCHAR LATIN_SMALL_LETTER_W_WITH_CIRCUMFLEX
ENCODING 373
SWIDTH 500 0
DWIDTH 10 0
BBX 8 12 0 4
BITMAP
18
18
26
66
00
DB
DB
DB
00
66
66
66
ENDCHAR
STARTCHAR LATIN_CAPITAL_LETTER_Y_WITH_CIRCUMFLEX
ENCODING 374
SWIDTH 500 0
DWIDTH 7 0
BBX 5 12 0 4
BITMAP
D8
D8
00
D8
D8
D8
D8
60
60
60
60
60
ENDCHAR
STARTCHAR LATIN_SMALL_LETTER_Y_WITH_CIRCUMFLEX
ENCODING 375
SWIDTH 500 0
DWIDTH 7 0
BBX 5 14 0 2
BITMAP
20
60
D8
D8
00
D8
D8
D8
D8
D8
20
60
C0
C0
ENDCHAR
STARTCHAR LATIN_CAPITAL_LETTER_Y_WITH_DIAERESIS
ENCODING 376
SWIDTH 500 0
DWIDTH 7 0
BBX 5 12 0 4
BITMAP
D8
D8
00
D8
D8
D8
D8
60
60
60
60
60
ENDCHAR
STARTCHAR LATIN_CAPITAL_LETTER_Z_WITH_ACUTE
ENCODING 377
SWIDTH 500 0
DWIDTH 7 0
BBX 5 12 0 4
BITMAP
20
60
00
F8
F8
18
18
60
E0
C0
F8
F8
ENDCHAR
STARTCHAR LATIN_SMALL_LETTER_Z_WITH_ACUTE
ENCODING 378
SWIDTH 500 0
DWIDTH 7 0
BBX 5 12 0 4
BITMAP
18
18
20
60
00
F8
F8
60
E0
C0
F8
F8
ENDCHAR
STARTCHAR LATIN_CAPITAL_LETTER_Z_WITH_DOT_ABOVE
ENCODING 379
SWIDTH 500 0
DWIDTH 7 0
BBX 5 12 0 4
BITMAP
20
60
00
F8
F8
18
18
60
E0
C0
F8
F8
ENDCHAR
STARTCHAR LATIN_SMALL_LETTER_Z_WITH_DOT_ABOVE
ENCODING 380
SWIDTH 500 0
DWIDTH 7 0
BBX 5 11 0 4
BITMAP
20
60
00
00
F8
F8
60
E0
C0
F8
F8
ENDCHAR
STARTCHAR LATIN_CAPITAL_LETTER_Z_WITH_CARON
ENCODING 381
SWIDTH 500 0
DWIDTH 7 0
BBX 5 12 0 4
BITMAP
20
60
00
F8
F8
18
18
60
E0
C0
F8
F8
ENDCHAR
STARTCHAR LATIN_SMALL_LETTER_Z_WITH_CARON
ENCODING 382
SWIDTH 500 0
DWIDTH 7 0
BBX 5 12 0 4
BITMAP
D8
D8
20
60
00
F8
F8
60
E0
C0
F8
F8
ENDCHAR
STARTCHAR LATIN_SMALL_LETTER_LONG_S
ENCODING 383
SWIDTH 500 0
DWIDTH 5 0
BBX 3 9 0 4
BITMAP
60
20
C0
C0
C0
C0
C0
C0
C0
ENDCHAR
STARTCHAR GREEK_SMALL_LETTER_MU
ENCODING 956
SWIDTH 500 0
DWIDTH 6 0
BBX 5 8 0 1
BITMAP
88
88
88
88
98
68
80
80
ENDCHAR
STARTCHAR CYRILLIC_CAPITAL_LETTER_IE_WITH_GRAVE
ENCODING 1024
SWIDTH 500 0
DWIDTH 8 0
BBX 7 12 0 4
BITMAP
18
18
00
FE
FE
C0
C0
F8
F8
C0
FE
FE
ENDCHAR
STARTCHAR CYRILLIC_CAPITAL_LETTER_IO
ENCODING 1025
SWIDTH 500 0
DWIDTH 8 0
BBX 7 12 0 4
BITMAP
C6
C6
00
FE
FE
C0
C0
F8
F8
C0
FE
FE
ENDCHAR
STARTCHAR CYRILLIC_CAPITAL_LETTER_DJE
ENCODING 1026
SWIDTH 500 0
DWIDTH 10 0
BBX 8 11 0 4
BITMAP
F8
F8
60
60
7E
7E
63
63
63
66
66
ENDCHAR
STARTCHAR CYRILLIC_CAPITAL_LETTER_GJE
ENCODING 1027
SWIDTH 500 0
DWIDTH 7 0
BBX 5 12 0 4
BITMAP
20
60
00
F8
F8
C0
C0
C0
C0
C0
C0
C0
ENDCHAR
STARTCHAR CYRILLIC_CAPITAL_LETTER_UKRAINIAN_IE
ENCODING 1028
SWIDTH 500 0
DWIDTH 8 0
BBX 7 9 0 4
BITMAP
7E
3E
C0
C0
F8
F8
C0
3E
7E
ENDCHAR
STARTCHAR CYRILLIC_CAPITAL_LETTER_DZE
ENCODING 1029
SWIDTH 500 0
DWIDTH 8 0
BBX 7 9 0 4
BITMAP
7E
3E
C0
C0
78
06
06
F8
F8
ENDCHAR
STARTCHAR CYRILLIC_CAPITAL_LETTER_BYELORUSSIAN-UKRAINIAN_I
ENCODING 1030
SWIDTH 500 0
DWIDTH 3 0
BBX 2 9 0 4
BITMAP
C0
C0
C0
C0
C0
C0
C0
C0
C0
ENDCHAR
STARTCHAR CYRILLIC_CAPITAL_LETTER_YI
ENCODING 1031
SWIDTH 500 0
DWIDTH 4 0
BBX 5 12 -2 4
BITMAP
C8
D8
00
30
30
30
30
30
30
30
30
30
ENDCHAR
STARTCHAR CYRILLIC_CAPITAL_LETTER_JE
ENCODING 1032
SWIDTH 500 0
DWIDTH 7 0
BBX 5 9 0 4
BITMAP
18
18
18
18
18
D8
D8
20
60
ENDCHAR
STARTCHAR CYRILLIC_CAPITAL_LETTER_LJE
ENCODING 1033
SWIDTH 500 0
DWIDTH 11 0
BBX 10 9 0 4
BITMAP
7E00
7E00
6600
6600
6700
66C0
66C0
C700
C700
ENDCHAR
STARTCHAR CYRILLIC_CAPITAL_LETTER_NJE
ENCODING 1034
SWIDTH 500 0
DWIDTH 10 0
BBX 8 9 0 4
BITMAP
D8
D8
D8
D8
FE
DB
DB
DE
DE
ENDCHAR
STARTCHAR CYRILLIC_CAPITAL_LETTER_TSHE
ENCODING 1035
SWIDTH 500 0
DWIDTH 10 0
BBX 8 9 0 4
BITMAP
F8
F8
60
60
7E
7E
63
63
63
ENDCHAR
STARTCHAR CYRILLIC_CAPITAL_LETTER_KJE
ENCODING 1036
SWIDTH 500 0
DWIDTH 8 0
BBX 7 12 0 4
BITMAP
20
60
00
C6
C6
D8
D8
E0
D8
D8
C6
C6
ENDCHAR
STARTCHAR CYRILLIC_CAPITAL_LETTER_I_WITH_GRAVE
ENCODING 1037
SWIDTH 500 0
DWIDTH 8 0
BBX 7 12 0 4
BITMAP
18
18
00
C6
C6
DE
DE
E6
E6
C6
C6
C6
ENDCHAR
STARTCHAR CYRILLIC_CAPITAL_LETTER_SHORT_U
ENCODING 1038
SWIDTH 500 0
DWIDTH 8 0
BBX 7 12 0 4
BITMAP
78
38
00
C6
C6
C6
C6
78
38
18
F0
E0
ENDCHAR
STARTCHAR CYRILLIC_CAPITAL_LETTER_DZHE
ENCODING 1039
SWIDTH 500 0
DWIDTH 10 0
BBX 8 11 0 2
BITMAP
C3
C3
C3
C3
C3
C3
C3
FF
FF
18
18
ENDCHAR
STARTCHAR CYRILLIC_CAPITAL_LETTER_A
ENCODING 1040
SWIDTH 500 0
DWIDTH 8 0
BBX 7 9 0 4
BITMAP
78
38
C6
C6
FE
FE
C6
C6
C6
ENDCHAR
STARTCHAR CYRILLIC_CAPITAL_LETTER_BE
ENCODING 1041
SWIDTH 500 0
DWIDTH 8 0
BBX 7 9 0 4
BITMAP
FE
FE
C0
C0
F8
C6
C6
F8
F8
ENDCHAR
STARTCHAR CYRILLIC_CAPITAL_LETTER_VE
ENCODING 1042
SWIDTH 500 0
DWIDTH 8 0
BBX 7 9 0 4
BITMAP
F8
F8
C6
C6
F8
C6
C6
F8
F8
ENDCHAR
STARTCHAR CYRILLIC_CAPITAL_LETTER_GHE
ENCODING 1043
SWIDTH 500 0
DWIDTH 7 0
BBX 5 9 0 4
BITMAP
F8
F8
C0
C0
C0
C0
C0
C0
C0
ENDCHAR
STARTCHAR CYRILLIC_CAPITAL_LETTER_DE
ENCODING 1044
SWIDTH 500 0
DWIDTH 10 0
BBX 8 11 0 2
BITMAP
7E
7E
66
66
66
66
66
FF
FF
C3
C3
ENDCHAR
STARTCHAR CYRILLIC_CAPITAL_LETTER_IE
ENCODING 1045
SWIDTH 500 0
DWIDTH 8 0
BBX 7 9 0 4
BITMAP
FE
FE
C0
C0
F8
F8
C0
FE
FE
ENDCHAR
STARTCHAR CYRILLIC_CAPITAL_LETTER_ZHE
ENCODING 1046
SWIDTH 500 0
DWIDTH 13 0
BBX 12 9 0 4
BITMAP
C630
C620
66C0
26C0
1F00
36C0
66C0
C620
C630
ENDCHAR
STARTCHAR CYRILLIC_CAPITAL_LETTER_ZE
ENCODING 1047
SWIDTH 500 0
DWIDTH 7 0
BBX 5 9 0 4
BITMAP
E0
E0
18
18
60
18
18
E0
E0
ENDCHAR
STARTCHAR CYRILLIC_CAPITAL_LETTER_I
ENCODING 1048
SWIDTH 500 0
DWIDTH 8 0
BBX 7 9 0 4
BITMAP
C6
C6
DE
DE
E6
E6
C6
C6
C6
ENDCHAR
STARTCHAR CYRILLIC_CAPITAL_LETTER_SHORT_I
ENCODING 1049
SWIDTH 500 0
DWIDTH 8 0
BBX 7 12 0 4
BITMAP
78
38
00
C6
C6
DE
DE
E6
E6
C6
C6
C6
ENDCHAR
STARTCHAR CYRILLIC_CAPITAL_LETTER_KA
ENCODING 1050
SWIDTH 500 0
DWIDTH 8 0
BBX 7 9 0 4
BITMAP
C6
C6
D8
D8
E0
D8
D8
C6
C6
ENDCHAR
STARTCHAR CYRILLIC_CAPITAL_LETTER_EL
ENCODING 1051
SWIDTH 500 0
DWIDTH 8 0
BBX 7 9 0 4
BITMAP
7E
7E
66
66
66
66
66
C6
C6
ENDCHAR
STARTCHAR CYRILLIC_CAPITAL_LETTER_EM
ENCODING 1052
SWIDTH 500 0
DWIDTH 10 0
BBX 8 9 0 4
BITMAP
C3
C3
E7
E7
DB
DB
C3
C3
C3
ENDCHAR
STARTCHAR CYRILLIC_CAPITAL_LETTER_EN
ENCODING 1053
SWIDTH 500 0
DWIDTH 8 0
BBX 7 9 0 4
BITMAP
C6
C6
C6
C6
FE
FE
C6
C6
C6
ENDCHAR
STARTCHAR CYRILLIC_CAPITAL_LETTER_O
ENCODING 1054
SWIDTH 500 0
DWIDTH 8 0
BBX 7 9 0 4
BITMAP
78
38
C6
C6
C6
C6
C6
38
78
ENDCHAR
STARTCHAR CYRILLIC_CAPITAL_LETTER_PE
ENCODING 1055
SWIDTH 500 0
DWIDTH 8 0
BBX 7 9 0 4
BITMAP
FE
FE
C6
C6
C6
C6
C6
C6
C6
ENDCHAR
STARTCHAR CYRILLIC_CAPITAL_LETTER_ER
ENCODING 1056
SWIDTH 500 0
DWIDTH 8 0
BBX 7 9 0 4
BITMAP
F8
F8
C6
C6
F8
F8
C0
C0
C0
ENDCHAR
STARTCHAR CYRILLIC_CAPITAL_LETTER_ES
ENCODING 1057
SWIDTH 500 0
DWIDTH 8 0
BBX 7 9 0 4
BITMAP
78
38
C6
C6
C0
C6
C6
38
78
ENDCHAR
STARTCHAR CYRILLIC_CAPITAL_LETTER_TE
ENCODING 1058
SWIDTH 500 0
DWIDTH 7 0
BBX 5 9 0 4
BITMAP
F8
F8
60
60
60
60
60
60
60
ENDCHAR
STARTCHAR CYRILLIC_CAPITAL_LETTER_U
ENCODING 1059
SWIDTH 500 0
DWIDTH 8 0
BBX 7 9 0 4
BITMAP
C6
C6
C6
C6
78
38
18
F0
E0
ENDCHAR
STARTCHAR CYRILLIC_CAPITAL_LETTER_EF
ENCODING 1060
SWIDTH 500 0
DWIDTH 10 0
BBX 8 11 0 4
BITMAP
18
18
7E
3E
DB
DB
DB
FF
7E
18
18
ENDCHAR
STARTCHAR CYRILLIC_CAPITAL_LETTER_HA
ENCODING 1061
SWIDTH 500 0
DWIDTH 7 0
BBX 5 9 0 4
BITMAP
D8
D8
D8
00
60
20
D8
D8
D8
ENDCHAR
STARTCHAR CYRILLIC_CAPITAL_LETTER_TSE
ENCODING 1062
SWIDTH 500 0
DWIDTH 8 0
BBX 7 11 0 2
BITMAP
C6
C6
C6
C6
C6
C6
C6
FE
FE
06
06
ENDCHAR
STARTCHAR CYRILLIC_CAPITAL_LETTER_CHE
ENCODING 1063
SWIDTH 500 0
DWIDTH 8 0
BBX 7 9 0 4
BITMAP
C6
C6
C6
C6
7E
3E
06
06
06
ENDCHAR
STARTCHAR CYRILLIC_CAPITAL_LETTER_SHA
ENCODING 1064
SWIDTH 500 0
DWIDTH 10 0
BBX 8 9 0 4
BITMAP
DB
DB
DB
DB
DB
DB
DB
FF
FF
ENDCHAR
STARTCHAR CYRILLIC_CAPITAL_LETTER_SHCHA
ENCODING 1065
SWIDTH 500 0
DWIDTH 10 0
BBX 8 11 0 2
BITMAP
DB
DB
DB
DB
DB
DB
DB
FF
FF
03
03
ENDCHAR
STARTCHAR CYRILLIC_CAPITAL_LETTER_HARD_SIGN
ENCODING 1066
SWIDTH 500 0
DWIDTH 10 0
BBX 8 9 0 4
BITMAP
E0
E0
60
60
7E
73
63
7E
7E
ENDCHAR
STARTCHAR CYRILLIC_CAPITAL_LETTER_YERU
ENCODING 1067
SWIDTH 500 0
DWIDTH 11 0
BBX 10 9 0 4
BITMAP
C0C0
C0C0
C0C0
C0C0
F8C0
C6C0
C6C0
F8C0
F8C0
ENDCHAR
STARTCHAR CYRILLIC_CAPITAL_LETTER_SOFT_SIGN
ENCODING 1068
SWIDTH 500 0
DWIDTH 8 0
BBX 7 9 0 4
BITMAP
C0
C0
C0
C0
F8
C6
C6
F8
F8
ENDCHAR
STARTCHAR CYRILLIC_CAPITAL_LETTER_E
ENCODING 1069
SWIDTH 500 0
DWIDTH 8 0
BBX 7 9 0 4
BITMAP
F8
F8
06
06
7E
3E
06
F8
F8
ENDCHAR
STARTCHAR CYRILLIC_CAPITAL_LETTER_YU
ENCODING 1070
SWIDTH 500 0
DWIDTH 11 0
BBX 10 9 0 4
BITMAP
C700
C700
D8C0
D8C0
F8C0
F8C0
D8C0
C700
C700
ENDCHAR
STARTCHAR CYRILLIC_CAPITAL_LETTER_YA
ENCODING 1071
SWIDTH 500 0
DWIDTH 8 0
BBX 7 9 0 4
BITMAP
7E
3E
C6
C6
7E
3E
C6
C6
C6
ENDCHAR
STARTCHAR CYRILLIC_SMALL_LETTER_A
ENCODING 1072
SWIDTH 500 0
DWIDTH 7 0
BBX 5 7 0 4
BITMAP
78
38
D8
D8
D8
38
78
ENDCHAR
STARTCHAR CYRILLIC_SMALL_LETTER_BE
ENCODING 1073
SWIDTH 500 0
DWIDTH 7 0
BBX 5 9 0 4
BITMAP
78
38
C0
C0
E0
D8
D8
20
60
ENDCHAR
STARTCHAR CYRILLIC_SMALL_LETTER_VE
ENCODING 1074
SWIDTH 500 0
DWIDTH 7 0
BBX 5 7 0 4
BITMAP
E0
E0
F8
F8
D8
F0
E0
ENDCHAR
STARTCHAR CYRILLIC_SMALL_LETTER_GHE
ENCODING 1075
SWIDTH 500 0
DWIDTH 7 0
BBX 5 7 0 4
BITMAP
F8
F8
C0
C0
C0
C0
C0
ENDCHAR
STARTCHAR CYRILLIC_SMALL_LETTER_DE
ENCODING 1076
SWIDTH 500 0
DWIDTH 10 0
BBX 8 9 0 2
BITMAP
7E
7E
66
66
66
FF
FF
C3
C3
ENDCHAR
STARTCHAR CYRILLIC_SMALL_LETTER_IE
ENCODING 1077
SWIDTH 500 0
DWIDTH 7 0
BBX 5 7 0 4
BITMAP
60
60
F8
F8
C0
38
78
ENDCHAR
STARTCHAR CYRILLIC_SMALL_LETTER_ZHE
ENCODING 1078
SWIDTH 500 0
DWIDTH 10 0
BBX 8 7 0 4
BITMAP
DB
DB
7E
7E
7E
DB
DB
ENDCHAR
STARTCHAR CYRILLIC_SMALL_LETTER_ZE
ENCODING 1079
SWIDTH 500 0
DWIDTH 7 0
BBX 5 7 0 4
BITMAP
E0
E0
60
18
18
E0
E0
ENDCHAR
STARTCHAR CYRILLIC_SMALL_LETTER_I
ENCODING 1080
SWIDTH 500 0
DWIDTH 8 0
BBX 7 7 0 4
BITMAP
C6
C6
DE
F6
E6
C6
C6
ENDCHAR
STARTCHAR CYRILLIC_SMALL_LETTER_SHORT_I
ENCODING 1081
SWIDTH 500 0
DWIDTH 8 0
BBX 7 12 0 4
BITMAP
C6
78
78
00
00
C6
C6
DE
F6
E6
C6
C6
ENDCHAR
STARTCHAR CYRILLIC_SMALL_LETTER_KA
ENCODING 1082
SWIDTH 500 0
DWIDTH 7 0
BBX 5 7 0 4
BITMAP
D8
D8
E0
E0
D8
D8
D8
ENDCHAR
STARTCHAR CYRILLIC_SMALL_LETTER_EL
ENCODING 1083
SWIDTH 500 0
DWIDTH 8 0
BBX 7 7 0 4
BITMAP
7E
7E
66
66
66
C6
C6
ENDCHAR
STARTCHAR CYRILLIC_SMALL_LETTER_EM
ENCODING 1084
SWIDTH 500 0
DWIDTH 10 0
BBX 8 7 0 4
BITMAP
C3
C3
E7
DB
DB
C3
C3
ENDCHAR
STARTCHAR CYRILLIC_SMALL_LETTER_EN
ENCODING 1085
SWIDTH 500 0
DWIDTH 7 0
BBX 5 7 0 4
BITMAP
D8
D8
F8
F8
D8
D8
D8
ENDCHAR
STARTCHAR CYRILLIC_SMALL_LETTER_O
ENCODING 1086
SWIDTH 500 0
DWIDTH 7 0
BBX 5 7 0 4
BITMAP
60
20
D8
D8
D8
20
60
ENDCHAR
STARTCHAR CYRILLIC_SMALL_LETTER_PE
ENCODING 1087
SWIDTH 500 0
DWIDTH 7 0
BBX 5 7 0 4
BITMAP
F8
F8
D8
D8
D8
D8
D8
ENDCHAR
STARTCHAR CYRILLIC_SMALL_LETTER_ER
ENCODING 1088
SWIDTH 500 0
DWIDTH 7 0
BBX 5 9 0 2
BITMAP
E0
E0
D8
D8
D8
E0
E0
C0
C0
ENDCHAR
STARTCHAR CYRILLIC_SMALL_LETTER_ES
ENCODING 1089
SWIDTH 500 0
DWIDTH 7 0
BBX 5 7 0 4
BITMAP
78
38
C0
C0
C0
38
78
ENDCHAR
STARTCHAR CYRILLIC_SMALL_LETTER_TE
ENCODING 1090
SWIDTH 500 0
DWIDTH 7 0
BBX 5 7 0 4
BITMAP
F8
F8
60
60
60
60
60
ENDCHAR
STARTCHAR CYRILLIC_SMALL_LETTER_U
ENCODING 1091
SWIDTH 500 0
DWIDTH 7 0
BBX 5 9 0 2
BITMAP
D8
D8
D8
D8
D8
20
60
C0
C0
ENDCHAR
STARTCHAR CYRILLIC_SMALL_LETTER_EF
ENCODING 1092
SWIDTH 500 0
DWIDTH 10 0
BBX 8 11 0 2
BITMAP
18
18
7E
3E
DB
DB
DB
3E
7E
18
18
ENDCHAR
STARTCHAR CYRILLIC_SMALL_LETTER_HA
ENCODING 1093
SWIDTH 500 0
DWIDTH 7 0
BBX 5 7 0 4
BITMAP
D8
D8
60
60
60
D8
D8
ENDCHAR
STARTCHAR CYRILLIC_SMALL_LETTER_TSE
ENCODING 1094
SWIDTH 500 0
DWIDTH 7 0
BBX 5 9 0 2
BITMAP
D8
D8
D8
D8
D8
F8
F8
18
18
ENDCHAR
STARTCHAR CYRILLIC_SMALL_LETTER_CHE
ENCODING 1095
SWIDTH 500 0
DWIDTH 7 0
BBX 5 7 0 4
BITMAP
D8
D8
D8
F8
78
18
18
ENDCHAR
STARTCHAR CYRILLIC_SMALL_LETTER_SHA
ENCODING 1096
SWIDTH 500 0
DWIDTH 10 0
BBX 8 7 0 4
BITMAP
DB
DB
DB
DB
DB
FF
FF
ENDCHAR
STARTCHAR CYRILLIC_SMALL_LETTER_SHCHA
ENCODING 1097
SWIDTH 500 0
DWIDTH 10 0
BBX 8 9 0 2
BITMAP
DB
DB
DB
DB
DB
FF
FF
03
03
ENDCHAR
STARTCHAR CYRILLIC_SMALL_LETTER_HARD_SIGN
ENCODING 1098
SWIDTH 500 0
DWIDTH 8 0
BBX 7 7 0 4
BITMAP
E0
E0
78
76
66
78
78
ENDCHAR
STARTCHAR CYRILLIC_SMALL_LETTER_YERU
ENCODING 1099
SWIDTH 500 0
DWIDTH 10 0
BBX 8 7 0 4
BITMAP
C3
C3
E3
DB
DB
E3
E3
ENDCHAR
STARTCHAR CYRILLIC_SMALL_LETTER_SOFT_SIGN
ENCODING 1100
SWIDTH 500 0
DWIDTH 7 0
BBX 5 7 0 4
BITMAP
C0
C0
E0
D8
D8
E0
E0
ENDCHAR
STARTCHAR CYRILLIC_SMALL_LETTER_E
ENCODING 1101
SWIDTH 500 0
DWIDTH 7 0
BBX 5 7 0 4
BITMAP
E0
E0
78
38
18
E0
E0
ENDCHAR
STARTCHAR CYRILLIC_SMALL_LETTER_YU
ENCODING 1102
SWIDTH 500 0
DWIDTH 10 0
BBX 8 7 0 4
BITMAP
C6
C6
FB
FB
DB
C6
C6
ENDCHAR
STARTCHAR CYRILLIC_SMALL_LETTER_YA
ENCODING 1103
SWIDTH 500 0
DWIDTH 7 0
BBX 5 7 0 4
BITMAP
78
38
D8
78
78
D8
D8
ENDCHAR
STARTCHAR CYRILLIC_SMALL_LETTER_IE_WITH_GRAVE
ENCODING 1104
SWIDTH 500 0
DWIDTH 7 0
BBX 5 12 0 4
BITMAP
C0
C0
20
60
00
60
60
F8
F8
C0
38
78
ENDCHAR
STARTCHAR CYRILLIC_SMALL_LETTER_IO
ENCODING 1105
SWIDTH 500 0
DWIDTH 7 0
BBX 5 11 0 4
BITMAP
D8
D8
00
00
60
60
F8
F8
C0
38
78
ENDCHAR
STARTCHAR CYRILLIC_SMALL_LETTER_DJE
ENCODING 1106
SWIDTH 500 0
DWIDTH 8 0
BBX 7 12 0 2
BITMAP
60
F8
F8
78
78
66
66
66
66
66
06
06
ENDCHAR
STARTCHAR CYRILLIC_SMALL_LETTER_GJE
ENCODING 1107
SWIDTH 500 0
DWIDTH 7 0
BBX 5 12 0 4
BITMAP
18
18
20
60
00
F8
F8
C0
C0
C0
C0
C0
ENDCHAR
STARTCHAR CYRILLIC_SMALL_LETTER_UKRAINIAN_IE
ENCODING 1108
SWIDTH 500 0
DWIDTH 7 0
BBX 5 7 0 4
BITMAP
78
78
E0
E0
C0
38
78
ENDCHAR
STARTCHAR CYRILLIC_SMALL_LETTER_DZE
ENCODING 1109
SWIDTH 500 0
DWIDTH 7 0
BBX 5 7 0 4
BITMAP
78
78
E0
18
18
E0
E0
ENDCHAR
STARTCHAR CYRILLIC_SMALL_LETTER_BYELORUSSIAN-UKRAINIAN_I
ENCODING 1110
SWIDTH 500 0
DWIDTH 3 0
BBX 2 11 0 4
BITMAP
C0
C0
00
00
C0
C0
C0
C0
C0
C0
C0
ENDCHAR
STARTCHAR CYRILLIC_SMALL_LETTER_YI
ENCODING 1111
SWIDTH 500 0
DWIDTH 4 0
BBX 5 11 -2 4
BITMAP
C8
D8
00
00
30
30
30
30
30
30
30
ENDCHAR
STARTCHAR CYRILLIC_SMALL_LETTER_JE
ENCODING 1112
SWIDTH 500 0
DWIDTH 3 0
BBX 2 13 0 2
BITMAP
C0
C0
00
00
C0
C0
C0
C0
C0
C0
C0
C0
C0
ENDCHAR
STARTCHAR CYRILLIC_SMALL_LETTER_LJE
ENCODING 1113
SWIDTH 500 0
DWIDTH 11 0
BBX 10 7 0 4
BITMAP
7E00
7E00
6700
66C0
66C0
C700
C700
ENDCHAR
STARTCHAR CYRILLIC_SMALL_LETTER_NJE
ENCODING 1114
SWIDTH 500 0
DWIDTH 10 0
BBX 8 7 0 4
BITMAP
D8
D8
FE
DB
DB
DE
DE
ENDCHAR
STARTCHAR CYRILLIC_SMALL_LETTER_TSHE
ENCODING 1115
SWIDTH 500 0
DWIDTH 8 0
BBX 7 11 0 4
BITMAP
20
60
F8
F8
78
78
66
66
66
66
66
ENDCHAR
STARTCHAR CYRILLIC_SMALL_LETTER_KJE
ENCODING 1116
SWIDTH 500 0
DWIDTH 7 0
BBX 5 12 0 4
BITMAP
18
18
20
60
00
D8
D8
E0
E0
D8
D8
D8
ENDCHAR
STARTCHAR CYRILLIC_SMALL_LETTER_I_WITH_GRAVE
ENCODING 1117
SWIDTH 500 0
DWIDTH 8 0
BBX 7 12 0 4
BITMAP
20
60
18
18
00
C6
C6
DE
F6
E6
C6
C6
ENDCHAR
STARTCHAR CYRILLIC_SMALL_LETTER_SHORT_U
ENCODING 1118
SWIDTH 500 0
DWIDTH 7 0
BBX 5 14 0 2
BITMAP
D8
D8
20
60
00
D8
D8
D8
D8
D8
20
60
C0
C0
ENDCHAR
STARTCHAR CYRILLIC_SMALL_LETTER_DZHE
ENCODING 1119
SWIDTH 500 0
DWIDTH 7 0
BBX 5 9 0 2
BITMAP
D8
D8
D8
D8
D8
D8
F8
60
60
ENDCHAR
STARTCHAR CYRILLIC_CAPITAL_LETTER_YAT
ENCODING 1122
SWIDTH 500 0
DWIDTH 10 0
BBX 8 9 0 4
BITMAP
F8
F8
60
60
7E
73
63
7E
7E
ENDCHAR
STARTCHAR CYRILLIC_SMALL_LETTER_YAT
ENCODING 1123
SWIDTH 500 0
DWIDTH 8 0
BBX 7 9 0 4
BITMAP
60
60
F8
F8
78
7E
66
78
78
ENDCHAR
STARTCHAR CYRILLIC_CAPITAL_LETTER_BIG_YUS
ENCODING 1130
SWIDTH 500 0
DWIDTH 10 0
BBX 8 9 0 4
BITMAP
FF
FF
66
66
7E
7E
DB
DB
DB
ENDCHAR
STARTCHAR CYRILLIC_SMALL_LETTER_BIG_YUS
ENCODING 1131
SWIDTH 500 0
DWIDTH 10 0
BBX 8 7 0 4
BITMAP
FF
FF
66
66
7E
DB
DB
ENDCHAR
STARTCHAR CYRILLIC_CAPITAL_LETTER_FITA
ENCODING 1138
SWIDTH 500 0
DWIDTH 8 0
BBX 7 9 0 4
BITMAP
78
38
C6
C6
FE
FE
C6
38
78
ENDCHAR
STARTCHAR CYRILLIC_SMALL_LETTER_FITA
ENCODING 1139
SWIDTH 500 0
DWIDTH 7 0
BBX 5 9 0 4
BITMAP
60
20
D8
D8
F8
F8
D8
20
60
ENDCHAR
STARTCHAR CYRILLIC_CAPITAL_LETTER_IZHITSA
ENCODING 1140
SWIDTH 500 0
DWIDTH 8 0
BBX 7 9 0 4
BITMAP
DE
DE
D8
D8
D8
00
60
60
60
ENDCHAR
STARTCHAR CYRILLIC_SMALL_LETTER_IZHITSA
ENCODING 1141
SWIDTH 500 0
DWIDTH 8 0
BBX 7 7 0 4
BITMAP
DE
DE
D8
00
60
60
60
ENDCHAR
STARTCHAR CYRILLIC_CAPITAL_LETTER_GHE_WITH_UPTURN
ENCODING 1168
SWIDTH 500 0
DWIDTH 7 0
BBX 5 11 0 4
BITMAP
18
18
F8
F8
C0
C0
C0
C0
C0
C0
C0
ENDCHAR
STARTCHAR CYRILLIC_SMALL_LETTER_GHE_WITH_UPTURN
ENCODING 1169
SWIDTH 500 0
DWIDTH 7 0
BBX 5 9 0 4
BITMAP
18
18
F8
F8
C0
C0
C0
C0
C0
ENDCHAR
STARTCHAR CYRILLIC_CAPITAL_LETTER_GHE_WITH_STROKE
ENCODING 1170
SWIDTH 500 0
DWIDTH 8 0
BBX 7 9 0 4
BITMAP
7E
7E
60
60
F8
F8
60
60
60
ENDCHAR
STARTCHAR CYRILLIC_SMALL_LETTER_GHE_WITH_STROKE
ENCODING 1171
SWIDTH 500 0
DWIDTH 8 0
BBX 5 7 0 4
BITMAP
78
78
60
F8
F8
60
60
ENDCHAR
STARTCHAR CYRILLIC_CAPITAL_LETTER_GHE_WITH_MIDDLE_HOOK
ENCODING 1172
SWIDTH 500 0
DWIDTH 8 0
BBX 7 11 0 4
BITMAP
F8
F8
C0
C0
F8
F8
C6
C6
C6
38
78
ENDCHAR
STARTCHAR CYRILLIC_SMALL_LETTER_GHE_WITH_MIDDLE_HOOK
ENCODING 1173
SWIDTH 500 0
DWIDTH 8 0
BBX 5 11 0 2
BITMAP
E0
E0
C0
C0
E0
E0
D8
98
18
20
60
ENDCHAR
STARTCHAR CYRILLIC_CAPITAL_LETTER_ZHE_WITH_DESCENDER
ENCODING 1174
SWIDTH 500 0
DWIDTH 13 0
BBX 12 11 0 2
BITMAP
C630
C620
66C0
26C0
1F00
1F00
66C0
C660
C630
0030
0030
ENDCHAR
STARTCHAR CYRILLIC_SMALL_LETTER_ZHE_WITH_DESCENDER
ENCODING 1175
SWIDTH 500 0
DWIDTH 10 0
BBX 8 9 0 2
BITMAP
DB
DB
7E
7E
7E
DB
DB
03
03
ENDCHAR
STARTCHAR CYRILLIC_CAPITAL_LETTER_ZE_WITH_DESCENDER
ENCODING 1176
SWIDTH 500 0
DWIDTH 7 0
BBX 5 11 0 2
BITMAP
E0
E0
18
18
60
20
18
F0
E0
60
60
ENDCHAR
STARTCHAR CYRILLIC_SMALL_LETTER_ZE_WITH_DESCENDER
ENCODING 1177
SWIDTH 500 0
DWIDTH 7 0
BBX 5 9 0 2
BITMAP
E0
E0
60
60
18
F0
E0
60
60
ENDCHAR
STARTCHAR CYRILLIC_CAPITAL_LETTER_KA_WITH_DESCENDER
ENCODING 1178
SWIDTH 500 0
DWIDTH 8 0
BBX 7 11 0 2
BITMAP
C6
C6
D8
D8
E0
E0
D8
D8
C6
06
06
ENDCHAR
STARTCHAR CYRILLIC_SMALL_LETTER_KA_WITH_DESCENDER
ENCODING 1179
SWIDTH 500 0
DWIDTH 7 0
BBX 5 9 0 2
BITMAP
D8
D8
E0
E0
D8
D8
D8
18
18
ENDCHAR
STARTCHAR CYRILLIC_CAPITAL_LETTER_KA_WITH_VERTICAL_STROKE
ENCODING 1180
SWIDTH 500 0
DWIDTH 8 0
BBX 7 9 0 4
BITMAP
C6
C6
F8
F8
E0
F8
F8
C6
C6
ENDCHAR
STARTCHAR CYRILLIC_SMALL_LETTER_KA_WITH_VERTICAL_STROKE
ENCODING 1181
SWIDTH 500 0
DWIDTH 7 0
BBX 5 7 0 4
BITMAP
D8
D8
E0
E0
F8
D8
D8
ENDCHAR
STARTCHAR CYRILLIC_CAPITAL_LETTER_BASHKIR_KA
ENCODING 1184
SWIDTH 500 0
DWIDTH 10 0
BBX 8 9 0 4
BITMAP
E3
E3
66
66
78
76
66
63
63
ENDCHAR
STARTCHAR CYRILLIC_SMALL_LETTER_BASHKIR_KA
ENCODING 1185
SWIDTH 500 0
DWIDTH 8 0
BBX 7 7 0 4
BITMAP
E6
E6
78
78
66
66
66
ENDCHAR
STARTCHAR CYRILLIC_CAPITAL_LETTER_EN_WITH_DESCENDER
ENCODING 1186
SWIDTH 500 0
DWIDTH 8 0
BBX 7 11 0 2
BITMAP
C6
C6
C6
C6
FE
FE
C6
C6
C6
06
06
ENDCHAR
STARTCHAR CYRILLIC_SMALL_LETTER_EN_WITH_DESCENDER
ENCODING 1187
SWIDTH 500 0
DWIDTH 7 0
BBX 5 9 0 2
BITMAP
D8
D8
F8
F8
D8
D8
D8
18
18
ENDCHAR
STARTCHAR CYRILLIC_CAPITAL_LIGATURE_EN_GHE
ENCODING 1188
SWIDTH 500 0
DWIDTH 10 0
BBX 8 9 0 4
BITMAP
C7
C7
C6
C6
FE
FE
C6
C6
C6
ENDCHAR
STARTCHAR CYRILLIC_SMALL_LIGATURE_EN_GHE
ENCODING 1189
SWIDTH 500 0
DWIDTH 8 0
BBX 7 7 0 4
BITMAP
DE
DE
F8
F8
D8
D8
D8
ENDCHAR
STARTCHAR CYRILLIC_CAPITAL_LETTER_ES_WITH_DESCENDER
ENCODING 1194
SWIDTH 500 0
DWIDTH 8 0
BBX 7 11 0 2
BITMAP
78
38
C6
C6
C0
C0
C6
3E
7E
06
06
ENDCHAR
STARTCHAR CYRILLIC_SMALL_LETTER_ES_WITH_DESCENDER
ENCODING 1195
SWIDTH 500 0
DWIDTH 7 0
BBX 5 9 0 2
BITMAP
78
38
C0
C0
C0
38
78
18
18
ENDCHAR
STARTCHAR CYRILLIC_CAPITAL_LETTER_STRAIGHT_U
ENCODING 1198
SWIDTH 500 0
DWIDTH 7 0
BBX 5 9 0 4
BITMAP
D8
D8
D8
D8
60
60
60
60
60
ENDCHAR
STARTCHAR CYRILLIC_SMALL_LETTER_STRAIGHT_U
ENCODING 1199
SWIDTH 500 0
DWIDTH 7 0
BBX 5 9 0 2
BITMAP
D8
D8
D8
D8
60
60
60
60
60
ENDCHAR
STARTCHAR CYRILLIC_CAPITAL_LETTER_STRAIGHT_U_WITH_STROKE
ENCODING 1200
SWIDTH 500 0
DWIDTH 7 0
BBX 5 9 0 4
BITMAP
D8
D8
D8
D8
60
F8
F8
60
60
ENDCHAR
STARTCHAR CYRILLIC_SMALL_LETTER_STRAIGHT_U_WITH_STROKE
ENCODING 1201
SWIDTH 500 0
DWIDTH 7 0
BBX 5 9 0 2
BITMAP
D8
D8
D8
D8
60
F8
F8
60
60
ENDCHAR
STARTCHAR CYRILLIC_CAPITAL_LETTER_HA_WITH_DESCENDER
ENCODING 1202
SWIDTH 500 0
DWIDTH 7 0
BBX 5 11 0 2
BITMAP
D8
D8
D8
00
60
20
D8
D8
D8
18
18
ENDCHAR
STARTCHAR CYRILLIC_SMALL_LETTER_HA_WITH_DESCENDER
ENCODING 1203
SWIDTH 500 0
DWIDTH 7 0
BBX 5 9 0 2
BITMAP
D8
D8
60
60
60
D8
D8
18
18
ENDCHAR
STARTCHAR CYRILLIC_CAPITAL_LETTER_CHE_WITH_DESCENDER
ENCODING 1206
SWIDTH 500 0
DWIDTH 8 0
BBX 7 11 0 2
BITMAP
C6
C6
C6
C6
7E
3E
06
06
06
06
06
ENDCHAR
STARTCHAR CYRILLIC_SMALL_LETTER_CHE_WITH_DESCENDER
ENCODING 1207
SWIDTH 500 0
DWIDTH 7 0
BBX 5 9 0 2
BITMAP
D8
D8
D8
D8
78
38
18
18
18
ENDCHAR
STARTCHAR CYRILLIC_CAPITAL_LETTER_CHE_WITH_VERTICAL_STROKE
ENCODING 1208
SWIDTH 500 0
DWIDTH 8 0
BBX 7 9 0 4
BITMAP
C6
C6
C6
C6
7E
7E
66
06
06
ENDCHAR
STARTCHAR CYRILLIC_SMALL_LETTER_CHE_WITH_VERTICAL_STROKE
ENCODING 1209
SWIDTH 500 0
DWIDTH 7 0
BBX 5 9 0 2
BITMAP
D8
D8
D8
18
78
78
78
18
18
ENDCHAR
STARTCHAR CYRILLIC_CAPITAL_LETTER_SHHA
ENCODING 1210
SWIDTH 500 0
DWIDTH 8 0
BBX 7 9 0 4
BITMAP
C0
C0
C0
C0
F8
F8
C6
C6
C6
ENDCHAR
STARTCHAR CYRILLIC_SMALL_LETTER_SHHA
ENCODING 1211
SWIDTH 500 0
DWIDTH 7 0
BBX 5 9 0 4
BITMAP
C0
C0
E0
E0
D8
D8
D8
D8
D8
ENDCHAR
STARTCHAR CYRILLIC_LETTER_PALOCHKA
ENCODING 1216
SWIDTH 500 0
DWIDTH 3 0
BBX 2 9 0 4
BITMAP
C0
C0
C0
C0
C0
C0
C0
C0
C0
ENDCHAR
STARTCHAR CYRILLIC_SMALL_LETTER_PALOCHKA
ENCODING 1231
SWIDTH 500 0
DWIDTH 3 0
BBX 2 9 0 4
BITMAP
C0
C0
C0
C0
C0
C0
C0
C0
C0
ENDCHAR
STARTCHAR CYRILLIC_CAPITAL_LETTER_A_WITH_BREVE
ENCODING 1232
SWIDTH 500 0
DWIDTH 8 0
BBX 7 12 0 4
BITMAP
78
38
00
78
38
C6
C6
FE
FE
C6
C6
C6
ENDCHAR
STARTCHAR CYRILLIC_SMALL_LETTER_A_WITH_BREVE
ENCODING 1233
SWIDTH 500 0
DWIDTH 7 0
BBX 5 12 0 4
BITMAP
D8
D8
20
60
00
78
38
D8
D8
D8
38
78
ENDCHAR
STARTCHAR CYRILLIC_CAPITAL_LETTER_A_WITH_DIAERESIS
ENCODING 1234
SWIDTH 500 0
DWIDTH 8 0
BBX 7 12 0 4
BITMAP
C6
C6
00
78
38
C6
C6
FE
FE
C6
C6
C6
ENDCHAR
STARTCHAR CYRILLIC_SMALL_LETTER_A_WITH_DIAERESIS
ENCODING 1235
SWIDTH 500 0
DWIDTH 7 0
BBX 5 11 0 4
BITMAP
D8
D8
00
00
78
38
D8
D8
D8
38
78
ENDCHAR
STARTCHAR CYRILLIC_CAPITAL_LIGATURE_A_IE
ENCODING 1236
SWIDTH 500 0
DWIDTH 10 0
BBX 8 9 0 4
BITMAP
7F
3F
D8
D8
FF
FF
D8
DF
DF
ENDCHAR
STARTCHAR CYRILLIC_SMALL_LIGATURE_A_IE
ENCODING 1237
SWIDTH 500 0
DWIDTH 10 0
BBX 8 7 0 4
BITMAP
7E
3E
DF
DF
D8
3F
7F
ENDCHAR
STARTCHAR CYRILLIC_CAPITAL_LETTER_IE_WITH_BREVE
ENCODING 1238
SWIDTH 500 0
DWIDTH 8 0
BBX 7 12 0 4
BITMAP
78
38
00
FE
FE
C0
C0
F8
F8
C0
FE
FE
ENDCHAR
STARTCHAR CYRILLIC_SMALL_LETTER_IE_WITH_BREVE
ENCODING 1239
SWIDTH 500 0
DWIDTH 7 0
BBX 5 12 0 4
BITMAP
D8
D8
20
60
00
60
60
F8
F8
C0
38
78
ENDCHAR
STARTCHAR CYRILLIC_CAPITAL_LETTER_SCHWA
ENCODING 1240
SWIDTH 500 0
DWIDTH 8 0
BBX 7 9 0 4
BITMAP
F8
F8
06
06
FE
FE
C6
38
78
ENDCHAR
STARTCHAR CYRILLIC_SMALL_LETTER_SCHWA
ENCODING 1241
SWIDTH 500 0
DWIDTH 7 0
BBX 5 7 0 4
BITMAP
E0
E0
18
F8
F8
60
60
ENDCHAR
STARTCHAR CYRILLIC_CAPITAL_LETTER_ZHE_WITH_DIAERESIS
ENCODING 1244
SWIDTH 500 0
DWIDTH 13 0
BBX 12 12 0 4
BITMAP
1B00
1B00
0000
C630
C620
66C0
26C0
1F00
36C0
66C0
C620
C630
ENDCHAR
STARTCHAR CYRILLIC_SMALL_LETTER_ZHE_WITH_DIAERESIS
ENCODING 1245
SWIDTH 500 0
DWIDTH 10 0
BBX 8 11 0 4
BITMAP
26
66
00
00
DB
DB
7E
7E
7E
DB
DB
ENDCHAR
STARTCHAR CYRILLIC_CAPITAL_LETTER_ZE_WITH_DIAERESIS
ENCODING 1246
SWIDTH 500 0
DWIDTH 7 0
BBX 5 12 0 4
BITMAP
D8
D8
00
E0
E0
18
18
60
18
18
E0
E0
ENDCHAR
STARTCHAR CYRILLIC_SMALL_LETTER_ZE_WITH_DIAERESIS
ENCODING 1247
SWIDTH 500 0
DWIDTH 7 0
BBX 5 11 0 4
BITMAP
D8
D8
00
00
E0
E0
60
18
18
E0
E0
ENDCHAR
STARTCHAR CYRILLIC_CAPITAL_LETTER_I_WITH_MACRON
ENCODING 1250
SWIDTH 500 0
DWIDTH 8 0
BBX 7 12 0 4
BITMAP
3E
7E
00
C6
C6
DE
DE
E6
E6
C6
C6
C6
ENDCHAR
STARTCHAR CYRILLIC_SMALL_LETTER_I_WITH_MACRON
ENCODING 1251
SWIDTH 500 0
DWIDTH 8 0
BBX 7 11 0 4
BITMAP
3E
7E
00
00
C6
C6
DE
F6
E6
C6
C6
ENDCHAR
STARTCHAR CYRILLIC_CAPITAL_LETTER_I_WITH_DIAERESIS
ENCODING 1252
SWIDTH 500 0
DWIDTH 8 0
BBX 7 12 0 4
BITMAP
C6
C6
00
C6
C6
DE
DE
E6
E6
C6
C6
C6
ENDCHAR
STARTCHAR CYRILLIC_SMALL_LETTER_I_WITH_DIAERESIS
ENCODING 1253
SWIDTH 500 0
DWIDTH 8 0
BBX 7 11 0 4
BITMAP
C6
C6
00
00
C6
C6
DE
F6
E6
C6
C6
ENDCHAR
STARTCHAR CYRILLIC_CAPITAL_LETTER_O_WITH_DIAERESIS
ENCODING 1254
SWIDTH 500 0
DWIDTH 8 0
BBX 7 12 0 4
BITMAP
C6
C6
00
78
38
C6
C6
C6
C6
C6
38
78
ENDCHAR
STARTCHAR CYRILLIC_SMALL_LETTER_O_WITH_DIAERESIS
ENCODING 1255
SWIDTH 500 0
DWIDTH 7 0
BBX 5 11 0 4
BITMAP
D8
D8
00
00
60
20
D8
D8
D8
20
60
ENDCHAR
STARTCHAR CYRILLIC_CAPITAL_LETTER_BARRED_O
ENCODING 1256
SWIDTH 500 0
DWIDTH 8 0
BBX 7 9 0 4
BITMAP
78
38
C6
C6
FE
FE
C6
38
78
ENDCHAR
STARTCHAR CYRILLIC_SMALL_LETTER_BARRED_O
ENCODING 1257
SWIDTH 500 0
DWIDTH 7 0
BBX 5 9 0 4
BITMAP
60
20
D8
D8
F8
F8
D8
20
60
ENDCHAR
STARTCHAR CYRILLIC_CAPITAL_LETTER_U_WITH_MACRON
ENCODING 1262
SWIDTH 500 0
DWIDTH 8 0
BBX 7 12 0 4
BITMAP
3E
7E
00
C6
C6
C6
C6
78
38
18
F0
E0
ENDCHAR
STARTCHAR CYRILLIC_SMALL_LETTER_U_WITH_MACRON
ENCODING 1263
SWIDTH 500 0
DWIDTH 7 0
BBX 5 13 0 2
BITMAP
F8
F8
00
00
D8
D8
D8
D8
D8
20
60
C0
C0
ENDCHAR
STARTCHAR CYRILLIC_CAPITAL_LETTER_U_WITH_DIAERESIS
ENCODING 1264
SWIDTH 500 0
DWIDTH 8 0
BBX 7 12 0 4
BITMAP
C6
C6
00
C6
C6
C6
C6
78
38
18
F0
E0
ENDCHAR
STARTCHAR CYRILLIC_SMALL_LETTER_U_WITH_DIAERESIS
ENCODING 1265
SWIDTH 500 0
DWIDTH 7 0
BBX 5 13 0 2
BITMAP
D8
D8
00
00
D8
D8
D8
D8
D8
20
60
C0
C0
ENDCHAR
STARTCHAR CYRILLIC_CAPITAL_LETTER_U_WITH_DOUBLE_ACUTE
ENCODING 1266
SWIDTH 500 0
DWIDTH 8 0
BBX 7 12 0 4
BITMAP
D8
D8
00
C6
C6
C6
C6
78
38
18
F0
E0
ENDCHAR
STARTCHAR CYRILLIC_SMALL_LETTER_U_WITH_DOUBLE_ACUTE
ENCODING 1267
SWIDTH 500 0
DWIDTH 8 0
BBX 7 14 0 2
BITMAP
26
66
D8
D8
00
D8
D8
D8
D8
D8
20
60
C0
C0
ENDCHAR
STARTCHAR CYRILLIC_CAPITAL_LETTER_CHE_WITH_DIAERESIS
ENCODING 1268
SWIDTH 500 0
DWIDTH 8 0
BBX 7 12 0 4
BITMAP
C6
C6
00
C6
C6
C6
C6
7E
3E
06
06
06
ENDCHAR
STARTCHAR CYRILLIC_SMALL_LETTER_CHE_WITH_DIAERESIS
ENCODING 1269
SWIDTH 500 0
DWIDTH 7 0
BBX 5 11 0 4
BITMAP
D8
D8
00
00
D8
D8
D8
F8
78
18
18
ENDCHAR
STARTCHAR CYRILLIC_CAPITAL_LETTER_GHE_WITH_DESCENDER
ENCODING 1270
SWIDTH 500 0
DWIDTH 7 0
BBX 5 11 0 2
BITMAP
F8
F8
C0
C0
C0
C0
C0
C0
C0
C0
C0
ENDCHAR
STARTCHAR CYRILLIC_SMALL_LETTER_GHE_WITH_DESCENDER
ENCODING 1271
SWIDTH 500 0
DWIDTH 7 0
BBX 5 9 0 2
BITMAP
F8
F8
C0
C0
C0
C0
C0
C0
C0
ENDCHAR
STARTCHAR CYRILLIC_CAPITAL_LETTER_YERU_WITH_DIAERESIS
ENCODING 1272
SWIDTH 500 0
DWIDTH 11 0
BBX 10 12 0 4
BITMAP
6300
2300
0000
C0C0
C0C0
C0C0
C0C0
F8C0
C6C0
C6C0
F8C0
F8C0
ENDCHAR
STARTCHAR CYRILLIC_SMALL_LETTER_YERU_WITH_DIAERESIS
ENCODING 1273
SWIDTH 500 0
DWIDTH 10 0
BBX 8 11 0 4
BITMAP
26
66
00
00
C3
C3
E3
DB
DB
E3
E3
ENDCHAR
STARTCHAR EN_DASH
ENCODING 8211
SWIDTH 500 0
DWIDTH 7 0
BBX 5 2 0 7
BITMAP
F8
F8
ENDCHAR
STARTCHAR EM_DASH
ENCODING 8212
SWIDTH 500 0
DWIDTH 10 0
BBX 8 2 0 7
BITMAP
FF
FF
ENDCHAR
STARTCHAR LEFT_SINGLE_QUOTATION_MARK
ENCODING 8216
SWIDTH 500 0
DWIDTH 3 0
BBX 2 4 0 11
BITMAP
C0
C0
C0
C0
ENDCHAR
STARTCHAR RIGHT_SINGLE_QUOTATION_MARK
ENCODING 8217
SWIDTH 500 0
DWIDTH 3 0
BBX 2 4 0 11
BITMAP
C0
C0
C0
C0
ENDCHAR
STARTCHAR LEFT_DOUBLE_QUOTATION_MARK
ENCODING 8220
SWIDTH 500 0
DWIDTH 7 0
BBX 5 4 0 11
BITMAP
D8
D8
D8
D8
ENDCHAR
STARTCHAR RIGHT_DOUBLE_QUOTATION_MARK
ENCODING 8221
SWIDTH 500 0
DWIDTH 7 0
BBX 5 4 0 11
BITMAP
D8
D8
D8
D8
ENDCHAR
STARTCHAR BULLET
ENCODING 8226
SWIDTH 500 0
DWIDTH 5 0
BBX 3 4 0 7
BITMAP
E0
E0
E0
E0
ENDCHAR
STARTCHAR HORIZONTAL_ELLIPSIS
ENCODING 8230
SWIDTH 500 0
DWIDTH 10 0
BBX 8 2 0 4
BITMAP
DB
DB
ENDCHAR
STARTCHAR EURO_SIGN
ENCODING 8364
SWIDTH 500 0
DWIDTH 8 0
BBX 7 9 0 4
BITMAP
78
38
C6
C6
E0
C6
C6
38
78
ENDCHAR
STARTCHAR LEFTWARDS_ARROW
ENCODING 8592
SWIDTH 500 0
DWIDTH 10 0
BBX 8 8 0 4
BITMAP
18
38
78
FF
FF
78
38
18
ENDCHAR
STARTCHAR UPWARDS_ARROW
ENCODING 8593
SWIDTH 500 0
DWIDTH 10 0
BBX 8 8 0 4
BITMAP
18
3C
7E
FF
FF
18
18
18
ENDCHAR
STARTCHAR RIGHTWARDS_ARROW
ENCODING 8594
SWIDTH 500 0
DWIDTH 10 0
BBX 8 8 0 4
BITMAP
18
1C
1E
FF
FF
1E
1C
18
ENDCHAR
STARTCHAR DOWNWARDS_ARROW
ENCODING 8595
SWIDTH 500 0
DWIDTH 10 0
BBX 8 8 0 4
BITMAP
18
18
18
FF
FF
7E
3C
18
ENDCHAR
ENDFONT
